<svg width="1920" height="1080" viewBox="0 0 1920 1080" fill="none" xmlns="http://www.w3.org/2000/svg">
<rect width="1920" height="1080" fill="#111312"/>
<path d="M1002 496L888 495.5C883.2 495.5 882.334 499.833 882.5 502V605C882.5 609 885.834 610.333 887.5 610.5C925.334 610.333 1001.7 610 1004.5 610C1007.3 610 1008.67 606.667 1009 605V501C1009 495.8 1004.33 495.5 1002 496Z" stroke="white" stroke-width="2"/>
<path d="M881.5 615.5L1047.5 616.5C1051.1 616.5 1051 612.167 1050.5 610C1050.17 572.833 1049.5 497.5 1049.5 493.5C1049.5 489.5 1044.83 488.833 1042.5 489C990.833 489.167 886.5 489.5 882.5 489.5C878.5 489.5 876.833 493.167 876.5 495C876.333 531.667 876 606.1 876 610.5C876 614.9 879.667 615.667 881.5 615.5Z" stroke="white" stroke-width="2"/>
<path d="M647.5 580.5C647.5 587.333 647.5 604.8 647.5 616C647.5 627.2 657.833 633.333 663 635C784.833 634.667 1031 633.9 1041 633.5C1051 633.1 1055.5 622.667 1056.5 617.5C1056.17 582.667 1055.5 508.9 1055.5 492.5C1055.5 476.1 1041.5 472 1034.5 472C917 472 678.4 472 664 472C649.6 472 647 487.667 647.5 495.5V527.5" stroke="white" stroke-width="3"/>
<path d="M802 576V602H828.5V576H802Z" stroke="white" stroke-width="2"/>
<path d="M829 580.5H832" stroke="white"/>
<path d="M829 583.5H832" stroke="white"/>
<path d="M829 586.5H832" stroke="white"/>
<path d="M848 584H851" stroke="white"/>
<path d="M848 589H851" stroke="white"/>
<path d="M848 594H851" stroke="white"/>
<path d="M861 584H864" stroke="white"/>
<path d="M861 589H864" stroke="white"/>
<path d="M861 594H864" stroke="white"/>
<path d="M813 534H820" stroke="white" stroke-width="2"/>
<path d="M829 534H836" stroke="white" stroke-width="2"/>
<path d="M813 540H820" stroke="white" stroke-width="2"/>
<path d="M813 547H820" stroke="white" stroke-width="2"/>
<path d="M829 511H836" stroke="white" stroke-width="2"/>
<path d="M829 517H836" stroke="white" stroke-width="2"/>
<path d="M829 524H836" stroke="white" stroke-width="2"/>
<path d="M715 506L715 513" stroke="white" stroke-width="2"/>
<path d="M722 506L722 513" stroke="white" stroke-width="2"/>
<path d="M708 506L708 513" stroke="white" stroke-width="2"/>
<path d="M701 506L701 513" stroke="white" stroke-width="2"/>
<path d="M829 547H836" stroke="white" stroke-width="2"/>
<path d="M812 511H819" stroke="white" stroke-width="2"/>
<path d="M812 524H819" stroke="white" stroke-width="2"/>
<path d="M829 589.5H832" stroke="white"/>
<path d="M829 592.5H832" stroke="white"/>
<path d="M829 595.5H832" stroke="white"/>
<path d="M829 598.5H832" stroke="white"/>
<path d="M806 576L806 573" stroke="white"/>
<path d="M809 576L809 573" stroke="white"/>
<path d="M812 576L812 573" stroke="white"/>
<path d="M815 576L815 573" stroke="white"/>
<path d="M818 576L818 573" stroke="white"/>
<path d="M821 576L821 573" stroke="white"/>
<path d="M824 576L824 573" stroke="white"/>
<path d="M806 605L806 602" stroke="white"/>
<path d="M809 605L809 602" stroke="white"/>
<path d="M812 605L812 602" stroke="white"/>
<path d="M815 605L815 602" stroke="white"/>
<path d="M818 605L818 602" stroke="white"/>
<path d="M821 605L821 602" stroke="white"/>
<path d="M824 605L824 602" stroke="white"/>
<path d="M802 598L799 598" stroke="white"/>
<path d="M802 595L799 595" stroke="white"/>
<path d="M802 592L799 592" stroke="white"/>
<path d="M802 589L799 589" stroke="white"/>
<path d="M802 586L799 586" stroke="white"/>
<path d="M802 583L799 583" stroke="white"/>
<path d="M802 580L799 580" stroke="white"/>
<circle cx="744" cy="626" r="3.5" stroke="white"/>
<circle cx="762" cy="626" r="3.5" stroke="white"/>
<circle cx="780" cy="626" r="3.5" stroke="white"/>
<circle cx="798" cy="626" r="3.5" stroke="white"/>
<circle cx="816" cy="626" r="3.5" stroke="white"/>
<circle cx="834" cy="626" r="3.5" stroke="white"/>
<circle cx="852" cy="626" r="3.5" stroke="white"/>
<circle cx="870" cy="626" r="3.5" stroke="white"/>
<circle cx="888" cy="626" r="3.5" stroke="white"/>
<circle cx="906" cy="626" r="3.5" stroke="white"/>
<circle cx="924" cy="626" r="3.5" stroke="white"/>
<circle cx="942" cy="626" r="3.5" stroke="white"/>
<circle cx="960" cy="626" r="3.5" stroke="white"/>
<circle cx="978" cy="626" r="3.5" stroke="white"/>
<circle cx="996" cy="626" r="3.5" stroke="white"/>
<circle cx="1014" cy="626" r="3.5" stroke="white"/>
<circle cx="812" cy="481" r="3.5" stroke="white"/>
<circle cx="830" cy="481" r="3.5" stroke="white"/>
<circle cx="848" cy="481" r="3.5" stroke="white"/>
<circle cx="866" cy="481" r="3.5" stroke="white"/>
<circle cx="884" cy="481" r="3.5" stroke="white"/>
<circle cx="902" cy="481" r="3.5" stroke="white"/>
<circle cx="920" cy="481" r="3.5" stroke="white"/>
<circle cx="938" cy="481" r="3.5" stroke="white"/>
<circle cx="956" cy="481" r="3.5" stroke="white"/>
<circle cx="974" cy="481" r="3.5" stroke="white"/>
<circle cx="992" cy="481" r="3.5" stroke="white"/>
<circle cx="1010" cy="481" r="3.5" stroke="white"/>
<path d="M709 576.5C706.2 576.9 705.833 580 706 581.5C705.833 583.667 705.5 588.5 705.5 590.5C705.5 593 707.5 594.5 709 595C710.5 595.5 727.5 595 730 594.5C732 594.1 732.833 592.333 733 591.5V581C733 577 730.5 577 728.5 576.5C726.5 576 712.5 576 709 576.5Z" stroke="white" stroke-width="2"/>
<path d="M718.5 580.5C712.9 580.5 711.5 583.5 711.5 585C711.5 590 713.5 590 719 590C724.5 590 726.5 588 726.5 585.5C726.5 583 725.5 580.5 718.5 580.5Z" stroke="white"/>
<path d="M708.5 530.375C705.7 530.775 705.333 533.875 705.5 535.375C705.333 537.542 705 542.375 705 544.375C705 546.875 707 548.375 708.5 548.875C710 549.375 727 548.875 729.5 548.375C731.5 547.975 732.333 546.208 732.5 545.375V534.875C732.5 530.875 730 530.875 728 530.375C726 529.875 712 529.875 708.5 530.375Z" stroke="white" stroke-width="2"/>
<path d="M718 534.375C712.4 534.375 711 537.375 711 538.875C711 543.875 713 543.875 718.5 543.875C724 543.875 726 541.875 726 539.375C726 536.875 725 534.375 718 534.375Z" stroke="white"/>
<path d="M819.5 530.5V549.5H829V530.5H819.5Z" stroke="white" stroke-width="2"/>
<path d="M828.5 527H819V508H828.5V527Z" stroke="white" stroke-width="2"/>
<path d="M691 476.5V505.5H732V476.5H691Z" stroke="white" stroke-width="2"/>
<path d="M851.5 581.5V596L860.5 595.5V581.5H851.5Z" stroke="white" stroke-width="2"/>
<path d="M742 478V514.5H797.5V478.5H792.5V475H747.5V478H742Z" stroke="white" stroke-width="2"/>
<path d="M753 485.5V506.5H758V502H760V485.5H753Z" stroke="white"/>
<path d="M786 486V506H781.714V501.714H780V486H786Z" stroke="white"/>
<path d="M676 576.5C676 580.1 672.667 580.667 671 580.5C661.333 580.333 641.7 580 640.5 580C639 580 638 582.5 637 582C636.2 581.6 636 578.833 636 577.5C636.167 560.833 636.5 527.3 636.5 526.5C636.5 525.5 638.5 524.5 639 525.5C639.4 526.3 642.167 527.167 643.5 527.5H671C674.6 527.5 675.833 530.833 676 532.5V576.5Z" stroke="white" stroke-width="2"/>
<path d="M676 540.5H683.5V526H674V528.5" stroke="white"/>
<path d="M676 566.5H683.5V581.5H674.5V579.5" stroke="white"/>
<path d="M676 544.5H682" stroke="white" stroke-width="2"/>
<path d="M676 549.5H682" stroke="white" stroke-width="2"/>
<path d="M676 554.5H682" stroke="white" stroke-width="2"/>
<path d="M676 559.5H682" stroke="white" stroke-width="2"/>
<path d="M676 563.5H682" stroke="white" stroke-width="2"/>
<path d="M649.5 540.5H646.5V533H650L651.5 534L657 534.5V539.5H652L649.5 540.5Z" stroke="white"/>
<path d="M649.5 574.5H646.5V567H650L651.5 568L657 568.5V573.5H652L649.5 574.5Z" stroke="white"/>
<circle cx="665" cy="491" r="10" stroke="white" stroke-width="2"/>
<circle cx="665" cy="616" r="10" stroke="white" stroke-width="2"/>
<path d="M564 264V198" stroke="white" stroke-width="2"/>
<path d="M547.019 170.119V198H581V170.119M547.019 170.119H581M547.019 170.119C546.729 167.746 549.633 163 563.574 163C577.515 163 581 167.746 581 170.119" stroke="white" stroke-width="2"/>
<path d="M558 198L549.529 222.327C549.353 222.581 549 225.14 549 233.351C549 241.561 549 256.538 549 263" stroke="white" stroke-width="2"/>
<path d="M571 198L579.471 222.327C579.647 222.581 580 225.14 580 233.351C580 241.561 580 256.538 580 263" stroke="white" stroke-width="2"/>
<path d="M543.667 262.5C543.667 265.446 546.055 267.833 549.001 267.833C551.946 267.833 554.334 265.446 554.334 262.5C554.334 259.554 551.946 257.167 549.001 257.167C546.055 257.167 543.667 259.554 543.667 262.5ZM590 361.5L590.666 360.754L590 361.5ZM793.001 426L793.653 425.242L793.001 426ZM806.667 481C806.667 483.946 809.055 486.333 812 486.333C814.946 486.333 817.334 483.946 817.334 481C817.334 478.054 814.946 475.667 812 475.667C809.055 475.667 806.667 478.054 806.667 481ZM548.008 262.382C546.23 277.368 550.273 296.707 557.86 315.055C565.452 333.414 576.652 350.931 589.334 362.246L590.666 360.754C578.273 349.697 567.223 332.464 559.709 314.291C552.19 296.108 548.272 277.132 549.994 262.618L548.008 262.382ZM589.334 362.246C602.235 373.755 619.2 381.591 637.877 387.369C656.557 393.149 677.022 396.892 696.963 400.174C716.931 403.461 736.346 406.281 753.037 410.216C769.749 414.156 783.543 419.176 792.348 426.758L793.653 425.242C784.458 417.324 770.252 412.219 753.495 408.269C736.717 404.313 717.194 401.477 697.288 398.201C677.354 394.92 657.006 391.195 638.468 385.459C619.926 379.722 603.265 371.995 590.666 360.754L589.334 362.246ZM792.348 426.758C804.029 436.817 808.586 447.15 810.289 456.528C811.144 461.234 811.284 465.721 811.228 469.852C811.172 473.926 810.917 477.803 811.001 481.026L813 480.974C812.917 477.78 813.169 474.128 813.228 469.879C813.285 465.687 813.145 461.056 812.257 456.171C810.476 446.366 805.7 435.615 793.653 425.242L792.348 426.758Z" fill="#3CDB4C"/>
<path d="M558.667 262C558.667 264.946 561.054 267.333 564 267.333C566.946 267.333 569.333 264.946 569.333 262C569.333 259.054 566.946 256.667 564 256.667C561.054 256.667 558.667 259.054 558.667 262ZM629.5 341L630.025 340.149L630.025 340.149L629.5 341ZM808.5 405L809.137 404.229L808.5 405ZM824.667 481C824.667 483.946 827.055 486.333 830 486.333C832.946 486.333 835.334 483.946 835.334 481C835.334 478.054 832.946 475.667 830 475.667C827.055 475.667 824.667 478.054 824.667 481ZM563.002 261.942C562.655 267.883 564.436 274.483 567.787 281.336C571.142 288.198 576.1 295.376 582.193 302.5C594.377 316.745 611.167 330.852 628.974 341.851L630.025 340.149C612.373 329.246 595.747 315.27 583.713 301.2C577.696 294.165 572.845 287.127 569.584 280.457C566.319 273.78 564.679 267.534 564.998 262.058L563.002 261.942ZM628.974 341.851C637.603 347.18 650.621 351.736 665.824 356.097C681.042 360.462 698.581 364.665 716.266 369.246C733.971 373.833 751.849 378.804 767.828 384.72C783.819 390.639 797.836 397.479 807.863 405.771L809.137 404.229C798.854 395.725 784.59 388.792 768.522 382.844C752.443 376.892 734.484 371.9 716.767 367.31C699.03 362.715 681.561 358.53 666.376 354.174C651.175 349.815 638.396 345.32 630.025 340.149L628.974 341.851ZM807.863 405.771C820.585 416.291 825.817 431.791 827.885 446.39C829.959 461.031 828.83 474.456 829.001 481.026L831 480.974C830.837 474.711 831.958 460.886 829.865 446.11C827.766 431.292 822.415 415.209 809.137 404.229L807.863 405.771Z" fill="#3CDB4C"/>
<path d="M574.167 262C574.167 264.946 576.554 267.333 579.5 267.333C582.446 267.333 584.833 264.946 584.833 262C584.833 259.054 582.446 256.667 579.5 256.667C576.554 256.667 574.167 259.054 574.167 262ZM771 349L771.236 348.028L771 349ZM881.5 415.5L880.575 415.881L881.5 415.5ZM879.167 481C879.167 483.946 881.554 486.333 884.5 486.333C887.445 486.333 889.833 483.946 889.833 481C889.833 478.054 887.445 475.667 884.5 475.667C881.554 475.667 879.167 478.054 879.167 481ZM578.501 262.044C579.271 279.489 590.185 293.26 606.268 304.173C622.349 315.086 643.74 323.248 665.815 329.468C687.902 335.692 710.743 339.991 729.761 343.149C748.838 346.317 763.951 348.32 770.764 349.972L771.236 348.028C764.33 346.354 749.022 344.32 730.089 341.176C711.097 338.023 688.34 333.738 666.357 327.543C644.361 321.345 623.21 313.254 607.391 302.518C591.572 291.784 581.229 278.511 580.499 261.956L578.501 262.044ZM770.764 349.972C787.209 353.959 811.073 361.618 832.644 372.727C854.264 383.861 873.355 398.347 880.575 415.881L882.424 415.119C874.917 396.887 855.258 382.123 833.56 370.949C811.813 359.749 787.791 352.041 771.236 348.028L770.764 349.972ZM880.575 415.881C885.745 428.436 886.414 441.434 885.814 452.948C885.513 458.705 884.897 464.071 884.373 468.828C883.852 473.558 883.415 477.736 883.5 481.026L885.5 480.974C885.418 477.848 885.836 473.817 886.361 469.047C886.884 464.304 887.507 458.878 887.811 453.052C888.419 441.4 887.755 428.064 882.424 415.119L880.575 415.881Z" fill="#3CDB4C"/>
<path d="M884.65 928.062L884.501 929.051L884.65 928.062ZM778.973 851.508L779.901 851.136L778.973 851.508ZM743.413 661.863L744.413 661.831L744.413 661.831L743.413 661.863ZM739.583 625.326C739.583 628.271 741.97 630.659 744.916 630.659C747.861 630.659 750.249 628.271 750.249 625.326C750.249 622.38 747.861 619.992 744.916 619.992C741.97 619.992 739.583 622.38 739.583 625.326ZM940.252 873.809C940.918 879.448 941.732 892.785 939.77 901.305L941.719 901.754C943.763 892.875 942.908 879.244 942.238 873.574L940.252 873.809ZM939.77 901.305C937.387 911.649 921.867 932.653 884.799 927.073L884.501 929.051C922.56 934.78 939.092 913.158 941.719 901.754L939.77 901.305ZM884.799 927.073C866.6 924.334 844.327 915.267 824.603 901.889C804.874 888.508 787.814 870.893 779.901 851.136L778.045 851.88C786.159 872.14 803.564 890.036 823.48 903.545C843.402 917.057 865.953 926.259 884.501 929.051L884.799 927.073ZM779.901 851.136C771.816 830.948 763.316 795.583 756.646 759.232C749.979 722.893 745.162 685.682 744.413 661.831L742.414 661.894C743.167 685.89 748.005 723.214 754.679 759.593C761.352 795.96 769.88 831.494 778.045 851.88L779.901 851.136ZM744.413 661.831C743.812 642.691 743.939 632.667 744.335 627.91C744.434 626.722 744.547 625.892 744.662 625.342C744.72 625.067 744.773 624.887 744.815 624.779C744.866 624.645 744.868 624.704 744.765 624.799C744.701 624.857 744.577 624.947 744.39 624.984C744.193 625.023 744.015 624.986 743.884 624.926C743.676 624.83 743.617 624.692 743.66 624.763C743.721 624.863 743.828 625.126 743.949 625.582L745.882 625.069C745.753 624.583 745.588 624.084 745.369 623.724C745.272 623.564 745.071 623.271 744.721 623.109C744.519 623.016 744.269 622.969 744.002 623.022C743.744 623.073 743.548 623.201 743.414 623.324C743.17 623.548 743.033 623.841 742.948 624.061C742.854 624.306 742.774 624.599 742.705 624.932C742.565 625.598 742.443 626.521 742.342 627.744C741.936 632.628 741.813 642.758 742.414 661.894L744.413 661.831Z" fill="#3CDB4C"/>
<path d="M917.686 890.687L916.919 890.045L916.919 890.045L917.686 890.687ZM869.906 888.069L869.316 888.876L869.316 888.876L869.906 888.069ZM824.501 785L825.489 784.851L824.501 785ZM810.821 625C810.821 627.946 813.208 630.333 816.154 630.333C819.099 630.333 821.487 627.946 821.487 625C821.487 622.054 819.099 619.667 816.154 619.667C813.208 619.667 810.821 622.054 810.821 625ZM920.67 874.182C920.842 876.525 921.198 878.875 920.862 881.508C920.533 884.083 919.532 886.922 916.919 890.045L918.453 891.328C921.314 887.908 922.469 884.711 922.846 881.761C923.215 878.867 922.824 876.201 922.664 874.035L920.67 874.182ZM916.919 890.045C909.061 899.437 891.349 902.516 870.497 887.262L869.316 888.876C890.651 904.484 909.661 901.837 918.453 891.328L916.919 890.045ZM870.497 887.262C862.091 881.113 853.691 874.125 845.965 859.429C838.217 844.689 831.124 822.145 825.489 784.851L823.512 785.149C829.162 822.544 836.298 845.337 844.195 860.36C852.115 875.426 860.775 882.629 869.316 888.876L870.497 887.262ZM825.489 784.851C815.003 715.444 817.154 638.125 817.154 625H815.154C815.154 638.051 812.997 715.556 823.512 785.149L825.489 784.851Z" fill="#3CDB4C"/>
<circle cx="932.5" cy="809.5" r="54" stroke="white" stroke-width="3"/>
<path d="M931.5 839C920.303 834.204 898.528 820.816 899.008 801.633C899.608 777.653 924.001 777.01 930 789" stroke="white" stroke-width="2" stroke-linecap="round"/>
<path d="M932 839C943.558 834.285 967.488 821.141 966.992 802.283C966.373 778.71 942.225 777.531 936.033 789.318L933.524 794.429L930 789.102" stroke="white" stroke-width="2" stroke-linecap="round"/>
<circle cx="933" cy="811" r="3" fill="white"/>
<path d="M915.5 861V874H949V861" stroke="white" stroke-width="2"/>
<path d="M1254 267V181" stroke="white" stroke-width="2"/>
<path d="M1271 267V181" stroke="white" stroke-width="2"/>
<path d="M1243 163V171C1243 177.627 1251.18 183 1262.5 183C1273.82 183 1282 177.627 1282 171V163" stroke="white" stroke-width="2"/>
<path d="M1282 163C1282 165.812 1280.05 168.541 1276.49 170.622C1272.96 172.689 1268.02 174 1262.5 174C1256.98 174 1252.04 172.689 1248.51 170.622C1244.95 168.541 1243 165.812 1243 163C1243 160.188 1244.95 157.459 1248.51 155.378C1252.04 153.311 1256.98 152 1262.5 152C1268.02 152 1272.96 153.311 1276.49 155.378C1280.05 157.459 1282 160.188 1282 163Z" stroke="white" stroke-width="2"/>
<path d="M1243 162.872C1243.84 162.612 1245.74 162.247 1246.55 162.872C1247.56 163.653 1250.6 169.508 1251.11 166.385C1251.61 163.262 1252.63 155.064 1253.13 158.968C1253.64 162.872 1257.69 171.85 1257.69 167.556C1257.69 163.262 1261.75 153.112 1261.75 158.578C1261.75 164.043 1267.32 171.85 1267.32 167.947C1267.32 164.043 1268.84 154.674 1269.85 158.578C1270.87 162.481 1274.92 167.556 1274.92 164.043C1274.92 161.232 1278.97 161.31 1281 161.701" stroke="white"/>
<path d="M1248.67 263C1248.67 265.946 1251.05 268.333 1254 268.333C1256.95 268.333 1259.33 265.946 1259.33 263C1259.33 260.054 1256.95 257.667 1254 257.667C1251.05 257.667 1248.67 260.054 1248.67 263ZM1242.5 309L1241.77 308.312L1242.5 309ZM1104 319L1103.96 319.999L1104 319ZM990.5 375.5L991.432 375.863L990.5 375.5ZM968.667 480.5C968.667 483.446 971.054 485.833 974 485.833C976.946 485.833 979.333 483.446 979.333 480.5C979.333 477.554 976.946 475.167 974 475.167C971.054 475.167 968.667 477.554 968.667 480.5ZM1253 263.052C1253.25 267.799 1252.84 276.63 1251.14 285.554C1249.44 294.525 1246.48 303.356 1241.77 308.312L1243.23 309.688C1248.35 304.286 1251.39 294.951 1253.1 285.928C1254.83 276.858 1255.25 267.867 1255 262.948L1253 263.052ZM1241.77 308.312C1237.39 312.936 1228.99 316.051 1218.01 318.016C1207.09 319.97 1193.84 320.75 1179.99 320.875C1152.27 321.125 1122.35 318.753 1104.04 318.001L1103.96 319.999C1122.15 320.747 1152.23 323.125 1180.01 322.875C1193.91 322.75 1207.28 321.968 1218.36 319.984C1229.39 318.011 1238.36 314.814 1243.23 309.688L1241.77 308.312ZM1104.04 318.001C1082.5 317.116 1056.84 323.925 1035.13 334.633C1024.26 339.991 1014.36 346.341 1006.43 353.225C998.517 360.101 992.524 367.556 989.568 375.137L991.432 375.863C994.226 368.694 999.964 361.493 1007.74 354.735C1015.51 347.986 1025.27 341.726 1036.01 336.427C1057.51 325.822 1082.84 319.131 1103.96 319.999L1104.04 318.001ZM989.568 375.137C973.419 416.563 974.499 444.505 973.001 480.458L974.999 480.542C976.501 444.495 975.427 416.918 991.432 375.863L989.568 375.137Z" fill="#3CDB4C"/>
<path d="M1265.67 264.5C1265.67 267.446 1268.05 269.833 1271 269.833C1273.95 269.833 1276.33 267.446 1276.33 264.5C1276.33 261.554 1273.95 259.167 1271 259.167C1268.05 259.167 1265.67 261.554 1265.67 264.5ZM1249.5 329L1248.98 328.148L1249.5 329ZM1042 415.5L1041.29 414.793L1041.29 414.793L1042 415.5ZM1003.67 481.5C1003.67 484.446 1006.05 486.833 1009 486.833C1011.95 486.833 1014.33 484.446 1014.33 481.5C1014.33 478.554 1011.95 476.167 1009 476.167C1006.05 476.167 1003.67 478.554 1003.67 481.5ZM1270 264.491C1269.92 273.35 1269.97 286.033 1267.36 298.164C1264.74 310.301 1259.5 321.689 1248.98 328.148L1250.02 329.852C1261.23 322.977 1266.65 310.948 1269.31 298.585C1271.98 286.217 1271.92 273.317 1272 264.509L1270 264.491ZM1248.98 328.148C1243.61 331.442 1234.99 334.48 1224.6 337.312C1214.23 340.137 1202.19 342.733 1190.03 345.174C1165.76 350.045 1140.89 354.315 1128.18 358.551L1128.82 360.449C1141.37 356.265 1166 352.035 1190.42 347.135C1202.59 344.692 1214.69 342.085 1225.13 339.242C1235.54 336.405 1244.39 333.308 1250.02 329.852L1248.98 328.148ZM1128.18 358.551C1094.99 369.616 1061.36 394.725 1041.29 414.793L1042.71 416.207C1062.64 396.275 1096.01 371.384 1128.82 360.449L1128.18 358.551ZM1041.29 414.793C1011.76 444.329 1007.48 472.756 1008 481.559L1010 481.441C1009.52 473.244 1013.55 445.365 1042.71 416.207L1041.29 414.793Z" fill="#3CDB4C"/>
<path d="M1319 141V179.883" stroke="white" stroke-width="3" stroke-linecap="round"/>
<path d="M1319 180.34C1325.17 180.34 1332.23 178.631 1338.21 180.34" stroke="white" stroke-width="3" stroke-linecap="round"/>
<path d="M1345.07 168.447C1345.07 172.414 1345.53 184.307 1345.53 180.34" stroke="white" stroke-width="3" stroke-linecap="round"/>
<path d="M1345.53 156.095V156.553" stroke="white" stroke-width="3" stroke-linecap="round"/>
<path d="M1359.25 168.447C1355.98 167.99 1355.1 169.457 1354.78 172.564C1354.54 174.941 1354.28 178.067 1355.39 180.289C1356.22 181.938 1358.08 182.388 1359.74 181.89C1360.81 181.569 1362.46 179.671 1362.46 180.797" stroke="white" stroke-width="3" stroke-linecap="round"/>
<path d="M1361.08 170.276C1361.45 179.351 1364.17 188.07 1364.85 197.113C1365.07 200.107 1366.79 207.033 1363.09 208.676C1359.35 210.341 1356.66 206.822 1355.37 203.67C1354.46 201.446 1352.97 198.237 1356.05 197.723" stroke="white" stroke-width="3" stroke-linecap="round"/>
<path d="M1370.23 151.521C1370.44 160.672 1371.61 169.821 1371.61 178.968C1371.61 182.334 1371.7 176.076 1372.29 174.902C1373.29 172.911 1375.93 168.811 1377.53 172.614C1378.62 175.214 1379.38 179.325 1379.38 182.17" stroke="white" stroke-width="3" stroke-linecap="round"/>
<path d="M1388.07 151.064C1388.34 160.364 1389.65 169.559 1390.34 178.79C1390.42 179.962 1390.83 182.67 1389.9 180.34" stroke="white" stroke-width="3" stroke-linecap="round"/>
<path d="M1385.33 166.617C1388.97 166.617 1392.22 164.976 1395.85 165.702" stroke="white" stroke-width="3" stroke-linecap="round"/>
<path d="M1427.61 169.432C1425.02 167.127 1420.16 168.559 1420.16 172.262C1420.16 176.019 1423.71 174.639 1426.5 175.16C1430.74 175.948 1432.22 179.03 1428.47 182.199C1427.53 182.998 1425.5 184.344 1424.16 183.614C1423.27 183.132 1421.44 180.572 1422.02 179.991" stroke="white" stroke-width="3" stroke-linecap="round"/>
<path d="M1436.93 174.401C1440.13 175.06 1444.8 170.92 1441.89 167.845C1440.6 166.473 1437.83 165.426 1436.93 167.914C1435.63 171.487 1433.03 175.462 1435.68 179.059C1438.45 182.821 1441.14 181.683 1444.38 179.37" stroke="white" stroke-width="3" stroke-linecap="round"/>
<path d="M1448.11 168.19C1448.16 172.55 1448.62 176.88 1448.73 181.233C1448.77 183.089 1448.73 180.872 1448.73 180.336C1448.73 177.455 1449.17 172.993 1451.35 170.812C1455.47 166.695 1455.56 179.67 1455.56 182.475" stroke="white" stroke-width="3" stroke-linecap="round"/>
<path d="M1466.12 169.432C1463.43 169.066 1461.05 169.091 1459.91 171.916C1459.61 172.659 1458.14 175.286 1459.6 175.609C1463.26 176.422 1466.53 174.974 1469.22 178.611C1472.86 183.527 1457.26 186.141 1461.77 179.37" stroke="white" stroke-width="3" stroke-linecap="round"/>
<path d="M1480.4 170.674C1476.17 166.911 1469.51 181.518 1479.09 183.648C1483.5 184.628 1486.55 178.014 1484.89 174.573C1482.96 170.593 1479.93 167.391 1476.68 171.295" stroke="white" stroke-width="3" stroke-linecap="round"/>
<path d="M1492.69 169.432C1492.69 173.213 1493.69 176.737 1493.93 180.474C1494.1 183.109 1494.28 175.182 1494.86 172.606C1495.48 169.896 1496.33 167.336 1499.52 166.982C1501.34 166.78 1503.25 166.582 1503.25 168.811" stroke="white" stroke-width="3" stroke-linecap="round"/>
<path d="M1174.45 807.023C1171.86 804.718 1167 806.15 1167 809.852C1167 813.609 1170.55 812.23 1173.35 812.751C1177.58 813.539 1179.06 816.621 1175.32 819.79C1174.37 820.588 1172.34 821.935 1171 821.205C1170.12 820.723 1168.28 818.162 1168.86 817.582" stroke="white" stroke-width="3" stroke-linecap="round"/>
<path d="M1183.77 811.992C1186.97 812.651 1191.64 808.511 1188.74 805.436C1187.44 804.063 1184.67 803.016 1183.77 805.505C1182.47 809.078 1179.88 813.053 1182.53 816.65C1185.3 820.412 1187.98 819.274 1191.22 816.961" stroke="white" stroke-width="3" stroke-linecap="round"/>
<path d="M1194.95 805.781C1195.01 810.141 1195.47 814.471 1195.57 818.824C1195.62 820.68 1195.57 818.463 1195.57 817.927C1195.57 815.046 1196.01 810.583 1198.19 808.403C1202.31 804.286 1202.4 817.26 1202.4 820.066" stroke="white" stroke-width="3" stroke-linecap="round"/>
<path d="M1212.96 807.023C1210.28 806.657 1207.89 806.682 1206.75 809.507C1206.45 810.249 1204.99 812.877 1206.44 813.199C1210.1 814.013 1213.37 812.565 1216.07 816.201C1219.71 821.118 1204.1 823.732 1208.61 816.961" stroke="white" stroke-width="3" stroke-linecap="round"/>
<path d="M1227.25 808.265C1223.01 804.502 1216.35 819.109 1225.94 821.239C1230.35 822.219 1233.4 815.605 1231.73 812.164C1229.81 808.183 1226.77 804.982 1223.52 808.886" stroke="white" stroke-width="3" stroke-linecap="round"/>
<path d="M1239.53 807.023C1239.53 810.804 1240.53 814.328 1240.78 818.065C1240.95 820.7 1241.12 812.772 1241.71 810.197C1242.32 807.487 1243.17 804.927 1246.37 804.573C1248.19 804.371 1250.09 804.173 1250.09 806.402" stroke="white" stroke-width="3" stroke-linecap="round"/>
<path d="M1021.74 786.255C1018.79 784.965 1020.46 806.054 1020.54 807.897C1020.77 813.516 1020.66 819.152 1020.66 824.776" stroke="white" stroke-width="3" stroke-linecap="round"/>
<path d="M1021.2 809.042C1025.74 809.042 1030.26 808.5 1034.76 808.5" stroke="white" stroke-width="3" stroke-linecap="round"/>
<path d="M1036.93 783C1036.93 796.031 1036.39 809.035 1036.39 822.063" stroke="white" stroke-width="3" stroke-linecap="round"/>
<path d="M1047.24 817.723C1048.85 820.577 1053.31 815.035 1052.43 813.262C1050.74 809.897 1046.14 812.267 1045.74 815.131C1045.34 817.947 1045.44 826.16 1050.62 824.655C1052.73 824.042 1054.17 821.855 1055.92 820.978" stroke="white" stroke-width="3" stroke-linecap="round"/>
<path d="M1068.4 811.212C1063.49 806.849 1059.31 815.038 1061.77 819.35C1064.37 823.898 1068.32 818.416 1068.82 815.552C1069.08 814.097 1068.94 812.537 1068.94 811.061C1068.94 809.846 1068.94 813.493 1068.94 814.709C1068.94 815.812 1069.5 823.666 1070.03 822.606" stroke="white" stroke-width="3" stroke-linecap="round"/>
<path d="M1076 810.67C1076 806.922 1076 818.165 1076 821.912C1076 824.495 1076.19 817.575 1076.27 816.969C1076.42 815.695 1075.94 810.208 1078.05 810.127C1079.53 810.07 1080.88 810.804 1080.88 812.297" stroke="white" stroke-width="3" stroke-linecap="round"/>
<path d="M1087.93 795.393C1088.6 803.876 1089.02 812.383 1089.02 820.893" stroke="white" stroke-width="3" stroke-linecap="round"/>
<path d="M1085.76 808.414C1088.19 808.414 1090.42 808.24 1092.82 807.872" stroke="white" stroke-width="3" stroke-linecap="round"/>
<path d="M1100.41 794.851C1100.41 802.205 1100.41 809.56 1100.41 816.914C1100.41 818.039 1100.95 820.896 1099.87 821.435" stroke="white" stroke-width="3" stroke-linecap="round"/>
<path d="M1102.04 813.297C1102.11 811.666 1102.68 811.471 1104.21 811.67C1107.77 812.134 1108.74 814.875 1108.52 817.909C1108.31 820.697 1101.83 826.353 1100.95 821.978" stroke="white" stroke-width="3" stroke-linecap="round"/>
<path d="M1116.15 817.095C1118.18 816.364 1121.66 812.372 1120.37 810.042C1119.28 808.09 1116.01 810.434 1115.63 811.7C1115.04 813.68 1114.18 819.622 1117.02 820.29C1118.68 820.68 1121.51 820.549 1122.11 818.723" stroke="white" stroke-width="3" stroke-linecap="round"/>
<path d="M1131.34 811.127C1128.44 811.918 1128.47 813.47 1128.2 816.372C1128.09 817.584 1127.57 819.461 1128.93 820.079C1131.89 821.425 1132.94 817.991 1133.51 815.769C1134.01 813.781 1134.05 809.957 1134.05 814.171C1134.05 815.309 1133.91 822.723 1135.14 820.893" stroke="white" stroke-width="3" stroke-linecap="round"/>
<path d="M1140.56 794.308C1141.56 801.836 1142.19 809.496 1142.19 817.095C1142.19 818.136 1141.76 819.863 1142.73 820.35" stroke="white" stroke-width="3" stroke-linecap="round"/>
<path d="M1138.39 806.787C1141.22 806.787 1148.84 806.888 1149.78 804.074" stroke="white" stroke-width="3" stroke-linecap="round"/>
<path d="M799.453 183.023C796.86 180.718 792 182.15 792 185.852C792 189.609 795.55 188.23 798.349 188.751C802.584 189.539 804.062 192.621 800.316 195.79C799.373 196.588 797.341 197.935 796.003 197.205C795.119 196.723 793.283 194.162 793.863 193.582" stroke="white" stroke-width="3" stroke-linecap="round"/>
<path d="M808.77 187.992C811.971 188.651 816.644 184.511 813.739 181.436C812.443 180.063 809.675 179.016 808.77 181.505C807.471 185.078 804.878 189.053 807.528 192.65C810.3 196.412 812.985 195.274 816.224 192.961" stroke="white" stroke-width="3" stroke-linecap="round"/>
<path d="M819.95 181.781C820.008 186.141 820.468 190.471 820.571 194.824C820.615 196.68 820.571 194.463 820.571 193.927C820.571 191.046 821.013 186.583 823.194 184.403C827.311 180.286 827.404 193.26 827.404 196.066" stroke="white" stroke-width="3" stroke-linecap="round"/>
<path d="M837.962 183.023C835.276 182.657 832.892 182.682 831.751 185.507C831.451 186.249 829.987 188.877 831.44 189.199C835.1 190.013 838.374 188.565 841.067 192.201C844.71 197.118 829.1 199.732 833.614 192.961" stroke="white" stroke-width="3" stroke-linecap="round"/>
<path d="M852.248 184.265C848.015 180.502 841.35 195.109 850.937 197.239C855.346 198.219 858.399 191.605 856.734 188.164C854.807 184.183 851.774 180.982 848.521 184.886" stroke="white" stroke-width="3" stroke-linecap="round"/>
<path d="M864.533 183.023C864.533 186.804 865.534 190.328 865.775 194.065C865.945 196.7 866.122 188.772 866.707 186.197C867.323 183.487 868.175 180.927 871.365 180.573C873.185 180.371 875.092 180.173 875.092 182.402" stroke="white" stroke-width="3" stroke-linecap="round"/>
<path d="M628 196C628 182.667 628 169.336 628 156" stroke="white" stroke-width="3" stroke-linecap="round"/>
<path d="M615 155C624.365 155 633.656 154 643 154" stroke="white" stroke-width="3" stroke-linecap="round"/>
<path d="M636 189.807C637.331 190.357 637.951 190.838 639.422 190.317C640.565 189.913 643.644 189.005 643.978 187.282C644.532 184.417 638.725 184.485 637.667 186.186C633.542 192.813 640.408 200.451 646 195.316" stroke="white" stroke-width="3" stroke-linecap="round"/>
<path d="M652 187.739C652.459 189.241 652.44 190.431 652.44 192.034C652.44 194.252 651.535 200.474 652.782 198.679C653.312 197.918 653.043 195.814 653.32 194.845C653.802 193.152 654.085 191.309 654.737 189.682C654.926 189.209 656.927 185.322 657.718 186.104C659.412 187.777 659.038 191.95 659.038 194.13C659.038 194.742 658.856 198.029 659.062 195.765C659.284 193.33 660.86 189.979 662.141 187.969C663.654 185.596 664.996 189.558 665.147 190.704C665.314 191.973 666.621 197.346 665.635 197.861" stroke="white" stroke-width="3" stroke-linecap="round"/>
<path d="M673 187C673.036 189.186 673.447 213 674 213" stroke="white" stroke-width="3" stroke-linecap="round"/>
<path d="M673 190.179C673.288 187.446 676.845 186.781 678.954 187.058C681.478 187.39 683.163 191.143 682.988 193.632C682.671 198.133 675.617 197.537 673.437 195.243" stroke="white" stroke-width="3" stroke-linecap="round"/>
<path d="M687 191.103C688.594 191 692.051 190.856 692.673 188.582C693.021 187.311 692.361 186.099 691.209 186.009C688.941 185.831 687.891 188.402 687.824 190.743C687.665 196.257 689.375 198.279 694 196.198" stroke="white" stroke-width="3" stroke-linecap="round"/>
<path d="M701 186.052C701 189.568 701 193.085 701 196.601C701 198.585 701.249 192.624 701.681 190.692C702.144 188.62 703.704 186.58 705.764 186.102C706.948 185.828 708 186.053 708 187.421" stroke="white" stroke-width="3" stroke-linecap="round"/>
<path d="M717.005 186.245C714.83 185.001 713.498 184.558 712.596 187.669C712.129 189.281 711.66 192.46 712.346 194.077C714.416 198.95 717.091 193.364 717.941 190.491C718.443 188.792 718.503 187.085 718.503 185.295C718.503 183.859 718.746 188.105 718.794 188.618C719.046 191.335 719.07 193.381 720 195.739" stroke="white" stroke-width="3" stroke-linecap="round"/>
<path d="M729 172C729.11 178.654 729.667 185.292 729.667 191.947C729.667 192.977 729.302 195.497 730 196" stroke="white" stroke-width="3" stroke-linecap="round"/>
<path d="M725 184C727.805 183.886 731.26 182.495 734 183.197" stroke="white" stroke-width="3" stroke-linecap="round"/>
<path d="M740.443 186.037C739.726 185.4 740.087 189.879 740.117 190.299C740.23 191.929 740.039 196.091 742.216 195.998C744.556 195.899 746.339 190.447 746.647 188.251C746.831 186.94 746.741 182.938 746.741 184.267C746.741 185.785 746.874 187.19 747.067 188.694C747.363 190.993 747.172 194.034 748 195.998" stroke="white" stroke-width="3" stroke-linecap="round"/>
<path d="M752 184C752.439 187.118 753.085 190.18 753.583 193.283C753.686 193.925 753.652 194.397 753.652 193.517C753.652 191.346 753.259 188.754 754.478 186.912C755.61 185.202 757.43 184.576 759.229 185.196C760.004 185.464 762.108 187.276 760.261 187.276" stroke="white" stroke-width="3" stroke-linecap="round"/>
<path d="M768.704 191.646C770.833 191.646 772.605 189.583 772.778 186.887C772.859 185.616 771.6 185.093 770.741 185.009C769.348 184.874 768.568 186.223 767.979 187.574C766.725 190.451 766.162 195.674 769.519 196.669C770.663 197.008 774 197.572 774 195.453" stroke="white" stroke-width="3" stroke-linecap="round"/>
<path d="M1086 539C1086.09 547.45 1086.5 555.87 1086.5 564.326C1086.5 565.511 1086.56 573.52 1087 572.973" stroke="white" stroke-width="3" stroke-linecap="round"/>
<path d="M1086 540C1090.27 545.404 1092.6 552.68 1096.98 558.215C1098.02 559.543 1100.42 553.796 1100.67 553.241C1102.37 549.46 1104.98 546.315 1107 542.778C1108.28 540.539 1108.71 541.536 1109.04 543.705C1109.64 547.657 1109.73 551.787 1109.78 555.779C1109.82 559.655 1110.39 563.464 1110.39 567.373C1110.39 567.972 1110.15 571.735 1111 570.872" stroke="white" stroke-width="3" stroke-linecap="round"/>
<path d="M1120.28 563C1120.28 564.819 1118.97 570.942 1122 572" stroke="white" stroke-width="3" stroke-linecap="round"/>
<path d="M1136.76 560C1125.16 560 1130.45 578.782 1138 571.195" stroke="white" stroke-width="3" stroke-linecap="round"/>
<path d="M1145 561C1145 564.905 1146.2 568.717 1146.2 572.527C1146.2 574.874 1146.56 567.841 1146.93 565.527C1147.69 560.907 1150.31 561.627 1154 561.627" stroke="white" stroke-width="3" stroke-linecap="round"/>
<path d="M1166.64 558C1159.01 558.292 1161.23 577.314 1170.1 568.816C1172.18 566.823 1172.46 563.958 1171.39 561.298C1169.77 557.266 1166.64 558.004 1163.66 559.781" stroke="white" stroke-width="3" stroke-linecap="round"/>
<path d="M1185.44 558C1181.64 559.223 1179.59 560.548 1179.06 564.43C1178.82 566.202 1179.19 568.773 1181.24 569.54C1184.82 570.88 1187.27 569.053 1190 567.137" stroke="white" stroke-width="3" stroke-linecap="round"/>
<path d="M1201.61 557.376C1193.04 555.373 1194.55 575.446 1204.36 568.552C1210.31 564.376 1205.27 551.873 1198.43 557.376" stroke="white" stroke-width="3" stroke-linecap="round"/>
<path d="M1213 558.248C1213.36 581.665 1214.45 555.106 1219.91 557.109C1222.25 557.967 1224.69 562.536 1224.93 564.912C1225.07 566.294 1224.96 571.724 1224.96 567.289" stroke="white" stroke-width="3" stroke-linecap="round"/>
<path d="M1235 542C1235.11 549.903 1235.68 557.764 1236.3 565.638C1236.42 567.262 1236.01 568.638 1237 570" stroke="white" stroke-width="3" stroke-linecap="round"/>
<path d="M1231 558H1240" stroke="white" stroke-width="3" stroke-linecap="round"/>
<path d="M1246.08 558C1245.71 561.421 1246.69 571.749 1246.69 568.307C1246.69 566.4 1246.3 564.088 1246.83 562.263C1247.65 559.416 1251.43 556.862 1254 558.629" stroke="white" stroke-width="3" stroke-linecap="round"/>
<path d="M1266.75 558.176C1256.58 558.176 1265.03 576.865 1270.97 567.251C1274.07 562.219 1269.7 555.674 1264.13 558.824" stroke="white" stroke-width="3" stroke-linecap="round"/>
<path d="M1280 542C1278.55 551.612 1279.1 561.343 1279.1 571" stroke="white" stroke-width="3" stroke-linecap="round"/>
<path d="M1289.22 543C1288.67 551.67 1289.23 560.418 1290 569" stroke="white" stroke-width="3" stroke-linecap="round"/>
<path d="M1298 563.893C1300.31 563.893 1304.67 563.446 1304.67 560.659C1304.67 559.164 1302.28 557.855 1300.67 558.013C1298.09 558.266 1298.6 563.174 1298.7 564.514C1299.11 569.477 1303.96 569.79 1308 568.009" stroke="white" stroke-width="3" stroke-linecap="round"/>
<path d="M1313 556C1314.04 559.721 1314.62 563.498 1315.42 567.273C1315.75 568.789 1316.21 569.881 1316.21 568.014C1316.21 565.224 1316.9 562.401 1317.81 559.782C1319.82 553.969 1326.85 559.068 1324.54 560.672" stroke="white" stroke-width="3" stroke-linecap="round"/>
</svg>
