<svg width="1920" height="1080" viewBox="0 0 1920 1080" fill="none" xmlns="http://www.w3.org/2000/svg">
<rect width="1920" height="1080" fill="#111312"/>
<path d="M669.949 234.918C663.857 233.007 655.676 230.558 653.694 238.486C651.615 246.802 665.493 246.28 670.246 250.083C675.444 254.241 679.066 262.566 673.715 267.725C666.317 274.859 659.932 270.298 653 266.139" stroke="white" stroke-width="3" stroke-linecap="square"/>
<path d="M687.79 260.787C682.235 261.009 681.429 265.643 681.545 270.401C681.674 275.683 689.277 272.804 690.367 269.262C690.703 268.169 690.466 260.805 690.466 263.067C690.466 265.587 690.927 273.507 690.466 273.276" stroke="white" stroke-width="3" stroke-linecap="square"/>
<path d="M700.278 242.946C700.393 251.424 701.17 259.895 701.17 268.37C701.17 270.639 701.17 271.735 701.17 268.816" stroke="white" stroke-width="3" stroke-linecap="square"/>
<path d="M694.927 258.111C697.408 258.111 705.631 256.701 705.631 259.003" stroke="white" stroke-width="3" stroke-linecap="square"/>
<path d="M711.875 259.003C711.738 262.424 708.912 268.765 712.073 271.294C714.438 273.185 717.027 266.857 717.673 265.694C718.369 264.441 718.119 257.344 718.119 259.499C718.119 263.794 718.119 268.089 718.119 272.384" stroke="white" stroke-width="3" stroke-linecap="square"/>
<path d="M727.041 259.003C727.041 263.034 727.041 267.065 727.041 271.096C727.041 273.48 726.782 266.221 727.536 263.959C728.162 262.082 729.81 259.895 731.947 259.895C732.968 259.895 737.07 260.788 734.177 260.788" stroke="white" stroke-width="3" stroke-linecap="square"/>
<path d="M743.097 262.571C741.302 262.795 742.204 270.594 742.204 271.64C742.204 271.957 742.204 268.377 742.204 267.527C742.204 264.657 743.053 261.942 745.723 260.44C749.193 258.488 751.043 263.361 751.125 266.139C751.198 268.636 751.125 275.092 751.125 268.815" stroke="white" stroke-width="3" stroke-linecap="square"/>
<path d="M771.642 260.787C765.102 254.974 764.284 276.554 770.75 269.708C772.823 267.513 774.318 258.363 774.318 261.382C774.318 264.752 774.318 268.122 774.318 271.492" stroke="white" stroke-width="3" stroke-linecap="square"/>
<path d="M781.454 259.003C781.454 262.439 781.454 269.312 781.454 269.312C781.454 269.312 781.454 265.446 781.454 263.513C781.454 256.933 786.7 261.733 785.022 262.572" stroke="white" stroke-width="3" stroke-linecap="square"/>
<path d="M792.159 265.247C794.762 265.247 795.727 262.384 795.727 260.093C795.727 257.215 791.896 257.4 791.069 259.697C790.25 261.972 789.302 267.418 790.573 269.707C792.291 272.799 795.751 271.422 796.62 268.815" stroke="white" stroke-width="3" stroke-linecap="square"/>
<path d="M806.431 259.895C802.044 260.07 798.777 267.899 801.971 271.293C804.508 273.989 808.128 265.599 808.612 264.355C808.945 263.498 809.108 257.856 809.108 260.489C809.108 262.81 808.914 265.216 809.157 267.527C809.239 268.303 810 273.655 810 270.599" stroke="white" stroke-width="3" stroke-linecap="square"/>
<path d="M283.684 677C283.684 671.394 286.271 666.463 287.903 661.169C288.361 659.685 292.205 651.848 290.013 656.411" stroke="#3CDB4C" stroke-width="3" stroke-linecap="square"/>
<path d="M290.684 655C292.365 660.152 293.576 665.402 295.442 670.526C295.807 671.529 297.241 676 296.448 676" stroke="#3CDB4C" stroke-width="3" stroke-linecap="square"/>
<path d="M285.684 670C285.901 667.699 290.422 668.015 291.684 668.015" stroke="#3CDB4C" stroke-width="3" stroke-linecap="square"/>
<path d="M302.684 658C302.684 662.692 303.684 676.747 303.684 672.055" stroke="#3CDB4C" stroke-width="3" stroke-linecap="square"/>
<path d="M303.539 670.186C301.835 669.964 303.044 667.163 304.008 666.621C306.937 664.972 309.563 666.781 309.677 670.008C309.808 673.702 307.848 675 304.306 675" stroke="#3CDB4C" stroke-width="3" stroke-linecap="square"/>
<path d="M316.326 667.646C312.032 663.988 310.866 677.147 316.52 674.979C318.648 674.163 316.715 667.295 318.505 668.667C320.462 670.168 317.776 674.606 320.684 676" stroke="#3CDB4C" stroke-width="3" stroke-linecap="square"/>
<path d="M323.684 666.524C323.981 667.508 325.284 676.579 325.284 673.169C325.284 671.146 325.265 668.626 326.528 666.94C331.091 660.848 331.684 670.759 331.684 674" stroke="#3CDB4C" stroke-width="3" stroke-linecap="square"/>
<path d="M342.684 667C332.947 667 339.954 680.033 342.684 672.829" stroke="#3CDB4C" stroke-width="3" stroke-linecap="square"/>
<path d="M344.684 652C344.781 658.623 344.662 665.532 346.684 672" stroke="#3CDB4C" stroke-width="3" stroke-linecap="square"/>
<path d="M355.131 666.524C347.321 666.524 351.055 680.334 356.72 672.699C359.413 669.07 355.948 661.854 352.606 666.524" stroke="#3CDB4C" stroke-width="3" stroke-linecap="square"/>
<path d="M361.684 664C361.867 666.934 362.567 669.637 362.567 672.736C362.567 674.265 363.252 668.714 363.893 667.374C365.562 663.882 367.941 662.751 369.441 667.143C369.826 668.27 369.638 672.703 369.638 672.32" stroke="#3CDB4C" stroke-width="3" stroke-linecap="square"/>
<path d="M372.684 669.632C375.004 671.571 377.826 668.871 377.826 666.409C377.826 663.475 374.358 665.815 373.731 667.215C371.707 671.735 374.462 680.795 378.684 672.856" stroke="#3CDB4C" stroke-width="3" stroke-linecap="square"/>
<path d="M385.183 666C381.195 666.233 381.001 672.173 382.683 674.924C384.8 678.389 386.408 672.43 387.684 671.796" stroke="#3CDB4C" stroke-width="3" stroke-linecap="square"/>
<path d="M387.684 654C386.403 661.622 386.718 669.324 386.718 677" stroke="#3CDB4C" stroke-width="3" stroke-linecap="square"/>
<path d="M400.684 666.342C400.684 668.061 401.441 670.388 402.307 671.851C403.772 674.327 402.779 672.28 403.299 670.587C404.1 667.98 410.353 658.539 406.365 665.529" stroke="#3CDB4C" stroke-width="3" stroke-linecap="square"/>
<path d="M412.372 668.151C414.192 666.406 415.423 665.236 414.672 662.594C413.898 659.873 410.849 660.969 410.716 663.388C410.507 667.206 411.206 676.178 415.684 669.739" stroke="#3CDB4C" stroke-width="3" stroke-linecap="square"/>
<path d="M423.287 663.461C419.694 662.479 418.444 662.923 417.746 666.203C417.133 669.082 421.197 667.737 422.872 668.415C426.107 669.723 418.626 677.126 418.626 669.83" stroke="#3CDB4C" stroke-width="3" stroke-linecap="square"/>
<path d="M430.478 662C425.931 663.567 425.474 667.134 429.887 668.718C435.325 670.669 426.684 677.443 426.684 671.804" stroke="#3CDB4C" stroke-width="3" stroke-linecap="square"/>
<path d="M436.078 665.521C434.955 674.683 444.536 661.653 438.08 663.116C434.676 663.888 434.107 678.025 441.684 672.873" stroke="#3CDB4C" stroke-width="3" stroke-linecap="square"/>
<path d="M445.681 648C445.794 655.706 446.469 663.39 446.678 671.091C446.735 673.189 446.377 673.611 444.684 675" stroke="#3CDB4C" stroke-width="3" stroke-linecap="square"/>
<path d="M675 646V670" stroke="white" stroke-width="3" stroke-linecap="square"/>
<path d="M676 647.767C676 646.922 675.995 648.722 676.133 649.007C676.998 650.8 677.928 652.712 678.858 654.518C678.889 654.579 680.628 658.193 680.918 657.893C682.02 656.75 683.171 654.767 683.908 653.347C684.954 651.333 686.123 649.178 687.364 647.285C688.406 645.697 687.861 651.243 687.829 651.625C687.355 657.346 687.364 674.587 687.364 668.845" stroke="white" stroke-width="3" stroke-linecap="square"/>
<path d="M696 664V672" stroke="white" stroke-width="3" stroke-linecap="square"/>
<path d="M694 657L695 658" stroke="white" stroke-width="3" stroke-linecap="square"/>
<path d="M702.225 660.816C702.225 662.292 702.225 663.769 702.225 665.246C702.225 666.941 701.542 670.054 702.557 667.248C703.087 665.782 704.525 661.049 705.813 660.315C710.303 657.759 707.073 671.682 710 668.534" stroke="white" stroke-width="3" stroke-linecap="square"/>
<path d="M716 660C715.905 663.129 715 672.499 715 669.369" stroke="white" stroke-width="3" stroke-linecap="square"/>
<path d="M713 655C713.921 655 713.662 655 714 655" stroke="white" stroke-width="3" stroke-linecap="square"/>
<path d="M721.556 660C721.437 660.908 721 669.719 721 667.036C721 665.12 721.549 662.731 722.667 661.286C725.893 657.113 726 666.481 726 669" stroke="white" stroke-width="3" stroke-linecap="square"/>
<path d="M737.413 662.647C734.573 661.337 733.147 661.948 732.226 665.111C731.926 666.14 731.855 668.314 732.454 669.238C733.998 671.618 736.896 667.761 738 666.678" stroke="white" stroke-width="3" stroke-linecap="square"/>
<path d="M739.701 661C740.747 667.562 741.711 674.272 741.711 680.916C741.711 683.498 743.082 687.917 739.85 688.772C735.48 689.928 733.281 686.482 733.039 683.018C732.711 678.313 734.42 677.746 739.031 677.746" stroke="white" stroke-width="3" stroke-linecap="square"/>
<path d="M758.234 658C758.234 661.751 757.685 665.908 758.268 669.579C758.562 671.428 758.234 666.613 758.234 666.102C758.234 661.817 765 656.831 765 662.517" stroke="white" stroke-width="3" stroke-linecap="square"/>
<path d="M769 659V668" stroke="white" stroke-width="3" stroke-linecap="square"/>
<path d="M768 649C768 649.121 768 650.252 768 651" stroke="white" stroke-width="3" stroke-linecap="square"/>
<path d="M780.096 661.063C780.096 655.915 775.198 661.677 775.02 664.538C774.664 670.26 779.114 667.395 782 666.386" stroke="white" stroke-width="3" stroke-linecap="square"/>
<path d="M781.933 661C781.933 664.231 782.825 666.744 783.506 669.927C784.283 673.554 786.399 682.679 783.58 685.9C781.193 688.626 776.762 685.757 776.151 683.027C775.365 679.52 777.837 678.507 779.298 675.776" stroke="white" stroke-width="3" stroke-linecap="square"/>
<path d="M307.684 710C307.286 716.409 304.233 723.506 301.992 729.522C301.578 730.633 301.3 733.432 300.684 731.096" stroke="white" stroke-width="3" stroke-linecap="square"/>
<path d="M307.684 712C307.782 716.295 310.212 720.208 311.623 724.194C312.265 726.007 313.684 728.028 313.684 730" stroke="white" stroke-width="3" stroke-linecap="square"/>
<path d="M304.684 725C304.982 723.344 309.792 724.244 310.684 724.244" stroke="white" stroke-width="3" stroke-linecap="square"/>
<path d="M322.648 724C321.962 724 317.684 724.364 318.9 726.235C319.854 727.706 323.529 727.058 324.373 728.885C326.057 732.532 320.375 733.177 319.663 729.747" stroke="white" stroke-width="3" stroke-linecap="square"/>
<path d="M329.684 713C329.684 718.632 329.795 724.465 331.684 730" stroke="white" stroke-width="3" stroke-linecap="square"/>
<path d="M326.684 721H332.684" stroke="white" stroke-width="3" stroke-linecap="square"/>
<path d="M335.827 725.457C343.887 725.457 337.963 719.069 336.173 723.66C334.319 728.417 338 733.315 342.684 729.81" stroke="white" stroke-width="3" stroke-linecap="square"/>
<path d="M348.684 721C348.684 722.833 349.309 733.071 349.309 727.207C349.309 725.928 348.666 722.403 350.246 721.697C351.419 721.174 353.183 721.878 353.684 722.883" stroke="white" stroke-width="3" stroke-linecap="square"/>
<path d="M360.97 722.458C357.273 722.458 356.121 723.403 356.928 728.01C357.276 729.994 359.846 730.493 361.286 729.514C364.736 727.17 361.197 718.282 357.174 723.748" stroke="white" stroke-width="3" stroke-linecap="square"/>
<path d="M367.684 721C367.684 723.747 367.684 726.256 367.684 729" stroke="white" stroke-width="3" stroke-linecap="square"/>
<path d="M365.684 716C365.787 716.467 366.187 716.627 366.684 717" stroke="white" stroke-width="3" stroke-linecap="square"/>
<path d="M378.684 722.83C378.183 722.354 376.623 720.314 375.722 721.236C374.149 722.845 373.284 725.305 373.866 727.406C374.622 730.134 377.036 728.754 378.684 727.711" stroke="white" stroke-width="3" stroke-linecap="square"/>
<path d="M379.684 712C379.742 718.053 380.684 723.989 380.684 730" stroke="white" stroke-width="3" stroke-linecap="square"/>
<path d="M398.464 730C398.464 725.735 397.153 721.192 397.929 716.996C398.192 715.58 399.572 713.164 400.871 712.399C403.486 710.857 404.771 714.171 405.684 715.814" stroke="white" stroke-width="3" stroke-linecap="square"/>
<path d="M397.684 725C399.688 725 401.611 724 403.684 724" stroke="white" stroke-width="3" stroke-linecap="square"/>
<path d="M409.684 725V730" stroke="white" stroke-width="3" stroke-linecap="square"/>
<path d="M407.684 721C407.782 721 408.29 721 408.684 721" stroke="white" stroke-width="3" stroke-linecap="square"/>
<path d="M416.499 725.16C420.213 725.16 418.968 720.294 417.022 722.639C413.926 726.371 416.642 731.522 420.684 729.574" stroke="white" stroke-width="3" stroke-linecap="square"/>
<path d="M423.684 712C423.857 717.687 425.684 723.391 425.684 729" stroke="white" stroke-width="3" stroke-linecap="square"/>
<path d="M436.986 722C431.192 722.154 431.081 731.956 437.684 728.104" stroke="white" stroke-width="3" stroke-linecap="square"/>
<path d="M437.684 711C437.791 716.738 438.43 722.464 438.518 728.2C438.536 729.36 439.216 731.449 437.684 732" stroke="white" stroke-width="3" stroke-linecap="square"/>
<path d="M305.904 459.9C305.904 472.967 307.057 486.158 307.057 499.088" stroke="#3CDB4C" stroke-width="3" stroke-linecap="square"/>
<path d="M296.684 461.052C297.129 453.933 320.336 452.427 320.888 460.156C321.607 470.218 311.328 476.036 302.447 476.036" stroke="#3CDB4C" stroke-width="3" stroke-linecap="square"/>
<path d="M320.887 491.02C313.963 484.864 310.638 503.386 318.006 500.112C320.887 498.831 320.386 489.622 322.616 491.852C323.464 492.7 325.497 501.295 325.497 500.24" stroke="#3CDB4C" stroke-width="3" stroke-linecap="square"/>
<path d="M332.413 489.867C332.413 492.642 332.413 495.417 332.413 498.191C332.413 503.839 334.939 493.234 335.615 491.276C338.532 482.815 341.634 497.991 341.634 497.935" stroke="#3CDB4C" stroke-width="3" stroke-linecap="square"/>
<path d="M368.305 488.549C366.544 486.892 366.078 486.816 363.99 487.539C361.829 488.287 362.596 489.15 361.281 490.202C357.605 493.143 367.19 493.978 368.121 494.333C377.927 498.068 362.06 504.058 360.868 499.291" stroke="#3CDB4C" stroke-width="3" stroke-linecap="round"/>
<path d="M374.915 495.159C380.736 495.159 384.514 487.293 377.394 488.549C374.862 488.996 370.973 507.771 382.352 500.943" stroke="#3CDB4C" stroke-width="3" stroke-linecap="round"/>
<path d="M391.441 489.375C387.561 489.375 384.188 496.959 386.667 499.933C389.027 502.765 393.942 500.109 396.399 499.29" stroke="#3CDB4C" stroke-width="3" stroke-linecap="round"/>
<path d="M403.009 476.155C403.009 483.236 403.634 490.238 403.835 497.271C403.874 498.647 403.835 499.487 403.835 497.638" stroke="#3CDB4C" stroke-width="3" stroke-linecap="round"/>
<path d="M397.226 486.07C400.542 486.07 410.458 485.244 407.141 485.244" stroke="#3CDB4C" stroke-width="3" stroke-linecap="round"/>
<path d="M418.709 490.202C410.537 490.202 411.837 505.297 419.902 500.897C423.698 498.827 422.897 494.39 420.361 491.854C417.522 489.014 417.327 488.97 415.404 491.854" stroke="#3CDB4C" stroke-width="3" stroke-linecap="round"/>
<path d="M428.624 490.202C428.806 491.843 429.739 493.945 430.277 495.527C432.367 501.676 431.477 496.622 432.342 493.507C433.074 490.874 433.833 488.022 436.795 487.034C438.558 486.447 440.192 486.605 440.192 488.549" stroke="#3CDB4C" stroke-width="3" stroke-linecap="round"/>
<path d="M640 464V498" stroke="#3CDB4C" stroke-width="3" stroke-linecap="square"/>
<path d="M629 463C634.394 462.66 646.969 458.675 651 463" stroke="#3CDB4C" stroke-width="3" stroke-linecap="square"/>
<path d="M630 498.504C633.408 498.504 636.816 498.504 640.225 498.504C642.048 498.504 651.93 496.669 646.269 500" stroke="#3CDB4C" stroke-width="3" stroke-linecap="square"/>
<path d="M661.003 489.335C656.186 487.254 655.952 495.422 656.006 498.658C656.113 505.09 660.931 496.439 661.502 494.521C662.062 492.642 662.363 486.555 663.057 492.015C663.312 494.025 663.363 500.013 665 500.872" stroke="#3CDB4C" stroke-width="3" stroke-linecap="square"/>
<path d="M673 486C673 495.394 675 523.499 675 514.105" stroke="#3CDB4C" stroke-width="3" stroke-linecap="square"/>
<path d="M669 491.51C671.368 486.86 673.622 484.546 679.108 485.074C682.511 485.402 683.392 489.12 682.854 492.112C682.271 495.357 673.281 499.721 673.281 494.758" stroke="#3CDB4C" stroke-width="3" stroke-linecap="square"/>
<path d="M690 491.767C698.948 491.767 692.779 481.917 690.778 487.963C689.376 492.197 690.676 503.497 695 494.788" stroke="#3CDB4C" stroke-width="3" stroke-linecap="square"/>
<path d="M704 470C704.932 478.702 705 504.993 705 496.24" stroke="#3CDB4C" stroke-width="3" stroke-linecap="square"/>
<path d="M700 485H710" stroke="#3CDB4C" stroke-width="3" stroke-linecap="square"/>
<path d="M715.381 487C715.381 488.945 714.204 497.588 715.986 498.583C718.87 500.194 719.544 496.731 719.977 495.037C720.282 493.844 721.912 485.699 721.912 488.714C721.912 491.93 723 494.576 723 497.638" stroke="#3CDB4C" stroke-width="3" stroke-linecap="square"/>
<path d="M731.922 485C723.522 485.566 734.649 493.296 735.627 494.745C738.035 498.314 728 503.503 728 496.624" stroke="#3CDB4C" stroke-width="3" stroke-linecap="square"/>
<path d="M766.86 485.394C765.099 483.737 764.633 483.661 762.544 484.384C760.383 485.132 761.15 485.995 759.836 487.047C756.159 489.988 765.745 490.824 766.676 491.178C776.481 494.914 760.615 500.903 759.423 496.136" stroke="#3CDB4C" stroke-width="3" stroke-linecap="round"/>
<path d="M773.47 492.005C779.291 492.005 783.069 484.138 775.949 485.394C773.417 485.841 769.527 504.616 780.907 497.789" stroke="#3CDB4C" stroke-width="3" stroke-linecap="round"/>
<path d="M789.996 486.22C786.115 486.22 782.743 493.804 785.221 496.778C787.581 499.61 792.497 496.955 794.953 496.136" stroke="#3CDB4C" stroke-width="3" stroke-linecap="round"/>
<path d="M801.563 473C801.563 480.082 802.189 487.083 802.39 494.116C802.429 495.492 802.39 496.332 802.39 494.484" stroke="#3CDB4C" stroke-width="3" stroke-linecap="round"/>
<path d="M795.78 482.915C799.097 482.915 809.012 482.089 805.696 482.089" stroke="#3CDB4C" stroke-width="3" stroke-linecap="round"/>
<path d="M817.264 487.047C809.091 487.047 810.391 502.142 818.457 497.743C822.252 495.673 821.452 491.235 818.916 488.699C816.076 485.859 815.881 485.815 813.958 488.699" stroke="#3CDB4C" stroke-width="3" stroke-linecap="round"/>
<path d="M827.179 487.047C827.361 488.688 828.293 490.79 828.831 492.372C830.922 498.521 830.032 493.467 830.897 490.352C831.628 487.719 832.388 484.867 835.35 483.88C837.113 483.292 838.747 483.45 838.747 485.394" stroke="#3CDB4C" stroke-width="3" stroke-linecap="round"/>
<path d="M729.293 437.707C729.683 438.098 730.317 438.098 730.707 437.707L737.071 431.343C737.462 430.953 737.462 430.319 737.071 429.929C736.681 429.538 736.047 429.538 735.657 429.929L730 435.586L724.343 429.929C723.953 429.538 723.319 429.538 722.929 429.929C722.538 430.319 722.538 430.953 722.929 431.343L729.293 437.707ZM729 295L729 437L731 437L731 295L729 295Z" fill="white"/>
<path d="M1089.86 487.394C1088.1 485.737 1087.63 485.661 1085.54 486.384C1083.38 487.132 1084.15 487.995 1082.84 489.047C1079.16 491.988 1088.74 492.824 1089.68 493.178C1099.48 496.914 1083.61 502.903 1082.42 498.136" stroke="white" stroke-width="3" stroke-linecap="round"/>
<path d="M1096.47 494.005C1102.29 494.005 1106.07 486.138 1098.95 487.394C1096.42 487.841 1092.53 506.616 1103.91 499.789" stroke="white" stroke-width="3" stroke-linecap="round"/>
<path d="M1113 488.22C1109.12 488.22 1105.74 495.804 1108.22 498.778C1110.58 501.61 1115.5 498.955 1117.95 498.136" stroke="white" stroke-width="3" stroke-linecap="round"/>
<path d="M1124.56 475C1124.56 482.082 1125.19 489.083 1125.39 496.116C1125.43 497.492 1125.39 498.332 1125.39 496.484" stroke="white" stroke-width="3" stroke-linecap="round"/>
<path d="M1118.78 484.915C1122.1 484.915 1132.01 484.089 1128.7 484.089" stroke="white" stroke-width="3" stroke-linecap="round"/>
<path d="M1140.26 489.047C1132.09 489.047 1133.39 504.142 1141.46 499.743C1145.25 497.673 1144.45 493.235 1141.92 490.699C1139.08 487.859 1138.88 487.815 1136.96 490.699" stroke="white" stroke-width="3" stroke-linecap="round"/>
<path d="M1150.18 489.047C1150.36 490.688 1151.29 492.79 1151.83 494.372C1153.92 500.521 1153.03 495.467 1153.9 492.352C1154.63 489.719 1155.39 486.867 1158.35 485.88C1160.11 485.292 1161.75 485.45 1161.75 487.394" stroke="white" stroke-width="3" stroke-linecap="round"/>
<path d="M995.594 464.85C995.594 473.034 996.321 481.191 996.855 489.353C996.933 490.537 997.341 508.563 997.341 499.785" stroke="white" stroke-width="3" stroke-linecap="round"/>
<path d="M979 463.103C987.502 462.158 995.931 461.356 1004.62 461.356C1006.55 461.356 1015.69 460.129 1010.44 462.23" stroke="white" stroke-width="3" stroke-linecap="round"/>
<path d="M1011.31 491.924C1011.31 494.094 1011.17 505.612 1012.19 501.532" stroke="white" stroke-width="3" stroke-linecap="round"/>
<path d="M1010.44 482.317L1009.57 481.444" stroke="white" stroke-width="3" stroke-linecap="round"/>
<path d="M1024.42 475.33C1024.42 472.345 1024.52 477.141 1024.61 477.756C1025.43 483.485 1025.67 489.255 1025.97 495.03C1026.08 497.176 1025.68 499.306 1027.04 500.658" stroke="white" stroke-width="3" stroke-linecap="round"/>
<path d="M1019.17 486.684C1022.68 486.684 1033.16 485.811 1029.66 485.811" stroke="white" stroke-width="3" stroke-linecap="round"/>
<path d="M1042.76 493.671C1032.87 490.506 1035.65 506.852 1043.63 501.532" stroke="white" stroke-width="3" stroke-linecap="round"/>
<path d="M1043.63 493.671C1043.63 496.627 1043.26 499.918 1044.5 502.405" stroke="white" stroke-width="3" stroke-linecap="round"/>
<path d="M1051.49 491.925C1051.49 494.643 1051.82 502.681 1052.41 500.028C1053.16 496.661 1053.27 492.769 1055.86 490.178C1060.1 485.933 1059.56 498.145 1061.1 498.912" stroke="white" stroke-width="3" stroke-linecap="round"/>
<path d="M627.311 712.416C626.983 709.643 619.803 711.668 618.565 712.416C617.478 713.073 618.483 716.245 619.103 716.9C621.287 719.211 625.113 718.768 627.916 719.605C632.499 720.972 638.56 725.091 632.357 729.321C628.412 732.01 616.185 732.152 618.228 724.587" stroke="white" stroke-width="3" stroke-linecap="round"/>
<path d="M643 721C643.591 728.678 644 736.297 644 744" stroke="white" stroke-width="3" stroke-linecap="round"/>
<path d="M643 721.708C643 716.211 651.107 716.851 649.872 723.46C648.932 728.488 645.677 727.084 643.533 725.734" stroke="white" stroke-width="3" stroke-linecap="round"/>
<path d="M657.891 719C655.02 720.148 653.265 724.374 654.299 727.819C655.23 730.919 659.191 727.109 659.687 725.595C659.955 724.778 659.757 718.259 659.757 721.109C659.757 722.119 660.305 728.136 661 726.592" stroke="white" stroke-width="3" stroke-linecap="round"/>
<path d="M669.113 719C665.945 719 664.599 722.226 665.103 726.097C665.528 729.369 670.694 727.673 672 726.514" stroke="white" stroke-width="3" stroke-linecap="round"/>
<path d="M679.299 723.938C681.009 723.938 684.672 721.983 684.782 719.689C684.893 717.352 680.639 717.75 679.637 719.02C678.44 720.539 676.971 726.844 679.028 728.149C681.376 729.638 684.453 729.17 686 726.772" stroke="white" stroke-width="3" stroke-linecap="round"/>
<path d="M696.096 718.447C691.847 716.412 690.728 721.793 691.053 725.268C691.531 730.38 695.347 726.877 698 726.202" stroke="white" stroke-width="3" stroke-linecap="round"/>
<path d="M701 718.899C701 720.867 701.24 722.471 701.474 724.411C701.858 727.594 701.983 730.032 701.643 725.537C701.419 722.589 702.137 718.673 704.654 717.229C706.445 716.201 708.223 718.923 705.871 719.597" stroke="white" stroke-width="3" stroke-linecap="round"/>
<path d="M716.455 718.31C711.916 716.7 712 721.689 712 725.676C712 729.934 714.748 727.393 716.313 725.52C717.595 723.986 717.727 717.356 717.727 719.446C717.727 721.258 717.644 726.022 719 726.773" stroke="white" stroke-width="3" stroke-linecap="round"/>
<path d="M724.4 729C724.4 727.629 724.446 726.249 724.365 724.879C724.102 720.48 721.497 713.147 724.258 709.165C725.379 707.549 727.608 707 729.461 707C732.119 707 730.633 709.921 730.134 711.4" stroke="white" stroke-width="3" stroke-linecap="round"/>
<path d="M719 722C721.534 722 723.5 722 726 722" stroke="white" stroke-width="3" stroke-linecap="round"/>
<path d="M757 710C757 713.05 757.109 716.083 757.345 719.127C757.36 719.317 757.743 728.31 758.278 724.907C758.695 722.257 759.37 721.488 761.975 721.561C770.049 721.787 759.552 735.323 758.244 727.645" stroke="white" stroke-width="3" stroke-linecap="round"/>
<path d="M773.615 719.284C764.747 716.762 767.257 731.953 775.069 728.482C780.162 726.218 774.142 716.92 768.996 719.968" stroke="white" stroke-width="3" stroke-linecap="round"/>
<path d="M781.012 718.039C781.012 721.227 781.012 730.79 781.012 727.603C781.012 725.751 780.757 719.014 782.573 718.116C784.579 717.125 785.81 722.766 785.972 723.939C786.155 725.264 785.382 731.654 785.382 727.757" stroke="white" stroke-width="3" stroke-linecap="round"/>
<path d="M790.025 723.248C798.309 723.248 793.665 712.585 790.689 719.119C789.934 720.775 787.9 726.866 789.767 728.371C791.421 729.705 794.725 728.699 796 727.377" stroke="white" stroke-width="3" stroke-linecap="round"/>
<path d="M798 720C798 723.245 800.003 725.099 801 728" stroke="white" stroke-width="3" stroke-linecap="round"/>
<path d="M804 719C801.475 724.289 801.223 731.308 800 737" stroke="white" stroke-width="3" stroke-linecap="round"/>
<path d="M812.192 720.218C808.02 718.243 807.809 723.125 807.151 726.304C805.993 731.897 811.837 727.384 813.126 725.29C813.82 724.163 814.881 715.955 814.881 720.218C814.881 721.597 815.418 728.265 814.209 727.657" stroke="white" stroke-width="3" stroke-linecap="round"/>
<path d="M819 719.104C819 721.611 819.649 724.076 819.649 726.669C819.649 728.303 820.209 723.445 820.299 721.814C820.512 717.917 825.984 718.674 824.844 720.459" stroke="white" stroke-width="3" stroke-linecap="round"/>
<path d="M832.243 718C829.843 718.222 826.239 725.146 828.99 726.653C830.67 727.573 832.652 726.488 834 725.449" stroke="white" stroke-width="3" stroke-linecap="round"/>
<path d="M833 708C833.821 713.77 834.6 719.839 834.6 725.778C834.6 726.786 834.433 727.557 835 728" stroke="white" stroke-width="3" stroke-linecap="round"/>
<path d="M736.99 712.263C736.189 711.742 736.045 712.053 736.045 712.686C736.045 716.383 735.893 720.097 736.15 723.79C736.277 725.625 736.353 727.599 736.885 729.4C737.048 729.954 736.99 730.342 736.99 729.554" stroke="white" stroke-width="3" stroke-linecap="round"/>
<path d="M732 720.9C734.009 720.9 736.303 721.442 738 720" stroke="white" stroke-width="3" stroke-linecap="round"/>
<path d="M1022.29 651.221C1017.97 650.549 1012.03 651.13 1012.03 656.987C1012.03 658.383 1011.94 659.812 1012.06 661.202C1012.27 663.742 1016.66 662.97 1018.33 662.97C1020.76 662.97 1023.58 663.308 1024.62 666.016C1025.63 668.638 1024.53 670.589 1022.29 671.946C1019.99 673.343 1012.7 673.837 1012.03 670.314" stroke="white" stroke-width="3" stroke-linecap="round"/>
<path d="M1033 662C1033.1 669.683 1034 677.313 1034 685" stroke="white" stroke-width="3" stroke-linecap="round"/>
<path d="M1033 666.89C1033.12 664.75 1035.17 664.119 1036.94 664.004C1039.02 663.868 1039.19 667.036 1038.88 668.611C1038.25 671.845 1034.13 671.714 1033.43 668.713" stroke="white" stroke-width="3" stroke-linecap="round"/>
<path d="M1047.19 664.067C1044.66 663.815 1043.32 665.242 1043.13 667.948C1043.07 668.793 1042.7 671.183 1043.56 671.721C1046.01 673.262 1047.93 667.998 1048.07 666.25C1048.15 665.238 1048.09 662.189 1048.09 663.204C1048.09 664.315 1048.05 665.437 1048.12 666.546C1048.16 667.297 1049 674.208 1049 670.858" stroke="white" stroke-width="3" stroke-linecap="round"/>
<path d="M1057 663C1055.3 663.896 1054.57 665.119 1054.29 667.026C1054.06 668.566 1053.35 670.95 1055.62 670.997C1057.4 671.033 1059.69 670.754 1061 669.453" stroke="white" stroke-width="3" stroke-linecap="round"/>
<path d="M1066 666.728C1067.96 667.275 1071 665.93 1071 663.161C1071 661.204 1069.43 660.345 1068.08 661.564C1066.17 663.301 1065.34 667.354 1066.65 669.736C1067.7 671.649 1069.03 670.917 1070.58 670.561" stroke="white" stroke-width="3" stroke-linecap="round"/>
<path d="M1088.66 661.667C1089.39 659.906 1083.36 661.879 1084.06 664.7C1084.38 666.023 1090.35 665.25 1091.75 666.333C1094.31 668.326 1092.6 671 1089.72 671C1088.71 671 1083.85 669.679 1086.09 668.667" stroke="white" stroke-width="3" stroke-linecap="round"/>
<path d="M1098 650C1098.1 656.254 1099 674.995 1099 668.74" stroke="white" stroke-width="3" stroke-linecap="round"/>
<path d="M1096 662C1097.85 661.36 1101.42 660.54 1103 661.315" stroke="white" stroke-width="3" stroke-linecap="round"/>
<path d="M1111.04 662.072C1107.31 661.279 1104.92 667.238 1106.49 670.476C1107.71 673.01 1111.44 665.612 1111.52 664.062C1111.63 661.678 1112 674.926 1112 669.038" stroke="white" stroke-width="3" stroke-linecap="round"/>
<path d="M1118 652.381C1117.61 650.481 1117.4 656.212 1117.4 658.138C1117.4 661.337 1116.18 666.032 1118 669" stroke="white" stroke-width="3" stroke-linecap="round"/>
<path d="M1115 662H1123" stroke="white" stroke-width="3" stroke-linecap="round"/>
<path d="M1128 663C1128.17 664.303 1127.76 669.38 1129 670" stroke="white" stroke-width="3" stroke-linecap="round"/>
<path d="M1127 656C1127.59 656.33 1127.67 656.51 1128 657" stroke="white" stroke-width="3" stroke-linecap="round"/>
<path d="M1136.76 661.837C1130.68 664.857 1136.07 672.966 1139.43 666.661C1141.56 662.651 1137.26 658.577 1134.36 662.761" stroke="white" stroke-width="3" stroke-linecap="round"/>
<path d="M1144 662.39C1144 663.815 1144.13 664.874 1144.53 666.235C1144.63 666.574 1145.31 670.092 1145.31 668.658C1145.31 667.026 1144.88 663.384 1146.02 662.153C1147.14 660.935 1148.39 660.392 1149.47 661.995C1150.37 663.329 1150.05 667.565 1151 668.079" stroke="white" stroke-width="3" stroke-linecap="round"/>
<path d="M246.755 566.493L247.741 566.657L246.755 566.493ZM267.111 656.959C267.641 657.115 268.197 656.813 268.354 656.283L270.9 647.651C271.056 647.121 270.753 646.565 270.224 646.409C269.694 646.252 269.138 646.555 268.982 647.085L266.718 654.758L259.045 652.495C258.515 652.338 257.959 652.641 257.803 653.171C257.647 653.7 257.949 654.257 258.479 654.413L267.111 656.959ZM282.155 493.466C269.168 514.017 251.252 533.291 245.768 566.329L247.741 566.657C253.137 534.144 270.655 515.408 283.845 494.534L282.155 493.466ZM245.768 566.329C243.211 581.738 247.429 602.459 252.719 620.133C258.017 637.834 264.459 652.699 266.516 656.478L268.273 655.522C266.303 651.904 259.908 637.179 254.635 619.559C249.353 601.911 245.265 581.577 247.741 566.657L245.768 566.329Z" fill="white"/>
<path d="M945.05 572.431L946.05 572.471L945.05 572.431ZM978.701 660.954C979.228 661.119 979.789 660.826 979.954 660.299L982.645 651.711C982.811 651.184 982.517 650.623 981.99 650.458C981.463 650.292 980.902 650.586 980.737 651.113L978.345 658.747L970.711 656.355C970.184 656.189 969.623 656.483 969.458 657.01C969.292 657.537 969.586 658.098 970.113 658.263L978.701 660.954ZM975.193 493.481C962.362 514.625 945.43 537.55 944.051 572.392L946.05 572.471C947.403 538.258 963.975 515.822 976.902 494.519L975.193 493.481ZM944.051 572.392C943.303 591.308 950.895 611.492 959.092 627.814C963.198 635.99 967.473 643.228 970.965 648.891C974.487 654.604 977.144 658.609 978.114 660.463L979.886 659.537C978.874 657.601 976.113 653.429 972.667 647.842C969.191 642.205 964.949 635.021 960.879 626.916C952.723 610.677 945.322 590.867 946.05 572.471L944.051 572.392Z" fill="white"/>
<path d="M224.892 596.115L225.875 596.299L225.875 596.299L224.892 596.115ZM272.211 722.973C272.748 723.101 273.288 722.77 273.416 722.233L275.512 713.48C275.641 712.943 275.31 712.404 274.772 712.275C274.235 712.146 273.696 712.477 273.567 713.015L271.704 720.795L263.924 718.932C263.387 718.803 262.847 719.134 262.719 719.671C262.59 720.208 262.921 720.748 263.458 720.877L272.211 722.973ZM282.185 492.42C261.325 521.71 232.684 549.025 223.909 595.931L225.875 596.299C234.543 549.964 262.709 523.214 283.815 493.58L282.185 492.42ZM223.909 595.931C221.852 606.929 223.452 619.701 227.045 632.77C230.643 645.853 236.262 659.315 242.322 671.728C254.439 696.549 268.387 717.301 271.591 722.523L273.296 721.477C270.044 716.177 256.181 695.557 244.119 670.851C238.09 658.501 232.527 645.161 228.974 632.24C225.417 619.306 223.897 606.872 225.875 596.299L223.909 595.931Z" fill="white"/>
<path d="M591.098 578.556L590.102 578.644L591.098 578.556ZM639.263 656.965C639.796 656.819 640.11 656.27 639.965 655.737L637.596 647.054C637.451 646.521 636.901 646.207 636.368 646.353C635.835 646.498 635.521 647.048 635.667 647.58L637.772 655.298L630.054 657.404C629.521 657.549 629.207 658.099 629.353 658.632C629.498 659.165 630.048 659.479 630.58 659.333L639.263 656.965ZM603.677 493.486C590.271 515.875 586.954 542.843 590.102 578.644L592.095 578.468C588.962 542.849 592.301 516.379 605.393 494.514L603.677 493.486ZM590.102 578.644C591.65 596.237 598.863 612.992 608.105 626.727C617.341 640.453 628.658 651.243 638.504 656.868L639.496 655.132C629.978 649.694 618.873 639.147 609.764 625.61C600.661 612.081 593.605 595.646 592.095 578.468L590.102 578.644Z" fill="white"/>
<path d="M546.892 593.963L547.874 594.153L547.874 594.153L546.892 593.963ZM594.224 716.976C594.763 717.097 595.298 716.758 595.419 716.219L597.393 707.438C597.514 706.9 597.176 706.365 596.637 706.243C596.098 706.122 595.563 706.461 595.442 707L593.687 714.805L585.882 713.051C585.343 712.93 584.808 713.268 584.687 713.807C584.566 714.346 584.905 714.881 585.444 715.002L594.224 716.976ZM604.194 493.408C583.339 521.794 554.688 548.286 545.91 593.774L547.874 594.153C556.539 549.248 584.695 523.327 605.806 494.592L604.194 493.408ZM545.91 593.774C543.85 604.448 545.453 616.84 549.048 629.513C552.646 642.201 558.266 655.254 564.327 667.289C576.446 691.353 590.396 711.474 593.599 716.535L595.289 715.465C592.035 710.325 578.174 690.339 566.114 666.39C560.085 654.419 554.523 641.489 550.972 628.968C547.416 616.432 545.899 604.389 547.874 594.153L545.91 593.774Z" fill="white"/>
<path d="M390.501 442.549C390.528 443.101 390.997 443.526 391.549 443.499L400.538 443.059C401.09 443.032 401.515 442.563 401.488 442.011C401.461 441.459 400.992 441.034 400.44 441.061L392.45 441.452L392.059 433.462C392.032 432.91 391.563 432.485 391.011 432.512C390.459 432.539 390.034 433.008 390.061 433.56L390.501 442.549ZM620.67 294.056C580.61 308.077 549.885 320.882 499.455 353.662L500.545 355.338C550.816 322.663 581.39 309.923 621.33 295.944L620.67 294.056ZM499.455 353.662C459.433 379.676 424.847 404.232 390.759 441.828L392.241 443.172C426.153 405.768 460.567 381.324 500.545 355.338L499.455 353.662Z" fill="white"/>
<path d="M959.355 348.298L959.924 347.476L959.355 348.298ZM1062 436.08C1061.95 436.63 1061.47 437.041 1060.92 436.997L1051.95 436.281C1051.4 436.237 1050.99 435.756 1051.03 435.205C1051.08 434.654 1051.56 434.244 1052.11 434.288L1060.08 434.924L1060.72 426.949C1060.76 426.398 1061.24 425.988 1061.8 426.032C1062.35 426.076 1062.76 426.557 1062.71 427.108L1062 436.08ZM846.349 288.063C883.884 302.039 912.674 314.804 959.924 347.476L958.786 349.121C911.698 316.56 883.061 303.866 845.651 289.937L846.349 288.063ZM959.924 347.476C997.42 373.404 1029.82 397.879 1061.76 435.351L1060.24 436.649C1028.47 399.375 996.236 375.017 958.786 349.121L959.924 347.476Z" fill="white"/>
<path d="M1356 266L846 266" stroke="white" stroke-width="2" stroke-linejoin="round" stroke-dasharray="12 12"/>
<path d="M1410 492H1184" stroke="white" stroke-width="2" stroke-linejoin="round" stroke-dasharray="12 12"/>
<path d="M1389 666L1184 666" stroke="white" stroke-width="2" stroke-linejoin="round" stroke-dasharray="12 12"/>
<path d="M1391.27 296C1389.26 305.789 1389.89 316.704 1391.39 326.578C1391.71 328.72 1392.5 329.955 1393.34 331.626" stroke="white" stroke-width="3" stroke-linecap="round"/>
<path d="M1400.05 301.68C1400.11 307.536 1400.57 313.381 1400.57 319.235C1400.57 321.926 1401.66 317.214 1401.83 316.739C1402.52 314.752 1404.72 314.766 1406.24 316.137C1407.19 316.984 1406.37 320.267 1407.28 320.267" stroke="white" stroke-width="3" stroke-linecap="round"/>
<path d="M1415.54 314.588C1407.38 317.199 1416.33 326.937 1419.15 321.3C1421.18 317.241 1417.18 313.667 1413.47 316.137" stroke="white" stroke-width="3" stroke-linecap="round"/>
<path d="M1425.86 301.164C1425.28 308.318 1426.9 315.32 1426.9 322.333" stroke="white" stroke-width="3" stroke-linecap="round"/>
<path d="M1435.67 315.621C1432.27 315.724 1432.61 319.56 1433.49 322.218C1434.13 324.116 1436.67 321.481 1437.22 320.784" stroke="white" stroke-width="3" stroke-linecap="round"/>
<path d="M1437.74 302.196C1438.04 309.292 1439.29 316.254 1439.29 323.365" stroke="white" stroke-width="3" stroke-linecap="round"/>
<path d="M1449.1 316.137C1448.95 313.707 1446.1 315.977 1445.6 317.17C1445.17 318.201 1449.74 320.163 1450.65 320.669C1452.84 321.887 1446 326.748 1446 322.849" stroke="white" stroke-width="3" stroke-linecap="round"/>
<path d="M1464.59 306.327C1465.16 311.636 1465.62 317.017 1465.62 322.361C1465.62 322.903 1465.54 324.999 1466.14 324.398" stroke="white" stroke-width="3" stroke-linecap="round"/>
<path d="M1460.97 314.588C1463.61 314.981 1466.09 314.588 1468.72 314.588" stroke="white" stroke-width="3" stroke-linecap="round"/>
<path d="M1472.85 305.81C1473.54 309.825 1474.08 313.749 1474.43 317.8C1474.56 319.297 1475.33 320.675 1475.43 322.218C1475.6 324.697 1476.4 318.914 1476.78 318.231C1477.48 316.979 1481.66 314.848 1482.37 316.997C1483.05 319.013 1482.66 325.49 1482.66 323.365" stroke="white" stroke-width="3" stroke-linecap="round"/>
<path d="M1486.79 318.718C1488.23 320.001 1491.85 318.393 1491.41 316.395C1491.15 315.212 1488.56 314.368 1487.94 315.621C1487.04 317.416 1487.31 319.879 1487.31 321.816C1487.31 324.002 1490.82 324.398 1492.47 324.398" stroke="white" stroke-width="3" stroke-linecap="round"/>
<path d="M1507.96 317.17C1505.17 314.547 1502.85 317.197 1502.8 320.382C1502.77 322.244 1502.33 324.13 1504.6 324.369C1506 324.517 1507.23 323.95 1507.96 322.849" stroke="white" stroke-width="3" stroke-linecap="round"/>
<path d="M1506.93 306.327C1508.24 310.606 1507.81 315.64 1507.93 320.067C1507.96 321.114 1507.41 323.866 1508.48 324.398" stroke="white" stroke-width="3" stroke-linecap="round"/>
<path d="M1514.16 317.169V324.398" stroke="white" stroke-width="3" stroke-linecap="round"/>
<path d="M1513.12 309.941V310.974" stroke="white" stroke-width="3" stroke-linecap="round"/>
<path d="M1519.84 324.398C1519.84 319.292 1518.92 313.466 1520.35 308.507C1521.17 305.678 1525.45 304.381 1526.03 307.876" stroke="white" stroke-width="3" stroke-linecap="round"/>
<path d="M1518.29 318.718C1520.17 318.509 1521.96 317.84 1523.97 317.686" stroke="white" stroke-width="3" stroke-linecap="round"/>
<path d="M1529.65 324.914C1529.65 319.272 1526.63 311.851 1531.08 307.244C1533.44 304.805 1534.81 304.737 1534.81 308.392" stroke="white" stroke-width="3" stroke-linecap="round"/>
<path d="M1526.03 318.202C1527.97 318.202 1529.79 317.878 1531.71 317.686" stroke="white" stroke-width="3" stroke-linecap="round"/>
<path d="M1536.87 320.268C1538.68 320.268 1541.3 319.392 1541.52 317.17C1541.66 315.754 1539.4 315.246 1538.42 315.735C1536.26 316.817 1535.59 320.526 1535.96 322.62C1536.42 325.282 1540.18 324.906 1541.01 322.849" stroke="white" stroke-width="3" stroke-linecap="round"/>
<path d="M1546.17 314.588C1546.17 317.154 1546.96 319.317 1547.2 321.816C1547.24 322.202 1547.24 319.379 1547.32 318.833C1547.51 317.389 1547.59 315.339 1549.15 314.703C1551.03 313.935 1551.33 314.116 1551.33 316.137" stroke="white" stroke-width="3" stroke-linecap="round"/>
<path d="M1557.01 320.784C1566.01 320.784 1560.05 312.121 1557.24 316.022C1555.68 318.184 1555.74 321.05 1556.01 323.624C1556.31 326.485 1560.42 324.191 1561.66 323.365" stroke="white" stroke-width="3" stroke-linecap="round"/>
<path d="M1566.3 314.071C1566.3 317.188 1567.34 326.482 1567.34 323.365C1567.34 321.581 1567.28 319.072 1568.08 317.456C1568.48 316.655 1570.83 314.595 1571.87 315.735C1573.17 317.162 1572.5 320.996 1572.5 322.849" stroke="white" stroke-width="3" stroke-linecap="round"/>
<path d="M1578.18 302.196C1578.25 308.318 1578.51 314.434 1578.67 320.554C1578.7 321.849 1578.83 322.39 1578.18 323.365" stroke="white" stroke-width="3" stroke-linecap="round"/>
<path d="M1575.08 314.588C1578.07 314.796 1580.44 314.467 1583.34 314.071" stroke="white" stroke-width="3" stroke-linecap="round"/>
<path d="M1600.9 312.522C1598.77 311.785 1593.96 312.423 1594.73 315.878C1594.92 316.713 1598.01 317.88 1598.83 318.231C1601.43 319.344 1595.83 322.941 1593.15 320.267" stroke="white" stroke-width="3" stroke-linecap="round"/>
<path d="M1607.09 317.686C1613.31 317.686 1609.33 309.083 1605.86 313.326C1604.31 315.218 1605.13 318.507 1605.95 320.439C1607.47 324.033 1611.01 321.292 1612.77 319.235" stroke="white" stroke-width="3" stroke-linecap="round"/>
<path d="M1618.97 311.49C1616.19 312.77 1612.1 318.924 1616.9 320.468C1618.68 321.037 1620.57 320.186 1621.55 318.718" stroke="white" stroke-width="3" stroke-linecap="round"/>
<path d="M1625.17 300.647V320.267" stroke="white" stroke-width="3" stroke-linecap="round"/>
<path d="M1622.07 310.457C1624.82 310.071 1627.55 309.941 1630.33 309.941" stroke="white" stroke-width="3" stroke-linecap="round"/>
<path d="M1636.01 311.49C1633.37 312.21 1630.74 317.567 1632.94 319.952C1634.23 321.346 1636.48 321.011 1637.56 319.636C1639.19 317.562 1638.19 310.898 1634.98 313.039" stroke="white" stroke-width="3" stroke-linecap="round"/>
<path d="M1642.2 312.006C1642.2 313.841 1642.52 322.747 1642.72 317.284C1642.82 314.72 1646.45 313.011 1648.4 312.523" stroke="white" stroke-width="3" stroke-linecap="round"/>
<path d="M1656.14 311.49C1654.36 311.561 1651.55 315.127 1653.82 316.137C1655.7 316.972 1657.64 316.657 1659.53 317.686C1661.58 318.803 1652.6 321.953 1651.5 319.751" stroke="white" stroke-width="3" stroke-linecap="round"/>
<path d="M1435 353.039C1436.61 355.228 1438.24 357.315 1440.16 359.234" stroke="white" stroke-width="3" stroke-linecap="round"/>
<path d="M1443.26 351.49C1442.02 357.611 1439.9 363.546 1438.73 369.676C1438.5 370.858 1438.76 371.658 1438.1 372.659" stroke="white" stroke-width="3" stroke-linecap="round"/>
<path d="M1450.49 353.555C1447.49 350.889 1445.46 363.482 1451.84 360.985C1456.74 359.065 1455.99 350.031 1449.97 353.039" stroke="white" stroke-width="3" stroke-linecap="round"/>
<path d="M1461.33 353.039C1460.88 354.441 1460.24 360.694 1461.85 360.783C1464.67 360.94 1465.98 358.09 1465.98 355.649C1465.98 352.341 1466.19 354.037 1466.47 356.395C1466.63 357.81 1466.62 360.073 1468.04 360.783" stroke="white" stroke-width="3" stroke-linecap="round"/>
<path d="M1482.5 352.006C1479.14 351.065 1478.69 357.944 1480.44 359.693C1481.97 361.231 1484.64 359.649 1485.6 358.202" stroke="white" stroke-width="3" stroke-linecap="round"/>
<path d="M1493.34 352.006C1487.51 352.006 1489.64 362.222 1494.89 358.719" stroke="white" stroke-width="3" stroke-linecap="round"/>
<path d="M1494.89 352.006C1496.08 354.517 1495.93 363.043 1495.93 360.268" stroke="white" stroke-width="3" stroke-linecap="round"/>
<path d="M1501.61 352.523C1501.2 352.222 1502.29 358.792 1502.61 359.923C1502.83 360.678 1502.6 358.341 1502.75 357.571C1503.05 356.108 1503.68 354.722 1504.19 353.326C1504.71 351.886 1506.59 351.483 1507.17 353.154C1507.89 355.242 1507.8 361.96 1507.8 359.751" stroke="white" stroke-width="3" stroke-linecap="round"/>
<path d="M1519.68 343.745C1519.68 348.918 1520.19 354.068 1520.19 359.235" stroke="white" stroke-width="3" stroke-linecap="round"/>
<path d="M1516.58 351.49C1519.54 351.49 1522.55 351.381 1525.36 352.006" stroke="white" stroke-width="3" stroke-linecap="round"/>
<path d="M1529.49 353.555C1529.49 355.864 1529.95 362.777 1529.95 360.468C1529.95 358.631 1529.2 356.965 1529.6 354.989C1530.51 350.529 1538.35 350.909 1534.13 354.071" stroke="white" stroke-width="3" stroke-linecap="round"/>
<path d="M1541.36 353.555C1541.31 352.676 1540.73 352.128 1539.81 352.637C1538.19 353.541 1538.26 357.446 1538.26 359.005C1538.26 362.586 1542.63 358.285 1543.14 356.911C1543.81 355.098 1543.06 350.718 1543.46 354.875C1543.56 355.924 1543.67 359.873 1544.46 360.267" stroke="white" stroke-width="3" stroke-linecap="round"/>
<path d="M1549.62 353.039C1548.52 352.071 1549.88 361.66 1550.94 358.632C1551.54 356.928 1552.28 355.423 1552.98 353.785C1553.29 353.056 1554.89 350.826 1553.75 352.523" stroke="white" stroke-width="3" stroke-linecap="round"/>
<path d="M1557.88 357.169C1560 357.169 1561.12 355.733 1562.19 353.899C1563.18 352.198 1560.3 352.283 1559.43 352.838C1557.61 354.008 1557.88 355.848 1557.88 357.714C1557.88 361.921 1560.08 361.016 1563.05 359.235" stroke="white" stroke-width="3" stroke-linecap="round"/>
<path d="M1567.69 342.712V360.784" stroke="white" stroke-width="3" stroke-linecap="round"/>
<path d="M1582.71 343.812C1581.85 344.781 1582.19 346.417 1582.19 347.627C1582.19 351.528 1582.71 355.411 1582.71 359.301" stroke="white" stroke-width="3" stroke-linecap="round"/>
<path d="M1578.06 351.556C1575.99 351.556 1586.33 351.04 1584.26 351.04" stroke="white" stroke-width="3" stroke-linecap="round"/>
<path d="M1592.52 353.622C1583.92 353.882 1589.62 366.41 1594.07 360.104C1596.33 356.896 1593.79 351.251 1589.94 354.138" stroke="white" stroke-width="3" stroke-linecap="round"/>
<path d="M1598.72 338.034C1601.54 346.199 1604.86 353.691 1603.59 362.531C1603.05 366.357 1601.41 369.911 1600.78 373.66" stroke="white" stroke-width="3" stroke-linecap="round"/>
<path d="M1449.95 475.17C1446.66 474.133 1442.98 473.147 1440.24 475.889C1438.08 478.049 1437.36 481.215 1437.36 484.124C1437.36 486.607 1439.54 487.613 1441.64 488.281C1444.86 489.305 1447.84 488.263 1450.59 490.919C1452.24 492.514 1454.99 494.692 1454.99 497.194C1454.99 500.168 1454.03 502.162 1451.15 503.43C1445.89 505.744 1437 504.379 1437 497.114" stroke="white" stroke-width="5" stroke-linecap="round"/>
<path d="M1613.96 476.309C1610.67 475.272 1606.99 474.286 1604.25 477.029C1602.09 479.188 1601.37 482.354 1601.37 485.263C1601.37 487.746 1603.55 488.752 1605.65 489.42C1608.87 490.444 1611.86 489.402 1614.6 492.058C1616.25 493.653 1619 495.831 1619 498.333C1619 501.307 1618.04 503.301 1615.16 504.569C1609.9 506.883 1601.01 505.518 1601.01 498.253" stroke="white" stroke-width="5" stroke-linecap="round"/>
<path d="M1466.5 473.372C1466.5 463.058 1466.14 514.623 1466.14 504.309" stroke="white" stroke-width="5" stroke-linecap="round"/>
<path d="M1466.86 472.652C1470.54 472.652 1474.59 473.012 1478.01 473.012" stroke="white" stroke-width="5" stroke-linecap="round"/>
<path d="M1467.22 490.279C1469.73 490.279 1472.24 490.279 1474.75 490.279C1475.24 490.279 1478.5 490.214 1477.65 490.639" stroke="white" stroke-width="5" stroke-linecap="round"/>
<path d="M1466.14 505.389C1470.12 505.389 1474.05 505.029 1478.01 505.029" stroke="white" stroke-width="5" stroke-linecap="round"/>
<path d="M1503.28 472.664C1495.39 470.139 1493.1 485.487 1493.1 490.243C1493.1 495.005 1494.16 499.125 1496.64 503.183C1499.2 507.364 1506.09 502.555 1508.38 501.183" stroke="white" stroke-width="5" stroke-linecap="round"/>
<path d="M1525.14 475.046C1525.14 484.16 1525.5 511.5 1525.5 502.386" stroke="white" stroke-width="5" stroke-linecap="round"/>
<path d="M1516.5 474.326C1517.92 475.459 1520.94 475.036 1522.54 475.046C1525.62 475.063 1528.6 475.14 1531.67 475.385C1533.25 475.512 1534.69 475.765 1536.29 475.765" stroke="white" stroke-width="5" stroke-linecap="round"/>
<path d="M1552.01 476.361C1548.68 478.126 1547.39 483.519 1547.33 487.033C1547.29 489.717 1546.84 492.32 1546.99 495.027C1547.1 496.992 1548.38 499.442 1549.33 501.163C1550.75 503.757 1555.07 505.888 1557.92 504.62C1560.97 503.266 1562.94 500.838 1564.06 497.745C1565.65 493.314 1565.08 484.345 1561 481.317C1559.87 480.478 1552.01 474.397 1552.01 477.44" stroke="white" stroke-width="5" stroke-linecap="round"/>
<path d="M1577.19 476.596C1577.19 485.593 1577.91 512.573 1577.91 503.577" stroke="white" stroke-width="5" stroke-linecap="round"/>
<path d="M1577.55 476.236C1577.66 474.463 1582.19 475.199 1583.12 475.737C1586.38 477.611 1586.58 480 1586.2 483.391C1585.87 486.375 1582.22 488.734 1579.51 489.467C1578.99 489.607 1575.85 489.547 1577.19 489.547" stroke="white" stroke-width="5" stroke-linecap="round"/>
<path d="M1577.91 490.626C1581.74 493.235 1582.81 498.649 1585.62 502.218C1586.15 502.893 1588.09 505.499 1589.06 505.016" stroke="white" stroke-width="5" stroke-linecap="round"/>
<path d="M1385.27 515C1383.26 524.789 1383.89 535.704 1385.39 545.578C1385.71 547.72 1386.5 548.955 1387.34 550.626" stroke="white" stroke-width="3" stroke-linecap="round"/>
<path d="M1394.05 520.68C1394.11 526.536 1394.57 532.381 1394.57 538.235C1394.57 540.926 1395.66 536.214 1395.83 535.739C1396.52 533.752 1398.72 533.766 1400.24 535.137C1401.19 535.984 1400.37 539.267 1401.28 539.267" stroke="white" stroke-width="3" stroke-linecap="round"/>
<path d="M1409.54 533.588C1401.38 536.199 1410.33 545.937 1413.15 540.3C1415.18 536.241 1411.18 532.667 1407.47 535.137" stroke="white" stroke-width="3" stroke-linecap="round"/>
<path d="M1419.86 520.164C1419.28 527.318 1420.9 534.32 1420.9 541.333" stroke="white" stroke-width="3" stroke-linecap="round"/>
<path d="M1429.67 534.621C1426.27 534.724 1426.61 538.56 1427.49 541.218C1428.13 543.116 1430.67 540.481 1431.22 539.784" stroke="white" stroke-width="3" stroke-linecap="round"/>
<path d="M1431.74 521.196C1432.04 528.292 1433.29 535.254 1433.29 542.365" stroke="white" stroke-width="3" stroke-linecap="round"/>
<path d="M1450.61 525.131C1451.18 530.44 1451.65 535.821 1451.65 541.166C1451.65 541.707 1451.56 543.803 1452.16 543.202" stroke="white" stroke-width="3" stroke-linecap="round"/>
<path d="M1447 533.392C1449.64 533.785 1452.12 533.392 1454.74 533.392" stroke="white" stroke-width="3" stroke-linecap="round"/>
<path d="M1458.88 524.614C1459.57 528.629 1460.1 532.554 1460.45 536.604C1460.58 538.101 1461.35 539.479 1461.46 541.022C1461.63 543.501 1462.42 537.718 1462.81 537.035C1463.51 535.784 1467.68 533.653 1468.4 535.801C1469.07 537.817 1468.69 544.294 1468.69 542.169" stroke="white" stroke-width="3" stroke-linecap="round"/>
<path d="M1472.82 537.523C1474.26 538.805 1477.88 537.197 1477.43 535.199C1477.17 534.016 1474.59 533.172 1473.96 534.425C1473.07 536.22 1473.33 538.683 1473.33 540.621C1473.33 542.806 1476.84 543.202 1478.5 543.202" stroke="white" stroke-width="3" stroke-linecap="round"/>
<path d="M1493.99 535.974C1491.2 533.351 1488.87 536.001 1488.82 539.186C1488.79 541.048 1488.36 542.934 1490.63 543.174C1492.03 543.321 1493.25 542.754 1493.99 541.653" stroke="white" stroke-width="3" stroke-linecap="round"/>
<path d="M1492.95 525.131C1494.27 529.411 1493.84 534.444 1493.96 538.871C1493.99 539.918 1493.44 542.67 1494.5 543.202" stroke="white" stroke-width="3" stroke-linecap="round"/>
<path d="M1500.18 535.974V543.202" stroke="white" stroke-width="3" stroke-linecap="round"/>
<path d="M1499.15 528.745V529.778" stroke="white" stroke-width="3" stroke-linecap="round"/>
<path d="M1505.86 543.202C1505.86 538.097 1504.95 532.27 1506.38 527.311C1507.19 524.482 1511.47 523.185 1512.06 526.68" stroke="white" stroke-width="3" stroke-linecap="round"/>
<path d="M1504.31 537.522C1506.2 537.313 1507.98 536.644 1509.99 536.49" stroke="white" stroke-width="3" stroke-linecap="round"/>
<path d="M1515.67 543.718C1515.67 538.076 1512.65 530.655 1517.11 526.049C1519.46 523.609 1520.83 523.541 1520.83 527.196" stroke="white" stroke-width="3" stroke-linecap="round"/>
<path d="M1512.06 537.006C1514 537.006 1515.81 536.682 1517.74 536.49" stroke="white" stroke-width="3" stroke-linecap="round"/>
<path d="M1522.9 539.072C1524.7 539.072 1527.32 538.197 1527.55 535.974C1527.69 534.558 1525.43 534.05 1524.45 534.54C1522.28 535.622 1521.62 539.33 1521.98 541.424C1522.44 544.086 1526.21 543.711 1527.03 541.653" stroke="white" stroke-width="3" stroke-linecap="round"/>
<path d="M1532.19 533.392C1532.19 535.959 1532.99 538.121 1533.23 540.621C1533.26 541.006 1533.27 538.183 1533.34 537.637C1533.54 536.193 1533.61 534.143 1535.18 533.507C1537.06 532.74 1537.36 532.92 1537.36 534.941" stroke="white" stroke-width="3" stroke-linecap="round"/>
<path d="M1543.04 539.588C1552.03 539.588 1546.07 530.926 1543.27 534.826C1541.71 536.988 1541.76 539.855 1542.03 542.428C1542.33 545.289 1546.44 542.995 1547.68 542.17" stroke="white" stroke-width="3" stroke-linecap="round"/>
<path d="M1552.33 532.875C1552.33 535.992 1553.36 545.286 1553.36 542.169C1553.36 540.385 1553.3 537.876 1554.11 536.26C1554.51 535.459 1556.86 533.399 1557.89 534.539C1559.19 535.966 1558.53 539.8 1558.53 541.653" stroke="white" stroke-width="3" stroke-linecap="round"/>
<path d="M1564.21 521C1564.27 527.122 1564.53 533.238 1564.69 539.358C1564.73 540.653 1564.86 541.194 1564.21 542.169" stroke="white" stroke-width="3" stroke-linecap="round"/>
<path d="M1561.11 533.392C1564.1 533.6 1566.47 533.271 1569.37 532.875" stroke="white" stroke-width="3" stroke-linecap="round"/>
<path d="M1397 571.432C1398.61 573.621 1400.24 575.708 1402.16 577.628" stroke="white" stroke-width="3" stroke-linecap="round"/>
<path d="M1405.26 569.883C1404.02 576.005 1401.9 581.939 1400.73 588.069C1400.5 589.251 1400.76 590.052 1400.1 591.053" stroke="white" stroke-width="3" stroke-linecap="round"/>
<path d="M1412.49 571.949C1409.49 569.282 1407.46 581.876 1413.84 579.378C1418.74 577.458 1417.99 568.425 1411.97 571.433" stroke="white" stroke-width="3" stroke-linecap="round"/>
<path d="M1423.33 571.432C1422.88 572.835 1422.24 579.088 1423.85 579.177C1426.67 579.334 1427.98 576.484 1427.98 574.042C1427.98 570.734 1428.19 572.431 1428.47 574.788C1428.63 576.203 1428.62 578.466 1430.04 579.177" stroke="white" stroke-width="3" stroke-linecap="round"/>
<path d="M1444.5 570.4C1441.14 569.458 1440.69 576.337 1442.44 578.087C1443.97 579.624 1446.64 578.042 1447.6 576.595" stroke="white" stroke-width="3" stroke-linecap="round"/>
<path d="M1455.34 570.4C1449.51 570.4 1451.64 580.616 1456.89 577.112" stroke="white" stroke-width="3" stroke-linecap="round"/>
<path d="M1456.89 570.4C1458.08 572.911 1457.93 581.436 1457.93 578.661" stroke="white" stroke-width="3" stroke-linecap="round"/>
<path d="M1463.61 570.916C1463.2 570.615 1464.29 577.186 1464.61 578.317C1464.83 579.072 1464.6 576.735 1464.75 575.965C1465.05 574.501 1465.68 573.116 1466.19 571.719C1466.71 570.28 1468.59 569.876 1469.17 571.547C1469.89 573.636 1469.8 580.354 1469.8 578.145" stroke="white" stroke-width="3" stroke-linecap="round"/>
<path d="M1645.92 561.777C1645.06 562.747 1645.41 564.383 1645.41 565.592C1645.41 569.494 1645.92 573.377 1645.92 577.267" stroke="white" stroke-width="3" stroke-linecap="round"/>
<path d="M1641.28 569.522C1639.2 569.522 1649.54 569.006 1647.47 569.006" stroke="white" stroke-width="3" stroke-linecap="round"/>
<path d="M1655.73 571.588C1647.13 571.848 1652.83 584.376 1657.28 578.07C1659.55 574.861 1657 569.216 1653.15 572.104" stroke="white" stroke-width="3" stroke-linecap="round"/>
<path d="M1661.93 556C1664.76 564.165 1668.07 571.657 1666.81 580.497C1666.26 584.323 1664.62 587.877 1663.99 591.626" stroke="white" stroke-width="3" stroke-linecap="round"/>
<path d="M1583.2 522.225C1582.61 523.481 1582.89 525.063 1582.89 526.399C1582.89 530.471 1582.89 534.544 1582.89 538.616C1582.89 539.048 1583.51 543.357 1583.51 541.853" stroke="white" stroke-width="3" stroke-linecap="round"/>
<path d="M1591.79 534.186C1588.67 534.186 1588.98 537.042 1589.03 539.57C1589.07 542.124 1591.45 542.857 1593.66 542.415C1596.42 541.864 1597.8 538.443 1595.47 536.503C1594.68 535.847 1592.81 534.46 1591.79 534.799" stroke="white" stroke-width="3" stroke-linecap="round"/>
<path d="M1605.28 533.572C1603.38 533.572 1602.88 534.062 1602.01 535.992C1601.42 537.31 1601.32 539.457 1601.98 540.796C1603.19 543.263 1606.17 541.893 1607.43 540.319" stroke="white" stroke-width="3" stroke-linecap="round"/>
<path d="M1616.63 533.572C1610.67 532.128 1612.47 546.888 1617.86 539.706" stroke="white" stroke-width="3" stroke-linecap="round"/>
<path d="M1618.16 533.879C1617.3 534.844 1618.02 537.221 1618.16 538.309C1618.32 539.567 1618.31 541.004 1618.78 542.159" stroke="white" stroke-width="3" stroke-linecap="round"/>
<path d="M1626.14 524.372C1626.41 530.123 1627.67 535.794 1627.67 541.546" stroke="white" stroke-width="3" stroke-linecap="round"/>
<path d="M1623.07 531.732C1625.06 531.732 1626.9 531.217 1628.85 530.863C1629.44 530.756 1629.51 530.97 1629.82 531.425" stroke="white" stroke-width="3" stroke-linecap="round"/>
<path d="M1635.03 534.799C1635.55 537.009 1635.95 543.816 1635.95 541.546" stroke="white" stroke-width="3" stroke-linecap="round"/>
<path d="M1635.03 529.892C1635.06 530.178 1635.18 530.277 1635.34 530.505" stroke="white" stroke-width="3" stroke-linecap="round"/>
<path d="M1645.46 533.572C1640.83 535.005 1642.85 544.131 1648.01 541.239C1650.05 540.101 1650.31 536.697 1648.69 535.157C1647.46 533.977 1645.81 534.186 1644.23 534.186" stroke="white" stroke-width="3" stroke-linecap="round"/>
<path d="M1654.04 532.959C1655.29 534.513 1655.1 537.428 1655.37 539.297C1655.49 540.096 1655.88 542.473 1655.88 541.665C1655.88 539.205 1656.85 536.257 1658.18 534.203C1660.92 529.998 1661.71 538.892 1661.71 540.626" stroke="white" stroke-width="3" stroke-linecap="round"/>
<path d="M1668.77 532.346C1667.24 531.653 1666.81 532.455 1666.04 533.845C1665.89 534.122 1665.39 535.138 1665.87 535.413C1667.57 536.383 1669.77 535.291 1671.47 536.656C1674.84 539.353 1666.93 544.552 1666.93 539.399" stroke="white" stroke-width="3" stroke-linecap="round"/>
<path d="M1487.93 571.347C1486.99 570.507 1485.3 571.358 1484.52 572.029C1483.03 573.324 1482.92 576.088 1483.81 577.753C1485.46 580.858 1490.39 580.351 1490.39 576.561" stroke="white" stroke-width="3" stroke-linecap="round"/>
<path d="M1489.47 560C1489.47 564.751 1489.06 569.665 1489.77 574.38C1489.95 575.559 1490.73 577.365 1490.39 578.401" stroke="white" stroke-width="3" stroke-linecap="round"/>
<path d="M1497.13 571.041C1492.76 573.483 1495.74 581.765 1499.65 578.674C1501.29 577.384 1502.67 574.776 1500.93 573.034C1500.48 572.578 1499.29 571.037 1498.67 571.347" stroke="white" stroke-width="3" stroke-linecap="round"/>
<path d="M1508.79 571.041C1505.41 571.041 1505.37 575.606 1507.01 577.89C1508.52 579.977 1510.63 578.796 1512.16 577.481" stroke="white" stroke-width="3" stroke-linecap="round"/>
<path d="M1517.37 561.534C1516.27 567.253 1517.07 572.963 1517.07 578.708" stroke="white" stroke-width="3" stroke-linecap="round"/>
<path d="M1517.99 573.494C1519.16 572.038 1520.52 569.796 1522.28 568.962C1522.91 568.664 1522.06 569.727 1521.97 569.814" stroke="white" stroke-width="3" stroke-linecap="round"/>
<path d="M1518.91 573.494C1520.63 574.811 1525.04 579.628 1523.51 578.094" stroke="white" stroke-width="3" stroke-linecap="round"/>
<path d="M1535.36 568.851C1535.42 569.341 1536.52 570.522 1536.79 570.895C1537.97 572.528 1539.38 574.003 1540.5 575.683C1540.82 576.163 1541.36 576.779 1540.57 576.518" stroke="white" stroke-width="3" stroke-linecap="round"/>
<path d="M1544.56 568.237C1543.56 569.366 1543.23 571.561 1542.75 572.957C1541.95 575.316 1541.4 577.799 1540.88 580.232C1540.12 583.805 1538.12 587.535 1538.12 591.239" stroke="white" stroke-width="3" stroke-linecap="round"/>
<path d="M1551.31 569.464C1549.58 571.49 1548.61 574.434 1550.54 576.654C1552.32 578.708 1554.51 577.244 1555.36 575.189C1556.15 573.26 1556.85 570.62 1554.51 569.617C1553.64 569.243 1552.58 568.544 1551.61 568.544" stroke="white" stroke-width="3" stroke-linecap="round"/>
<path d="M1561.12 570.077C1561.12 570.931 1560.23 577.736 1561.87 578.034C1564.23 578.463 1565.41 574.806 1565.41 573.144C1565.41 572.224 1565.41 571.304 1565.41 570.384C1565.41 569.485 1565.41 571.801 1565.41 571.985C1565.43 573.123 1565.4 576.818 1566.64 577.438" stroke="white" stroke-width="3" stroke-linecap="round"/>
<path d="M1571.24 569.77C1571.6 571.895 1571.65 574.34 1572.45 576.33C1572.99 577.691 1572.47 573.4 1572.47 571.934C1572.47 570.264 1572.61 568.429 1574.55 567.999C1575.67 567.748 1576.45 567.674 1576.45 568.85" stroke="white" stroke-width="3" stroke-linecap="round"/>
<path d="M1595.08 568.237C1593.59 568.237 1592.33 568.294 1591.47 569.72C1591.13 570.281 1590.79 571.645 1591.27 572.19C1591.62 572.595 1592.29 572.517 1592.76 572.531C1593.74 572.559 1595.01 573.091 1595.87 573.519C1600.19 575.682 1590.35 581.403 1591.1 576.211" stroke="white" stroke-width="3" stroke-linecap="round"/>
<path d="M1601.52 561.797C1601.52 566.026 1601.82 570.322 1602.31 574.524C1602.42 575.556 1602.75 578.647 1602.75 577.608C1602.75 576.706 1602.91 575.912 1603.23 575.069C1603.9 573.283 1605.66 567.315 1608.13 571.44C1609.02 572.914 1608.88 574.667 1608.88 576.313C1608.88 577.525 1608.88 575.978 1608.88 575.598" stroke="white" stroke-width="3" stroke-linecap="round"/>
<path d="M1613.79 570.077C1614.12 572.521 1614.4 574.969 1614.4 577.438" stroke="white" stroke-width="3" stroke-linecap="round"/>
<path d="M1613.48 565.477L1612.87 565.17" stroke="white" stroke-width="3" stroke-linecap="round"/>
<path d="M1621.15 569.464C1620.72 574.255 1621.71 578.929 1621.76 583.708C1621.77 584.226 1621.76 589.011 1621.76 586.638" stroke="white" stroke-width="3" stroke-linecap="round"/>
<path d="M1621.46 573.144C1620.75 572.134 1628.63 568.41 1628.51 573.996C1628.45 576.994 1622.07 579.466 1622.07 575.904" stroke="white" stroke-width="3" stroke-linecap="round"/>
<path d="M1390.73 249.432C1384.51 247.509 1381 252.288 1380.51 258.155C1380.06 263.662 1378.11 280.3 1386.68 280.963C1393.83 281.516 1401 275.739 1401 268.381C1401 266.698 1389.5 267.479 1395.4 267.479" stroke="white" stroke-width="5" stroke-linecap="round"/>
<path d="M1413.13 249C1413.13 259.352 1411.5 269.743 1412.15 280.086C1412.23 281.378 1417.17 280.086 1418.54 280.086C1419.71 280.086 1424.96 281 1423.85 281" stroke="white" stroke-width="5" stroke-linecap="round"/>
<path d="M1445.14 278.9C1429.37 289.98 1432.97 253.705 1439.95 251.676C1443.12 250.323 1448.99 250.78 1450.46 255.086C1453.36 263.572 1452.47 273.757 1445.14 278.9Z" stroke="white" stroke-width="5" stroke-linecap="round"/>
<path d="M1464 250C1464 258.811 1464 272.367 1464 281" stroke="white" stroke-width="5" stroke-linecap="round"/>
<path d="M1464 282C1472.33 282 1480.34 281.277 1479.99 271.966C1479.78 266.445 1470.97 264.651 1468.2 265C1465.78 265.306 1464.11 265.801 1467.33 263.939C1471.99 263.939 1474.66 261.264 1474.66 256.581C1474.66 252.829 1468 247.886 1464 249.224" stroke="white" stroke-width="5" stroke-linecap="round"/>
<path d="M1490 279C1490 277.121 1490.55 276.455 1491.44 274.857C1494.41 269.473 1497.62 263.444 1499.51 257.579C1499.89 256.411 1502.12 245.06 1502.12 250.438C1502.12 254.397 1504.67 259.697 1505.75 263.573C1507.11 268.479 1509.43 272.782 1511 277.413" stroke="white" stroke-width="5" stroke-linecap="round"/>
<path d="M1494 270C1499.47 270 1501.54 269 1507 269" stroke="white" stroke-width="5" stroke-linecap="round"/>
<path d="M1569 280C1569 278.121 1569.55 277.455 1570.44 275.857C1573.41 270.473 1576.62 264.444 1578.51 258.579C1578.89 257.411 1581.12 246.06 1581.12 251.438C1581.12 255.397 1583.67 260.697 1584.75 264.573C1586.11 269.479 1588.43 273.782 1590 278.413" stroke="white" stroke-width="5" stroke-linecap="round"/>
<path d="M1573 271C1578.47 271 1580.54 270 1586 270" stroke="white" stroke-width="5" stroke-linecap="round"/>
<path d="M1649 280C1649 278.121 1649.55 277.455 1650.44 275.857C1653.41 270.473 1656.62 264.444 1658.51 258.579C1658.89 257.411 1661.12 246.06 1661.12 251.438C1661.12 255.397 1663.67 260.697 1664.75 264.573C1666.11 269.479 1668.43 273.782 1670 278.413" stroke="white" stroke-width="5" stroke-linecap="round"/>
<path d="M1653 271C1658.47 271 1660.54 270 1666 270" stroke="white" stroke-width="5" stroke-linecap="round"/>
<path d="M1600.94 279.097C1600.94 271.441 1601.21 263.793 1601.21 256.135C1601.21 254.821 1601 253.517 1600.94 252.199C1600.91 251.628 1600.75 249.766 1600.41 251.134" stroke="white" stroke-width="5" stroke-linecap="round"/>
<path d="M1601.47 250.335C1602.85 250.335 1604.21 250.068 1605.58 250.068C1607.16 250.068 1608.15 250.74 1609.4 251.666C1611.12 252.94 1612.41 256.484 1611.8 258.531C1611.16 260.703 1610.66 263.314 1607.66 263.384C1606.87 263.402 1603.13 263.78 1602.8 263.118" stroke="white" stroke-width="5" stroke-linecap="round"/>
<path d="M1602 265.515C1604.34 269.61 1607.7 273.235 1611.3 276.271C1612.12 276.971 1612.57 277.973 1613.46 278.565" stroke="white" stroke-width="5" stroke-linecap="round"/>
<path d="M1625.44 249.802C1625.44 256.866 1625.71 263.889 1625.71 270.945C1625.71 272.577 1625.71 274.21 1625.71 275.842C1625.71 276.51 1626.05 279.291 1625.44 277.766" stroke="white" stroke-width="5" stroke-linecap="round"/>
<path d="M1625.97 278.298C1622.6 278.298 1639.47 278.565 1636.09 278.565" stroke="white" stroke-width="5" stroke-linecap="round"/>
<path d="M1625.97 264.183C1627.92 264.183 1629.86 264.183 1631.8 264.183C1632.29 264.183 1635.36 264.449 1633.7 264.449" stroke="white" stroke-width="5" stroke-linecap="round"/>
<path d="M1625.17 249.536C1621.89 249.536 1638.31 249.802 1635.03 249.802" stroke="white" stroke-width="5" stroke-linecap="round"/>
<path d="M1522.05 249C1522.05 255.796 1521.26 262.629 1521.26 269.496C1521.26 270.819 1520.57 277.06 1521.43 278C1523.43 280.187 1532.54 278.12 1535 278.024" stroke="white" stroke-width="5" stroke-linecap="round"/>
<path d="M1453.14 679.9C1437.37 690.98 1440.97 654.705 1447.95 652.676C1451.12 651.323 1456.99 651.78 1458.46 656.086C1461.36 664.572 1460.47 674.757 1453.14 679.9Z" stroke="white" stroke-width="5" stroke-linecap="round"/>
<path d="M1582.14 679.9C1566.37 690.98 1569.97 654.705 1576.95 652.676C1580.12 651.323 1585.99 651.78 1587.46 656.086C1590.36 664.572 1589.47 674.757 1582.14 679.9Z" stroke="white" stroke-width="5" stroke-linecap="round"/>
<path d="M1495 682C1495 680.121 1495.53 679.455 1496.37 677.857C1499.2 672.473 1502.25 666.444 1504.06 660.579C1504.42 659.411 1506.54 648.06 1506.54 653.438C1506.54 657.397 1508.97 662.697 1510 666.573C1511.3 671.479 1513.5 675.782 1515 680.413" stroke="white" stroke-width="5" stroke-linecap="round"/>
<path d="M1499 673C1504.47 673 1506.54 672 1512 672" stroke="white" stroke-width="5" stroke-linecap="round"/>
<path d="M1419.05 652C1419.05 658.796 1418.26 665.629 1418.26 672.496C1418.26 673.819 1417.57 680.06 1418.43 681C1420.43 683.187 1429.54 681.12 1432 681.024" stroke="white" stroke-width="5" stroke-linecap="round"/>
<path d="M1643.96 653.047C1640.66 652.022 1636.98 651.047 1634.24 653.758C1632.08 655.893 1631.36 659.022 1631.36 661.897C1631.36 664.352 1633.54 665.346 1635.64 666.006C1638.86 667.019 1641.85 665.989 1644.6 668.614C1646.25 670.191 1649 672.343 1649 674.817C1649 677.756 1648.04 679.728 1645.16 680.981C1639.9 683.269 1631 681.919 1631 674.738" stroke="white" stroke-width="5" stroke-linecap="round"/>
<path d="M1480 651.266C1472.25 648.855 1470 663.508 1470 668.049C1470 672.596 1471.05 676.529 1473.48 680.403C1475.99 684.395 1482.75 679.804 1485 678.494" stroke="white" stroke-width="5" stroke-linecap="round"/>
<path d="M1532 653C1532 662.372 1532 690.486 1532 681.114" stroke="white" stroke-width="5" stroke-linecap="round"/>
<path d="M1523 652C1524.43 652.787 1527.48 652.494 1529.1 652.5C1532.22 652.512 1535.23 652.565 1538.33 652.736C1539.93 652.824 1541.39 653 1543 653" stroke="white" stroke-width="5" stroke-linecap="round"/>
<path d="M1556 655C1556 662.781 1556.92 670.588 1556.92 678.4C1556.92 680.04 1557.28 682.81 1556.46 679.317" stroke="white" stroke-width="5" stroke-linecap="round"/>
<path d="M1554 645L1555 644" stroke="white" stroke-width="5" stroke-linecap="round"/>
<path d="M1603 682C1602.5 681.914 1602.25 666.074 1602.15 664.114C1602.01 661.675 1601.92 659.001 1602.09 656.549C1602.18 655.354 1602.75 653.921 1602.08 653" stroke="white" stroke-width="5" stroke-linecap="round"/>
<path d="M1603.07 651.962C1602.29 652.176 1608.14 661.851 1608.85 662.968C1611.18 666.611 1613.27 670.441 1614.58 674.525C1615.33 676.877 1616.09 680.139 1617.8 681.968C1618.04 682.225 1618 680.86 1618 680.578C1618 678.68 1618 676.782 1618 674.883C1618 670.02 1617.81 665.229 1617.57 660.384C1617.38 656.44 1617.28 654.887 1617.28 651" stroke="white" stroke-width="5" stroke-linecap="round"/>
<path d="M379.118 1017.58C379.118 1020.45 379.118 1023.32 379.118 1026.2C379.118 1028.8 378.65 1020.43 380.389 1018.5C384.286 1014.17 385.627 1026.08 383.566 1027.11" stroke="#3CDB4C" stroke-width="3" stroke-linecap="round"/>
<path d="M389.284 1003.6C389.874 1010.54 389.92 1017.47 389.92 1024.43C389.92 1025.47 389.928 1025.83 389.284 1026.48" stroke="#3CDB4C" stroke-width="3" stroke-linecap="round"/>
<path d="M394.367 1018.22C395.209 1019.81 398.541 1025.03 396.909 1025.84" stroke="#3CDB4C" stroke-width="3" stroke-linecap="round"/>
<path d="M400.086 1017.58C399.684 1018.92 393.699 1037.9 395.003 1038.55" stroke="#3CDB4C" stroke-width="3" stroke-linecap="round"/>
<path d="M413.43 1018.22C414.17 1025.81 414.065 1048.72 414.065 1041.09" stroke="#3CDB4C" stroke-width="3" stroke-linecap="round"/>
<path d="M410.889 1021.39C411.847 1017.99 414.102 1017.32 417.737 1017.02C420.747 1016.77 421.055 1019.99 421.055 1022.31C421.055 1026.49 414.725 1026.23 412.159 1025.21" stroke="#3CDB4C" stroke-width="3" stroke-linecap="round"/>
<path d="M425.503 1005.51V1026.48" stroke="#3CDB4C" stroke-width="3" stroke-linecap="round"/>
<path d="M434.399 1019.49C431.57 1018.58 428.439 1020.69 430.022 1024.25C430.767 1025.93 432.921 1025.84 434.399 1025.84" stroke="#3CDB4C" stroke-width="3" stroke-linecap="round"/>
<path d="M435.67 1020.12V1027.75" stroke="#3CDB4C" stroke-width="3" stroke-linecap="round"/>
<path d="M445.201 1019.49C441.436 1018.28 439.066 1022.05 440.612 1025.7C441.343 1027.43 445.206 1026.26 446.472 1025.84" stroke="#3CDB4C" stroke-width="3" stroke-linecap="round"/>
<path d="M452.19 1022.67C454.933 1022.03 457.782 1021.51 457.238 1018.25C457.013 1016.9 454.955 1016.5 453.955 1017.23C452.214 1018.5 450.633 1023.49 451.908 1025.49C452.977 1027.17 456.202 1026.48 457.909 1026.48" stroke="#3CDB4C" stroke-width="3" stroke-linecap="round"/>
<path d="M466.169 1015.68C464.548 1015.74 461.834 1016.82 461.721 1018.85C461.61 1020.86 464.055 1021.12 465.499 1021.75C471.666 1024.45 464.583 1028.71 463.628 1025.84" stroke="#3CDB4C" stroke-width="3" stroke-linecap="round"/>
<path d="M483.961 1016.95C479.403 1012.66 477.463 1024.18 479.655 1025.84C481.722 1027.41 484.109 1025.74 485.867 1024.57" stroke="#3CDB4C" stroke-width="3" stroke-linecap="round"/>
<path d="M485.867 1017.58V1027.11" stroke="#3CDB4C" stroke-width="3" stroke-linecap="round"/>
<path d="M490.315 1018.85C491.378 1020.98 492.161 1024.57 493.634 1026.34C494.164 1026.97 495.381 1022.24 495.399 1022.17C495.768 1020.65 496.19 1018.48 497.305 1017.3C498.269 1016.28 498.808 1016.28 497.94 1017.58" stroke="#3CDB4C" stroke-width="3" stroke-linecap="round"/>
<path d="M506.836 1018.22C500.673 1015.82 501.087 1033.5 507.472 1027.11" stroke="#3CDB4C" stroke-width="3" stroke-linecap="round"/>
<path d="M508.106 1018.85C508.106 1021.88 508.365 1024.74 508.742 1027.75" stroke="#3CDB4C" stroke-width="3" stroke-linecap="round"/>
<path d="M514.461 1018.85C514.461 1020.39 513.545 1025.7 515.097 1026.48" stroke="#3CDB4C" stroke-width="3" stroke-linecap="round"/>
<path d="M514.461 1013.13C514.572 1012.25 514.869 1012.68 515.096 1013.13" stroke="#3CDB4C" stroke-width="3" stroke-linecap="round"/>
<path d="M522.721 1005.51C522.824 1012.72 523.356 1019.9 523.356 1027.11" stroke="#3CDB4C" stroke-width="3" stroke-linecap="round"/>
<path d="M534.159 1019.49C530.387 1015.94 528.936 1022.26 530.487 1025.21C531.313 1026.78 534.319 1025.48 535.429 1025.21" stroke="#3CDB4C" stroke-width="3" stroke-linecap="round"/>
<path d="M536.064 1019.49V1027.11" stroke="#3CDB4C" stroke-width="3" stroke-linecap="round"/>
<path d="M543.054 1005.51C543.054 1012.51 542.419 1019.59 542.419 1026.48" stroke="#3CDB4C" stroke-width="3" stroke-linecap="round"/>
<path d="M542.419 1020.12C542.609 1018.61 549.469 1019.27 549.408 1021.39C549.314 1024.69 546.813 1027.11 543.69 1027.11" stroke="#3CDB4C" stroke-width="3" stroke-linecap="round"/>
<path d="M555.762 1008.05C555.762 1013.6 556.919 1020.46 555.127 1025.84" stroke="#3CDB4C" stroke-width="3" stroke-linecap="round"/>
<path d="M563.388 1022.03C571.058 1022.03 564.68 1012.95 563.246 1017.09C562.258 1019.94 561.428 1023.33 562.187 1026.37C562.713 1028.47 565.704 1026.13 566.565 1025.84" stroke="#3CDB4C" stroke-width="3" stroke-linecap="round"/>
<path d="M582.45 1017.58V1025.84" stroke="#3CDB4C" stroke-width="3" stroke-linecap="round"/>
<path d="M579.908 1009.96L580.544 1010.59" stroke="#3CDB4C" stroke-width="3" stroke-linecap="round"/>
<path d="M588.804 1017.58C588.804 1019.04 588.804 1020.5 588.804 1021.96C588.804 1026.94 588.42 1023.5 589.157 1021.08C591.465 1013.49 594.523 1021.14 594.523 1025.21" stroke="#3CDB4C" stroke-width="3" stroke-linecap="round"/>
<path d="M608.502 1007.42C609.104 1013.13 609.137 1018.83 609.137 1024.57" stroke="#3CDB4C" stroke-width="3" stroke-linecap="round"/>
<path d="M605.325 1017.58C608.343 1017.58 611.204 1017.3 614.221 1016.95" stroke="#3CDB4C" stroke-width="3" stroke-linecap="round"/>
<path d="M619.939 1007.42C619.939 1003 619.939 1016.24 619.939 1020.65C619.939 1024.71 619.378 1023.22 620.257 1020.76C620.741 1019.4 621.532 1014.6 623.752 1016.95C625.45 1018.74 625.023 1021.67 625.023 1023.94" stroke="#3CDB4C" stroke-width="3" stroke-linecap="round"/>
<path d="M632.012 1020.76C635.188 1019.62 635.374 1018.37 635.189 1015.04C635.096 1013.37 632.446 1014.87 632.012 1015.53C630.722 1017.51 629.553 1023.3 632.012 1024.57C634.188 1025.69 635.935 1025.37 637.731 1023.94" stroke="#3CDB4C" stroke-width="3" stroke-linecap="round"/>
<path d="M652.981 1015.04C649.21 1015.2 648.175 1022.77 651.075 1024.22C652.635 1025 655.56 1025.09 656.158 1023.3" stroke="#3CDB4C" stroke-width="3" stroke-linecap="round"/>
<path d="M659.97 1015.68C658.59 1015.85 658.822 1024 660.394 1024.57C664.064 1025.91 664.981 1023.34 666.324 1020.41C667.214 1018.46 666.96 1013.51 666.96 1018.57C666.96 1021.15 666.796 1023.44 667.595 1025.84" stroke="#3CDB4C" stroke-width="3" stroke-linecap="round"/>
<path d="M673.314 1016.31C673.345 1017.98 673.95 1024.58 673.95 1024.43C673.95 1022.37 673.575 1019.94 674.091 1017.94C674.932 1014.67 677.762 1013.89 677.762 1017.58" stroke="#3CDB4C" stroke-width="3" stroke-linecap="round"/>
<path d="M682.846 1014.41C682.846 1017.48 684.117 1026.62 684.117 1023.55C684.117 1021.87 684.067 1020.18 684.117 1018.5C684.191 1015.98 689.2 1012.95 689.2 1016.95" stroke="#3CDB4C" stroke-width="3" stroke-linecap="round"/>
<path d="M693.012 1021.39C696.222 1022.17 698.13 1020.88 699.225 1017.72C700.161 1015.02 696.569 1015.54 695.342 1016.73C690.951 1021.02 694.348 1027.09 700.001 1025.21" stroke="#3CDB4C" stroke-width="3" stroke-linecap="round"/>
<path d="M704.449 1016.95C704.449 1018.65 703.673 1023.39 704.484 1024.61C705.11 1025.55 705.065 1022.42 705.437 1021.36C706.004 1019.74 706.854 1018.36 707.909 1017.02C710.639 1013.54 712.074 1023.24 712.074 1025.21" stroke="#3CDB4C" stroke-width="3" stroke-linecap="round"/>
<path d="M716.522 1006.14V1025.21" stroke="#3CDB4C" stroke-width="3" stroke-linecap="round"/>
<path d="M712.71 1015.68H722.241" stroke="#3CDB4C" stroke-width="3" stroke-linecap="round"/>
<path d="M737.491 1016.95C734.041 1018.19 733.511 1021.75 734.808 1025.21C735.444 1026.9 737.93 1024.49 738.762 1023.94" stroke="#3CDB4C" stroke-width="3" stroke-linecap="round"/>
<path d="M739.397 1006.14V1025.84" stroke="#3CDB4C" stroke-width="3" stroke-linecap="round"/>
<path d="M744.48 1021.39C746.572 1020.82 747.573 1020.42 748.222 1018.22C748.592 1016.96 748.917 1015.68 747.34 1015.68C745.059 1015.68 745.204 1017.37 744.798 1019.24C743.735 1024.13 746.68 1029.36 751.47 1024.57" stroke="#3CDB4C" stroke-width="3" stroke-linecap="round"/>
<path d="M755.282 1015.04C755.282 1017.71 755.485 1020.29 755.776 1022.95C756.096 1025.86 756.485 1021.92 756.694 1020.83C756.94 1019.55 757.223 1015.78 759.095 1015.68C761.473 1015.54 761.156 1018.21 761.636 1019.98C761.902 1020.96 761.982 1024.68 762.413 1022.52C762.828 1020.45 763.229 1018.44 764.813 1016.95C768.876 1013.11 768.626 1021.44 768.626 1023.3" stroke="#3CDB4C" stroke-width="3" stroke-linecap="round"/>
<path d="M776.251 1015.68C772.038 1014.33 771.871 1020.51 774.345 1022.63C776.443 1024.43 779.392 1023.15 779.923 1020.62C780.375 1018.46 780.617 1015.28 778.475 1014.09C776.946 1013.24 774.358 1015.46 773.074 1016.31" stroke="#3CDB4C" stroke-width="3" stroke-linecap="round"/>
<path d="M52.0887 1003.11C44.8665 1001.63 43.1185 1015.17 44.3732 1020.13C45.2685 1023.66 48.7003 1032.25 53.8278 1029.17C54.5784 1028.72 59.8849 1021.78 58.0018 1021.36C56.1891 1020.96 53.9538 1021.33 52.0887 1021.33" stroke="#3CDB4C" stroke-width="3" stroke-linecap="round"/>
<path d="M65.1798 1020.19C63.8341 1021.7 64.6106 1025.14 64.6106 1026.96C64.6106 1031.81 64.4517 1027.11 64.9584 1025.31C65.2775 1024.18 69.164 1018.76 69.164 1022.47" stroke="#3CDB4C" stroke-width="3" stroke-linecap="round"/>
<path d="M74.8566 1025.88C77.1818 1025.88 79.0972 1025.96 79.1571 1022.97C79.1813 1021.76 78.1011 1021.06 77.0068 1021.45C75.8814 1021.86 74.9612 1023.44 74.7301 1024.55C74.4373 1025.96 73.9995 1027.94 74.2874 1029.36C74.7768 1031.77 81.2946 1028.93 82.2559 1028.73" stroke="#3CDB4C" stroke-width="3" stroke-linecap="round"/>
<path d="M87.9477 1026.45C90.1135 1026.45 93.5572 1024.72 92.9438 1021.9C92.4002 1019.4 89.1976 1020.11 88.2639 1021.58C84.678 1027.21 87.9099 1033.98 94.2087 1028.73" stroke="#3CDB4C" stroke-width="3" stroke-linecap="round"/>
<path d="M97.623 1021.9C97.8423 1022.62 99.3306 1030.59 99.3306 1027.27C99.3306 1024.45 100.448 1021.47 102.746 1019.68C106.388 1016.85 104.964 1026.36 106.161 1028.16" stroke="#3CDB4C" stroke-width="3" stroke-linecap="round"/>
<path d="M110.715 1024.74C114.018 1024.74 117.115 1023.88 120.391 1024.17" stroke="#3CDB4C" stroke-width="3" stroke-linecap="round"/>
<path d="M132.343 1019.05C130.448 1019.05 129.168 1018.56 128.391 1020.57C127.701 1022.35 127.528 1024.76 127.822 1026.67C128.161 1028.87 132.956 1026.76 134.051 1026.45" stroke="#3CDB4C" stroke-width="3" stroke-linecap="round"/>
<path d="M140.881 1019.05C134.818 1016.2 134.971 1031.51 143.158 1025.6C149.76 1020.83 139.326 1015.54 137.466 1020.19" stroke="#3CDB4C" stroke-width="3" stroke-linecap="round"/>
<path d="M150.557 1005.39V1026.45" stroke="#3CDB4C" stroke-width="3" stroke-linecap="round"/>
<path d="M159.095 1017.91C155.558 1019.19 155.629 1026.02 159.632 1026.42C162.279 1026.68 163.566 1024.16 163.648 1021.77C163.763 1018.44 157.387 1016.77 157.387 1020.19" stroke="#3CDB4C" stroke-width="3" stroke-linecap="round"/>
<path d="M168.201 1018.48C168.201 1019 167.863 1026.77 168.771 1026.77C168.781 1026.77 168.74 1022.9 168.802 1022.47C169.088 1020.46 172.44 1018.1 173.324 1020.76" stroke="#3CDB4C" stroke-width="3" stroke-linecap="round"/>
<path d="M178.446 1021.33C180.324 1021.33 181.266 1021.59 182.114 1019.65C183.252 1017.05 180.596 1017.08 179.395 1019.05C178.731 1020.14 178.585 1023.63 179.142 1024.74C180.026 1026.51 184.169 1024.65 185.276 1024.17" stroke="#3CDB4C" stroke-width="3" stroke-linecap="round"/>
<path d="M194.384 1018.48C191.85 1018.54 191.545 1018.76 191.253 1021.33C191.152 1022.22 190.507 1024.22 191.317 1025.03C192.789 1026.5 195.558 1024.51 197.23 1024.17" stroke="#3CDB4C" stroke-width="3" stroke-linecap="round"/>
<path d="M198.368 1006.53C197.899 1013.18 198.937 1019.79 198.937 1026.45" stroke="#3CDB4C" stroke-width="3" stroke-linecap="round"/>
<path d="M212.597 1018.48C212.597 1020.86 212.017 1027.9 212.723 1025.63C213.362 1023.57 213.413 1020.13 215.316 1018.73C218.026 1016.75 221.112 1025.32 218.858 1026.45" stroke="#3CDB4C" stroke-width="3" stroke-linecap="round"/>
<path d="M229.673 1019.05C225.528 1015.22 222.403 1020.96 222.874 1024.96C223.334 1028.87 227.446 1026.25 228.218 1024.14C228.547 1023.24 229.673 1016.67 229.673 1019.62C229.673 1021.71 229.673 1023.79 229.673 1025.88" stroke="#3CDB4C" stroke-width="3" stroke-linecap="round"/>
<path d="M235.934 1017.34C235.934 1020.29 235.934 1023.25 235.934 1026.2C235.934 1028.32 236.534 1021.94 237.388 1020C240.014 1014.03 243.902 1019.97 243.902 1023.89C243.902 1026.14 244.009 1023.81 244.471 1022.75C245.369 1020.68 245.609 1017.83 247.444 1016.33C251.196 1013.26 251.871 1023.78 251.871 1025.31" stroke="#3CDB4C" stroke-width="3" stroke-linecap="round"/>
<path d="M258.132 1022.47C263.105 1027.44 264.024 1014.31 258.985 1018.23C257.247 1019.58 257.357 1024.2 258.132 1026.07C259.032 1028.24 262.459 1026.56 263.823 1025.88" stroke="#3CDB4C" stroke-width="3" stroke-linecap="round"/>
<path d="M271.792 1017.91C270.679 1017.91 265.376 1019.78 267.365 1021.77C268.845 1023.25 273.342 1020.63 274.954 1022.15C279.297 1026.25 268.946 1029.11 268.946 1025.88" stroke="#3CDB4C" stroke-width="3" stroke-linecap="round"/>
<path d="M292.851 1017.34C289.147 1015.82 288.615 1019.79 287.666 1022.78C287.308 1023.91 286.775 1025.6 287.413 1026.77C289.22 1030.08 292.532 1022.7 292.788 1021.42C292.894 1020.89 293.421 1016.97 293.421 1019.46C293.421 1022.01 292.835 1025.28 293.99 1027.59" stroke="#3CDB4C" stroke-width="3" stroke-linecap="round"/>
<path d="M297.974 1017.91C297.974 1019.81 298.4 1021.58 298.511 1023.48C298.704 1026.76 299.066 1020.92 299.428 1019.94C300.421 1017.24 305.373 1014.69 305.373 1019.05" stroke="#3CDB4C" stroke-width="3" stroke-linecap="round"/>
<path d="M311.065 1022.47C313.234 1021.68 316.55 1019.52 315.176 1016.77C314.116 1014.65 311.953 1016.34 310.812 1017.37C308.793 1019.21 308.868 1024.64 311.033 1026.13C313.312 1027.7 314.756 1026.34 316.757 1024.74" stroke="#3CDB4C" stroke-width="3" stroke-linecap="round"/>
<path d="M327.571 1007.67C327.571 1013.89 328.996 1021.61 327.002 1027.59" stroke="#3CDB4C" stroke-width="3" stroke-linecap="round"/>
<path d="M325.295 1016.2C326.934 1016.98 329.101 1017.03 330.418 1017.91" stroke="#3CDB4C" stroke-width="3" stroke-linecap="round"/>
<path d="M335.54 1007.1C335.54 1013.05 336.109 1030.88 336.109 1024.93C336.109 1022.69 336.316 1019.69 338.354 1018.29C343.077 1015.04 342.37 1024.7 342.37 1027.02" stroke="#3CDB4C" stroke-width="3" stroke-linecap="round"/>
<path d="M347.493 1023.03C349.951 1023.7 352.76 1021.94 352.615 1019.05C352.456 1015.87 348.34 1018.13 347.556 1019.3C346.255 1021.26 345.597 1025.3 347.24 1027.24C348.822 1029.11 353.195 1028.14 354.323 1026.45" stroke="#3CDB4C" stroke-width="3" stroke-linecap="round"/>
<path d="M369.405 1019.53C369.276 1018.5 367.541 1018.92 367.002 1019.4C366.019 1020.28 365.96 1021.82 365.99 1023.07C366.041 1025.21 369.432 1029.05 371.682 1026.93C373.012 1025.67 374.3 1022.32 373.136 1020.54C370.612 1016.68 369.081 1019.2 367.128 1021.8" stroke="#3CDB4C" stroke-width="3" stroke-linecap="round"/>
<path d="M788.91 1022.98C788.466 1023.04 788.591 1023.14 788.428 1023.47" stroke="#3CDB4C" stroke-width="3" stroke-linecap="round"/>
<path d="M1376.27 696C1374.26 705.789 1374.89 716.704 1376.39 726.578C1376.71 728.72 1377.5 729.955 1378.34 731.626" stroke="white" stroke-width="3" stroke-linecap="round"/>
<path d="M1385.05 701.68C1385.11 707.536 1385.57 713.381 1385.57 719.235C1385.57 721.926 1386.66 717.214 1386.83 716.739C1387.52 714.752 1389.72 714.766 1391.24 716.137C1392.19 716.984 1391.37 720.267 1392.28 720.267" stroke="white" stroke-width="3" stroke-linecap="round"/>
<path d="M1400.54 714.588C1392.38 717.199 1401.33 726.937 1404.15 721.3C1406.18 717.241 1402.18 713.667 1398.47 716.137" stroke="white" stroke-width="3" stroke-linecap="round"/>
<path d="M1410.86 701.164C1410.28 708.318 1411.9 715.32 1411.9 722.333" stroke="white" stroke-width="3" stroke-linecap="round"/>
<path d="M1420.67 715.621C1417.27 715.724 1417.61 719.56 1418.49 722.218C1419.13 724.116 1421.67 721.481 1422.22 720.784" stroke="white" stroke-width="3" stroke-linecap="round"/>
<path d="M1422.74 702.196C1423.04 709.292 1424.29 716.254 1424.29 723.365" stroke="white" stroke-width="3" stroke-linecap="round"/>
<path d="M1443.59 706.327C1444.16 711.636 1444.62 717.017 1444.62 722.361C1444.62 722.903 1444.54 724.999 1445.14 724.398" stroke="white" stroke-width="3" stroke-linecap="round"/>
<path d="M1439.97 714.588C1442.61 714.981 1445.09 714.588 1447.72 714.588" stroke="white" stroke-width="3" stroke-linecap="round"/>
<path d="M1451.85 705.81C1452.54 709.825 1453.08 713.749 1453.43 717.8C1453.56 719.297 1454.33 720.675 1454.43 722.218C1454.6 724.697 1455.4 718.914 1455.78 718.231C1456.48 716.979 1460.66 714.848 1461.37 716.997C1462.05 719.013 1461.66 725.49 1461.66 723.365" stroke="white" stroke-width="3" stroke-linecap="round"/>
<path d="M1465.79 718.718C1467.23 720.001 1470.85 718.393 1470.41 716.395C1470.15 715.212 1467.56 714.368 1466.94 715.621C1466.04 717.416 1466.31 719.879 1466.31 721.816C1466.31 724.002 1469.82 724.398 1471.47 724.398" stroke="white" stroke-width="3" stroke-linecap="round"/>
<path d="M1488.98 714.992C1488.98 718.203 1488.98 721.414 1488.98 724.626C1488.98 725.496 1488.98 725.947 1488.98 724.752C1488.98 723.403 1488.89 722.012 1489.12 720.678C1489.57 718.12 1492.03 711.555 1494.73 716.006C1496.39 718.734 1497.45 720.444 1497.45 723.648C1497.45 724.062 1497.45 722.236 1497.47 721.946C1497.58 720.371 1498.18 719.045 1498.75 717.6C1499.32 716.165 1500.52 711.357 1503.06 713.906C1505.74 716.58 1504.17 719.317 1505.02 722.416C1505.25 723.257 1505.27 726.304 1505.27 723.793" stroke="white" stroke-width="3" stroke-linecap="round"/>
<path d="M1514.73 714.992C1512.41 715.08 1510.86 717.378 1510.82 719.628C1510.79 720.782 1510.39 723.066 1511.43 723.901C1514.35 726.245 1516.68 719.312 1516.68 717.527C1516.68 716.744 1516.36 716.076 1516.36 715.318C1516.36 714.439 1516.62 717.057 1516.75 717.926C1517.14 720.36 1517.09 722.871 1517.59 725.278C1517.83 726.456 1517.89 725.456 1517.99 724.771" stroke="white" stroke-width="3" stroke-linecap="round"/>
<path d="M1525.81 715.644C1526.27 721.729 1526.79 727.899 1526.79 734.006C1526.79 734.976 1526.88 735.937 1527.44 734.549" stroke="white" stroke-width="3" stroke-linecap="round"/>
<path d="M1526.13 717.274C1526.83 715.464 1530.85 713.638 1532.47 715.137C1533.77 716.332 1534.43 718.409 1533.63 720.062C1532.74 721.901 1528.6 721.511 1526.79 721.511" stroke="white" stroke-width="3" stroke-linecap="round"/>
<path d="M1547.65 713.036C1548.9 716 1550.3 718.906 1551.56 721.837" stroke="white" stroke-width="3" stroke-linecap="round"/>
<path d="M1555.47 713.036C1554.89 713.23 1554.75 714.233 1554.58 714.72C1553.36 718.398 1552.27 722.108 1551.29 725.857C1550.93 727.202 1550.76 730.999 1548.95 730.637" stroke="white" stroke-width="3" stroke-linecap="round"/>
<path d="M1563.29 713.688C1557.27 713.688 1559.85 723.962 1564.29 721.584C1567.74 719.733 1566.09 716.157 1564.36 713.489C1563.63 712.359 1561.8 713.538 1561.01 714.014" stroke="white" stroke-width="3" stroke-linecap="round"/>
<path d="M1571.44 714.666C1571.44 716.38 1570.65 722.072 1572.82 721.801C1576.34 721.36 1577.09 717.528 1577.29 714.594C1577.44 712.41 1577.31 714.686 1577.31 715.535C1577.31 717.128 1576.77 721.621 1577.96 722.815" stroke="white" stroke-width="3" stroke-linecap="round"/>
<path d="M1593.93 713.036C1592.4 714.294 1588.68 720.67 1592.56 721.764C1594.42 722.291 1595.7 721.352 1596.54 719.881" stroke="white" stroke-width="3" stroke-linecap="round"/>
<path d="M1604.69 713.688C1603.17 712.714 1602.97 713.219 1602.24 714.956C1601.68 716.299 1600.34 719.531 1601.9 720.787C1603.81 722.325 1605 720.868 1606.32 719.555" stroke="white" stroke-width="3" stroke-linecap="round"/>
<path d="M1606.32 713.362C1606.32 716.314 1607.3 725.114 1607.3 722.163" stroke="white" stroke-width="3" stroke-linecap="round"/>
<path d="M1612.18 714.014C1612.49 715.952 1612.79 717.918 1612.84 719.881C1612.85 720.556 1612.74 721.345 1612.85 720.189C1613.06 718.161 1613.27 715.824 1614.47 714.087C1615.93 711.957 1618.17 712.818 1618.69 715.119C1619.01 716.579 1619.36 721.051 1619.36 719.555" stroke="white" stroke-width="3" stroke-linecap="round"/>
<path d="M1631.74 716.622C1633.51 716.495 1638.66 715.031 1636.59 712.222C1635.51 710.754 1634.37 710.491 1633.12 711.805C1631.67 713.315 1630.12 717.093 1631.63 719.012C1633.11 720.889 1636.03 719.369 1637.61 718.578" stroke="white" stroke-width="3" stroke-linecap="round"/>
<path d="M1647.39 710.103C1644.93 712.142 1642.06 715.857 1641.19 718.904" stroke="white" stroke-width="3" stroke-linecap="round"/>
<path d="M1642.17 709.451C1643.23 712.158 1644.84 714.558 1646.01 717.201C1646.3 717.848 1646.52 718.17 1647.06 718.578" stroke="white" stroke-width="3" stroke-linecap="round"/>
<path d="M1652.6 711.081C1652.83 717.198 1653.58 723.2 1653.58 729.334" stroke="white" stroke-width="3" stroke-linecap="round"/>
<path d="M1653.91 714.014C1653.91 713.042 1653.71 712.396 1654.67 711.841C1656.97 710.501 1658.2 711.803 1658.63 714.032C1658.87 715.27 1658.25 716.944 1656.97 717.437C1655.54 717.985 1654.54 716.944 1653.25 716.622" stroke="white" stroke-width="3" stroke-linecap="round"/>
<path d="M1662.71 701.302C1662.76 706.845 1663.03 712.382 1663.03 717.926" stroke="white" stroke-width="3" stroke-linecap="round"/>
<path d="M1670.53 711.733C1666.81 708.301 1666.23 721.623 1672.34 717.274C1673.61 716.371 1674.84 713.498 1673.72 712.059C1672.73 710.796 1670.67 710.755 1669.23 710.755" stroke="white" stroke-width="3" stroke-linecap="round"/>
<path d="M1678.68 710.429C1678.68 713.034 1678.9 715.617 1679.4 718.179C1679.57 719.046 1679 716.02 1679 715.39C1679 713.6 1680.38 712.001 1681.94 711.153C1683.53 710.284 1683.24 711.561 1682.92 712.71" stroke="white" stroke-width="3" stroke-linecap="round"/>
<path d="M1685.85 714.666C1688.14 714.666 1691.72 713.891 1691.72 711.081C1691.72 709.595 1690.28 708.245 1688.86 709.523C1686.88 711.297 1686.02 714.126 1685.9 716.694C1685.69 721.19 1693.49 718.993 1695.63 717.926" stroke="white" stroke-width="3" stroke-linecap="round"/>
<path d="M1417 753.038C1417.37 755.159 1417.89 757.245 1418.74 759.231C1418.86 759.515 1419.08 760.512 1419.28 760.716C1419.53 760.967 1419.34 759.999 1419.46 759.665C1419.76 758.858 1419.85 758.041 1420.01 757.203C1420.14 756.518 1421.2 751.477 1421.82 753.436C1422.32 755.061 1422.66 756.755 1423.34 758.325C1423.42 758.52 1424.76 760.46 1425.08 760.39C1425.39 760.32 1426.58 755.76 1426.71 755.392C1427.03 754.45 1427.43 752.165 1427.43 754.341" stroke="white" stroke-width="3" stroke-linecap="round"/>
<path d="M1431.67 744.563C1431.67 749.55 1431.99 754.525 1431.99 759.503C1431.99 760.486 1432.74 757.681 1433.19 756.805C1433.89 755.419 1435.17 752.178 1436.38 755.03C1437.13 756.813 1437.4 758.69 1437.86 760.535" stroke="white" stroke-width="3" stroke-linecap="round"/>
<path d="M1443.08 757.275C1445.19 757.275 1445.92 755.95 1446.01 753.762C1446.06 752.642 1444.44 751.262 1443.58 752.459C1442.46 754.032 1441.57 757.662 1442.75 759.485C1443.54 760.714 1446.7 761.717 1447.31 759.883" stroke="white" stroke-width="3" stroke-linecap="round"/>
<path d="M1451.22 752.386C1451.26 755.324 1451.46 758.251 1451.55 761.186C1451.57 761.69 1451.55 760.241 1451.55 760.172C1451.55 757.905 1451.58 755.145 1453.81 753.889C1456.06 752.627 1456.75 756.738 1456.77 758.072C1456.77 758.513 1456.77 762.759 1456.77 760.534" stroke="white" stroke-width="3" stroke-linecap="round"/>
<path d="M1471.11 741.63C1470.53 748.259 1470.46 755.179 1470.46 761.839" stroke="white" stroke-width="3" stroke-linecap="round"/>
<path d="M1477.3 757.275C1480.11 757.275 1483.75 752.032 1479.73 751.481C1477.27 751.143 1477.17 756.141 1477.52 757.529C1478.3 760.672 1480.19 759.807 1482.19 758.579" stroke="white" stroke-width="3" stroke-linecap="round"/>
<path d="M1490.34 752.386C1487.02 752.833 1485.84 757.301 1487.11 760.172C1488.43 763.141 1491.06 757.499 1491.39 756.804C1492.19 755.101 1492.29 751.827 1492.29 755.464C1492.29 757.5 1492.62 759.504 1492.62 761.512" stroke="white" stroke-width="3" stroke-linecap="round"/>
<path d="M1497.51 753.364C1497.51 755.038 1498.45 756.582 1498.94 758.162C1499.25 759.173 1499.79 762.749 1500.61 760.209C1501.14 758.539 1501.58 756.832 1502.25 755.211C1502.49 754.634 1503.02 753.285 1503.38 754.342" stroke="white" stroke-width="3" stroke-linecap="round"/>
<path d="M1507.61 754.667C1507.72 756.602 1508.11 758.582 1508.27 760.535" stroke="white" stroke-width="3" stroke-linecap="round"/>
<path d="M1506.96 753.452V754.104" stroke="white" stroke-width="3" stroke-linecap="round"/>
<path d="M1513.48 755.32C1513.51 757.645 1513.81 759.971 1513.81 762.291C1513.81 762.991 1513.97 760.902 1514.06 760.209C1514.36 757.898 1514.81 755.034 1516.99 753.762C1519.75 752.16 1520.33 756.688 1520.33 758.398C1520.33 759.137 1519.5 761.957 1520.65 761.187" stroke="white" stroke-width="3" stroke-linecap="round"/>
<path d="M1530.1 755.971C1528.85 752.046 1523.51 759.034 1525.21 761.911C1526.17 763.525 1529.25 762.785 1529.78 761.187" stroke="white" stroke-width="3" stroke-linecap="round"/>
<path d="M1531.08 755.646C1531.22 759.839 1532.03 763.892 1532.64 768.032C1532.92 769.986 1533.39 772.399 1532.89 774.369C1532.51 775.904 1530.91 778.702 1529.09 778.896C1525.51 779.28 1523.47 770.06 1527.82 769.335" stroke="white" stroke-width="3" stroke-linecap="round"/>
<path d="M1543.14 755.971C1543.8 758.371 1545.37 760.452 1546.73 762.49" stroke="white" stroke-width="3" stroke-linecap="round"/>
<path d="M1550.31 754.993C1548.7 759.62 1547.73 764.379 1546.42 769.081C1546.14 770.074 1545.88 771.036 1545.42 771.942" stroke="white" stroke-width="3" stroke-linecap="round"/>
<path d="M1558.79 755.645C1555.37 755.701 1553.57 756.296 1553.97 760.1C1554.37 763.904 1557.79 763.817 1560.16 761.44C1561.27 760.337 1562.74 757.602 1560.85 756.37C1559.73 755.641 1558 755.177 1557.16 756.297" stroke="white" stroke-width="3" stroke-linecap="round"/>
<path d="M1565.63 756.949C1565.63 758.407 1565.02 764.545 1567.9 763.106C1570.03 762.037 1570.85 759.652 1570.85 757.42C1570.85 755.306 1571.35 759.82 1571.43 760.426C1571.48 760.815 1571.83 764.771 1571.83 763.468" stroke="white" stroke-width="3" stroke-linecap="round"/>
<path d="M1577.04 756.623C1577.11 758.842 1577.69 765.471 1577.69 763.251C1577.69 761.883 1577.58 760.464 1577.71 759.104C1577.89 757.163 1579.04 756.67 1580.57 755.827C1581.84 755.128 1583 754.157 1581.93 756.297" stroke="white" stroke-width="3" stroke-linecap="round"/>
<path d="M1599.2 754.016C1597.84 753.355 1596.95 753.262 1596 754.686C1595.78 755.014 1594.96 756.424 1595.37 756.877C1596.43 758.057 1598.64 758.076 1599.86 759.231C1602.44 761.688 1595.29 763.845 1595.29 760.861" stroke="white" stroke-width="3" stroke-linecap="round"/>
<path d="M1602.46 747.497C1602.58 752.145 1603.44 756.697 1603.44 761.349C1603.44 762.255 1603.67 760.629 1603.7 760.462C1603.88 759.257 1604.13 758.019 1604.67 756.913C1605.72 754.774 1607.09 754.421 1608.33 756.46C1609.31 758.067 1609.31 759.703 1609.31 761.512" stroke="white" stroke-width="3" stroke-linecap="round"/>
<path d="M1614.85 755.971C1614.85 757.494 1614.9 758.997 1615.01 760.516C1615.09 761.564 1615.66 763.295 1614.52 762.164" stroke="white" stroke-width="3" stroke-linecap="round"/>
<path d="M1613.55 754.756L1613.87 755.082" stroke="white" stroke-width="3" stroke-linecap="round"/>
<path d="M1623 755.319C1623.1 760.382 1623.94 765.51 1623.94 770.548C1623.94 770.79 1623.65 768.637 1623.65 768.031" stroke="white" stroke-width="3" stroke-linecap="round"/>
<path d="M1622.67 757.275C1624.59 752.15 1634.51 756.503 1629.95 760.698C1629.22 761.368 1622.85 763.686 1624.3 761.512" stroke="white" stroke-width="3" stroke-linecap="round"/>
<path d="M1636.36 740C1638 746.914 1639.55 754.113 1639.88 761.223C1640.01 764.167 1639.26 766.771 1638.14 769.444C1637.28 771.504 1636.37 773.374 1635.06 775.202" stroke="white" stroke-width="3" stroke-linecap="round"/>
<path d="M1506.58 746.942C1507.13 747.012 1506.86 747.197 1506.58 747.339" stroke="white" stroke-width="3" stroke-linecap="round"/>
</svg>
