<svg width="1920" height="1080" viewBox="0 0 1920 1080" fill="none" xmlns="http://www.w3.org/2000/svg">
<rect width="1920" height="1080" fill="#111312"/>
<path d="M1654.87 550.696L1654.08 497.079" stroke="white" stroke-width="2"/>
<path d="M1654.87 435.183V459.232" stroke="white" stroke-width="2"/>
<path d="M1661.96 490.377C1661.96 498.577 1656.71 498.525 1654.08 497.474C1647.77 498.42 1645.41 493.925 1645.01 491.56V469.876C1645.01 457.655 1649.74 460.02 1656.05 459.626C1661.1 459.311 1662.36 463.174 1662.36 465.146C1662.23 470.139 1661.96 482.177 1661.96 490.377Z" stroke="white" stroke-width="2"/>
<path d="M1595.73 610.621C1596.68 625.445 1605.32 645.709 1609.53 653.988C1611.37 656.091 1614.65 661.085 1623.72 668.97C1632.98 677.018 1647.77 682.374 1664.33 681.98C1680.82 681.587 1691.05 669.08 1698.14 660.41L1698.23 660.296C1705.33 651.623 1713.22 627.574 1714.4 617.718C1715.58 607.862 1717.16 567.255 1717.16 558.581C1717.16 549.908 1717.95 516.397 1717.95 507.329C1717.95 498.262 1717.95 464.357 1716.76 460.809C1715.58 457.26 1709.27 452.135 1698.63 446.222C1687.98 440.308 1671.43 434 1661.96 434C1652.5 434 1644.22 434.788 1630.03 438.731C1615.84 442.673 1602.43 453.318 1598.1 457.655C1593.76 461.991 1592.58 470.665 1591.79 480.127C1591 489.588 1591 510.878 1591 523.099C1591 535.321 1592.46 560.845 1592.97 566.466C1594.15 579.476 1594.55 592.092 1595.73 610.621Z" stroke="white" stroke-width="2"/>
<path d="M1717.55 528.224C1712.3 532.035 1699.73 540.367 1691.53 543.205C1681.28 546.754 1666.3 549.908 1656.45 550.302C1646.59 550.696 1633.97 549.513 1625.3 546.754C1616.63 543.994 1596.52 534.926 1591.79 530.195" stroke="white" stroke-width="2"/>
<path d="M1187 537C1183.81 539.824 1176.75 546.176 1174 549" stroke="white" stroke-width="2"/>
<path d="M1226 538C1228.97 541.273 1235.53 548.255 1238 550" stroke="white" stroke-width="2"/>
<path d="M1226 487C1229.03 486.545 1235.67 485.727 1238 486.091" stroke="white" stroke-width="2"/>
<path d="M1186 488C1183.25 487.333 1177 486 1174 486" stroke="white" stroke-width="2"/>
<path d="M1173 545.589C1173 550.198 1176.82 551.11 1178.73 550.99L1234.19 550.99C1239.63 550.99 1240.28 547.149 1239.92 545.228V488.334C1239.92 484.589 1234.43 483.892 1231.69 484.012C1215.7 484.373 1182.73 485.093 1178.73 485.093C1174.72 485.093 1173.24 488.214 1173 489.774V545.589Z" stroke="white" stroke-width="2"/>
<path d="M1188.59 487.074C1185.72 487.074 1185 490.655 1185 492.446C1185.12 506.412 1185.5 534.703 1186.08 536.135C1186.65 537.568 1187.99 538.642 1188.59 539H1223.41C1225.71 539 1226.76 536.374 1227 535.061C1226.88 521.214 1226.64 492.804 1226.64 489.939C1226.64 487.074 1224.01 486.119 1222.69 486C1212.52 486.358 1191.46 487.074 1188.59 487.074Z" stroke="white" stroke-width="2"/>
<path d="M1270 610C1267.06 613.059 1260.54 619.941 1258 623" stroke="white" stroke-width="2"/>
<path d="M1309 611C1312.22 614.273 1319.33 621.255 1322 623" stroke="white" stroke-width="2"/>
<path d="M1309 560C1312.03 559.545 1318.67 558.727 1321 559.091" stroke="white" stroke-width="2"/>
<path d="M1270 561C1267.25 560.333 1261 559 1258 559" stroke="white" stroke-width="2"/>
<path d="M1256 618.589C1256 623.198 1259.82 624.11 1261.73 623.99L1317.19 623.99C1322.63 623.99 1323.28 620.149 1322.92 618.228V561.334C1322.92 557.589 1317.43 556.892 1314.69 557.012C1298.7 557.373 1265.73 558.093 1261.73 558.093C1257.72 558.093 1256.24 561.214 1256 562.774V618.589Z" stroke="white" stroke-width="2"/>
<path d="M1272.59 560.074C1269.72 560.074 1269 563.655 1269 565.446C1269.12 579.412 1269.5 607.703 1270.08 609.135C1270.65 610.568 1271.99 611.642 1272.59 612H1307.41C1309.71 612 1310.76 609.374 1311 608.061C1310.88 594.214 1310.64 565.804 1310.64 562.939C1310.64 560.074 1308.01 559.119 1306.69 559C1296.52 559.358 1275.46 560.074 1272.59 560.074Z" stroke="white" stroke-width="2"/>
<path d="M1394 610C1391.06 612.824 1384.54 619.176 1382 622" stroke="white" stroke-width="2"/>
<path d="M1433 610C1435.97 613.273 1442.53 620.255 1445 622" stroke="white" stroke-width="2"/>
<path d="M1433 560C1436.03 559.091 1442.67 557.454 1445 558.181" stroke="white" stroke-width="2"/>
<path d="M1393 560C1390.48 559.667 1384.75 559 1382 559" stroke="white" stroke-width="2"/>
<path d="M1380 617.669C1380 622.21 1383.82 623.108 1385.73 622.99L1441.19 622.99C1446.63 622.99 1447.28 619.206 1446.92 617.314V561.269C1446.92 557.58 1441.43 556.894 1438.69 557.012C1422.7 557.367 1389.73 558.076 1385.73 558.076C1381.72 558.076 1380.24 561.151 1380 562.688V617.669Z" stroke="white" stroke-width="2"/>
<path d="M1395.59 559.074C1392.72 559.074 1392 562.655 1392 564.446C1392.12 578.412 1392.5 606.703 1393.08 608.135C1393.65 609.568 1394.99 610.642 1395.59 611H1430.41C1432.71 611 1433.76 608.374 1434 607.061C1433.88 593.214 1433.64 564.804 1433.64 561.939C1433.64 559.074 1431.01 558.119 1429.69 558C1419.52 558.358 1398.46 559.074 1395.59 559.074Z" stroke="white" stroke-width="2"/>
<path d="M1118 610C1115.06 613.059 1108.54 619.941 1106 623" stroke="white" stroke-width="2"/>
<path d="M1157 611C1160.22 614.273 1167.33 621.255 1170 623" stroke="white" stroke-width="2"/>
<path d="M1157 560C1160.03 559.545 1166.67 558.727 1169 559.091" stroke="white" stroke-width="2"/>
<path d="M1117 561C1114.48 560.333 1108.75 559 1106 559" stroke="white" stroke-width="2"/>
<path d="M1104 618.589C1104 623.198 1107.82 624.11 1109.73 623.99L1165.19 623.99C1170.63 623.99 1171.28 620.149 1170.92 618.228V561.334C1170.92 557.589 1165.43 556.892 1162.69 557.012C1146.7 557.373 1113.73 558.093 1109.73 558.093C1105.72 558.093 1104.24 561.214 1104 562.774V618.589Z" stroke="white" stroke-width="2"/>
<path d="M1120.59 560.074C1117.72 560.074 1117 563.655 1117 565.446C1117.12 579.412 1117.5 607.703 1118.08 609.135C1118.65 610.568 1119.99 611.642 1120.59 612H1155.41C1157.71 612 1158.76 609.374 1159 608.061C1158.88 594.214 1158.64 565.804 1158.64 562.939C1158.64 560.074 1156.01 559.119 1154.69 559C1144.52 559.358 1123.46 560.074 1120.59 560.074Z" stroke="white" stroke-width="2"/>
<path d="M1194 610C1191.06 613.059 1184.54 619.941 1182 623" stroke="white" stroke-width="2"/>
<path d="M1233 611C1236.22 614.273 1243.33 621.255 1246 623" stroke="white" stroke-width="2"/>
<path d="M1233 560C1236.03 559.545 1242.67 558.727 1245 559.091" stroke="white" stroke-width="2"/>
<path d="M1193 561C1190.48 560.333 1184.75 559 1182 559" stroke="white" stroke-width="2"/>
<path d="M1180 618.589C1180 623.198 1183.82 624.11 1185.73 623.99L1241.19 623.99C1246.63 623.99 1247.28 620.149 1246.92 618.228V561.334C1246.92 557.589 1241.43 556.892 1238.69 557.012C1222.7 557.373 1189.73 558.093 1185.73 558.093C1181.72 558.093 1180.24 561.214 1180 562.774V618.589Z" stroke="white" stroke-width="2"/>
<path d="M1196.59 560.074C1193.72 560.074 1193 563.655 1193 565.446C1193.12 579.412 1193.5 607.703 1194.08 609.135C1194.65 610.568 1195.99 611.642 1196.59 612H1231.41C1233.71 612 1234.76 609.374 1235 608.061C1234.88 594.214 1234.64 565.804 1234.64 562.939C1234.64 560.074 1232.01 559.119 1230.69 559C1220.52 559.358 1199.46 560.074 1196.59 560.074Z" stroke="white" stroke-width="2"/>
<path d="M1196 497H1209.67L1196.67 512H1210" stroke="white" stroke-width="2" stroke-linejoin="round"/>
<path d="M1137.96 584.75C1137.75 585.625 1138.08 587.9 1141 590M1134.3 569C1131.87 569.875 1127 573.069 1127 578.844C1127 586.062 1131.26 586.719 1134.3 586.719C1137.35 586.719 1140.39 584.094 1140.39 578.188C1140.39 572.281 1137.35 569 1134.3 569Z" stroke="white" stroke-width="2" stroke-linejoin="round"/>
<path d="M1212.5 569C1204.5 565 1200.34 568.682 1203 574C1205 578 1211.67 576.375 1212 580C1212.5 585.5 1206 586.5 1200.5 583" stroke="white" stroke-width="2" stroke-linejoin="round"/>
<path d="M1403 585V567H1412" stroke="white" stroke-width="2" stroke-linejoin="round"/>
<path d="M1403 575.5H1412" stroke="white" stroke-width="2" stroke-linejoin="round"/>
<path d="M1280 584.984V567C1284 567.562 1289 567.562 1289 576.554C1289 583.748 1283 585.172 1280 584.984Z" stroke="white" stroke-width="2" stroke-linejoin="round"/>
<path d="M543.501 550C541.901 524.4 568.501 514.334 582.001 512.5C607.001 510 619.5 534.5 620.5 553.5C621.5 572.5 605.5 587.5 586 589.5C566.5 591.5 545.501 582 543.501 550Z" stroke="white" stroke-width="2"/>
<path d="M543 465.5C542.2 457.1 552.333 455.333 557.5 455.5C566 455 571 458.5 571.5 465.5C572 472.5 562.5 475 557.5 475C552.5 475 544 476 543 465.5Z" stroke="white" stroke-width="2"/>
<path d="M441 466C441 458 450.333 455.333 455 455C464.5 455 469.5 459 470 467C470.5 475 460.5 478 455 478.5C449.5 479 441 476 441 466Z" stroke="white" stroke-width="2"/>
<path d="M698.5 400.5L697 396C692.833 393.333 683.5 387.6 679.5 386C674.5 384 656 379 651.5 378C647 377 631 376 627 376C623.8 376 622.667 376.333 622.5 376.5L619.5 380.5" stroke="white" stroke-width="2"/>
<path d="M645.5 503.5C645.5 515.5 655.833 517.833 661 517.5C666 516.5 674.5 513 675 501.5C675.5 490 661.5 486 659 486.5C656.5 487 645.5 488.5 645.5 503.5Z" stroke="white" stroke-width="2"/>
<path d="M618.5 445.5C607.3 445.5 604.5 456.167 604.5 461.5C605 467 609.5 476.5 620.5 476.5C631.5 476.5 634 466 634 461.5C634 457 632.5 445.5 618.5 445.5Z" stroke="white" stroke-width="2"/>
<path d="M673.5 420.5C673.5 410.9 664.5 407.167 660 406.5C655.5 406.5 645.5 411.5 646 423C646.5 434.5 658.5 435.5 661 435.5C664 436 673.5 432.5 673.5 420.5Z" stroke="white" stroke-width="2"/>
<path d="M700 446.5C690.8 446.5 687.5 456.833 687 462C687.5 467.5 692 477 703 476.5C714 476 715.5 465 715.5 462C715.5 459 711.5 446.5 700 446.5Z" stroke="white" stroke-width="2"/>
<path d="M418.5 515.5C418.833 520.833 418.3 532.4 413.5 536C407.5 540.5 398 542.5 391.5 542M431.999 594.5C445.166 594 471.499 585.4 471.499 555C471.499 517 438.499 512 430.999 512.5C423.499 513 388.499 519 388.999 553.5C389.499 588 420.499 596 431.999 594.5Z" stroke="white" stroke-width="2"/>
<path d="M442.499 514C442.166 518 442.199 527.1 444.999 531.5C448.499 537 452.5 539.5 458.5 540C463.3 540.4 467.833 541.167 469.5 541.5" stroke="white" stroke-width="2"/>
<path d="M418.5 593C418.833 587.667 418.7 576.2 415.5 573C411.5 569 399 566 393 565.5" stroke="white" stroke-width="2"/>
<path d="M442.499 592.5C441.833 587.667 441.499 577 445.499 573C450.499 568 453 566 458.5 565.5C462.9 565.1 467.667 565.333 469.5 565.5" stroke="white" stroke-width="2"/>
<path d="M250 697C254 718.6 268 732.667 274.5 737C278.167 738.667 288.3 742.1 299.5 742.5C313.5 743 321 738 330 733C339 728 361 707.5 366 702.5C371 697.5 390.5 678.5 402.5 668.5C414.5 658.5 446 646.5 459.5 643.5C473 640.5 527.5 642 550.5 643.5C573.5 645 605 667 614 673.5C623 680 649.5 709 658.5 717C667.5 725 691 739 695.5 740C700 741 712.5 741 729.5 736C746.5 731 756 704 759 690C762 676 759 618.5 757 593C755 567.5 741.5 507 735 484.5C728.5 462 707 409.5 705.5 406.5C704 403.5 702 403.5 689 395C676 386.5 644.5 380.5 627.5 380C610.5 379.5 583.5 392 565.5 400.5C547.5 409 538 408 523 408C508 408 465.5 411 450 404.5C434.5 398 420 389 409.5 384.5C399 380 378.5 380.5 361.5 382.5C344.5 384.5 311.5 397.5 303 409C294.5 420.5 270.5 496 261 537.5C251.5 579 245 670 250 697Z" stroke="white" stroke-width="2"/>
<path d="M380.5 458.5C380.5 479.3 362.167 483.167 353 482.5C334.5 484 325 468 324 453.5C323 439 340.5 426.5 353 426.5C365.5 426.5 380.5 432.5 380.5 458.5Z" stroke="white" stroke-width="2"/>
<path d="M611.5 552C611.5 570.8 593.833 575.833 585 576C577.499 577 557 570 556.5 549C556 528 575.5 522.5 585.5 521C595.5 519.5 611.5 528.5 611.5 552Z" stroke="white" stroke-width="2"/>
<path d="M311 402.5L312 396.5C316.667 393.5 327.6 386.9 334 384.5C342 381.5 357.5 376.5 364 376.5C369.2 376.5 381.167 375.5 386.5 375L392.5 380.5" stroke="white" stroke-width="2"/>
<path d="M383.001 552C382.201 517.2 414.668 506.5 431.001 505.5C451.502 505 478.5 518 480 555C481.5 592 441 600.5 431 601.5C421 602.5 384.001 595.5 383.001 552Z" stroke="white" stroke-width="2"/>
<path d="M354.999 489.5C379.399 490.7 386.166 468 386.499 456.5C385.999 441 373.5 423.5 351 424.5C328.5 425.5 321.999 445.5 321.499 455.5C320.999 465.5 324.499 488 354.999 489.5Z" stroke="white" stroke-width="2"/>
<path d="M485.499 466C484.699 480 499.833 484.167 507.499 484.5C511.999 484.5 527.5 479 527 464C526.5 449 511.5 444 505 444C498.5 444 486.499 448.5 485.499 466Z" stroke="white" stroke-width="2"/>
<path d="M654.5 509.5L660 495L666 509" stroke="white" stroke-width="2" stroke-linejoin="round"/>
<path d="M657 503.5H663.5" stroke="white" stroke-width="2" stroke-linejoin="round"/>
<path d="M699 468.049L698 456.049C699.667 455.882 703 456.049 703 458.049C703 460.049 700 460.882 698.5 461.049C700.5 461.049 704.6 461.649 705 464.049C705.4 466.449 701.167 467.716 699 468.049Z" stroke="white" stroke-width="2" stroke-linejoin="round"/>
<path d="M615.5 465.5L623.5 455.5" stroke="white" stroke-width="2" stroke-linejoin="round"/>
<path d="M614.5 455.5L624.5 466" stroke="white" stroke-width="2" stroke-linejoin="round"/>
<path d="M660.5 429L659.5 421L654 416.5" stroke="white" stroke-width="2" stroke-linejoin="round"/>
<path d="M659.5 420.5L663 416" stroke="white" stroke-width="2" stroke-linejoin="round"/>
<path d="M344.5 441.5L248.5 271.5" stroke="#3CDB4C" stroke-width="3" stroke-linecap="round" stroke-linejoin="round"/>
<path d="M582 554L504 773" stroke="#3CDB4C" stroke-width="3" stroke-linecap="round" stroke-linejoin="round"/>
<path d="M723 336L662 494" stroke="#3CDB4C" stroke-width="3" stroke-linecap="round" stroke-linejoin="round"/>
<path d="M1568 322L1623 485" stroke="#3CDB4C" stroke-width="3" stroke-linecap="round" stroke-linejoin="round"/>
<path d="M1655 615L1703 755" stroke="#3CDB4C" stroke-width="3" stroke-linecap="round" stroke-linejoin="round"/>
<path d="M1139 333L1194 496" stroke="#3CDB4C" stroke-width="3" stroke-linecap="round" stroke-linejoin="round"/>
<path d="M1408 597L1345 755" stroke="#3CDB4C" stroke-width="3" stroke-linecap="round" stroke-linejoin="round"/>
<path d="M556 295L616 452" stroke="#3CDB4C" stroke-width="3" stroke-linecap="round" stroke-linejoin="round"/>
<path d="M126.182 230C126.067 236.773 123.999 245.359 125.614 252.164C125.821 253.037 136.553 253.345 137 252.508" stroke="white" stroke-width="3" stroke-linecap="round"/>
<path d="M144 250.393C144.795 249.994 153.982 248 150.716 246.007C148.211 244.478 146.469 244.461 145.174 247.573C144.163 250.003 143.983 253.848 146.217 255.407C148.054 256.69 149.578 255.614 151.335 254.78C152.359 254.294 153.458 252.678 152.802 254.78" stroke="white" stroke-width="3" stroke-linecap="round"/>
<path d="M160.932 256C160.932 250.366 159.201 244.167 160.457 238.559C160.996 236.149 163.478 236 165.443 236C167.9 236 166.809 239.334 166.427 240.848" stroke="white" stroke-width="3" stroke-linecap="round"/>
<path d="M159 249C161.789 249 164.349 248 167 248" stroke="white" stroke-width="3" stroke-linecap="round"/>
<path d="M175.014 236C175.014 239.738 174.918 243.483 175.234 247.217C175.296 247.948 177 258.915 177 253.507" stroke="white" stroke-width="3" stroke-linecap="round"/>
<path d="M172 244.973C173.014 244.973 174.135 245.081 175.128 244.865C176.326 244.605 180.655 242.993 178.319 244.973" stroke="white" stroke-width="3" stroke-linecap="round"/>
<path d="M193.845 244.437C192.323 244.22 190.309 242.886 190.008 246.307C189.787 248.814 194.345 248.789 195.733 249.737C200.053 252.684 192.06 260.009 190.556 253.166" stroke="white" stroke-width="3" stroke-linecap="round"/>
<path d="M201.007 236C201.066 240.897 200.748 246.753 201.681 251.514C201.843 252.338 202.419 255.536 201.456 254.922" stroke="white" stroke-width="3" stroke-linecap="round"/>
<path d="M200 245C202.112 245 208 242.75 208 245" stroke="white" stroke-width="3" stroke-linecap="round"/>
<path d="M212 249C212 251.034 213 252.942 213 255" stroke="white" stroke-width="3" stroke-linecap="round"/>
<path d="M212 241H213" stroke="white" stroke-width="3" stroke-linecap="round"/>
<path d="M222.082 248C215.934 249.776 220.079 260.976 225 253.395" stroke="white" stroke-width="3" stroke-linecap="round"/>
<path d="M228 238C228 243.196 228 248.338 228 253.507C228 254.331 228 259.189 228 255.83" stroke="white" stroke-width="3" stroke-linecap="round"/>
<path d="M229 251C230.845 248.417 232.715 246.121 235 244" stroke="white" stroke-width="3" stroke-linecap="round"/>
<path d="M231 250C231.953 250.988 233.522 251.885 234 253" stroke="white" stroke-width="3" stroke-linecap="round"/>
<path d="M249.768 238C249.768 243.358 247.391 250.726 251 256" stroke="white" stroke-width="3" stroke-linecap="round"/>
<path d="M246 246C248.702 246 251.329 245 254 245" stroke="white" stroke-width="3" stroke-linecap="round"/>
<path d="M262.605 245.622C255.019 245.028 258.102 258.2 262.605 254.265C266.851 250.553 265.158 245 259.836 245" stroke="white" stroke-width="3" stroke-linecap="round"/>
<path d="M276.066 245.729C276.066 247.688 275.918 253.562 276.066 251.607C276.207 249.735 277.438 247.886 278.209 246.186C280.532 241.067 283.712 246.137 284.121 249.223C284.738 253.887 284.263 247.061 286.368 245.435C290.679 242.103 291 248.394 291 251.019" stroke="white" stroke-width="3" stroke-linecap="round"/>
<path d="M299.302 244.839C294.799 244.839 294.852 246.74 295.082 250.583C295.237 253.167 299.585 253.646 301.244 252.179C305.48 248.43 301.351 241.622 296.288 244.839" stroke="white" stroke-width="3" stroke-linecap="round"/>
<path d="M307 245.373C307 244.17 307.574 247.756 308.2 248.832C309.892 251.743 310.488 253.662 311.799 249.955C312.292 248.563 312.778 245.186 314.305 244.311C315.938 243.375 314.211 244.797 313.987 245.373" stroke="white" stroke-width="3" stroke-linecap="round"/>
<path d="M320.532 249.788C321.99 249.788 323.058 249.829 324.121 248.43C324.599 247.801 327.426 244.001 325.266 244.001C322.879 244.001 322.221 243.882 321.089 246.573C320.161 248.779 318.826 254.334 321.986 254.896C324.644 255.368 330 254.297 330 250.431" stroke="white" stroke-width="3" stroke-linecap="round"/>
<path d="M400 784C400 787.002 400 790.004 400 793.006C400 795.826 400.801 798.566 400.801 801.383C400.801 802.191 401.599 805.098 400 803.556" stroke="white" stroke-width="3" stroke-linecap="round"/>
<path d="M401.083 794C405.53 794 407.998 788.861 406.617 784.835C405.844 782.582 401.06 780.413 400 783.621" stroke="white" stroke-width="3" stroke-linecap="round"/>
<path d="M402 793C404.019 795.258 405.765 797.979 407.647 800.348C408.153 800.984 410.04 804.598 408.233 802.172" stroke="white" stroke-width="3" stroke-linecap="round"/>
<path d="M415 797C415 798.086 415 803.411 415 802.975" stroke="white" stroke-width="3" stroke-linecap="round"/>
<path d="M415 792H414" stroke="white" stroke-width="3" stroke-linecap="round"/>
<path d="M423.977 797C421.203 797 418.94 797.977 420.522 801.349C421.69 803.84 425.55 802.938 424.934 802.316" stroke="white" stroke-width="3" stroke-linecap="round"/>
<path d="M423.98 798C424.731 801.256 431.696 820.686 425.362 820.995C423.086 821.106 420 819.239 420 816.524C420 815.499 421.248 809.772 421.99 812.111" stroke="white" stroke-width="3" stroke-linecap="round"/>
<path d="M430 785C430 790.355 430 795.649 430 801" stroke="white" stroke-width="3" stroke-linecap="round"/>
<path d="M430 797.847C434.3 792.972 435 798.823 435 803" stroke="white" stroke-width="3" stroke-linecap="round"/>
<path d="M440 786C440 792.02 440 797.984 440 804" stroke="white" stroke-width="3" stroke-linecap="round"/>
<path d="M437 795C439.675 794.558 442.201 794 445 794" stroke="white" stroke-width="3" stroke-linecap="round"/>
<path d="M456.048 795C450.287 798.97 458.364 797.761 459.768 800.341C461.341 803.23 454.401 805.705 454.401 802.477" stroke="white" stroke-width="3" stroke-linecap="round"/>
<path d="M462 786C462 792.338 463 798.623 463 805" stroke="white" stroke-width="3" stroke-linecap="round"/>
<path d="M460 796H467" stroke="white" stroke-width="3" stroke-linecap="round"/>
<path d="M471 798C471.27 800.349 471.602 802.681 472 805" stroke="white" stroke-width="3" stroke-linecap="round"/>
<path d="M471 790.344C471.214 789.364 471.881 790.766 472 791" stroke="white" stroke-width="3" stroke-linecap="round"/>
<path d="M480.096 798C477.452 798 477.436 803.497 479.337 804.633C481.462 805.902 482.556 803.592 484 802.082" stroke="white" stroke-width="3" stroke-linecap="round"/>
<path d="M487.495 787.553C486.492 785.547 487.312 789.607 487.384 790.109C487.946 794.038 489 798.012 489 802" stroke="white" stroke-width="3" stroke-linecap="round"/>
<path d="M489 797C489.561 796.358 493.299 791.374 494 792.066" stroke="white" stroke-width="3" stroke-linecap="round"/>
<path d="M489 797C491.065 798.314 492.88 799.789 495 801" stroke="white" stroke-width="3" stroke-linecap="round"/>
<path d="M509 788V805" stroke="white" stroke-width="3" stroke-linecap="round"/>
<path d="M505 796C507.713 796 510.523 793.75 513 796" stroke="white" stroke-width="3" stroke-linecap="round"/>
<path d="M520.06 796.249C513.462 794.106 515.91 806.597 520.308 803.505C522.13 802.225 522.65 798.934 521.026 797.286C519.661 795.901 517.413 797.088 516.086 797.762" stroke="white" stroke-width="3" stroke-linecap="round"/>
<path d="M534 785C534.504 791.292 535 797.657 535 804" stroke="white" stroke-width="3" stroke-linecap="round"/>
<path d="M543.171 796C540.166 796.087 539.616 798.901 540.215 801.484C540.707 803.606 543.928 803.359 544.663 801.616C545.871 798.757 543.704 794.706 540.187 796.954" stroke="white" stroke-width="3" stroke-linecap="round"/>
<path d="M551.564 795.929C548.745 794.537 549.006 798.88 549.006 800.909C549.006 803.885 553.006 803.28 554.32 801.595C557.121 798.001 550.458 792.882 549.006 795.929" stroke="white" stroke-width="3" stroke-linecap="round"/>
<path d="M561 783C561 789.678 561 796.325 561 803" stroke="white" stroke-width="3" stroke-linecap="round"/>
<path d="M562 799C562 797.504 562.308 797.061 563.39 796.103C564.197 795.389 567.072 792.407 565.575 795.117" stroke="white" stroke-width="3" stroke-linecap="round"/>
<path d="M562 798C562.164 799.546 566.988 802.386 565.817 803" stroke="white" stroke-width="3" stroke-linecap="round"/>
<path d="M581.636 796.373C581.082 795.935 580.187 794.412 579.54 795.245C578.291 796.855 578 798.353 578 800.38C578 802.477 580.311 804.353 581.182 801.677C581.466 800.805 581.754 799.915 581.99 799.025C582.196 798.249 581.366 796.599 582.091 796.599C582.607 796.599 582.58 801.255 583 801.96" stroke="white" stroke-width="3" stroke-linecap="round"/>
<path d="M589 794C589 796.518 590 804.008 590 801.49C590 800.133 590 798.776 590 797.419C590 795.4 594 793.54 594 796.442" stroke="white" stroke-width="3" stroke-linecap="round"/>
<path d="M602.234 793.575C599.423 793.575 599.361 794.023 598.381 796.875C597.769 798.658 597.846 800.458 598.965 801.975C600.501 804.059 604.162 802.685 604.745 800.355C605.306 798.111 605.081 794.659 602.643 793.695C601.281 793.157 599.157 792.262 598.556 794.115" stroke="white" stroke-width="3" stroke-linecap="round"/>
<path d="M610.078 794C610.078 796.207 609.443 802.047 611.794 802.862C614.521 803.808 615.878 799.632 615.935 797.767C615.973 796.541 615.801 792.356 615.935 795.883C616.002 797.629 616.206 799.991 617 801.478" stroke="white" stroke-width="3" stroke-linecap="round"/>
<path d="M621 792.697C621.036 795.041 621.005 797.526 621.658 799.795C621.917 800.696 622.077 801.763 622.077 800.214C622.077 798.111 621.391 794.126 623.274 792.697C627.506 789.485 628 798.268 628 800.827" stroke="white" stroke-width="3" stroke-linecap="round"/>
<path d="M640 792.238C638.709 791.042 637.316 790.745 635.546 791.207C633.42 791.761 634.105 794.972 634.105 796.559C634.105 799.246 637.908 801.582 639.411 798.622" stroke="white" stroke-width="3" stroke-linecap="round"/>
<path d="M639 782C639.754 786.95 640 791.808 640 796.801C640 798.271 640 802.036 640 798.587" stroke="white" stroke-width="3" stroke-linecap="round"/>
<path d="M691.775 298.466C692.342 305.62 692.753 327.15 692.753 319.973" stroke="white" stroke-width="3" stroke-linecap="round"/>
<path d="M684.934 321.439C690.153 321.439 695.343 321.928 700.575 321.928" stroke="white" stroke-width="3" stroke-linecap="round"/>
<path d="M682 298.467C686.228 298.467 690.385 297.786 694.573 297.516C695.071 297.484 701.673 297.611 699.108 298.467" stroke="white" stroke-width="3" stroke-linecap="round"/>
<path d="M706.439 314.108C706.439 316.142 706.751 318.088 706.901 320.109C707.013 321.624 706.991 320.854 707.308 319.865C707.849 318.184 708.257 315.026 710.078 314.216C711.862 313.424 712.873 316.814 713.174 318.018C713.31 318.561 713.283 322.903 713.283 320.951" stroke="white" stroke-width="3" stroke-linecap="round"/>
<path d="M719.637 299.444C719.711 305.965 720.126 312.472 720.126 318.996" stroke="white" stroke-width="3" stroke-linecap="round"/>
<path d="M716.217 307.753C719.395 307.753 722.342 306.776 725.504 306.776" stroke="white" stroke-width="3" stroke-linecap="round"/>
<path d="M728.925 316.063C736.368 317.882 733.895 307.939 729.903 312.153C728.495 313.639 727.963 316.278 728.545 318.29C729.75 322.453 733.13 322.172 735.768 319.973" stroke="white" stroke-width="3" stroke-linecap="round"/>
<path d="M740.656 311.175C740.75 313.933 741.007 316.729 741.607 319.43C741.676 319.744 741.895 320.472 742.123 320.245C742.721 319.646 742.011 316.435 742.231 315.465C742.639 313.671 744.208 311.74 746.033 311.283C746.93 311.059 749.444 311.913 747.988 312.641" stroke="white" stroke-width="3" stroke-linecap="round"/>
<path d="M758.741 312.641C758.509 310.78 753.338 311.862 752.767 313.13C752.103 314.606 750.871 323.36 754.858 321.059C757.852 319.332 757.764 315.404 757.764 312.451C757.764 309.599 758.741 318.099 758.741 320.951" stroke="white" stroke-width="3" stroke-linecap="round"/>
<path d="M769.982 310.686C765.741 310.789 764.505 316.722 766.832 319.864C768.331 321.888 772.09 318.467 773.404 317.529" stroke="white" stroke-width="3" stroke-linecap="round"/>
<path d="M780.736 297C780.89 304.014 781.714 311.003 781.714 318.018" stroke="white" stroke-width="3" stroke-linecap="round"/>
<path d="M776.338 308.242C778.856 307.057 782.816 307.264 785.625 307.264" stroke="white" stroke-width="3" stroke-linecap="round"/>
<path d="M1520.78 286.466C1521.34 293.62 1521.75 315.15 1521.75 307.973" stroke="white" stroke-width="3" stroke-linecap="round"/>
<path d="M1513.93 309.439C1519.15 309.439 1524.34 309.928 1529.57 309.928" stroke="white" stroke-width="3" stroke-linecap="round"/>
<path d="M1511 286.467C1515.23 286.467 1519.38 285.786 1523.57 285.516C1524.07 285.484 1530.67 285.611 1528.11 286.467" stroke="white" stroke-width="3" stroke-linecap="round"/>
<path d="M1535.44 302.108C1535.44 304.142 1535.75 306.088 1535.9 308.109C1536.01 309.624 1535.99 308.854 1536.31 307.865C1536.85 306.184 1537.26 303.026 1539.08 302.216C1540.86 301.424 1541.87 304.814 1542.17 306.018C1542.31 306.561 1542.28 310.903 1542.28 308.951" stroke="white" stroke-width="3" stroke-linecap="round"/>
<path d="M1548.64 287.444C1548.71 293.965 1549.13 300.472 1549.13 306.996" stroke="white" stroke-width="3" stroke-linecap="round"/>
<path d="M1545.22 295.753C1548.4 295.753 1551.34 294.776 1554.5 294.776" stroke="white" stroke-width="3" stroke-linecap="round"/>
<path d="M1557.93 304.063C1565.37 305.882 1562.9 295.939 1558.9 300.153C1557.49 301.639 1556.96 304.278 1557.55 306.29C1558.75 310.453 1562.13 310.172 1564.77 307.973" stroke="white" stroke-width="3" stroke-linecap="round"/>
<path d="M1569.66 299.175C1569.75 301.933 1570.01 304.729 1570.61 307.43C1570.68 307.744 1570.9 308.472 1571.12 308.245C1571.72 307.646 1571.01 304.435 1571.23 303.465C1571.64 301.671 1573.21 299.74 1575.03 299.283C1575.93 299.059 1578.44 299.913 1576.99 300.641" stroke="white" stroke-width="3" stroke-linecap="round"/>
<path d="M1587.74 300.641C1587.51 298.78 1582.34 299.862 1581.77 301.13C1581.1 302.606 1579.87 311.36 1583.86 309.059C1586.85 307.332 1586.76 303.404 1586.76 300.451C1586.76 297.599 1587.74 306.099 1587.74 308.951" stroke="white" stroke-width="3" stroke-linecap="round"/>
<path d="M1598.98 298.686C1594.74 298.789 1593.5 304.722 1595.83 307.864C1597.33 309.888 1601.09 306.467 1602.4 305.529" stroke="white" stroke-width="3" stroke-linecap="round"/>
<path d="M1609.74 285C1609.89 292.014 1610.71 299.003 1610.71 306.018" stroke="white" stroke-width="3" stroke-linecap="round"/>
<path d="M1605.34 296.242C1607.86 295.057 1611.82 295.264 1614.62 295.264" stroke="white" stroke-width="3" stroke-linecap="round"/>
<path d="M495.754 221.958C495.754 229.618 496.243 237.269 496.243 244.931" stroke="white" stroke-width="3" stroke-linecap="round"/>
<path d="M485 221.469C487.577 220.438 490.863 220.752 493.581 220.6C496.606 220.43 499.627 220.193 502.651 220.029C503.407 219.988 508.494 220.002 506.996 220.002" stroke="white" stroke-width="3" stroke-linecap="round"/>
<path d="M504.063 237.11C504.063 239.279 503.324 245.42 506.126 245.42C510.729 245.42 510.906 239.757 510.906 236.485C510.906 233.34 511.395 249.053 511.395 245.908" stroke="white" stroke-width="3" stroke-linecap="round"/>
<path d="M517.75 236.133C517.75 239.174 518.728 248.243 518.728 245.203C518.728 243.641 518.388 241.645 518.836 240.152C519.539 237.81 523.314 236.02 524.593 238.577" stroke="white" stroke-width="3" stroke-linecap="round"/>
<path d="M529.48 236.133C529.801 239.34 530.947 245.691 530.947 245.691C530.947 245.691 530.394 239.184 532.44 237.137C535.587 233.991 536.466 235.588 536.785 239.418C536.919 241.019 537.135 242.604 537.274 244.198C537.37 245.305 537.301 247.178 537.301 244.931" stroke="white" stroke-width="3" stroke-linecap="round"/>
<path d="M557.831 235.155C554.594 235.98 551.763 239.169 553.921 242.596C555.572 245.218 558.295 244.683 559.786 241.998C561.913 238.17 556.537 232.262 553.921 236.621" stroke="white" stroke-width="3" stroke-linecap="round"/>
<path d="M565.652 235.155C565.652 238.808 566.141 242.416 566.141 246.071C566.141 247.175 566.141 243.863 566.141 242.758C566.141 240.758 567.111 239.319 567.988 237.599C569.536 234.561 572.914 234.127 572.984 238.413C572.999 239.285 573.259 247.007 572.495 243.953" stroke="white" stroke-width="3" stroke-linecap="round"/>
<path d="M585.203 224.401C584.925 223.01 584.008 226.992 583.655 228.366C581.989 234.865 581.403 241.559 580.315 248.162C580.275 248.407 578.56 257.55 577.871 256.173" stroke="white" stroke-width="3" stroke-linecap="round"/>
<path d="M595.957 235.644C586.719 235.644 591.407 251.066 597.858 243.736C599.705 241.637 600.611 238.675 597.885 236.893C596.956 236.285 593.71 234.762 593.024 236.133" stroke="white" stroke-width="3" stroke-linecap="round"/>
<path d="M606.71 244.442C606.71 239.579 602.853 231.993 606.493 227.66C608.735 224.991 614.981 223.727 611.598 228.801" stroke="white" stroke-width="3" stroke-linecap="round"/>
<path d="M604.266 239.065C605.814 238.337 606.974 238.088 608.665 238.088" stroke="white" stroke-width="3" stroke-linecap="round"/>
<path d="M616.974 246.397C616.974 240.737 616.33 234.791 617.843 229.289C618.154 228.16 618.717 226.148 620.233 226.465C623.019 227.048 623.062 228.31 622.84 230.756" stroke="white" stroke-width="3" stroke-linecap="round"/>
<path d="M614.531 241.021C616.627 239.973 618.061 239.721 620.397 239.554" stroke="white" stroke-width="3" stroke-linecap="round"/>
<path d="M513.934 282.002C513.934 276.455 511.732 270.103 513.446 264.677C514.625 260.941 517.571 255.582 519.311 261.961" stroke="white" stroke-width="3" stroke-linecap="round"/>
<path d="M511 274.181C512.71 273.589 514.08 273.354 515.888 273.204" stroke="white" stroke-width="3" stroke-linecap="round"/>
<path d="M526.154 260.006C526.239 266.531 527.132 286.083 527.132 279.558" stroke="white" stroke-width="3" stroke-linecap="round"/>
<path d="M536.417 273.204C533.538 273.319 532.012 278.717 533.104 281.024C534.34 283.632 536.943 278.404 537.151 277.576C537.565 275.918 537.884 271.49 537.884 275.919C537.884 277.429 537.827 280.643 539.35 281.024" stroke="white" stroke-width="3" stroke-linecap="round"/>
<path d="M546.193 273.692C545.327 272.152 543.493 272.589 542.391 273.801C541.1 275.221 546.588 276.081 547.062 276.245C553.684 278.528 544.238 284.668 544.238 280.047" stroke="white" stroke-width="3" stroke-linecap="round"/>
<path d="M551.57 260.495C552.318 266.626 552.046 273.342 553.417 279.34C553.635 280.293 553.494 280.309 553.525 279.286C553.562 278.074 554.242 276.713 554.775 275.647C555.852 273.493 557.977 271.08 559.119 274.67C559.484 275.815 559.391 281.781 559.391 280.535" stroke="white" stroke-width="3" stroke-linecap="round"/>
<path d="M565.746 261.473C565.826 267.099 566.235 272.706 566.235 278.336C566.235 279.104 566.235 283.547 566.235 280.536" stroke="white" stroke-width="3" stroke-linecap="round"/>
<path d="M574.055 274.181V282.002" stroke="white" stroke-width="3" stroke-linecap="round"/>
<path d="M573.566 267.338C572.941 266.166 573.077 267.083 573.077 267.827" stroke="white" stroke-width="3" stroke-linecap="round"/>
<path d="M585.785 275.159C583.208 273.339 581.926 274.135 580.898 277.114C580.359 278.672 580.223 280.186 580.898 281.703C581.583 283.245 584.319 279.109 584.319 279.558" stroke="white" stroke-width="3" stroke-linecap="round"/>
<path d="M586.274 275.647C586.274 279.595 587.384 283.503 588.012 287.378C588.491 290.328 590.017 295.041 586.79 296.856C581.864 299.627 578.041 287.378 584.319 287.378" stroke="white" stroke-width="3" stroke-linecap="round"/>
<path d="M591.652 265.872C592.16 269.141 592.448 272.409 592.739 275.702C592.843 276.886 592.446 280.786 593.363 281.703C594.773 283.112 593.338 277.64 593.988 275.756C594.311 274.817 595.087 274.076 596.051 273.801C598.004 273.243 598.015 275.744 598.224 277.114C598.303 277.635 598.495 283.489 598.495 281.513" stroke="white" stroke-width="3" stroke-linecap="round"/>
<path d="M603.871 260.495C604.647 267.301 604.849 287.875 604.849 281.024" stroke="white" stroke-width="3" stroke-linecap="round"/>
<path d="M601.428 271.248C604.326 271.211 608.07 271.593 610.715 270.271" stroke="white" stroke-width="3" stroke-linecap="round"/>
<path d="M1280.75 759.958C1280.75 767.618 1281.24 775.269 1281.24 782.931" stroke="white" stroke-width="3" stroke-linecap="round"/>
<path d="M1270 759.469C1272.58 758.438 1275.86 758.752 1278.58 758.6C1281.61 758.43 1284.63 758.193 1287.65 758.029C1288.41 757.988 1293.49 758.002 1292 758.002" stroke="white" stroke-width="3" stroke-linecap="round"/>
<path d="M1289.06 775.11C1289.06 777.279 1288.32 783.42 1291.13 783.42C1295.73 783.42 1295.91 777.757 1295.91 774.485C1295.91 771.34 1296.39 787.053 1296.39 783.908" stroke="white" stroke-width="3" stroke-linecap="round"/>
<path d="M1302.75 774.133C1302.75 777.174 1303.73 786.243 1303.73 783.203C1303.73 781.641 1303.39 779.645 1303.84 778.152C1304.54 775.81 1308.31 774.02 1309.59 776.577" stroke="white" stroke-width="3" stroke-linecap="round"/>
<path d="M1314.48 774.133C1314.8 777.34 1315.95 783.691 1315.95 783.691C1315.95 783.691 1315.39 777.184 1317.44 775.137C1320.59 771.991 1321.47 773.588 1321.79 777.418C1321.92 779.019 1322.14 780.604 1322.27 782.198C1322.37 783.305 1322.3 785.178 1322.3 782.931" stroke="white" stroke-width="3" stroke-linecap="round"/>
<path d="M1342.83 773.155C1339.59 773.98 1336.76 777.169 1338.92 780.596C1340.57 783.218 1343.29 782.683 1344.79 779.998C1346.91 776.17 1341.54 770.262 1338.92 774.621" stroke="white" stroke-width="3" stroke-linecap="round"/>
<path d="M1350.65 773.155C1350.65 776.808 1351.14 780.416 1351.14 784.071C1351.14 785.175 1351.14 781.863 1351.14 780.758C1351.14 778.758 1352.11 777.319 1352.99 775.599C1354.54 772.561 1357.91 772.127 1357.98 776.413C1358 777.285 1358.26 785.007 1357.5 781.953" stroke="white" stroke-width="3" stroke-linecap="round"/>
<path d="M1370.2 762.401C1369.92 761.01 1369.01 764.992 1368.66 766.366C1366.99 772.865 1366.4 779.559 1365.32 786.162C1365.27 786.407 1363.56 795.55 1362.87 794.173" stroke="white" stroke-width="3" stroke-linecap="round"/>
<path d="M1380.96 773.644C1371.72 773.644 1376.41 789.066 1382.86 781.736C1384.7 779.637 1385.61 776.675 1382.89 774.893C1381.96 774.285 1378.71 772.762 1378.02 774.133" stroke="white" stroke-width="3" stroke-linecap="round"/>
<path d="M1391.71 782.442C1391.71 777.579 1387.85 769.993 1391.49 765.66C1393.73 762.991 1399.98 761.727 1396.6 766.801" stroke="white" stroke-width="3" stroke-linecap="round"/>
<path d="M1389.27 777.065C1390.81 776.337 1391.97 776.088 1393.66 776.088" stroke="white" stroke-width="3" stroke-linecap="round"/>
<path d="M1401.97 784.397C1401.97 778.737 1401.33 772.791 1402.84 767.289C1403.15 766.16 1403.72 764.148 1405.23 764.465C1408.02 765.048 1408.06 766.31 1407.84 768.756" stroke="white" stroke-width="3" stroke-linecap="round"/>
<path d="M1399.53 779.021C1401.63 777.973 1403.06 777.721 1405.4 777.554" stroke="white" stroke-width="3" stroke-linecap="round"/>
<path d="M1298.93 820.002C1298.93 814.455 1296.73 808.103 1298.45 802.677C1299.63 798.941 1302.57 793.582 1304.31 799.961" stroke="white" stroke-width="3" stroke-linecap="round"/>
<path d="M1296 812.181C1297.71 811.589 1299.08 811.354 1300.89 811.204" stroke="white" stroke-width="3" stroke-linecap="round"/>
<path d="M1311.15 798.006C1311.24 804.531 1312.13 824.083 1312.13 817.558" stroke="white" stroke-width="3" stroke-linecap="round"/>
<path d="M1321.42 811.204C1318.54 811.319 1317.01 816.717 1318.1 819.024C1319.34 821.632 1321.94 816.404 1322.15 815.576C1322.57 813.918 1322.88 809.49 1322.88 813.919C1322.88 815.429 1322.83 818.643 1324.35 819.024" stroke="white" stroke-width="3" stroke-linecap="round"/>
<path d="M1331.19 811.692C1330.33 810.152 1328.49 810.589 1327.39 811.801C1326.1 813.221 1331.59 814.081 1332.06 814.245C1338.68 816.528 1329.24 822.668 1329.24 818.047" stroke="white" stroke-width="3" stroke-linecap="round"/>
<path d="M1336.57 798.495C1337.32 804.626 1337.05 811.342 1338.42 817.34C1338.63 818.293 1338.49 818.309 1338.53 817.286C1338.56 816.074 1339.24 814.713 1339.77 813.647C1340.85 811.493 1342.98 809.08 1344.12 812.67C1344.48 813.815 1344.39 819.781 1344.39 818.535" stroke="white" stroke-width="3" stroke-linecap="round"/>
<path d="M1350.75 799.473C1350.83 805.099 1351.23 810.706 1351.23 816.336C1351.23 817.104 1351.23 821.547 1351.23 818.536" stroke="white" stroke-width="3" stroke-linecap="round"/>
<path d="M1359.05 812.181V820.002" stroke="white" stroke-width="3" stroke-linecap="round"/>
<path d="M1358.57 805.338C1357.94 804.166 1358.08 805.083 1358.08 805.827" stroke="white" stroke-width="3" stroke-linecap="round"/>
<path d="M1370.79 813.159C1368.21 811.339 1366.93 812.135 1365.9 815.114C1365.36 816.672 1365.22 818.186 1365.9 819.703C1366.58 821.245 1369.32 817.109 1369.32 817.558" stroke="white" stroke-width="3" stroke-linecap="round"/>
<path d="M1371.27 813.647C1371.27 817.595 1372.38 821.503 1373.01 825.378C1373.49 828.328 1375.02 833.041 1371.79 834.856C1366.86 837.627 1363.04 825.378 1369.32 825.378" stroke="white" stroke-width="3" stroke-linecap="round"/>
<path d="M1376.65 803.872C1377.16 807.141 1377.45 810.409 1377.74 813.702C1377.84 814.886 1377.45 818.786 1378.36 819.703C1379.77 821.112 1378.34 815.64 1378.99 813.756C1379.31 812.817 1380.09 812.076 1381.05 811.801C1383 811.243 1383.02 813.744 1383.22 815.114C1383.3 815.635 1383.5 821.489 1383.5 819.513" stroke="white" stroke-width="3" stroke-linecap="round"/>
<path d="M1388.87 798.495C1389.65 805.301 1389.85 825.875 1389.85 819.024" stroke="white" stroke-width="3" stroke-linecap="round"/>
<path d="M1386.43 809.248C1389.33 809.211 1393.07 809.593 1395.71 808.271" stroke="white" stroke-width="3" stroke-linecap="round"/>
<path d="M1018.54 304.451C1016.12 304.451 1023.31 303.458 1025.72 303.557C1026 303.569 1031.78 303.434 1031.88 304.314C1031.89 304.439 1030.21 305.227 1030.02 305.379C1026.43 308.32 1023.67 312.308 1020.43 315.556C1020.14 315.845 1017.6 317.412 1018.06 317.928C1018.99 318.978 1025.13 318.062 1026.31 317.928C1028.66 317.658 1030.87 317.446 1033.25 317.446C1033.95 317.446 1036.78 317.446 1034.63 317.446" stroke="white" stroke-width="3" stroke-linecap="square"/>
<path d="M1041.43 324.253C1041.43 319.316 1044.24 314.117 1045.63 309.401C1045.95 308.304 1048.24 296.667 1048.24 300.738" stroke="white" stroke-width="3" stroke-linecap="square"/>
<path d="M1064.33 303.213C1052.5 300.345 1054.96 322.485 1064.95 319.028C1076.04 315.188 1066.58 295.388 1057.52 304.451" stroke="white" stroke-width="3" stroke-linecap="square"/>
<path d="M1062.47 313.114C1066.19 313.857 1068.66 318.684 1072.37 319.921" stroke="white" stroke-width="3" stroke-linecap="square"/>
<path d="M1081.04 324.872C1081.04 320.287 1083.73 315.227 1085.37 310.983C1086.61 307.761 1087.72 304.439 1088.39 301.048C1088.54 300.295 1088.05 302.706 1087.84 303.213" stroke="white" stroke-width="3" stroke-linecap="square"/>
<path d="M1103.32 303.832C1100.89 302.338 1095.68 303.23 1095.89 306.926C1096.03 309.444 1102.62 310.097 1104.42 310.777C1108.9 312.477 1106.18 318.425 1102.56 319.165C1100.67 319.552 1093.14 320.468 1094.65 317.446" stroke="white" stroke-width="3" stroke-linecap="square"/>
<path d="M1115.69 323.635C1115.69 317.658 1119.63 312.054 1121.12 306.308C1121.82 303.622 1122.28 300.745 1123.6 298.263C1124.33 296.89 1122.7 301.277 1121.88 302.595" stroke="white" stroke-width="3" stroke-linecap="square"/>
<path d="M1132.4 303.832C1132.4 307.503 1132.79 311.1 1132.98 314.765C1133.06 316.24 1132.32 319.995 1134.25 318.065" stroke="white" stroke-width="3" stroke-linecap="square"/>
<path d="M1131.78 303.832C1133.9 303.568 1136.15 300.223 1138.59 302.663C1140.97 305.043 1143.54 307.659 1143.54 311.121C1143.54 315.687 1142.7 315.841 1139.21 318.065C1137 319.468 1134.61 320.991 1133.64 318.065" stroke="white" stroke-width="3" stroke-linecap="square"/>
<path d="M1164.58 299.5C1164.73 306.318 1165.82 326.741 1165.82 319.922" stroke="white" stroke-width="3" stroke-linecap="square"/>
<path d="M1160.25 311.877C1163.98 311.877 1167.66 311.258 1171.38 311.258" stroke="white" stroke-width="3" stroke-linecap="square"/>
<path d="M1178.81 311.258C1176.17 312.36 1175.1 313.206 1175.1 316.071C1175.1 316.913 1174.85 318.318 1175.72 318.822C1178.75 320.58 1181.32 318.526 1183.07 316.278C1184.86 313.98 1183.23 311.369 1180.94 310.33C1178.82 309.367 1177.68 311.148 1176.34 312.496" stroke="white" stroke-width="3" stroke-linecap="square"/>
<path d="M1198.61 310.639C1199.85 313.567 1198.88 317.009 1200.33 319.922C1201.53 322.324 1200 314.437 1200.81 311.877C1201.36 310.151 1203.92 306.963 1206.18 308.439C1208.22 309.774 1208.51 314.22 1208.51 316.484C1208.51 319.372 1208.41 315.662 1208.55 314.73C1208.8 313.11 1210.14 308.899 1212.23 308.783C1216.66 308.537 1215.94 315.61 1215.94 318.684" stroke="white" stroke-width="3" stroke-linecap="square"/>
<path d="M1227.7 309.402C1220.2 307.584 1220.51 320.602 1229.14 318.546C1233.35 317.545 1229.49 305.118 1223.37 310.02" stroke="white" stroke-width="3" stroke-linecap="square"/>
<path d="M1235.74 310.021C1235.74 309.891 1238.14 317.996 1239.15 317.996C1239.37 317.996 1243.18 307.213 1241.31 310.021" stroke="white" stroke-width="3" stroke-linecap="square"/>
<path d="M1247.5 313.114C1249.65 313.802 1257.07 311.923 1255.41 308.783C1254.61 307.277 1250.64 306.895 1249.67 308.198C1248.35 309.957 1247.78 316.748 1249.77 318.374C1251.58 319.859 1257.4 319.78 1257.4 316.827" stroke="white" stroke-width="3" stroke-linecap="square"/>
<path d="M1606.87 779.437C1606.87 774.005 1605.1 757.96 1606.61 763.145C1607.69 766.835 1609.23 768.475 1611.72 770.869C1614.07 773.145 1620 755.961 1620 764.302C1620 769.612 1618.95 774.734 1618.95 780" stroke="white" stroke-width="3" stroke-linecap="square"/>
<path d="M1628.63 772.677C1625.36 772.954 1627.44 785.909 1631.02 778.947C1632.23 776.612 1632.58 774.181 1630.55 772.677C1629.82 772.129 1627.9 771.477 1627.48 772.677" stroke="white" stroke-width="3" stroke-linecap="square"/>
<path d="M1636 772.597C1636 774.727 1640.26 779.415 1640.31 778.971C1640.45 777.736 1642.6 771.28 1643 772.066" stroke="white" stroke-width="3" stroke-linecap="square"/>
<path d="M1647 777.543C1650.31 777.543 1654.01 776.353 1653.25 772.382C1652.77 769.844 1649.34 771.271 1648.71 772.929C1648 774.808 1646.14 779.661 1649.16 780.7C1651.78 781.6 1653.06 780.293 1655 779.182" stroke="white" stroke-width="3" stroke-linecap="square"/>
<path d="M1668.02 771.935C1668.02 769.829 1668.29 776.139 1668.41 778.242C1668.6 781.308 1668.08 779.844 1668.02 777.787C1667.96 775.394 1667.85 770.768 1670.29 769.226C1672.71 767.694 1673.78 774.413 1673.98 775.641C1674.18 776.785 1674.07 780.537 1674.69 777.526C1675.11 775.479 1675.03 771.961 1676.7 770.374C1679.4 767.814 1680.24 772.772 1680.68 774.449C1681.11 776.13 1681.59 777.991 1681.59 779.737C1681.59 780.123 1681.82 778.905 1682 778.567" stroke="white" stroke-width="3" stroke-linecap="square"/>
<path d="M1690.12 770.965C1683.29 768.982 1683.37 781.285 1689.91 779.889C1693.38 779.148 1694.89 774.387 1693.47 771.745C1692.91 770.711 1691.6 769.413 1690.34 769.059C1688.72 768.609 1687.45 770.856 1686.68 771.745" stroke="white" stroke-width="3" stroke-linecap="square"/>
<path d="M1700 770.189C1700.3 771.949 1699.3 778.484 1702.05 778.956C1705.51 779.552 1705.73 772.605 1705.73 770.446C1705.73 768.321 1707.52 774.359 1707.75 776.471C1707.83 777.259 1708.45 780.468 1709 778.206" stroke="white" stroke-width="3" stroke-linecap="square"/>
<path d="M1716.75 769.035C1715.53 769.035 1714.43 768.752 1713.81 769.804C1713.38 770.54 1712.41 771.896 1713.5 772.498C1715.45 773.584 1718.65 773.586 1719.79 775.554C1720.68 777.101 1718.54 778.038 1717.01 777.999C1716.05 777.975 1712.55 776.143 1713.92 775.554" stroke="white" stroke-width="3" stroke-linecap="square"/>
<path d="M1724.42 772.344C1726.53 773.308 1727.7 771.555 1727.7 769.448C1727.7 767.947 1725.02 767.515 1724.19 768.618C1722.91 770.31 1722.57 774.678 1723.63 776.519C1724.76 778.469 1727.17 778.105 1729 777.597" stroke="white" stroke-width="3" stroke-linecap="square"/>
<path d="M1744.89 757.416C1744.98 764.468 1745.36 771.501 1745.36 778.555" stroke="white" stroke-width="3" stroke-linecap="square"/>
<path d="M1741.62 767.943C1740.06 767.943 1744.62 767.176 1746.13 766.793C1747.09 766.549 1748.38 765.854 1748.38 767.147" stroke="white" stroke-width="3" stroke-linecap="square"/>
<path d="M1755.55 770.73C1749.78 772.206 1752.16 781.136 1757.05 777.984C1759.13 776.649 1759.55 772.801 1757.85 771.04C1755.41 768.515 1754.11 770.051 1752.37 772.322" stroke="white" stroke-width="3" stroke-linecap="square"/>
<path d="M1771.87 756C1772.01 762.65 1772.67 769.249 1772.67 775.905" stroke="white" stroke-width="3" stroke-linecap="square"/>
<path d="M1780.23 771.128C1778.35 773.052 1776.83 777.592 1780.54 778.603C1782.6 779.165 1784.06 776.17 1784.19 774.49C1784.53 770.301 1780.68 771.755 1778.64 773.118" stroke="white" stroke-width="3" stroke-linecap="square"/>
<path d="M1792.18 770.73C1786.64 768.958 1788.78 780.614 1792.77 778.029C1798.12 774.566 1791.62 767.112 1789.39 772.322" stroke="white" stroke-width="3" stroke-linecap="square"/>
<path d="M1798.94 759.185C1799.74 764.532 1800.54 769.71 1800.54 775.109" stroke="white" stroke-width="3" stroke-linecap="square"/>
<path d="M1800.14 771.526C1802.1 770.141 1804.35 767.943 1806.91 767.943" stroke="white" stroke-width="3" stroke-linecap="square"/>
<path d="M1802.92 770.73C1803.39 770.789 1804.07 771.744 1804.45 772.035C1805.94 773.186 1807.39 774.38 1808.9 775.507" stroke="white" stroke-width="3" stroke-linecap="square"/>
<path d="M1661.02 797.536C1659.23 796.692 1658.2 796.846 1657.48 798.907C1657.1 800.022 1656.74 801.764 1657.26 802.888C1658.54 805.632 1661.06 802.231 1661.73 800.897C1662.21 799.944 1663.01 796.349 1663.01 796.983C1663.01 799.231 1663.2 801.888 1664.21 803.905" stroke="white" stroke-width="3" stroke-linecap="square"/>
<path d="M1669.78 796.341C1670.12 798.774 1670.98 801.205 1670.98 803.662C1670.98 805.041 1670.9 800.901 1671 799.526C1671.13 797.734 1671.69 797.138 1673.45 797.138C1674.41 797.138 1675.75 796.71 1675.75 797.934" stroke="white" stroke-width="3" stroke-linecap="square"/>
<path d="M1684.91 796.341C1681.51 796.341 1678.6 800.627 1681.02 803.507C1682.83 805.661 1686.25 805.717 1687.67 803.043C1690.81 797.171 1684.05 794.201 1680.53 799.128" stroke="white" stroke-width="3" stroke-linecap="square"/>
<path d="M1694.07 796.341C1692.98 796.612 1693.28 803.489 1694.46 804.215C1697.25 805.915 1698.7 800.694 1699.04 799.172C1699.29 798.073 1699.44 796.905 1699.62 795.788C1699.77 794.764 1699.72 796.298 1699.84 796.739C1700.36 798.621 1699.84 802.116 1701.23 803.507" stroke="white" stroke-width="3" stroke-linecap="square"/>
<path d="M1706.8 796.341C1706.82 797.11 1707.2 803.475 1707.2 801.893C1707.2 799.924 1708.13 797.331 1709.59 795.943C1711 794.602 1713.15 795.947 1713.75 797.315C1714.46 798.933 1714.37 800.585 1714.37 802.313" stroke="white" stroke-width="3" stroke-linecap="square"/>
<path d="M1727.51 796.739C1725.54 795.854 1722.92 794.397 1721.62 796.828C1720.94 798.111 1720.98 800.103 1721.23 801.517C1721.8 804.795 1724.99 803.689 1726.71 802.313" stroke="white" stroke-width="3" stroke-linecap="square"/>
<path d="M1726.71 786.389C1726.71 785.792 1726.71 787.746 1726.71 787.893C1726.81 791.275 1727.75 794.577 1727.88 797.956C1727.95 799.532 1726.79 805.26 1728.7 805.896" stroke="white" stroke-width="3" stroke-linecap="square"/>
</svg>
