<svg width="1920" height="1080" viewBox="0 0 1920 1080" fill="none" xmlns="http://www.w3.org/2000/svg">
<rect width="1920" height="1080" fill="#111312"/>
<path d="M925.526 586.989L336 579.989V475.992L583.426 476.992M1008.9 591.489L1245.91 590.989L1247.34 578.489L1279.51 578.989L1278.79 688.988L1524.65 691.988L1587.55 632.989L1603.99 538.991L1614 535.991L1606.85 442.992L1545.38 391.994L1462.47 373.494H1278.79L1278.08 499.491L1248.77 498.991V479.992L665.086 478.492" stroke="white" stroke-width="3" stroke-linecap="round" stroke-linejoin="round"/>
<path d="M583.856 477V438.993L521.674 392.994L520.244 291.497L574.567 255.498H601.014L681.237 255.998L681.952 264.998L695.533 265.998L723.409 303.997L751.643 304.247L779.876 304.497L780.591 223.499L821.333 203L1118.83 208L1169.3 249.499L1168.59 403.994L1114.26 422.494L819.189 422.994L781.306 386.494L721.98 385.494L665.086 442.993V478.5" stroke="white" stroke-width="3" stroke-linecap="round" stroke-linejoin="round" stroke-dasharray="12 12"/>
<path d="M1279.5 645H1308.5L1356.5 623.5L1372.5 580.5C1382.83 580.333 1403.5 580.1 1403.5 580.5C1403.5 580.9 1414.17 608.667 1418.5 622.5L1477 646.5H1499L1546.5 599.5L1556.5 529L1563 523.5L1558 458.5L1548 454L1538 437.5L1451 420H1279" stroke="white" stroke-width="2" stroke-linecap="round" stroke-linejoin="round"/>
<path d="M1258 498.5V578.5" stroke="white" stroke-width="2" stroke-linecap="round" stroke-linejoin="round"/>
<path d="M1270 578.5V499.5" stroke="white" stroke-width="2" stroke-linecap="round" stroke-linejoin="round"/>
<path d="M1007 600L927 600" stroke="white" stroke-width="2" stroke-linecap="round" stroke-linejoin="round"/>
<path d="M928 612L1007 612" stroke="white" stroke-width="2" stroke-linecap="round" stroke-linejoin="round"/>
<path d="M836 754L836 674" stroke="white" stroke-width="2" stroke-linecap="round" stroke-linejoin="round"/>
<path d="M824 675L824 754" stroke="white" stroke-width="2" stroke-linecap="round" stroke-linejoin="round"/>
<path d="M664 456L584 456" stroke="white" stroke-width="2" stroke-linecap="round" stroke-linejoin="round"/>
<path d="M585 468L664 468" stroke="white" stroke-width="2" stroke-linecap="round" stroke-linejoin="round"/>
<path d="M757 385L757 305" stroke="white" stroke-width="2" stroke-linecap="round" stroke-linejoin="round"/>
<path d="M745 306L745 385" stroke="white" stroke-width="2" stroke-linecap="round" stroke-linejoin="round"/>
<path d="M336 494H347V562H336" stroke="white" stroke-width="2" stroke-linecap="round" stroke-linejoin="round"/>
<path d="M661 256L661 265L593 265L593 256" stroke="white" stroke-width="2" stroke-linecap="round" stroke-linejoin="round"/>
<path d="M523 377H575V255" stroke="white" stroke-width="2" stroke-linecap="round" stroke-linejoin="round"/>
<path d="M523 364H575" stroke="white" stroke-width="2" stroke-linecap="round" stroke-linejoin="round"/>
<path d="M575 351H523" stroke="white" stroke-width="2" stroke-linecap="round" stroke-linejoin="round"/>
<path d="M522 338H574" stroke="white" stroke-width="2" stroke-linecap="round" stroke-linejoin="round"/>
<path d="M522 325H574" stroke="white" stroke-width="2" stroke-linecap="round" stroke-linejoin="round"/>
<path d="M522 313H574" stroke="white" stroke-width="2" stroke-linecap="round" stroke-linejoin="round"/>
<path d="M524 288.5L528.5 295.5L570 268L565.5 261" stroke="white" stroke-width="2" stroke-linecap="round" stroke-linejoin="round"/>
<path d="M1477 395L1464.5 415.5L1528.5 428L1526.5 405.5L1477 395Z" stroke="white" stroke-width="2" stroke-linecap="round" stroke-linejoin="round"/>
<path d="M1374 605.131C1374 592.487 1384.93 589.784 1390.39 590.013C1394.26 590.929 1402 595.235 1402 605.13C1402 615.026 1394.26 618.416 1390.39 618.874C1384.93 619.561 1374 617.775 1374 605.131Z" stroke="white" stroke-width="2" stroke-linecap="round" stroke-linejoin="round"/>
<path d="M1039.5 808.5V621.5" stroke="white" stroke-width="2" stroke-linecap="round" stroke-linejoin="round"/>
<path d="M910.5 830C917.07 823 936.879 808 968 808C999.121 808 1019.5 824 1024 832" stroke="white" stroke-width="2" stroke-linecap="round" stroke-linejoin="round"/>
<path d="M561 687H686V636" stroke="white" stroke-width="2" stroke-linecap="round" stroke-linejoin="round"/>
<path d="M1071 243L1095.5 290M1071 243L1113 221M1071 243L1136.5 270M1095.5 290L1136.5 270M1095.5 290L1113 221M1136.5 270L1113 221" stroke="white" stroke-width="2" stroke-linecap="round" stroke-linejoin="round"/>
<path d="M1117.58 292.391L1107.8 331.158M1117.58 292.391L1152.28 301.075M1117.58 292.391L1140.93 340.466M1107.8 331.158L1140.93 340.466M1107.8 331.158L1152.28 301.075M1140.93 340.466L1152.28 301.075" stroke="white" stroke-width="2" stroke-linecap="round" stroke-linejoin="round"/>
<path d="M1048.65 360.52L1049.63 410.328M1048.65 360.52L1093.2 359.558M1048.65 360.52L1092.5 410.631M1049.63 410.328L1092.5 410.631M1049.63 410.328L1093.2 359.558M1092.5 410.631L1093.2 359.558" stroke="white" stroke-width="2" stroke-linecap="round" stroke-linejoin="round"/>
<path d="M1002.59 365.691L1003.36 405.201M1002.59 365.691L1037.93 364.928M1002.59 365.691L1037.37 405.441M1003.36 405.201L1037.37 405.441M1003.36 405.201L1037.93 364.928M1037.37 405.441L1037.93 364.928" stroke="white" stroke-width="2" stroke-linecap="round" stroke-linejoin="round"/>
<path d="M795.585 231.691L796.36 271.201M795.585 231.691L830.927 230.928M795.585 231.691L830.371 271.441M796.36 271.201L830.371 271.441M796.36 271.201L830.927 230.928M830.371 271.441L830.927 230.928" stroke="white" stroke-width="2" stroke-linecap="round" stroke-linejoin="round"/>
<path d="M843.545 210.937L836.407 249.804M843.545 210.937L878.326 217.252M843.545 210.937L869.684 256.837M836.407 249.804L869.684 256.837M836.407 249.804L878.326 217.252M869.684 256.837L878.326 217.252" stroke="white" stroke-width="2" stroke-linecap="round" stroke-linejoin="round"/>
<path d="M923.26 264.028L975.974 277.661M923.26 264.028L935.361 216.848M923.26 264.028L988.913 232.62M975.974 277.661L988.913 232.62M975.974 277.661L935.361 216.848M988.913 232.62L935.361 216.848" stroke="white" stroke-width="2" stroke-linecap="round" stroke-linejoin="round"/>
<path d="M839.136 275.471L848.889 304.269M839.136 275.471L864.88 266.696M839.136 275.471L873.89 296.54M848.889 304.269L873.89 296.54M848.889 304.269L864.88 266.696M873.89 296.54L864.88 266.696" stroke="white" stroke-width="2" stroke-linecap="round" stroke-linejoin="round"/>
<path d="M564 746.5L570.5 740L603.5 770L597.5 777" stroke="white" stroke-width="2" stroke-linecap="round" stroke-linejoin="round"/>
<path d="M590 687V636" stroke="white" stroke-width="2" stroke-linecap="round" stroke-linejoin="round"/>
<path d="M572 675.5C569.6 675.5 569 672.5 569 671C568.833 665.333 568.5 653.7 568.5 650.5C568.5 647.3 570.5 647.5 572 647.5C574.333 647.333 579.4 647.5 581 647.5C582.6 647.5 583.667 649.5 584 650.5V672C584 674 581.667 675.167 580.5 675.5H572Z" stroke="white" stroke-width="2" stroke-linecap="round" stroke-linejoin="round"/>
<path d="M1516.5 411.5L1559.5 313.5" stroke="#3CDB4C" stroke-width="2" stroke-linecap="round" stroke-linejoin="round"/>
<path d="M1450 754L1388 604" stroke="#3CDB4C" stroke-width="2" stroke-linecap="round" stroke-linejoin="round"/>
<path d="M341 503L279 353" stroke="#3CDB4C" stroke-width="2" stroke-linecap="round" stroke-linejoin="round"/>
<path d="M669 628C669 627.04 669 617.849 669 616" stroke="white" stroke-width="2" stroke-linecap="round"/>
<path d="M669 615.355C669.775 614.92 671.068 614.92 671.729 615.164C672.36 615.355 673.092 615.729 673.653 616.225C673.653 616.225 674.467 616.793 674.689 618.064C674.939 619.493 675.138 621.88 674.879 623.351C674.541 625.269 673.703 626.741 672.686 627.598C672.083 628.105 669.998 627.988 669.3 627.988" stroke="white" stroke-width="2" stroke-linecap="round"/>
<path d="M943 848C943 851.276 943 856.711 943 860" stroke="white" stroke-width="2" stroke-linecap="round"/>
<path d="M942 843H943" stroke="white" stroke-width="2" stroke-linecap="round"/>
<path d="M999 860C999 859.317 999 852.499 999 851.576C999 850.427 999 849.073 999 848.049C999 847.402 999 846.683 999 846" stroke="white" stroke-width="2" stroke-linecap="round"/>
<path d="M999 846.333C999.287 846.899 1001.56 850.829 1001.86 851.333C1002.85 852.978 1003.63 855.043 1004.41 856.667C1004.73 857.729 1005.19 859.159 1005.92 859.985C1006.02 860.102 1006 859.485 1006 859.358C1006 858.501 1006 857.643 1006 856.786C1006 854.59 1005.92 852.426 1005.82 850.238C1005.74 848.457 1005.7 847.755 1005.7 846" stroke="white" stroke-width="2" stroke-linecap="round"/>
<path d="M717 628C717 624.515 717 621.061 717 617.59C717 616.88 717 615.711 717 615" stroke="white" stroke-width="2" stroke-linecap="round"/>
<path d="M717 615C717.712 616.446 719.031 618.071 720.474 619.154C721.421 619.846 722.296 620.412 723 621" stroke="white" stroke-width="2" stroke-linecap="round"/>
<path d="M723 621C723.66 620.223 724.422 618.928 724.747 618.415C725.276 617.584 726.615 615.619 727 615" stroke="white" stroke-width="2" stroke-linecap="round"/>
<path d="M727 615C727 616.318 727 618.298 727 619.635C727 621.126 727 622.617 727 624.108C727 625.405 727 626.89 727 628" stroke="white" stroke-width="2" stroke-linecap="round"/>
<path d="M782 112C781.497 111.896 781.251 92.7788 781.145 90.4138C781.013 87.4704 780.923 84.242 781.094 81.2834C781.177 79.8407 781 78.3462 781.077 77" stroke="white" stroke-width="5" stroke-linecap="round"/>
<path d="M782.082 77.1173C781.191 77.3656 787.823 88.6013 788.631 89.8985C791.268 94.1285 793.644 98.5762 795.124 103.319C795.976 106.051 796.84 109.839 798.774 111.963C799.047 112.262 798.996 110.677 798.996 110.348C798.996 108.144 798.996 105.94 798.996 103.736C798.996 98.0875 798.78 92.5237 798.512 86.8977C798.294 82.3173 798.189 80.5139 798.189 76" stroke="white" stroke-width="5" stroke-linecap="round"/>
<path d="M725 112C725.667 110 726.333 108.947 727.399 107.028C730.988 100.568 734.854 93.3328 737.142 86.2945C737.598 84.8932 740.282 71.2724 740.282 77.726C740.282 82.477 743.368 88.8362 744.667 93.4878C746.31 99.3747 749.104 106.442 751 112" stroke="white" stroke-width="5" stroke-linecap="round"/>
<path d="M731 101C737.615 101 739.399 100 746 100" stroke="white" stroke-width="5" stroke-linecap="round"/>
<path d="M1179 111C1179.67 109 1180.33 107.947 1181.4 106.028C1184.99 99.5682 1188.85 92.3328 1191.14 85.2945C1191.6 83.8932 1194.28 70.2724 1194.28 76.726C1194.28 81.477 1197.37 87.8362 1198.67 92.4878C1200.31 98.3747 1203.1 105.442 1205 111" stroke="white" stroke-width="5" stroke-linecap="round"/>
<path d="M1185 100C1191.61 100 1193.4 99 1200 99" stroke="white" stroke-width="5" stroke-linecap="round"/>
<path d="M766 78C766 87.0094 766 101.955 766 111" stroke="white" stroke-width="5" stroke-linecap="round"/>
<path d="M765 66L766 65" stroke="white" stroke-width="5" stroke-linecap="round"/>
<path d="M1071 78C1071 87.0094 1071 101.955 1071 111" stroke="white" stroke-width="5" stroke-linecap="round"/>
<path d="M1070 66L1071 65" stroke="white" stroke-width="5" stroke-linecap="round"/>
<path d="M685 112C685 102.348 685 92.7838 685 83.1733C685 81.2054 685 77.9679 685 76" stroke="white" stroke-width="5" stroke-linecap="round"/>
<path d="M685 76C686.544 80.0978 689.402 84.7024 692.526 87.7692C694.579 89.7308 696.474 91.3334 698 93" stroke="white" stroke-width="5" stroke-linecap="round"/>
<path d="M698 93C699.981 90.7998 702.265 87.128 703.242 85.6755C704.828 83.3202 708.845 77.7527 710 76" stroke="white" stroke-width="5" stroke-linecap="round"/>
<path d="M711 76C711 79.6493 711 85.1328 711 88.8342C711 92.9636 711 97.093 711 101.222C711 104.815 711 108.927 711 112" stroke="white" stroke-width="5" stroke-linecap="round"/>
<path d="M1138 111C1138 101.348 1138 91.7838 1138 82.1733C1138 80.2054 1138 76.9679 1138 75" stroke="white" stroke-width="5" stroke-linecap="round"/>
<path d="M1138 75C1139.54 79.0978 1142.4 83.7024 1145.53 86.7692C1147.58 88.7308 1149.47 90.3334 1151 92" stroke="white" stroke-width="5" stroke-linecap="round"/>
<path d="M1151 92C1152.98 89.7998 1155.26 86.128 1156.24 84.6755C1157.83 82.3202 1161.85 76.7527 1163 75" stroke="white" stroke-width="5" stroke-linecap="round"/>
<path d="M1164 75C1164 78.6493 1164 84.1328 1164 87.8342C1164 91.9636 1164 96.093 1164 100.222C1164 103.815 1164 107.927 1164 111" stroke="white" stroke-width="5" stroke-linecap="round"/>
<path d="M972.559 185C972.223 185.933 972.092 195.955 972.092 197.625" stroke="white" stroke-width="2" stroke-linecap="round"/>
<path d="M972.561 185C974.103 185 975.802 185 977.236 185" stroke="white" stroke-width="2" stroke-linecap="round"/>
<path d="M972.561 191.078C973.628 191.078 974.696 191.078 975.763 191.078C975.969 191.078 976.811 191.078 977.236 191.078" stroke="white" stroke-width="2" stroke-linecap="round"/>
<path d="M972.092 197.625C973.817 197.625 975.521 197.625 977.235 197.625" stroke="white" stroke-width="2" stroke-linecap="round"/>
<path d="M908.05 185.656C906.766 185.225 905.332 184.815 904.262 185.956C903.42 186.854 903.14 188.171 903.14 189.381C903.14 190.414 903.989 190.832 904.808 191.11C906.064 191.536 907.449 191.535 908.459 192.079C909.434 192.703 910.014 193.777 910.014 194.818C910.014 196.055 909.641 196.884 908.517 197.411C906.466 198.374 903 197.806 903 194.784" stroke="white" stroke-width="2" stroke-linecap="round"/>
<path d="M947.023 197.625C947.263 196.923 947.503 196.554 947.886 195.881C949.177 193.616 950.568 191.078 951.391 188.61C951.555 188.119 952.52 183.342 952.52 185.605C952.52 187.271 953.63 189.501 954.097 191.133C954.688 193.197 955.693 195.676 956.375 197.625" stroke="white" stroke-width="2" stroke-linecap="round"/>
<path d="M949.363 193.884C951.631 193.884 952.243 193.417 954.507 193.417" stroke="white" stroke-width="2" stroke-linecap="round"/>
<path d="M937.24 197.625C937.24 194.354 937.24 191.086 937.24 187.814C937.24 187.253 937.24 186.031 937.24 185.468" stroke="white" stroke-width="2" stroke-linecap="round"/>
<path d="M937.24 185C937.856 185 938.931 185 939.543 185C940.244 185 940.688 185.283 941.246 185.672C942.013 186.208 942.586 187.699 942.315 188.56C942.028 189.474 941.807 190.573 940.467 190.602C940.119 190.61 938.175 190.654 937.942 190.437" stroke="white" stroke-width="2" stroke-linecap="round"/>
<path d="M938.176 191.546C939.227 193.453 940.733 195.142 942.349 196.556C942.721 196.882 942.92 197.349 943.319 197.624" stroke="white" stroke-width="2" stroke-linecap="round"/>
<path d="M991.049 197.625C991.049 194.354 991.049 191.086 991.049 187.814C991.049 187.253 991.049 186.031 991.049 185.468" stroke="white" stroke-width="2" stroke-linecap="round"/>
<path d="M991.049 185C991.665 185 992.74 185 993.352 185C994.052 185 994.497 185.283 995.055 185.672C995.822 186.208 996.395 187.699 996.124 188.56C995.837 189.474 995.616 190.573 994.276 190.602C993.927 190.61 991.984 190.654 991.75 190.437" stroke="white" stroke-width="2" stroke-linecap="round"/>
<path d="M991.982 191.546C993.033 193.453 994.539 195.142 996.156 196.556C996.528 196.882 996.727 197.349 997.126 197.624" stroke="white" stroke-width="2" stroke-linecap="round"/>
<path d="M916.992 185.468C916.992 189.52 916.992 196.495 916.992 197.625" stroke="white" stroke-width="2" stroke-linecap="round"/>
<path d="M912.783 185.003C913.485 185.003 915.242 184.997 915.961 185.003C917.345 185.014 918.684 185.064 920.062 185.222C920.77 185.304 921.419 185.468 922.135 185.468" stroke="white" stroke-width="2" stroke-linecap="round"/>
<path d="M924.803 189.437C925.184 187.89 925.866 186.525 927.278 185.762C928.371 185.296 930.135 185.956 931.087 187.116C932.23 188.857 932.718 192.744 932.039 194.659C931.566 195.996 930.669 196.975 929.373 197.56C928.161 198.109 925.981 197.521 925.374 196.4C924.972 195.656 924.468 194.348 924.422 193.499C924.358 192.328 924.422 190.791 924.803 189.437Z" stroke="white" stroke-width="2" stroke-linecap="round"/>
<path d="M1000.62 189.437C1001 187.89 1001.68 186.525 1003.1 185.762C1004.19 185.296 1005.95 185.956 1006.91 187.116C1008.05 188.857 1008.54 192.744 1007.86 194.659C1007.38 195.996 1006.49 196.975 1005.19 197.56C1003.98 198.109 1001.8 197.521 1001.19 196.4C1000.79 195.656 1000.29 194.348 1000.24 193.499C1000.18 192.328 1000.24 190.791 1000.62 189.437Z" stroke="white" stroke-width="2" stroke-linecap="round"/>
<path d="M1012.24 189.437C1012.62 187.89 1013.3 186.525 1014.72 185.762C1015.81 185.296 1017.57 185.956 1018.52 187.116C1019.67 188.857 1020.16 192.744 1019.48 194.659C1019 195.996 1018.11 196.975 1016.81 197.56C1015.6 198.109 1013.42 197.521 1012.81 196.4C1012.41 195.656 1011.91 194.348 1011.86 193.499C1011.8 192.328 1011.86 190.791 1012.24 189.437Z" stroke="white" stroke-width="2" stroke-linecap="round"/>
<path d="M964.538 185.173C962.184 184.402 960.855 186.319 960.671 188.673C960.498 190.883 959.759 197.559 963.007 197.826C965.712 198.047 968.425 195.729 968.425 192.777C968.425 192.101 964.073 192.415 966.305 192.415" stroke="white" stroke-width="2" stroke-linecap="round"/>
<path d="M1024.07 197.673C1024.07 194.439 1024.07 191.235 1024.07 188.015C1024.07 187.355 1024.07 186.271 1024.07 185.611" stroke="white" stroke-width="2" stroke-linecap="round"/>
<path d="M1024.07 185.611C1024.6 187.011 1025.58 188.584 1026.65 189.632C1027.36 190.302 1028.01 190.849 1028.53 191.419" stroke="white" stroke-width="2" stroke-linecap="round"/>
<path d="M1028.53 191.419C1029.19 190.667 1029.96 189.413 1030.29 188.917C1030.82 188.112 1032.16 186.21 1032.55 185.611" stroke="white" stroke-width="2" stroke-linecap="round"/>
<path d="M1033 185.611C1033 186.834 1033 188.671 1033 189.911C1033 191.295 1033 192.678 1033 194.062C1033 195.265 1033 196.643 1033 197.673" stroke="white" stroke-width="2" stroke-linecap="round"/>
<path d="M952 847C952 851.334 952 858.791 952 860" stroke="white" stroke-width="2" stroke-linecap="round"/>
<path d="M948 847C948.75 847 950.63 847 951.398 847C952.878 847 954.31 847 955.783 847C956.54 847 957.235 847 958 847" stroke="white" stroke-width="2" stroke-linecap="round"/>
<path d="M967 74C965.561 76.7344 965 106.106 965 111" stroke="white" stroke-width="5" stroke-linecap="round"/>
<path d="M967 74C971.288 74 976.012 74 980 74" stroke="white" stroke-width="5" stroke-linecap="round"/>
<path d="M967 92C969.968 92 972.936 92 975.904 92C976.477 92 978.818 92 980 92" stroke="white" stroke-width="5" stroke-linecap="round"/>
<path d="M965 111C970.033 111 975.002 111 980 111" stroke="white" stroke-width="5" stroke-linecap="round"/>
<path d="M852.12 75.2912C848.275 74.0273 843.982 72.8251 840.78 76.1683C838.259 78.8011 837.42 82.661 837.42 86.2066C837.42 89.2343 839.963 90.4602 842.413 91.2744C846.173 92.5237 850.321 92.521 853.345 94.1154C856.264 95.944 858 99.0902 858 102.141C858 105.766 856.884 108.197 853.52 109.743C847.378 112.565 837 110.9 837 102.044" stroke="white" stroke-width="5" stroke-linecap="round"/>
<path d="M1011.12 75.2912C1007.28 74.0273 1002.98 72.8251 999.78 76.1683C997.259 78.8011 996.42 82.661 996.42 86.2066C996.42 89.2343 998.963 90.4602 1001.41 91.2744C1005.17 92.5237 1009.32 92.521 1012.35 94.1154C1015.26 95.944 1017 99.0902 1017 102.141C1017 105.766 1015.88 108.197 1012.52 109.743C1006.38 112.565 996 110.9 996 102.044" stroke="white" stroke-width="5" stroke-linecap="round"/>
<path d="M871 111C871 108.12 871 80.5477 871 75" stroke="white" stroke-width="5" stroke-linecap="round"/>
<path d="M871 74.5745C872.939 73.8709 876.169 73.8715 877.823 74.2647C879.4 74.5744 881.229 75.178 882.631 75.9813C882.631 75.9813 884.667 76.8982 885.222 78.9539C885.847 81.2648 886.344 85.1241 885.696 87.5024C884.853 90.6029 882.758 92.9834 880.214 94.3681C878.707 95.1886 874.682 94.975 872.939 94.975" stroke="white" stroke-width="5" stroke-linecap="round"/>
<path d="M1090 111C1090 108.12 1090 80.5477 1090 75" stroke="white" stroke-width="5" stroke-linecap="round"/>
<path d="M1090 74.5745C1091.94 73.8709 1095.17 73.8715 1096.82 74.2647C1098.4 74.5744 1100.23 75.178 1101.63 75.9813C1101.63 75.9813 1103.67 76.8982 1104.22 78.9539C1104.85 81.2648 1105.34 85.1241 1104.7 87.5024C1103.85 90.6029 1101.76 92.9834 1099.21 94.3681C1097.71 95.1886 1093.68 94.975 1091.94 94.975" stroke="white" stroke-width="5" stroke-linecap="round"/>
<path d="M1219 111C1219 108.12 1219 80.5477 1219 75" stroke="white" stroke-width="5" stroke-linecap="round"/>
<path d="M1219 74.5745C1220.94 73.8709 1224.17 73.8715 1225.82 74.2647C1227.4 74.5744 1229.23 75.178 1230.63 75.9813C1230.63 75.9813 1232.67 76.8982 1233.22 78.9539C1233.85 81.2648 1234.34 85.1241 1233.7 87.5024C1232.85 90.6029 1230.76 92.9834 1228.21 94.3681C1226.71 95.1886 1222.68 94.975 1220.94 94.975" stroke="white" stroke-width="5" stroke-linecap="round"/>
<path d="M647 628C647 627.04 647 617.849 647 616" stroke="white" stroke-width="2" stroke-linecap="round"/>
<path d="M647 615.137C647.517 614.969 648.379 614.969 648.82 615.063C649.24 615.137 649.728 615.28 650.102 615.472C650.102 615.472 650.645 615.69 650.793 616.18C650.959 616.73 651.092 617.649 650.919 618.215C650.694 618.953 650.135 619.52 649.457 619.85C649.055 620.045 647.982 619.994 647.517 619.994" stroke="white" stroke-width="2" stroke-linecap="round"/>
<path d="M647 621.192C647.905 620.957 649.412 620.957 650.184 621.088C650.92 621.191 651.774 621.393 652.428 621.66C652.428 621.66 653.378 621.966 653.637 622.651C653.928 623.422 654.16 624.708 653.858 625.501C653.465 626.534 652.487 627.328 651.3 627.789C650.597 628.063 648.718 627.992 647.905 627.992" stroke="white" stroke-width="2" stroke-linecap="round"/>
<path d="M893 111C893.718 108.944 894.436 107.862 895.583 105.89C899.448 99.2506 903.612 91.8143 906.076 84.5805C906.567 83.1402 909.458 69.1411 909.458 75.7739C909.458 80.6569 912.781 87.1928 914.179 91.9736C915.949 98.024 918.958 105.288 921 111" stroke="white" stroke-width="5" stroke-linecap="round"/>
<path d="M900 100C906.615 100 908.399 99 915 99" stroke="white" stroke-width="5" stroke-linecap="round"/>
<path d="M681 628C681 624.771 681 621.546 681 618.316C681 617.762 681 616.556 681 616" stroke="white" stroke-width="2" stroke-linecap="round"/>
<path d="M681 615C681.599 615 682.644 615 683.239 615C683.92 615 684.352 615.252 684.894 615.599C685.64 616.077 686.197 617.405 685.934 618.173C685.655 618.987 685.44 619.966 684.137 619.992C683.798 619.999 681.909 620.038 681.682 619.845" stroke="white" stroke-width="2" stroke-linecap="round"/>
<path d="M682 621C683.022 623.196 684.485 625.141 686.057 626.77C686.419 627.145 686.612 627.683 687 628" stroke="white" stroke-width="2" stroke-linecap="round"/>
<path d="M691.405 619.091C691.788 617.437 692.475 615.977 693.897 615.161C694.996 614.663 696.772 615.368 697.73 616.609C698.88 618.471 699.371 622.627 698.688 624.675C698.212 626.105 697.309 627.152 696.005 627.778C694.785 628.364 692.59 627.736 691.98 626.537C691.575 625.742 691.068 624.343 691.022 623.435C690.957 622.183 691.022 620.539 691.405 619.091Z" stroke="white" stroke-width="2" stroke-linecap="round"/>
<path d="M704.405 619.091C704.788 617.437 705.475 615.977 706.897 615.161C707.996 614.663 709.772 615.368 710.73 616.609C711.88 618.471 712.371 622.627 711.688 624.675C711.212 626.105 710.309 627.152 709.005 627.778C707.785 628.364 705.59 627.736 704.98 626.537C704.575 625.742 704.068 624.343 704.022 623.435C703.957 622.183 704.022 620.539 704.405 619.091Z" stroke="white" stroke-width="2" stroke-linecap="round"/>
<path d="M945.536 74.2946C937.072 71.2933 933 92.0844 933 97.7389C933 103.4 936.168 107.49 937.827 109.627C942.118 113.193 946.945 112.599 951 108.792" stroke="white" stroke-width="5" stroke-linecap="round"/>
<path d="M659 615C658.281 615.961 658 626.281 658 628" stroke="white" stroke-width="2" stroke-linecap="round"/>
<path d="M659 615C660.319 615 661.773 615 663 615" stroke="white" stroke-width="2" stroke-linecap="round"/>
<path d="M659 621C659.913 621 660.827 621 661.74 621C661.916 621 662.636 621 663 621" stroke="white" stroke-width="2" stroke-linecap="round"/>
<path d="M658 628C659.678 628 661.334 628 663 628" stroke="white" stroke-width="2" stroke-linecap="round"/>
<path d="M1032 74C1032 79.1937 1032 84.3827 1032 89.5722C1032 94.3054 1032 99.0514 1032 103.765C1032 105.892 1032 107.974 1032 110.079C1032 110.889 1032 111.19 1032 112" stroke="white" stroke-width="5" stroke-linecap="round"/>
<path d="M1052 74C1052 77.04 1052 85.0103 1052 86.16C1052 90.3992 1052 94.6375 1052 98.8774C1052 103.057 1052 108.493 1052 112" stroke="white" stroke-width="5" stroke-linecap="round"/>
<path d="M1034 96C1035.75 96 1050.19 96 1052 96" stroke="white" stroke-width="5" stroke-linecap="round"/>
<path d="M966.875 847.101C963.584 846.074 962 853.187 962 855.121C962 857.058 963.232 858.457 963.877 859.188C965.546 860.408 967.423 860.205 969 858.903" stroke="white" stroke-width="2" stroke-linecap="round"/>
<path d="M930 847C930 848.659 930 855.642 930 860" stroke="white" stroke-width="2" stroke-linecap="round"/>
<path d="M930 854C930.031 853.726 930.236 853.459 930.433 853.281C931.509 852.306 932.528 851.284 933.45 850.163C934.077 849.401 934.671 848.634 935.317 847.889C935.441 847.746 936 846.932 936 847.005" stroke="white" stroke-width="2" stroke-linecap="round"/>
<path d="M930 854C931.529 855.568 933.187 857.034 934.732 858.617C935.171 859.067 935.568 859.34 936 860" stroke="white" stroke-width="2" stroke-linecap="round"/>
<path d="M1389 366C1389 364.96 1389 355.003 1389 353" stroke="white" stroke-width="2" stroke-linecap="round"/>
<path d="M1389 353.355C1390.03 352.92 1391.76 352.92 1392.64 353.164C1393.48 353.355 1394.46 353.729 1395.2 354.225C1395.2 354.225 1396.29 354.793 1396.59 356.064C1396.92 357.493 1397.18 359.88 1396.84 361.351C1396.39 363.269 1395.27 364.741 1393.91 365.598C1393.11 366.105 1390.33 365.988 1389.4 365.988" stroke="white" stroke-width="2" stroke-linecap="round"/>
<path d="M1367 366C1367 365.962 1367 358.861 1367 357.982C1367 356.889 1367 355.69 1367 354.591C1367 354.055 1367 353.5 1367 353" stroke="white" stroke-width="2" stroke-linecap="round"/>
<path d="M1367.03 353.403C1366.71 353.493 1369.06 357.55 1369.34 358.019C1370.27 359.546 1371.11 361.153 1371.63 362.865C1371.93 363.852 1372.24 365.22 1372.92 365.987C1373.02 366.094 1373 365.522 1373 365.404C1373 364.608 1373 363.812 1373 363.016C1373 360.976 1372.92 358.967 1372.83 356.935C1372.75 355.281 1372.71 354.63 1372.71 353" stroke="white" stroke-width="2" stroke-linecap="round"/>
<path d="M1343 366C1343.28 365.278 1343.56 364.897 1344.01 364.205C1345.53 361.872 1347.17 359.259 1348.14 356.717C1348.33 356.211 1349.47 351.293 1349.47 353.623C1349.47 355.339 1350.77 357.635 1351.32 359.315C1352.02 361.441 1353.2 363.993 1354 366" stroke="white" stroke-width="2" stroke-linecap="round"/>
<path d="M1346 362C1348.65 362 1349.36 361 1352 361" stroke="white" stroke-width="2" stroke-linecap="round"/>
<path d="M1360 354C1360 357.276 1360 362.711 1360 366" stroke="white" stroke-width="2" stroke-linecap="round"/>
<path d="M1359 349L1360 348" stroke="white" stroke-width="2" stroke-linecap="round"/>
<path d="M1329 366C1329 362.515 1329 359.061 1329 355.59C1329 354.88 1329 353.711 1329 353" stroke="white" stroke-width="2" stroke-linecap="round"/>
<path d="M1329 353C1329.59 354.446 1330.69 356.071 1331.89 357.154C1332.68 357.846 1333.41 358.412 1334 359" stroke="white" stroke-width="2" stroke-linecap="round"/>
<path d="M1334 359C1334.83 358.223 1335.78 356.928 1336.18 356.415C1336.85 355.584 1338.52 353.619 1339 353" stroke="white" stroke-width="2" stroke-linecap="round"/>
<path d="M1339 353C1339 354.318 1339 356.298 1339 357.635C1339 359.126 1339 360.617 1339 362.108C1339 363.405 1339 364.89 1339 366" stroke="white" stroke-width="2" stroke-linecap="round"/>
<path d="M1403 353C1402.28 353.961 1402 364.281 1402 366" stroke="white" stroke-width="2" stroke-linecap="round"/>
<path d="M1403 353C1404.65 353 1406.47 353 1408 353" stroke="white" stroke-width="2" stroke-linecap="round"/>
<path d="M1403 359C1404.14 359 1405.28 359 1406.42 359C1406.65 359 1407.55 359 1408 359" stroke="white" stroke-width="2" stroke-linecap="round"/>
<path d="M1402 366C1404.01 366 1406 366 1408 366" stroke="white" stroke-width="2" stroke-linecap="round"/>
<path d="M1417.18 353.101C1414.36 352.074 1413 359.187 1413 361.121C1413 363.058 1414.06 364.457 1414.61 365.188C1416.04 366.408 1417.65 366.205 1419 364.903" stroke="white" stroke-width="2" stroke-linecap="round"/>
<path d="M1423 353C1423 354.659 1423 361.642 1423 366" stroke="white" stroke-width="2" stroke-linecap="round"/>
<path d="M1423 360C1423.04 359.726 1423.31 359.459 1423.58 359.281C1425.01 358.306 1426.37 357.284 1427.6 356.163C1428.44 355.401 1429.23 354.634 1430.09 353.889C1430.25 353.746 1431 352.932 1431 353.005" stroke="white" stroke-width="2" stroke-linecap="round"/>
<path d="M1423 360C1425.04 361.568 1427.25 363.034 1429.31 364.617C1429.89 365.067 1430.42 365.34 1431 366" stroke="white" stroke-width="2" stroke-linecap="round"/>
<path d="M975 847C975 848.777 975 850.552 975 852.327C975 853.947 975 855.57 975 857.183C975 857.911 975 858.623 975 859.343C975 859.62 975 859.723 975 860" stroke="white" stroke-width="2" stroke-linecap="round"/>
<path d="M982 847C982 848.04 982 850.767 982 851.16C982 852.61 982 854.06 982 855.511C982 856.941 982 858.8 982 860" stroke="white" stroke-width="2" stroke-linecap="round"/>
<path d="M976 855C976.583 855 981.396 855 982 855" stroke="white" stroke-width="2" stroke-linecap="round"/>
<path d="M989 847C988.281 847.961 988 858.281 988 860" stroke="white" stroke-width="2" stroke-linecap="round"/>
<path d="M989 847C990.649 847 992.466 847 994 847" stroke="white" stroke-width="2" stroke-linecap="round"/>
<path d="M989 853C990.142 853 991.283 853 992.425 853C992.645 853 993.545 853 994 853" stroke="white" stroke-width="2" stroke-linecap="round"/>
<path d="M988 860C990.013 860 992.001 860 994 860" stroke="white" stroke-width="2" stroke-linecap="round"/>
<path d="M1008.9 591.5V620.988L1036.5 621.5C1043.08 623.012 1086.96 609.187 1090.96 693.985C1094.96 778.782 1062.13 805.648 1045.21 808.481L1029.33 808.981C1031 838 1028.18 834.181 970.429 834.981C912.675 835.781 902.499 836.5 902.659 807.982C901.23 807.815 894.511 807.282 879.072 806.482C863.632 805.682 858.82 798.482 858.343 794.982L845.477 755.483L810.453 754.983C809.262 756.816 805.736 769.483 801.161 773.482C796.586 777.482 785.436 780.149 780.432 780.982C762.325 780.649 723.965 780.182 715.388 780.982C704.666 781.982 696.089 789.482 683.938 790.482C674.217 791.282 658.92 785.149 652.487 781.982L602.453 780.982C590.064 770.483 564.284 748.183 560.281 742.983V635.5L580.295 635.986C651.773 636.32 797.158 636.186 806.879 636.986C816.6 637.786 814.265 642.986 811.883 645.486L813.312 674.485L846.192 672.485C847.145 659.152 850.052 657.186 854.054 639.987C858.057 622.787 871.447 624.821 877.642 621.488L925.955 619.488V587" stroke="white" stroke-width="3" stroke-linecap="round" stroke-linejoin="round" stroke-dasharray="12 12"/>
<path d="M1531 278.066C1531 285.749 1531.51 308.79 1531.51 301.108" stroke="white" stroke-width="3" stroke-linecap="round"/>
<path d="M1531 278.066C1531.25 276.078 1534.3 275.837 1535.64 276.075C1540.92 277.018 1540.22 280.045 1540.22 284.666C1540.22 287.725 1533.84 290.355 1531 290.355" stroke="white" stroke-width="3" stroke-linecap="round"/>
<path d="M1531.51 290.867C1531.71 292.65 1535.12 295.094 1536.15 296.016C1537.8 297.487 1541.52 299.888 1542.26 302.132" stroke="white" stroke-width="3" stroke-linecap="round"/>
<path d="M1551.99 293.939C1549.41 293.939 1549.49 293.923 1548.92 296.528C1548.57 298.151 1547.91 301.212 1549.72 302.359C1551.35 303.398 1553.36 301.958 1554.04 300.596" stroke="white" stroke-width="3" stroke-linecap="round"/>
<path d="M1554.55 293.939C1554.66 297.029 1555.58 306.247 1555.58 303.156" stroke="white" stroke-width="3" stroke-linecap="round"/>
<path d="M1566.84 293.939C1565.2 293.939 1564.45 293.5 1564.05 295.248C1563.65 297.038 1562.61 299.546 1563.77 301.221C1565.14 303.194 1567.61 302.898 1568.38 300.596" stroke="white" stroke-width="3" stroke-linecap="round"/>
<path d="M1567.87 283.699C1567.96 290.38 1569.4 297.052 1569.4 303.668" stroke="white" stroke-width="3" stroke-linecap="round"/>
<path d="M1578.11 293.939V303.156" stroke="white" stroke-width="3" stroke-linecap="round"/>
<path d="M1576.57 286.259C1576.55 286.375 1575.96 285.512 1577.08 286.259" stroke="white" stroke-width="3" stroke-linecap="round"/>
<path d="M1591.42 292.915C1586.31 292.915 1588.65 305.189 1593.58 301.904C1599.4 298.027 1591.75 290.282 1589.88 294.963" stroke="white" stroke-width="3" stroke-linecap="round"/>
<path d="M1365 758.39C1365 765.969 1365.93 773.518 1365.93 781.095" stroke="white" stroke-width="3" stroke-linecap="round"/>
<path d="M1365.46 769.511C1368.04 769.96 1372.4 770.136 1374.73 768.584" stroke="white" stroke-width="3" stroke-linecap="round"/>
<path d="M1374.73 757C1374.73 765.211 1376.58 773.386 1376.58 781.558" stroke="white" stroke-width="3" stroke-linecap="round"/>
<path d="M1386.78 771.828C1385.56 773.497 1383.64 778.245 1385.95 779.705C1387.99 780.988 1389.86 779.046 1390.38 777.131C1391.2 774.089 1389.35 773.398 1386.78 772.755" stroke="white" stroke-width="3" stroke-linecap="round"/>
<path d="M1398.36 758.854V780.168" stroke="white" stroke-width="3" stroke-linecap="round"/>
<path d="M1407.63 772.755C1406.89 773.276 1406.09 773.721 1406.06 774.711C1406.03 775.825 1406.01 781.338 1407.48 781.533C1410 781.87 1411.88 779.465 1412.24 777.157C1412.79 773.566 1410.02 771.805 1407.17 772.755" stroke="white" stroke-width="3" stroke-linecap="round"/>
<path d="M1423.85 774.145C1420.46 773.323 1417.32 777.976 1420.35 780.58C1421.91 781.928 1424.73 780.542 1425.7 779.242" stroke="white" stroke-width="3" stroke-linecap="round"/>
<path d="M1426.63 774.145C1426.24 775.362 1426.2 775.812 1426.55 777.053C1427.87 781.724 1429.14 786.475 1429.64 791.315C1429.91 793.943 1430.92 799.78 1428.2 801.663C1423.49 804.921 1422.27 795.01 1423.38 792.216" stroke="white" stroke-width="3" stroke-linecap="round"/>
<path d="M1434.04 772.291C1434.04 775.56 1434.3 778.785 1434.94 781.97C1435.23 783.393 1435.38 779.095 1435.43 777.646C1435.54 774.835 1436.47 775.323 1437.72 773.45C1438.59 772.145 1439.6 772.774 1439.6 774.145" stroke="white" stroke-width="3" stroke-linecap="round"/>
<path d="M1449.33 773.218C1446.01 772.155 1445.78 776.269 1446.19 779.036C1446.49 781.072 1448.23 780.632 1449.79 780.632" stroke="white" stroke-width="3" stroke-linecap="round"/>
<path d="M1450.72 771.828C1450.97 773.087 1452.22 782.022 1451.65 782.022" stroke="white" stroke-width="3" stroke-linecap="round"/>
<path d="M1459.99 771.828C1460.18 773.68 1462.5 794.533 1460.92 794.533" stroke="white" stroke-width="3" stroke-linecap="round"/>
<path d="M1460.45 775.535C1459.34 775.396 1460.49 773.931 1460.87 773.604C1463.21 771.564 1466.03 770.534 1467.12 774.17C1467.65 775.943 1467.78 777.87 1466.01 778.778C1464.87 779.366 1462.84 780.701 1461.84 779.705" stroke="white" stroke-width="3" stroke-linecap="round"/>
<path d="M1473.43 759.317C1473.55 765.597 1474.82 778.109 1474.82 778.109C1474.82 778.109 1475.34 774.336 1476.31 772.754C1477.73 770.43 1480.35 774.196 1480.38 775.638C1480.39 776.315 1479.91 780.689 1479.91 778.315" stroke="white" stroke-width="3" stroke-linecap="round"/>
<path d="M1486.4 771.365C1486.77 773.677 1487.04 775.993 1487.33 778.315" stroke="white" stroke-width="3" stroke-linecap="round"/>
<path d="M1485.47 764.877L1485.94 765.341" stroke="white" stroke-width="3" stroke-linecap="round"/>
<path d="M1496.13 770.438C1495.6 770.72 1494.58 771.173 1494.38 771.828C1493.91 773.339 1493.83 777.453 1494.95 778.675C1496.43 780.288 1498.71 778.315 1500.3 778.315" stroke="white" stroke-width="3" stroke-linecap="round"/>
<path d="M1513.74 770.901C1513.74 773.368 1514.2 775.779 1514.2 778.264C1514.2 780.124 1514.18 774.433 1514.92 772.729C1515.4 771.647 1517.01 768.972 1518.37 769.048C1519.95 769.135 1520.66 774.599 1520.69 775.792C1520.71 776.471 1520.69 778.713 1520.69 776.667C1520.69 774.505 1520.31 771.939 1521.21 769.923C1522.38 767.273 1525.02 767.291 1525.32 770.438C1525.55 772.764 1525.79 775.05 1525.79 777.388" stroke="white" stroke-width="3" stroke-linecap="round"/>
<path d="M1535.98 770.438C1532.04 768.584 1531.88 773.726 1531.45 776.359C1531.24 777.675 1532.37 779.242 1533.77 779.242C1535.56 779.242 1535.92 777.41 1537.37 776.925" stroke="white" stroke-width="3" stroke-linecap="round"/>
<path d="M1537.37 769.511C1537.86 772.717 1538.76 775.987 1538.76 779.242" stroke="white" stroke-width="3" stroke-linecap="round"/>
<path d="M1546.18 768.584C1546.34 775.867 1547.57 783.089 1547.57 790.362" stroke="white" stroke-width="3" stroke-linecap="round"/>
<path d="M1547.1 771.828C1548.41 770.523 1548.57 769.923 1550.58 769.769C1553.04 769.579 1556.77 772.325 1554.77 774.969C1554.09 775.871 1547.1 781.601 1547.1 777.388" stroke="white" stroke-width="3" stroke-linecap="round"/>
<path d="M229.583 317.798C225.754 315.707 221 317.857 221 322.716C221 327.455 225.232 325.917 228.002 328.152C230.572 330.227 233.667 337.035 230.938 339.697C228.673 341.907 226.088 342.703 223.133 341.302C220.817 340.205 221.062 339.778 221.452 337.368" stroke="white" stroke-width="3" stroke-linecap="round"/>
<path d="M239 318C239 324.891 240 331.776 240 338.67C240 339.711 238.781 341.247 240 340.966" stroke="white" stroke-width="3" stroke-linecap="round"/>
<path d="M240 334.084C241.612 332.354 244.922 328.724 245.722 333.018C246.147 335.299 245.958 337.709 245.958 340.024C245.958 341.305 246.025 341.346 245.533 340.024" stroke="white" stroke-width="3" stroke-linecap="round"/>
<path d="M254 331V341" stroke="white" stroke-width="3" stroke-linecap="round"/>
<path d="M253 325V326" stroke="white" stroke-width="3" stroke-linecap="round"/>
<path d="M262 332C262 338.561 262 358.241 262 351.679" stroke="white" stroke-width="3" stroke-linecap="round"/>
<path d="M262 332.318C265.034 329.439 271.052 331.503 268.296 336.318C267.512 337.687 262 343.953 262 339.318" stroke="white" stroke-width="3" stroke-linecap="round"/>
<path d="M280.015 334.53C280.309 336.789 286.537 334.222 287.008 332.98C287.698 331.163 285.448 329.52 283.668 330.129C280.682 331.151 279.788 334.563 280.041 337.23C280.175 338.642 281.083 339.967 282.415 340.606C284.877 341.785 286.256 340.084 288 338.58" stroke="white" stroke-width="3" stroke-linecap="round"/>
<path d="M292 340C294.62 338.415 296.647 334.936 298.444 332.546C299.069 331.716 299.61 330.099 300 331.642" stroke="white" stroke-width="3" stroke-linecap="round"/>
<path d="M292 333.019C292.059 332.655 297.767 337.613 298.333 338.192C299.189 339.067 300.437 340.002 301 341" stroke="white" stroke-width="3" stroke-linecap="round"/>
<path d="M307 331V340" stroke="white" stroke-width="3" stroke-linecap="round"/>
<path d="M306 324C306.421 324.624 306.679 325.286 307 326" stroke="white" stroke-width="3" stroke-linecap="round"/>
<path d="M315 321V340" stroke="white" stroke-width="3" stroke-linecap="round"/>
<path d="M312 328C314.683 328 317.326 328 320 328" stroke="white" stroke-width="3" stroke-linecap="round"/>
<path d="M60.2218 944.271C57.9737 952.421 60.2218 962.067 60.2218 970.543" stroke="white" stroke-width="3" stroke-linecap="round"/>
<path d="M59.611 946.104C63.4908 943.001 70.3 945.209 69.9976 950.653C69.7295 955.479 63.0403 957.713 59 957.713" stroke="white" stroke-width="3" stroke-linecap="round"/>
<path d="M60.832 957.713C63.9752 958.106 67.7884 965.165 69.2499 967.217C70.3703 968.79 71.5988 970.693 72.4406 972.376" stroke="white" stroke-width="3" stroke-linecap="round"/>
<path d="M81.6048 961.99C73.1619 964.912 81.3344 975.94 85.1349 971.154C86.5904 969.322 87.2405 964.556 85.2707 963.008C84.3609 962.293 82.6945 962.601 81.6048 962.601" stroke="white" stroke-width="3" stroke-linecap="round"/>
<path d="M98.1016 961.99C93.9602 961.99 91.8635 963.877 91.9919 968.371C92.0668 970.993 94.957 974.158 97.4907 971.765C99.3486 970.011 100.464 967.973 99.7988 965.384C99.1972 963.044 97.3708 960.828 95.0468 961.99" stroke="white" stroke-width="3" stroke-linecap="round"/>
<path d="M106.045 961.99C106.045 963.551 106.309 972.65 106.52 972.58C107.593 972.223 107.573 965.111 108.217 963.823C108.991 962.276 110.776 961.279 112.426 962.329C113.717 963.151 113.988 967.188 113.988 968.711C113.988 969.924 114.534 970.873 114.599 969.186C114.695 966.669 115.375 964.72 116.737 962.601C120.75 956.358 122.541 967.139 122.541 970.544" stroke="white" stroke-width="3" stroke-linecap="round"/>
<path d="M132.927 961.379C130.607 960.253 129.846 960.007 128.922 962.669C128.697 963.319 128.315 964.559 129.058 965.045C131.344 966.54 134.049 965.012 136.22 967.183C139.129 970.092 129.873 973.898 129.873 968.71" stroke="white" stroke-width="3" stroke-linecap="round"/>
<path d="M156.145 962.601C152.585 959.437 151.836 970.534 152.852 972.003C154.317 974.119 158.589 972.126 158.589 969.933" stroke="white" stroke-width="3" stroke-linecap="round"/>
<path d="M159.199 949.77C159.293 955.871 159.142 962.305 160.421 968.303C160.655 969.397 160.666 971.277 161.643 971.765" stroke="white" stroke-width="3" stroke-linecap="round"/>
<path d="M167.754 965.045C169.939 965.045 172.294 965.039 173.117 962.363C173.547 960.967 169.604 959.116 168.976 960.53C166.884 965.236 167.136 974.824 174.475 971.154" stroke="white" stroke-width="3" stroke-linecap="round"/>
<path d="M181.806 949.77C180.196 956.616 181.195 964.135 181.195 971.154" stroke="white" stroke-width="3" stroke-linecap="round"/>
<path d="M189.748 961.99V969.932" stroke="white" stroke-width="3" stroke-linecap="round"/>
<path d="M188.527 955.88H189.749" stroke="white" stroke-width="3" stroke-linecap="round"/>
<path d="M197.079 961.379C197.079 962.962 197.063 964.547 197.079 966.131C197.086 966.771 197.223 973.076 197.826 969.661C198.236 967.34 197.978 963.603 199.829 961.752C202.578 959.003 203.295 965.766 203.664 967.353C203.974 968.686 204.411 972.761 204.411 971.392C204.411 967.964 204.408 962.127 208.077 960.293C211.024 958.819 211.132 970.341 211.132 972.376" stroke="white" stroke-width="3" stroke-linecap="round"/>
<path d="M217.854 961.99C218.283 965.042 218.677 968.098 219.075 971.154" stroke="white" stroke-width="3" stroke-linecap="round"/>
<path d="M217.854 954.658L218.464 955.269" stroke="white" stroke-width="3" stroke-linecap="round"/>
<path d="M230.074 950.381C228.653 950.737 229.463 957.492 229.463 958.052C229.463 961.932 228.275 967.558 230.074 971.155" stroke="white" stroke-width="3" stroke-linecap="round"/>
<path d="M225.797 960.157C228.202 960.298 230.844 961.287 233.129 961.99" stroke="white" stroke-width="3" stroke-linecap="round"/>
<path d="M239.238 965.656C249.659 963.408 241.547 957.508 239.713 964.434C238.143 970.368 242.125 974.466 247.792 969.932" stroke="white" stroke-width="3" stroke-linecap="round"/>
<path d="M258.177 961.99C253.88 959.968 253.434 968.533 255.156 970.543C257.628 973.427 258.663 969.69 260.621 968.711" stroke="white" stroke-width="3" stroke-linecap="round"/>
<path d="M260.621 950.992C260.621 958.126 261.232 965.244 261.232 972.376" stroke="white" stroke-width="3" stroke-linecap="round"/>
<path d="M280.783 947.937C281.683 956.04 282.005 964.224 282.005 972.376" stroke="white" stroke-width="3" stroke-linecap="round"/>
<path d="M283.228 964.434C283.228 960.055 290.704 963.611 290.56 967.353C290.461 969.913 282.617 974.569 282.617 971.154" stroke="white" stroke-width="3" stroke-linecap="round"/>
<path d="M294.225 962.601C294.764 964.038 298.949 971.236 297.89 971.765" stroke="white" stroke-width="3" stroke-linecap="round"/>
<path d="M302.778 961.99C300.172 967.365 299.097 973.4 296.906 978.961C295.711 981.995 294.25 985.078 293.613 988.262" stroke="white" stroke-width="3" stroke-linecap="round"/>
<path d="M324.163 961.99C320.278 962.111 319.9 967.866 321.821 970.747C323.179 972.784 325.968 969.774 326.607 968.71" stroke="white" stroke-width="3" stroke-linecap="round"/>
<path d="M327.218 950.381C326.471 957.596 328.44 964.626 328.44 971.765" stroke="white" stroke-width="3" stroke-linecap="round"/>
<path d="M338.216 962.601C330.744 959.085 333.278 975.471 337.605 968.982C338.568 967.536 339.438 962.683 339.438 964.468C339.438 966.087 340.659 972.644 340.659 971.154" stroke="white" stroke-width="3" stroke-linecap="round"/>
<path d="M348.602 961.99C347.862 961.332 345.004 961.324 345.004 962.635C345.004 965.093 350.272 965.94 351.928 966.844C355.987 969.058 346.158 975.439 346.158 969.322" stroke="white" stroke-width="3" stroke-linecap="round"/>
<path d="M355.934 949.77C357.542 956.604 358.377 964.063 358.377 971.087C358.377 972.744 359.24 967.885 359.599 966.267C360.218 963.485 365.568 960.951 365.709 965.18C365.738 966.036 365.098 972.994 365.098 970.543" stroke="white" stroke-width="3" stroke-linecap="round"/>
<path d="M381.594 949.77C379.482 950.034 382.205 967.705 382.205 971.154" stroke="white" stroke-width="3" stroke-linecap="round"/>
<path d="M389.537 964.434C390.521 966.525 390.148 968.888 390.148 971.154" stroke="white" stroke-width="3" stroke-linecap="round"/>
<path d="M388.926 957.102V957.713" stroke="white" stroke-width="3" stroke-linecap="round"/>
<path d="M397.48 962.601C397.48 965.078 398.519 972.403 398.702 969.933C398.897 967.301 398.896 965.08 399.958 962.601C400.951 960.285 404.531 961.204 404.778 963.551C405.04 966.037 404.812 968.648 404.812 971.155" stroke="white" stroke-width="3" stroke-linecap="round"/>
<path d="M412.143 965.656C416.082 966.916 421.148 963.393 418.524 959.071C416.57 955.853 414.619 959.087 413.636 961.107C412.622 963.192 411.655 968.315 414.281 969.559C416.056 970.4 419.006 970.33 420.085 968.711" stroke="white" stroke-width="3" stroke-linecap="round"/>
<path d="M429.862 959.546C426.294 959.546 425.335 960.247 424.058 963.823C423.361 965.774 425.907 964.806 427.147 965.384C433.176 968.198 426.585 970.932 424.364 968.711" stroke="white" stroke-width="3" stroke-linecap="round"/>
<path d="M446.969 960.768C446.969 963.016 447.938 964.528 449.107 966.504C451.527 970.593 450.843 968.641 451.857 965.791C452.17 964.91 453.016 957.017 454.165 961.039C454.398 961.857 458.063 969.197 458.442 968.439C459.485 966.352 459.498 963.132 459.799 960.87C460.029 959.145 460.887 957.981 459.799 960.157" stroke="white" stroke-width="3" stroke-linecap="round"/>
<path d="M465.91 963.212C468.894 964.616 475.543 959.928 472.156 957.713C469.872 956.219 467.847 957.384 466.996 959.682C465.579 963.508 465.878 972.408 471.409 966.878" stroke="white" stroke-width="3" stroke-linecap="round"/>
<path d="M478.128 959.546C478.128 962.066 477.942 969.472 478.739 967.081C479.327 965.316 479.662 963.11 479.961 961.243C480.292 959.175 484.068 957.814 484.849 960.157" stroke="white" stroke-width="3" stroke-linecap="round"/>
<path d="M489.737 963.212C492.468 963.212 497.033 961.193 494.93 957.408C493.87 955.499 490.82 956.958 490.348 958.731C489.647 961.357 489.202 964.926 490.483 967.489C492.108 970.737 496.332 967.865 497.068 965.656" stroke="white" stroke-width="3" stroke-linecap="round"/>
<path d="M514.176 958.935C513.346 960.907 513.696 962.92 513.871 965.011C513.957 966.042 514.145 969.134 514.176 968.099C514.228 966.375 515.128 963.073 516.145 961.65C519.95 956.322 520.897 965.714 520.897 968.099" stroke="white" stroke-width="3" stroke-linecap="round"/>
<path d="M531.895 959.546C523.732 957.567 523.737 971.992 531.759 968.71C535.181 967.311 535.346 964.701 533.389 962.125C532.332 960.735 529.973 960.679 528.84 959.546" stroke="white" stroke-width="3" stroke-linecap="round"/>
<path d="M541.67 949.159V968.099" stroke="white" stroke-width="3" stroke-linecap="round"/>
<path d="M537.393 955.88H544.724" stroke="white" stroke-width="3" stroke-linecap="round"/>
<path d="M562.93 957.646C562.93 959.722 562.896 961.793 563.082 963.863C563.645 970.125 564.049 966.328 565.318 962.802C566.665 959.062 569.013 956.19 571.118 961.058C572.083 963.288 571.422 966.139 572.483 968.261C573.541 970.377 572.247 963.457 572.862 961.172C574.661 954.489 578.624 965.599 578.624 967.882" stroke="white" stroke-width="3" stroke-linecap="round"/>
<path d="M588.858 958.329C586.439 957.19 585.568 957.646 585.295 960.376C584.986 963.465 583.743 971.862 589.768 968.488C592.357 967.038 593.171 962.769 592.915 960.073C592.709 957.91 588.73 957.093 587.494 958.329" stroke="white" stroke-width="3" stroke-linecap="round"/>
<path d="M603.869 958.329C603.022 958.329 600.678 957.813 600.457 958.974C600.014 961.302 599.14 964.844 600.154 967.162C601.657 970.598 605.08 967.353 606.599 965.835" stroke="white" stroke-width="3" stroke-linecap="round"/>
<path d="M603.869 948.776C604.839 954.686 606.191 960.689 606.598 966.669C606.669 967.71 606.384 968.116 607.281 968.564" stroke="white" stroke-width="3" stroke-linecap="round"/>
<path d="M614.106 961.741C616.099 961.741 620.389 959.432 618.806 956.661C617.273 953.977 614.691 956.781 613.954 958.329C613.024 960.281 612.576 966.048 614.447 967.503C616.041 968.743 619.281 967.965 620.247 966.517" stroke="white" stroke-width="3" stroke-linecap="round"/>
<path d="M626.387 944C625.754 952.45 627.07 960.808 627.07 969.247" stroke="white" stroke-width="3" stroke-linecap="round"/>
<path d="M635.257 961.741C638.436 961.741 639.727 961.595 640.261 957.722C640.66 954.833 637.341 955.443 636.622 957.419C635.707 959.935 634.719 962.39 635.333 965.152C635.942 967.893 639.839 968.076 641.398 966.517" stroke="white" stroke-width="3" stroke-linecap="round"/>
<path d="M652.998 957.647C647.598 955.105 646.233 966.086 648.904 968.185C651.098 969.909 653.486 969.147 654.363 966.517" stroke="white" stroke-width="3" stroke-linecap="round"/>
<path d="M653.68 944.682C652.729 953.923 654.363 962.913 654.363 971.976" stroke="white" stroke-width="3" stroke-linecap="round"/>
<path d="M63.3701 1013.08C62.6014 1013.08 60.7991 1012.66 60.448 1013.75C59.6867 1016.11 59.828 1020.87 61.3977 1022.86C62.9628 1024.84 66 1024.18 66 1021.35" stroke="white" stroke-width="3" stroke-linecap="round"/>
<path d="M65 1013C65.3229 1017 65.6851 1021 66 1025" stroke="white" stroke-width="3" stroke-linecap="round"/>
<path d="M71 1014.86C71.0404 1015.93 72.4 1027.27 72.4 1023.07C72.4 1020.6 72.0919 1016.56 74.15 1014.6C77.4348 1011.47 78 1021.55 78 1022.85" stroke="white" stroke-width="3" stroke-linecap="round"/>
<path d="M90.2499 1015.05C87.8402 1015.05 86.1092 1014.56 84.6244 1016.62C83.397 1018.32 82.0378 1022.07 83.9577 1023.88C86.5186 1026.29 89.5369 1024.41 91 1022.11" stroke="white" stroke-width="3" stroke-linecap="round"/>
<path d="M91.4318 1005C90.9366 1012.16 90.5928 1019.97 92 1027" stroke="white" stroke-width="3" stroke-linecap="round"/>
<path d="M110 1014V1024" stroke="white" stroke-width="3" stroke-linecap="round"/>
<path d="M108 1008C108.467 1008.1 108.627 1008.5 109 1009" stroke="white" stroke-width="3" stroke-linecap="round"/>
<path d="M117 1014.1C117.351 1017.66 118.223 1021.16 118.339 1024.79C118.376 1025.97 118.323 1021.78 118.339 1021.18C118.377 1019.75 118.565 1016.54 119.826 1015.61C122.281 1013.8 123.82 1021.57 124.214 1022.76C124.292 1023 124.326 1018.51 124.362 1017.19C124.405 1015.63 124.967 1013.21 127.04 1014.26C129.05 1015.27 131.329 1023.11 129.048 1024.27" stroke="white" stroke-width="3" stroke-linecap="round"/>
<path d="M137 1014C137 1021.5 138 1043.99 138 1036.49" stroke="white" stroke-width="3" stroke-linecap="round"/>
<path d="M137 1016.05C137.528 1011.33 144.362 1012.49 144.979 1016.78C145.358 1019.42 140.581 1023.9 139.187 1021.13" stroke="white" stroke-width="3" stroke-linecap="round"/>
<path d="M150 1004C150 1007.49 151.919 1020.84 150.44 1022" stroke="white" stroke-width="3" stroke-linecap="round"/>
<path d="M158.334 1017.8C161.327 1017.8 162.977 1018.21 162.977 1014.46C162.977 1011.44 159.879 1011.2 158.728 1013.74C156.949 1017.66 158.33 1025.99 164 1021.89" stroke="white" stroke-width="3" stroke-linecap="round"/>
<path d="M170 1012C170.284 1014.55 170.877 1017.32 171.204 1019.98C171.415 1021.69 171.753 1016.84 172.371 1015.72C175.584 1009.94 177.45 1015.7 177.45 1019.83C177.45 1021.13 177.45 1025.04 177.45 1023.74C177.45 1020.67 177.368 1017.98 178.955 1015.24C183.758 1006.92 183.478 1021.51 182.191 1022.16" stroke="white" stroke-width="3" stroke-linecap="round"/>
<path d="M191.751 1016.33C190.717 1017.5 193.817 1016.28 194.426 1014.92C195.563 1012.38 193.096 1009 191.082 1012.5C188.783 1016.49 190.023 1027.18 196 1021.25" stroke="white" stroke-width="3" stroke-linecap="round"/>
<path d="M201 1012C201.477 1015.16 200.2 1024.13 202.091 1021.53C203.31 1019.85 203.552 1016.57 204.677 1014.54C207.945 1008.65 209 1019.27 209 1021.29" stroke="white" stroke-width="3" stroke-linecap="round"/>
<path d="M216 999C217.708 1005.94 216.711 1012.97 216.711 1020" stroke="white" stroke-width="3" stroke-linecap="round"/>
<path d="M212 1009H223" stroke="white" stroke-width="3" stroke-linecap="round"/>
<path d="M226.589 1017.95C227.785 1017.95 233.82 1016.2 231.456 1013.89C229.532 1012 226.554 1013.39 225.871 1015.57C225.384 1017.12 224.14 1021.31 225.95 1022.45C227.646 1023.52 231.615 1023.06 231.615 1020.77" stroke="white" stroke-width="3" stroke-linecap="round"/>
<path d="M241.987 1012.34C237.529 1010.03 237.227 1020.22 239.043 1022.21C241.363 1024.77 242.864 1020.34 244 1019.71" stroke="white" stroke-width="3" stroke-linecap="round"/>
<path d="M243 1002C243 1009.34 244 1016.66 244 1024" stroke="white" stroke-width="3" stroke-linecap="round"/>
<path d="M260 1015V1024" stroke="white" stroke-width="3" stroke-linecap="round"/>
<path d="M257 1008V1009" stroke="white" stroke-width="3" stroke-linecap="round"/>
<path d="M267 1014.44C267 1017.3 267.779 1020.09 268.208 1022.9C268.34 1023.77 268.62 1018.59 269.038 1017.26C269.359 1016.25 271.06 1011.45 272.963 1013.5C274.622 1015.29 273.793 1019.83 273.793 1022.2" stroke="white" stroke-width="3" stroke-linecap="round"/>
<path d="M293 1002C293.879 1008.66 293.848 1015.33 293.848 1022.02C293.848 1023.27 294.532 1024.46 293 1023.82" stroke="white" stroke-width="3" stroke-linecap="round"/>
<path d="M288 1012H299" stroke="white" stroke-width="3" stroke-linecap="round"/>
<path d="M303 1002C303 1008.89 304.333 1029.5 304.333 1022.61C304.333 1019.94 305.093 1015.3 306.852 1013.38C309.792 1010.17 311 1017.53 311 1019.18C311 1020.11 311 1026.34 311 1022.34" stroke="white" stroke-width="3" stroke-linecap="round"/>
<path d="M317 1018.2C319.243 1018.2 325.956 1016.24 323.6 1012.89C321.884 1010.46 319.2 1013.6 319.2 1015.25C319.2 1017.29 318.566 1020.79 320.341 1022.4C322.406 1024.26 326.52 1021.3 328 1020.19" stroke="white" stroke-width="3" stroke-linecap="round"/>
<path d="M346.815 1013C342.775 1013.24 343.612 1021.14 346.023 1022.75C347.966 1024.04 350.913 1020.04 352 1018.94" stroke="white" stroke-width="3" stroke-linecap="round"/>
<path d="M358.059 1012C356.401 1013.89 356.504 1025.46 359.709 1022.66C362.459 1020.25 363.257 1018.07 363.257 1014.66C363.257 1010 363.257 1013.08 363.257 1015.83C363.257 1018.39 364 1026.04 364 1023.48" stroke="white" stroke-width="3" stroke-linecap="round"/>
<path d="M370.119 1010.91C370.119 1012.42 369.632 1023 370.627 1023C370.913 1023 370.773 1018.06 370.773 1017.36C370.773 1015.25 370.685 1011.08 373.06 1010.26C374.505 1009.77 376 1009.84 376 1011.64" stroke="white" stroke-width="3" stroke-linecap="round"/>
<path d="M383 1012C383 1015.17 383 1018.34 383 1021.51C383 1023.93 383.562 1016.68 384.244 1014.35C385.109 1011.4 389.55 1012.1 390 1014.73" stroke="white" stroke-width="3" stroke-linecap="round"/>
<path d="M397.267 1016.12C399.362 1016.12 403.564 1014.81 402.841 1011.63C402.215 1008.88 399.016 1010.12 397.984 1011.63C396.649 1013.58 396.927 1017.98 397.346 1020.29C397.847 1023.03 402.097 1024.2 403 1021.37" stroke="white" stroke-width="3" stroke-linecap="round"/>
<path d="M408 1011.54C408 1014.84 409.526 1024.63 409.526 1021.33C409.526 1018.55 410.906 1015.56 412.195 1013.09C416.053 1005.69 418.102 1020.4 416.39 1019.58" stroke="white" stroke-width="3" stroke-linecap="round"/>
<path d="M423 1000C423.142 1007.36 424 1014.64 424 1022" stroke="white" stroke-width="3" stroke-linecap="round"/>
<path d="M419 1010C421.745 1010 424.268 1009.63 427 1009" stroke="white" stroke-width="3" stroke-linecap="round"/>
<path d="M448 1013.73C443.914 1005.37 441.549 1030.56 448 1020.65" stroke="white" stroke-width="3" stroke-linecap="round"/>
<path d="M449 1003C449 1009.34 449 1015.66 449 1022" stroke="white" stroke-width="3" stroke-linecap="round"/>
<path d="M457.5 1015.04C458.765 1015.04 460.602 1014.5 460.929 1012.77C461.503 1009.74 457.057 1010.87 456.857 1014.15C456.739 1016.09 455.16 1020.32 456.607 1021.96C458.74 1024.38 460.58 1022.07 462 1020.14" stroke="white" stroke-width="3" stroke-linecap="round"/>
<path d="M468 1010.14C469.34 1013.41 469.391 1017.15 469.391 1020.66C469.391 1022.35 469.219 1017.24 469.546 1015.59C470.769 1009.4 474.814 1011.08 475.807 1016.35C476.629 1020.7 475.875 1018.91 476.696 1015.88C477.431 1013.17 478.519 1010.16 480.522 1008.22C482.506 1006.29 484 1017.82 484 1019.19" stroke="white" stroke-width="3" stroke-linecap="round"/>
<path d="M493.047 1010.72C487.749 1010.72 489.994 1023.14 494.938 1019.24C496.46 1018.04 496.095 1013.26 495.392 1011.5C494.294 1008.76 491.918 1010.42 490.324 1011.46" stroke="white" stroke-width="3" stroke-linecap="round"/>
<path d="M504 1019V1020" stroke="white" stroke-width="3" stroke-linecap="round"/>
</svg>
