<svg width="1920" height="1080" viewBox="0 0 1920 1080" fill="none" xmlns="http://www.w3.org/2000/svg">
<rect width="1920" height="1080" fill="#111312"/>
<path d="M303 251.5L315 239.5L395.5 237L407 248.5V306.5H426V203L442 187H517L529 199V306H547.5V278H784V297.5H802V252L822 232H874V216.5L884 206.5V197H924.5V210.5L934 220V237.5H979L995.5 254V303H1013L1022 312H1029.5V352.5H1019L1009.5 362H991V396.5L975.5 412H934V430.5L926 440.5V453H947V525.5L991 569.5H1152.5L1181.5 598.5L1192 587L1173 568L1154 549L1149.5 526L1203.5 472H1236L1335 571V600L1289 646H1267.5L1233.5 620L1221 632.5L1278.5 679.5V819.5H1259.5V835.5H1330.5L1348.5 853.5V875.5H1381.5L1390.5 866.5H1430.5L1439 875H1472V837.5L1482.5 827H1556L1569.5 840.5V964L1557 976.5H1487L1473.5 963V928H1442L1432 938H1391.5L1379.5 926H1346V965L1324.5 986.5H1101.5L1086.5 971.5V853L1104.5 835H1206V820.5H1184L1184.25 717L1150.5 690.5L1114.25 663.5L952 663L933 645L919.5 659.5L950.75 690.75L982 722V743L923 803H873L758.5 688.5V653L822 589.5H849L883 623.5L895 611.5L858.5 575V451.5H872V438.5L857.5 424V412H820.5L811.25 402.75L802 393.5V349H784V378H547.5V364.25V357.5H529V467L511.5 484.5H442.5L426 466V357H407V415.5L396.5 426H315L303 414V251.5Z" stroke="white" stroke-width="3" stroke-linecap="round" stroke-linejoin="round"/>
<path d="M413 357V306.5" stroke="white" stroke-width="2" stroke-linecap="round" stroke-linejoin="round"/>
<path d="M419.5 357V306.5" stroke="white" stroke-width="2" stroke-linecap="round" stroke-linejoin="round"/>
<path d="M535.5 357V306.5" stroke="white" stroke-width="2" stroke-linecap="round" stroke-linejoin="round"/>
<path d="M542 357V306.5" stroke="white" stroke-width="2" stroke-linecap="round" stroke-linejoin="round"/>
<path d="M789.5 349V298.5" stroke="white" stroke-width="2" stroke-linecap="round" stroke-linejoin="round"/>
<path d="M796 349V298.5" stroke="white" stroke-width="2" stroke-linecap="round" stroke-linejoin="round"/>
<path d="M873.5 442.5L924 442.5" stroke="white" stroke-width="2" stroke-linecap="round" stroke-linejoin="round"/>
<path d="M873.5 449L924 449" stroke="white" stroke-width="2" stroke-linecap="round" stroke-linejoin="round"/>
<path d="M1207.5 824.5L1258 824.5" stroke="white" stroke-width="2" stroke-linecap="round" stroke-linejoin="round"/>
<path d="M1207.5 831L1258 831" stroke="white" stroke-width="2" stroke-linecap="round" stroke-linejoin="round"/>
<path d="M1360 875.5L1360 926" stroke="white" stroke-width="2" stroke-linecap="round" stroke-linejoin="round"/>
<path d="M1353.5 875.5L1353.5 926" stroke="white" stroke-width="2" stroke-linecap="round" stroke-linejoin="round"/>
<path d="M1467 875.5L1467 926" stroke="white" stroke-width="2" stroke-linecap="round" stroke-linejoin="round"/>
<path d="M1460.5 875.5L1460.5 926" stroke="white" stroke-width="2" stroke-linecap="round" stroke-linejoin="round"/>
<path d="M892.096 615.5L927.805 651.209" stroke="white" stroke-width="2" stroke-linecap="round" stroke-linejoin="round"/>
<path d="M887.5 620.096L923.209 655.805" stroke="white" stroke-width="2" stroke-linecap="round" stroke-linejoin="round"/>
<path d="M1526.5 886.5L1529.64 896.174H1539.81L1531.59 902.152L1534.73 911.826L1526.5 905.848L1518.27 911.826L1521.41 902.152L1513.19 896.174H1523.36L1526.5 886.5Z" fill="white"/>
<path d="M1190.1 590.5L1225.8 626.209" stroke="white" stroke-width="2" stroke-linecap="round" stroke-linejoin="round"/>
<path d="M1185.5 595.096L1221.21 630.805" stroke="white" stroke-width="2" stroke-linecap="round" stroke-linejoin="round"/>
<path d="M884.5 203.5H924.5" stroke="white" stroke-width="2" stroke-linecap="round" stroke-linejoin="round"/>
<path d="M1024.5 312.5V352.5" stroke="white" stroke-width="2" stroke-linecap="round" stroke-linejoin="round"/>
<path d="M347.484 335C346.932 335.009 346.491 335.464 346.5 336.016C346.509 336.568 346.964 337.009 347.516 337L347.484 335ZM855 328L855.043 327.001C855.024 327 855.004 327 854.984 327L855 328ZM902 400L903 399.986L902 400ZM1237.5 856L1238.42 855.604L1237.5 856ZM1315.5 903L1315.52 902L1315.5 903ZM1500 902L1489.91 896.384L1490.09 907.93L1500 902ZM351.481 336.937C352.033 336.929 352.473 336.474 352.465 335.922C352.456 335.37 352.001 334.929 351.449 334.938L351.481 336.937ZM359.379 334.813C358.827 334.821 358.386 335.276 358.395 335.828C358.403 336.38 358.858 336.821 359.41 336.812L359.379 334.813ZM367.34 336.687C367.892 336.679 368.333 336.224 368.324 335.672C368.315 335.12 367.861 334.679 367.308 334.688L367.34 336.687ZM375.238 334.563C374.686 334.571 374.245 335.026 374.254 335.578C374.263 336.13 374.717 336.571 375.27 336.562L375.238 334.563ZM383.199 336.437C383.752 336.429 384.192 335.974 384.183 335.422C384.175 334.87 383.72 334.429 383.168 334.438L383.199 336.437ZM391.098 334.313C390.545 334.321 390.105 334.776 390.113 335.328C390.122 335.88 390.577 336.321 391.129 336.312L391.098 334.313ZM399.059 336.187C399.611 336.179 400.052 335.724 400.043 335.172C400.034 334.62 399.579 334.179 399.027 334.188L399.059 336.187ZM406.957 334.063C406.405 334.071 405.964 334.526 405.973 335.078C405.981 335.63 406.436 336.071 406.988 336.062L406.957 334.063ZM414.918 335.937C415.47 335.929 415.911 335.474 415.902 334.922C415.894 334.37 415.439 333.929 414.887 333.938L414.918 335.937ZM422.816 333.813C422.264 333.821 421.823 334.276 421.832 334.828C421.841 335.38 422.296 335.821 422.848 335.812L422.816 333.813ZM430.777 335.687C431.33 335.679 431.77 335.224 431.762 334.672C431.753 334.12 431.298 333.679 430.746 333.688L430.777 335.687ZM438.676 333.563C438.123 333.571 437.683 334.026 437.692 334.578C437.7 335.13 438.155 335.571 438.707 335.562L438.676 333.563ZM446.637 335.437C447.189 335.429 447.63 334.974 447.621 334.422C447.612 333.87 447.158 333.429 446.605 333.438L446.637 335.437ZM454.535 333.313C453.983 333.321 453.542 333.776 453.551 334.328C453.56 334.88 454.014 335.321 454.567 335.312L454.535 333.313ZM462.496 335.187C463.048 335.179 463.489 334.724 463.48 334.172C463.472 333.62 463.017 333.179 462.465 333.188L462.496 335.187ZM470.394 333.063C469.842 333.071 469.402 333.526 469.41 334.078C469.419 334.63 469.874 335.071 470.426 335.062L470.394 333.063ZM478.356 334.937C478.908 334.929 479.348 334.474 479.34 333.922C479.331 333.37 478.876 332.929 478.324 332.938L478.356 334.937ZM486.254 332.813C485.702 332.821 485.261 333.276 485.27 333.828C485.278 334.38 485.733 334.821 486.285 334.812L486.254 332.813ZM494.215 334.687C494.767 334.679 495.208 334.224 495.199 333.672C495.19 333.12 494.736 332.679 494.183 332.688L494.215 334.687ZM502.113 332.563C501.561 332.571 501.12 333.026 501.129 333.578C501.138 334.13 501.592 334.571 502.145 334.562L502.113 332.563ZM510.074 334.437C510.627 334.429 511.067 333.974 511.058 333.422C511.05 332.87 510.595 332.429 510.043 332.438L510.074 334.437ZM517.973 332.313C517.42 332.321 516.98 332.776 516.988 333.328C516.997 333.88 517.452 334.321 518.004 334.312L517.973 332.313ZM525.934 334.187C526.486 334.179 526.927 333.724 526.918 333.172C526.909 332.62 526.454 332.179 525.902 332.188L525.934 334.187ZM533.832 332.063C533.28 332.071 532.839 332.526 532.848 333.078C532.857 333.63 533.311 334.071 533.863 334.062L533.832 332.063ZM541.793 333.937C542.345 333.929 542.786 333.474 542.777 332.922C542.769 332.37 542.314 331.929 541.762 331.938L541.793 333.937ZM549.691 331.813C549.139 331.821 548.699 332.276 548.707 332.828C548.716 333.38 549.171 333.821 549.723 333.812L549.691 331.813ZM557.653 333.687C558.205 333.679 558.645 333.224 558.637 332.672C558.628 332.12 558.173 331.679 557.621 331.688L557.653 333.687ZM565.551 331.563C564.999 331.571 564.558 332.026 564.567 332.578C564.575 333.13 565.03 333.571 565.582 333.562L565.551 331.563ZM573.512 333.437C574.064 333.429 574.505 332.974 574.496 332.422C574.487 331.87 574.033 331.429 573.48 331.438L573.512 333.437ZM581.41 331.313C580.858 331.321 580.417 331.776 580.426 332.328C580.435 332.88 580.889 333.321 581.442 333.312L581.41 331.313ZM589.371 333.187C589.924 333.179 590.364 332.724 590.355 332.172C590.347 331.62 589.892 331.179 589.34 331.188L589.371 333.187ZM597.269 331.063C596.717 331.071 596.277 331.526 596.285 332.078C596.294 332.63 596.749 333.071 597.301 333.062L597.269 331.063ZM605.231 332.937C605.783 332.929 606.224 332.474 606.215 331.922C606.206 331.37 605.751 330.929 605.199 330.938L605.231 332.937ZM613.129 330.813C612.577 330.821 612.136 331.276 612.145 331.828C612.153 332.38 612.608 332.821 613.16 332.812L613.129 330.813ZM621.09 332.687C621.642 332.679 622.083 332.224 622.074 331.672C622.065 331.12 621.611 330.679 621.059 330.688L621.09 332.687ZM628.988 330.563C628.436 330.571 627.995 331.026 628.004 331.578C628.013 332.13 628.468 332.571 629.02 332.562L628.988 330.563ZM636.949 332.437C637.502 332.429 637.942 331.974 637.934 331.422C637.925 330.87 637.47 330.429 636.918 330.438L636.949 332.437ZM644.848 330.313C644.295 330.321 643.855 330.776 643.863 331.328C643.872 331.88 644.327 332.321 644.879 332.312L644.848 330.313ZM652.809 332.187C653.361 332.179 653.802 331.724 653.793 331.172C653.784 330.62 653.329 330.179 652.777 330.188L652.809 332.187ZM660.707 330.063C660.155 330.071 659.714 330.526 659.723 331.078C659.732 331.63 660.186 332.071 660.738 332.062L660.707 330.063ZM668.668 331.937C669.22 331.929 669.661 331.474 669.652 330.922C669.644 330.37 669.189 329.929 668.637 329.938L668.668 331.937ZM676.566 329.813C676.014 329.821 675.573 330.276 675.582 330.828C675.591 331.38 676.046 331.821 676.598 331.812L676.566 329.813ZM684.527 331.687C685.08 331.679 685.52 331.224 685.512 330.672C685.503 330.12 685.048 329.679 684.496 329.688L684.527 331.687ZM692.426 329.563C691.873 329.571 691.433 330.026 691.442 330.578C691.45 331.13 691.905 331.571 692.457 331.562L692.426 329.563ZM700.387 331.437C700.939 331.429 701.38 330.974 701.371 330.422C701.362 329.87 700.908 329.429 700.355 329.438L700.387 331.437ZM708.285 329.313C707.733 329.321 707.292 329.776 707.301 330.328C707.31 330.88 707.764 331.321 708.317 331.312L708.285 329.313ZM716.246 331.187C716.798 331.179 717.239 330.724 717.23 330.172C717.222 329.62 716.767 329.179 716.215 329.188L716.246 331.187ZM724.144 329.063C723.592 329.071 723.152 329.526 723.16 330.078C723.169 330.63 723.624 331.071 724.176 331.062L724.144 329.063ZM732.106 330.937C732.658 330.929 733.098 330.474 733.09 329.922C733.081 329.37 732.626 328.929 732.074 328.938L732.106 330.937ZM740.004 328.813C739.451 328.821 739.011 329.276 739.02 329.828C739.028 330.38 739.483 330.821 740.035 330.812L740.004 328.813ZM747.965 330.687C748.517 330.679 748.958 330.224 748.949 329.672C748.94 329.12 748.486 328.679 747.933 328.688L747.965 330.687ZM755.863 328.563C755.311 328.571 754.87 329.026 754.879 329.578C754.888 330.13 755.342 330.571 755.895 330.562L755.863 328.563ZM763.824 330.437C764.376 330.429 764.817 329.974 764.808 329.422C764.8 328.87 764.345 328.429 763.793 328.438L763.824 330.437ZM771.722 328.313C771.17 328.321 770.73 328.776 770.738 329.328C770.747 329.88 771.202 330.321 771.754 330.312L771.722 328.313ZM779.684 330.187C780.236 330.179 780.676 329.724 780.668 329.172C780.659 328.62 780.204 328.179 779.652 328.188L779.684 330.187ZM787.582 328.063C787.03 328.071 786.589 328.526 786.598 329.078C786.606 329.63 787.061 330.071 787.613 330.062L787.582 328.063ZM795.543 329.937C796.095 329.929 796.536 329.474 796.527 328.922C796.518 328.37 796.064 327.929 795.511 327.938L795.543 329.937ZM803.441 327.813C802.889 327.821 802.448 328.276 802.457 328.828C802.466 329.38 802.92 329.821 803.473 329.812L803.441 327.813ZM811.402 329.687C811.955 329.679 812.395 329.224 812.386 328.672C812.378 328.12 811.923 327.679 811.371 327.688L811.402 329.687ZM819.3 327.563C818.748 327.571 818.308 328.026 818.316 328.578C818.325 329.13 818.78 329.571 819.332 329.562L819.3 327.563ZM827.262 329.437C827.814 329.429 828.255 328.974 828.246 328.422C828.237 327.87 827.782 327.429 827.23 327.438L827.262 329.437ZM835.16 327.313C834.608 327.321 834.167 327.776 834.176 328.328C834.184 328.88 834.639 329.321 835.191 329.312L835.16 327.313ZM843.121 329.187C843.673 329.179 844.114 328.724 844.105 328.172C844.096 327.62 843.642 327.179 843.09 327.188L843.121 329.187ZM851.019 327.063C850.467 327.071 850.026 327.526 850.035 328.078C850.044 328.63 850.499 329.071 851.051 329.062L851.019 327.063ZM858.717 329.428C859.26 329.526 859.78 329.164 859.878 328.62C859.975 328.077 859.614 327.557 859.07 327.46L858.717 329.428ZM866.807 329.73C866.295 329.522 865.712 329.769 865.504 330.281C865.296 330.792 865.543 331.376 866.054 331.583L866.807 329.73ZM872.875 335.1C873.342 335.395 873.959 335.255 874.254 334.788C874.549 334.321 874.41 333.704 873.943 333.409L872.875 335.1ZM880.347 338.237C879.934 337.87 879.302 337.907 878.935 338.32C878.568 338.733 878.606 339.365 879.018 339.732L880.347 338.237ZM884.373 345.273C884.727 345.697 885.357 345.754 885.782 345.401C886.206 345.047 886.263 344.417 885.91 343.992L884.373 345.273ZM890.591 350.47C890.298 350.002 889.681 349.86 889.213 350.153C888.745 350.446 888.603 351.063 888.896 351.531L890.591 350.47ZM892.596 358.331C892.832 358.831 893.427 359.045 893.927 358.81C894.427 358.575 894.641 357.979 894.406 357.479L892.596 358.331ZM897.412 364.868C897.23 364.347 896.66 364.071 896.138 364.253C895.617 364.435 895.341 365.005 895.523 365.526L897.412 364.868ZM897.738 372.973C897.872 373.509 898.415 373.835 898.95 373.701C899.486 373.567 899.812 373.024 899.678 372.488L897.738 372.973ZM901.294 380.256C901.202 379.712 900.686 379.345 900.141 379.437C899.597 379.528 899.23 380.044 899.322 380.589L901.294 380.256ZM900.349 388.3C900.404 388.85 900.894 389.251 901.444 389.196C901.993 389.141 902.394 388.651 902.34 388.101L900.349 388.3ZM902.891 396.008C902.868 395.456 902.402 395.027 901.851 395.05C901.299 395.072 900.87 395.538 900.892 396.09L902.891 396.008ZM901.042 403.86C901.046 404.412 901.497 404.856 902.049 404.852C902.601 404.848 903.046 404.397 903.042 403.845L901.042 403.86ZM903.049 411.549C903.052 410.997 902.607 410.547 902.054 410.544C901.502 410.541 901.052 410.986 901.049 411.538L903.049 411.549ZM900.963 419.215C900.954 419.767 901.394 420.222 901.946 420.232C902.498 420.241 902.953 419.801 902.963 419.249L900.963 419.215ZM902.792 426.954C902.807 426.402 902.372 425.942 901.82 425.927C901.268 425.912 900.808 426.348 900.793 426.9L902.792 426.954ZM900.55 434.584C900.53 435.136 900.961 435.599 901.513 435.619C902.065 435.639 902.528 435.208 902.548 434.656L900.55 434.584ZM902.241 442.35C902.265 441.799 901.837 441.332 901.286 441.308C900.734 441.284 900.267 441.712 900.243 442.263L902.241 442.35ZM899.885 449.935C899.858 450.487 900.283 450.956 900.834 450.984C901.386 451.011 901.855 450.586 901.883 450.034L899.885 449.935ZM901.484 457.726C901.513 457.175 901.09 456.704 900.539 456.674C899.987 456.644 899.516 457.067 899.487 457.619L901.484 457.726ZM899.062 465.302C899.03 465.853 899.452 466.326 900.004 466.357C900.555 466.388 901.027 465.966 901.058 465.415L899.062 465.302ZM900.623 473.087C900.654 472.536 900.233 472.063 899.681 472.032C899.13 472.001 898.657 472.422 898.626 472.974L900.623 473.087ZM898.196 480.665C898.166 481.216 898.589 481.688 899.141 481.718C899.692 481.748 900.163 481.325 900.194 480.774L898.196 480.665ZM899.793 488.45C899.82 487.898 899.395 487.429 898.843 487.402C898.292 487.375 897.822 487.8 897.795 488.352L899.793 488.45ZM897.448 496.047C897.426 496.599 897.856 497.064 898.408 497.086C898.959 497.108 899.425 496.679 899.447 496.127L897.448 496.047ZM899.19 503.798C899.204 503.246 898.768 502.787 898.216 502.772C897.664 502.758 897.205 503.194 897.19 503.746L899.19 503.798ZM897.067 511.469C897.064 512.021 897.51 512.471 898.062 512.473C898.614 512.476 899.064 512.03 899.067 511.478L897.067 511.469ZM899.141 519.136C899.127 518.584 898.667 518.148 898.115 518.162C897.563 518.177 897.127 518.636 897.142 519.188L899.141 519.136ZM897.512 526.915C897.552 527.466 898.031 527.88 898.582 527.84C899.133 527.799 899.547 527.32 899.507 526.77L897.512 526.915ZM900.311 534.352C900.232 533.806 899.724 533.427 899.178 533.506C898.631 533.586 898.253 534.093 898.332 534.64L900.311 534.352ZM899.868 542.293C900.011 542.827 900.559 543.143 901.093 543C901.626 542.857 901.943 542.309 901.8 541.775L899.868 542.293ZM904.4 548.779C904.15 548.287 903.548 548.091 903.056 548.341C902.563 548.591 902.367 549.193 902.618 549.686L904.4 548.779ZM907.034 556.399C907.348 556.854 907.97 556.969 908.425 556.655C908.88 556.342 908.995 555.719 908.681 555.264L907.034 556.399ZM913.262 562.099C912.958 561.638 912.338 561.511 911.877 561.815C911.416 562.119 911.289 562.739 911.593 563.2L913.262 562.099ZM916.124 570.061C916.43 570.521 917.051 570.646 917.511 570.34C917.971 570.035 918.096 569.414 917.79 568.954L916.124 570.061ZM922.369 575.734C922.056 575.279 921.433 575.164 920.979 575.478C920.524 575.791 920.409 576.414 920.722 576.869L922.369 575.734ZM925.475 583.589C925.8 584.036 926.426 584.134 926.872 583.809C927.319 583.484 927.417 582.858 927.092 582.412L925.475 583.589ZM932.014 588.935C931.673 588.5 931.044 588.424 930.61 588.765C930.175 589.106 930.099 589.734 930.44 590.169L932.014 588.935ZM935.669 596.551C936.029 596.97 936.66 597.018 937.079 596.658C937.498 596.298 937.546 595.667 937.186 595.248L935.669 596.551ZM942.661 601.283C942.278 600.885 941.645 600.873 941.247 601.255C940.848 601.638 940.836 602.271 941.219 602.669L942.661 601.283ZM947.148 608.438C947.557 608.808 948.189 608.777 948.56 608.367C948.931 607.958 948.899 607.326 948.49 606.955L947.148 608.438ZM954.727 612.151C954.288 611.817 953.66 611.902 953.326 612.342C952.992 612.781 953.077 613.409 953.516 613.743L954.727 612.151ZM960.374 618.431C960.846 618.718 961.461 618.568 961.748 618.095C962.034 617.623 961.884 617.008 961.412 616.722L960.374 618.431ZM968.556 620.479C968.052 620.254 967.461 620.481 967.236 620.986C967.011 621.49 967.238 622.081 967.743 622.306L968.556 620.479ZM975.589 625.14C976.122 625.288 976.673 624.977 976.821 624.445C976.969 623.913 976.657 623.361 976.125 623.213L975.589 625.14ZM984.013 624.734C983.464 624.675 982.971 625.071 982.911 625.621C982.852 626.17 983.248 626.663 983.798 626.723L984.013 624.734ZM992.085 627.006C992.638 626.996 993.077 626.54 993.066 625.987C993.056 625.435 992.599 624.996 992.047 625.007L992.085 627.006ZM1000.11 624.593C999.56 624.637 999.149 625.118 999.192 625.669C999.235 626.219 999.717 626.631 1000.27 626.587L1000.11 624.593ZM1008.39 625.791C1008.94 625.728 1009.33 625.232 1009.27 624.683C1009.21 624.134 1008.71 623.741 1008.16 623.804L1008.39 625.791ZM1016.22 622.781C1015.67 622.856 1015.29 623.36 1015.36 623.908C1015.44 624.455 1015.94 624.837 1016.49 624.762L1016.22 622.781ZM1024.57 623.598C1025.11 623.516 1025.49 623.007 1025.41 622.461C1025.33 621.915 1024.82 621.538 1024.27 621.62L1024.57 623.598ZM1032.3 620.393C1031.76 620.477 1031.38 620.988 1031.47 621.534C1031.55 622.08 1032.06 622.454 1032.61 622.369L1032.3 620.393ZM1040.66 621.124C1041.21 621.04 1041.58 620.529 1041.5 619.983C1041.41 619.437 1040.9 619.063 1040.36 619.147L1040.66 621.124ZM1048.41 617.931C1047.86 618.012 1047.48 618.52 1047.56 619.066C1047.65 619.613 1048.15 619.99 1048.7 619.91L1048.41 617.931ZM1056.75 618.766C1057.3 618.692 1057.68 618.188 1057.61 617.641C1057.53 617.093 1057.03 616.71 1056.48 616.785L1056.75 618.766ZM1064.57 615.748C1064.02 615.814 1063.63 616.311 1063.7 616.86C1063.76 617.408 1064.26 617.8 1064.81 617.734L1064.57 615.748ZM1072.88 616.856C1073.43 616.802 1073.83 616.313 1073.78 615.764C1073.72 615.214 1073.23 614.812 1072.68 614.865L1072.88 616.856ZM1080.82 614.183C1080.27 614.221 1079.86 614.699 1079.89 615.25C1079.93 615.801 1080.41 616.216 1080.96 616.178L1080.82 614.183ZM1089.06 615.754C1089.61 615.736 1090.04 615.273 1090.02 614.721C1090 614.169 1089.54 613.737 1088.99 613.756L1089.06 615.754ZM1097.17 613.649C1096.61 613.644 1096.16 614.087 1096.16 614.639C1096.15 615.192 1096.59 615.644 1097.15 615.649L1097.17 613.649ZM1105.23 615.94C1105.78 615.976 1106.26 615.558 1106.29 615.007C1106.33 614.456 1105.91 613.98 1105.36 613.945L1105.23 615.94ZM1113.53 614.741C1112.98 614.668 1112.47 615.053 1112.4 615.6C1112.33 616.148 1112.71 616.651 1113.26 616.724L1113.53 614.741ZM1121.19 618.116C1121.73 618.236 1122.26 617.896 1122.38 617.356C1122.5 616.817 1122.16 616.283 1121.62 616.164L1121.19 618.116ZM1129.57 618.363C1129.05 618.186 1128.48 618.467 1128.3 618.991C1128.13 619.514 1128.41 620.081 1128.93 620.258L1129.57 618.363ZM1136.33 623.291C1136.83 623.535 1137.43 623.33 1137.67 622.835C1137.91 622.339 1137.71 621.74 1137.21 621.496L1136.33 623.291ZM1144.35 625.704C1143.89 625.386 1143.27 625.495 1142.95 625.947C1142.64 626.399 1142.74 627.023 1143.2 627.34L1144.35 625.704ZM1149.34 632.237C1149.77 632.587 1150.4 632.524 1150.75 632.097C1151.1 631.67 1151.03 631.04 1150.61 630.69L1149.34 632.237ZM1156.62 635.525C1156.18 635.182 1155.55 635.255 1155.21 635.688C1154.87 636.121 1154.94 636.75 1155.37 637.093L1156.62 635.525ZM1161.47 641.867C1161.91 642.206 1162.54 642.126 1162.87 641.69C1163.21 641.254 1163.13 640.625 1162.7 640.287L1161.47 641.867ZM1168.82 645.004C1168.38 644.667 1167.75 644.75 1167.41 645.188C1167.08 645.626 1167.16 646.254 1167.6 646.59L1168.82 645.004ZM1173.73 651.296C1174.17 651.633 1174.8 651.55 1175.14 651.112C1175.47 650.674 1175.39 650.046 1174.95 649.71L1173.73 651.296ZM1181.08 654.435C1180.64 654.097 1180.01 654.176 1179.67 654.612C1179.33 655.048 1179.41 655.677 1179.85 656.015L1181.08 654.435ZM1185.93 660.779C1186.36 661.123 1186.99 661.05 1187.33 660.617C1187.68 660.184 1187.6 659.555 1187.17 659.212L1185.93 660.779ZM1193.21 664.071C1192.78 663.721 1192.15 663.784 1191.8 664.211C1191.45 664.638 1191.51 665.268 1191.94 665.618L1193.21 664.071ZM1197.85 670.563C1198.27 670.923 1198.9 670.874 1199.26 670.454C1199.62 670.035 1199.57 669.403 1199.15 669.044L1197.85 670.563ZM1204.98 674.176C1204.57 673.805 1203.94 673.836 1203.56 674.244C1203.19 674.653 1203.22 675.286 1203.63 675.657L1204.98 674.176ZM1209.23 680.931C1209.63 681.317 1210.26 681.31 1210.65 680.916C1211.03 680.521 1211.03 679.888 1210.63 679.501L1209.23 680.931ZM1216.06 685.066C1215.69 684.661 1215.05 684.637 1214.65 685.013C1214.24 685.389 1214.22 686.022 1214.6 686.426L1216.06 685.066ZM1219.65 692.198C1220 692.625 1220.63 692.687 1221.05 692.337C1221.48 691.986 1221.54 691.356 1221.19 690.929L1219.65 692.198ZM1225.92 697.146C1225.6 696.694 1224.98 696.583 1224.53 696.899C1224.07 697.216 1223.96 697.839 1224.28 698.292L1225.92 697.146ZM1228.35 704.745C1228.62 705.226 1229.23 705.397 1229.71 705.126C1230.19 704.855 1230.37 704.245 1230.09 703.764L1228.35 704.745ZM1233.54 710.814C1233.33 710.304 1232.74 710.061 1232.23 710.272C1231.72 710.483 1231.48 711.068 1231.69 711.578L1233.54 710.814ZM1234.08 718.768C1234.22 719.303 1234.76 719.628 1235.3 719.492C1235.83 719.357 1236.16 718.814 1236.02 718.278L1234.08 718.768ZM1237.33 726.053C1237.29 725.503 1236.8 725.095 1236.25 725.141C1235.7 725.188 1235.29 725.672 1235.34 726.222L1237.33 726.053ZM1235.47 733.94C1235.47 734.493 1235.91 734.946 1236.46 734.953C1237.01 734.96 1237.47 734.518 1237.47 733.965L1235.47 733.94ZM1237.3 741.894C1237.31 741.342 1236.88 740.88 1236.33 740.863C1235.78 740.846 1235.31 741.279 1235.3 741.831L1237.3 741.894ZM1235 749.72C1234.98 750.272 1235.41 750.738 1235.96 750.762C1236.51 750.786 1236.98 750.358 1237 749.806L1235 749.72ZM1236.62 757.713C1236.65 757.161 1236.23 756.691 1235.68 756.663C1235.13 756.635 1234.66 757.06 1234.63 757.611L1236.62 757.713ZM1234.21 765.508C1234.18 766.059 1234.6 766.531 1235.15 766.561C1235.7 766.592 1236.17 766.169 1236.2 765.618L1234.21 765.508ZM1235.76 773.52C1235.79 772.969 1235.37 772.497 1234.82 772.466C1234.27 772.435 1233.8 772.857 1233.77 773.408L1235.76 773.52ZM1233.33 781.309C1233.3 781.86 1233.72 782.332 1234.27 782.362C1234.82 782.392 1235.3 781.969 1235.33 781.418L1233.33 781.309ZM1234.91 789.315C1234.94 788.763 1234.51 788.294 1233.96 788.266C1233.41 788.239 1232.94 788.663 1232.91 789.215L1234.91 789.315ZM1232.54 797.127C1232.52 797.679 1232.95 798.145 1233.5 798.169C1234.05 798.192 1234.52 797.764 1234.54 797.212L1232.54 797.127ZM1234.25 805.106C1234.26 804.554 1233.83 804.092 1233.28 804.075C1232.73 804.057 1232.27 804.49 1232.25 805.042L1234.25 805.106ZM1232.05 812.961C1232.05 813.514 1232.49 813.969 1233.04 813.978C1233.59 813.987 1234.05 813.546 1234.05 812.994L1232.05 812.961ZM1234.01 820.883C1234 820.331 1233.55 819.886 1233 819.889C1232.45 819.891 1232 820.342 1232.01 820.894L1234.01 820.883ZM1232.16 828.832C1232.18 829.384 1232.64 829.816 1233.2 829.796C1233.75 829.776 1234.18 829.313 1234.16 828.761L1232.16 828.832ZM1234.61 836.619C1234.56 836.069 1234.08 835.659 1233.53 835.704C1232.98 835.748 1232.57 836.231 1232.61 836.781L1234.61 836.619ZM1233.52 844.723C1233.61 845.269 1234.12 845.643 1234.66 845.558C1235.21 845.474 1235.58 844.963 1235.5 844.417L1233.52 844.723ZM1237.14 852.014C1236.98 851.484 1236.42 851.182 1235.89 851.338C1235.37 851.495 1235.06 852.051 1235.22 852.581L1237.14 852.014ZM1238.21 860.173C1238.43 860.679 1239.02 860.912 1239.53 860.692C1240.03 860.472 1240.27 859.883 1240.05 859.377L1238.21 860.173ZM1243.44 866.812C1243.2 866.316 1242.6 866.112 1242.1 866.356C1241.61 866.6 1241.4 867.199 1241.65 867.695L1243.44 866.812ZM1245.67 874.983C1245.96 875.451 1246.58 875.593 1247.04 875.3C1247.51 875.007 1247.65 874.39 1247.36 873.921L1245.67 874.983ZM1252.11 880.444C1251.75 880.023 1251.12 879.972 1250.7 880.33C1250.28 880.687 1250.23 881.318 1250.58 881.739L1252.11 880.444ZM1256.52 887.653C1256.94 888.009 1257.57 887.955 1257.93 887.532C1258.28 887.11 1258.23 886.479 1257.81 886.123L1256.52 887.653ZM1264.37 890.791C1263.89 890.507 1263.28 890.661 1263 891.135C1262.71 891.608 1262.87 892.223 1263.34 892.506L1264.37 890.791ZM1270.79 896.279C1271.29 896.495 1271.88 896.259 1272.1 895.751C1272.31 895.243 1272.08 894.655 1271.57 894.439L1270.79 896.279ZM1279.2 897.184C1278.68 897.025 1278.12 897.325 1277.96 897.853C1277.8 898.382 1278.1 898.94 1278.63 899.099L1279.2 897.184ZM1286.7 901.13C1287.24 901.243 1287.77 900.895 1287.88 900.354C1287.99 899.814 1287.64 899.284 1287.1 899.172L1286.7 901.13ZM1295.13 900.543C1294.58 900.468 1294.08 900.851 1294 901.398C1293.93 901.945 1294.31 902.449 1294.86 902.524L1295.13 900.543ZM1303.07 903.411C1303.62 903.456 1304.1 903.046 1304.15 902.495C1304.19 901.945 1303.78 901.462 1303.23 901.418L1303.07 903.411ZM1311.4 901.891C1310.85 901.871 1310.38 902.303 1310.36 902.855C1310.34 903.406 1310.78 903.87 1311.33 903.89L1311.4 901.891ZM1319.31 904.059C1319.86 904.066 1320.32 903.625 1320.33 903.073C1320.33 902.521 1319.89 902.067 1319.34 902.059L1319.31 904.059ZM1327.01 902.149C1326.46 902.143 1326.01 902.587 1326 903.139C1326 903.691 1326.44 904.143 1326.99 904.149L1327.01 902.149ZM1334.7 904.21C1335.25 904.213 1335.7 903.768 1335.71 903.216C1335.71 902.664 1335.27 902.213 1334.71 902.21L1334.7 904.21ZM1342.39 902.248C1341.84 902.246 1341.39 902.692 1341.39 903.245C1341.39 903.797 1341.83 904.246 1342.39 904.248L1342.39 902.248ZM1350.07 904.269C1350.63 904.27 1351.07 903.823 1351.07 903.271C1351.08 902.719 1350.63 902.27 1350.08 902.269L1350.07 904.269ZM1357.77 902.275C1357.22 902.275 1356.77 902.723 1356.77 903.275C1356.77 903.828 1357.22 904.275 1357.77 904.275L1357.77 902.275ZM1365.47 904.268C1366.02 904.268 1366.46 903.819 1366.46 903.267C1366.46 902.715 1366.01 902.268 1365.46 902.268L1365.47 904.268ZM1373.14 902.251C1372.59 902.253 1372.15 902.702 1372.15 903.254C1372.15 903.806 1372.6 904.253 1373.15 904.251L1373.14 902.251ZM1380.84 904.224C1381.39 904.221 1381.84 903.772 1381.84 903.22C1381.83 902.667 1381.39 902.222 1380.83 902.224L1380.84 904.224ZM1388.52 902.188C1387.97 902.191 1387.53 902.641 1387.53 903.193C1387.53 903.746 1387.98 904.191 1388.53 904.188L1388.52 902.188ZM1396.23 904.145C1396.78 904.141 1397.22 903.691 1397.22 903.139C1397.22 902.586 1396.77 902.141 1396.21 902.145L1396.23 904.145ZM1403.9 902.094C1403.35 902.098 1402.9 902.549 1402.91 903.101C1402.91 903.654 1403.36 904.098 1403.92 904.094L1403.9 902.094ZM1411.61 904.037C1412.16 904.033 1412.6 903.582 1412.6 903.03C1412.59 902.477 1412.14 902.033 1411.59 902.038L1411.61 904.037ZM1419.28 901.975C1418.73 901.979 1418.28 902.431 1418.29 902.983C1418.29 903.535 1418.75 903.979 1419.3 903.975L1419.28 901.975ZM1426.99 903.906C1427.54 903.901 1427.98 903.449 1427.98 902.897C1427.97 902.345 1427.52 901.901 1426.97 901.906L1426.99 903.906ZM1434.66 901.832C1434.1 901.838 1433.66 902.29 1433.67 902.842C1433.67 903.394 1434.12 903.838 1434.68 903.832L1434.66 901.832ZM1442.36 903.753C1442.91 903.747 1443.35 903.295 1443.35 902.743C1443.34 902.191 1442.89 901.748 1442.34 901.753L1442.36 903.753ZM1450.04 901.669C1449.48 901.676 1449.04 902.128 1449.05 902.681C1449.05 903.233 1449.51 903.675 1450.06 903.669L1450.04 901.669ZM1457.75 903.58C1458.3 903.574 1458.75 903.121 1458.74 902.569C1458.73 902.016 1458.28 901.574 1457.73 901.581L1457.75 903.58ZM1465.4 901.487C1464.85 901.494 1464.41 901.947 1464.42 902.499C1464.42 903.052 1464.88 903.494 1465.43 903.487L1465.4 901.487ZM1473.13 903.388C1473.68 903.381 1474.12 902.927 1474.12 902.375C1474.11 901.823 1473.66 901.381 1473.1 901.388L1473.13 903.388ZM1480.79 901.285C1480.24 901.292 1479.8 901.746 1479.8 902.298C1479.81 902.851 1480.27 903.292 1480.82 903.285L1480.79 901.285ZM1488.51 903.175C1489.07 903.167 1489.51 902.713 1489.5 902.161C1489.49 901.609 1489.04 901.167 1488.48 901.176L1488.51 903.175ZM1496.15 901.06C1495.6 901.069 1495.16 901.524 1495.16 902.076C1495.17 902.628 1495.63 903.069 1496.18 903.06L1496.15 901.06ZM347.516 337L351.481 336.937L351.449 334.938L347.484 335L347.516 337ZM359.41 336.812L367.34 336.687L367.308 334.688L359.379 334.813L359.41 336.812ZM375.27 336.562L383.199 336.437L383.168 334.438L375.238 334.563L375.27 336.562ZM391.129 336.312L399.059 336.187L399.027 334.188L391.098 334.313L391.129 336.312ZM406.988 336.062L414.918 335.937L414.887 333.938L406.957 334.063L406.988 336.062ZM422.848 335.812L430.777 335.687L430.746 333.688L422.816 333.813L422.848 335.812ZM438.707 335.562L446.637 335.437L446.605 333.438L438.676 333.563L438.707 335.562ZM454.567 335.312L462.496 335.187L462.465 333.188L454.535 333.313L454.567 335.312ZM470.426 335.062L478.356 334.937L478.324 332.938L470.394 333.063L470.426 335.062ZM486.285 334.812L494.215 334.687L494.183 332.688L486.254 332.813L486.285 334.812ZM502.145 334.562L510.074 334.437L510.043 332.438L502.113 332.563L502.145 334.562ZM518.004 334.312L525.934 334.187L525.902 332.188L517.973 332.313L518.004 334.312ZM533.863 334.062L541.793 333.937L541.762 331.938L533.832 332.063L533.863 334.062ZM549.723 333.812L557.653 333.687L557.621 331.688L549.691 331.813L549.723 333.812ZM565.582 333.562L573.512 333.437L573.48 331.438L565.551 331.563L565.582 333.562ZM581.442 333.312L589.371 333.187L589.34 331.188L581.41 331.313L581.442 333.312ZM597.301 333.062L605.231 332.937L605.199 330.938L597.269 331.063L597.301 333.062ZM613.16 332.812L621.09 332.687L621.059 330.688L613.129 330.813L613.16 332.812ZM629.02 332.562L636.949 332.437L636.918 330.438L628.988 330.563L629.02 332.562ZM644.879 332.312L652.809 332.187L652.777 330.188L644.848 330.313L644.879 332.312ZM660.738 332.062L668.668 331.937L668.637 329.938L660.707 330.063L660.738 332.062ZM676.598 331.812L684.527 331.687L684.496 329.688L676.566 329.813L676.598 331.812ZM692.457 331.562L700.387 331.437L700.355 329.438L692.426 329.563L692.457 331.562ZM708.317 331.312L716.246 331.187L716.215 329.188L708.285 329.313L708.317 331.312ZM724.176 331.062L732.106 330.937L732.074 328.938L724.144 329.063L724.176 331.062ZM740.035 330.812L747.965 330.687L747.933 328.688L740.004 328.813L740.035 330.812ZM755.895 330.562L763.824 330.437L763.793 328.438L755.863 328.563L755.895 330.562ZM771.754 330.312L779.684 330.187L779.652 328.188L771.722 328.313L771.754 330.312ZM787.613 330.062L795.543 329.937L795.511 327.938L787.582 328.063L787.613 330.062ZM803.473 329.812L811.402 329.687L811.371 327.688L803.441 327.813L803.473 329.812ZM819.332 329.562L827.262 329.437L827.23 327.438L819.3 327.563L819.332 329.562ZM835.191 329.312L843.121 329.187L843.09 327.188L835.16 327.313L835.191 329.312ZM851.051 329.062L855.016 329L854.984 327L851.019 327.063L851.051 329.062ZM854.957 328.999C856.118 329.05 857.379 329.188 858.717 329.428L859.07 327.46C857.649 327.205 856.3 327.056 855.043 327.001L854.957 328.999ZM866.054 331.583C868.272 332.484 870.568 333.643 872.875 335.1L873.943 333.409C871.535 331.888 869.133 330.675 866.807 329.73L866.054 331.583ZM879.018 339.732C880.847 341.356 882.643 343.196 884.373 345.273L885.91 343.992C884.116 341.839 882.249 339.927 880.347 338.237L879.018 339.732ZM888.896 351.531C890.203 353.618 891.444 355.881 892.596 358.331L894.406 357.479C893.22 354.959 891.942 352.626 890.591 350.47L888.896 351.531ZM895.523 365.526C896.339 367.868 897.081 370.348 897.738 372.973L899.678 372.488C899.007 369.806 898.248 367.268 897.412 364.868L895.523 365.526ZM899.322 380.589C899.736 383.049 900.081 385.618 900.349 388.3L902.34 388.101C902.067 385.376 901.716 382.762 901.294 380.256L899.322 380.589ZM900.892 396.09C900.945 397.375 900.981 398.683 901 400.014L903 399.986C902.981 398.637 902.944 397.311 902.891 396.008L900.892 396.09ZM901 400.014C901.018 401.299 901.032 402.581 901.042 403.86L903.042 403.845C903.032 402.561 903.018 401.275 903 399.986L901 400.014ZM901.049 411.538C901.035 414.111 901.006 416.671 900.963 419.215L902.963 419.249C903.006 416.697 903.035 414.13 903.049 411.549L901.049 411.538ZM900.793 426.9C900.723 429.48 900.641 432.042 900.55 434.584L902.548 434.656C902.64 432.108 902.722 429.54 902.792 426.954L900.793 426.9ZM900.243 442.263C900.131 444.845 900.011 447.403 899.885 449.935L901.883 450.034C902.008 447.498 902.129 444.936 902.241 442.35L900.243 442.263ZM899.487 457.619C899.347 460.21 899.204 462.772 899.062 465.302L901.058 465.415C901.201 462.884 901.344 460.32 901.484 457.726L899.487 457.619ZM898.626 472.974C898.478 475.577 898.334 478.142 898.196 480.665L900.194 480.774C900.331 478.253 900.475 475.69 900.623 473.087L898.626 472.974ZM897.795 488.352C897.666 490.969 897.549 493.535 897.448 496.047L899.447 496.127C899.547 493.623 899.664 491.063 899.793 488.45L897.795 488.352ZM897.19 503.746C897.122 506.393 897.079 508.969 897.067 511.469L899.067 511.478C899.078 508.995 899.121 506.433 899.19 503.798L897.19 503.746ZM897.142 519.188C897.212 521.872 897.333 524.45 897.512 526.915L899.507 526.77C899.33 524.341 899.211 521.794 899.141 519.136L897.142 519.188ZM898.332 534.64C898.73 537.379 899.236 539.936 899.868 542.293L901.8 541.775C901.192 539.508 900.701 537.03 900.311 534.352L898.332 534.64ZM902.618 549.686C903.242 550.912 903.931 552.05 904.693 553.091L906.307 551.909C905.615 550.964 904.981 549.92 904.4 548.779L902.618 549.686ZM904.693 553.091C905.442 554.115 906.223 555.221 907.034 556.399L908.681 555.264C907.862 554.075 907.071 552.953 906.307 551.909L904.693 553.091ZM911.593 563.2C913.027 565.373 914.538 567.676 916.124 570.061L917.79 568.954C916.206 566.573 914.7 564.277 913.262 562.099L911.593 563.2ZM920.722 576.869C922.246 579.08 923.83 581.33 925.475 583.589L927.092 582.412C925.459 580.169 923.885 577.934 922.369 575.734L920.722 576.869ZM930.44 590.169C932.125 592.319 933.868 594.455 935.669 596.551L937.186 595.248C935.407 593.177 933.683 591.065 932.014 588.935L930.44 590.169ZM941.219 602.669C943.135 604.663 945.111 606.593 947.148 608.438L948.49 606.955C946.491 605.145 944.548 603.247 942.661 601.283L941.219 602.669ZM953.516 613.743C955.736 615.432 958.021 617.003 960.374 618.431L961.412 616.722C959.124 615.333 956.896 613.802 954.727 612.151L953.516 613.743ZM967.743 622.306C970.286 623.439 972.902 624.393 975.589 625.14L976.125 623.213C973.539 622.494 971.016 621.574 968.556 620.479L967.743 622.306ZM983.798 626.723C985.173 626.872 986.566 626.965 987.976 627L988.024 625C986.671 624.967 985.334 624.878 984.013 624.734L983.798 626.723ZM987.976 627C989.307 627.032 990.678 627.033 992.085 627.006L992.047 625.007C990.665 625.033 989.324 625.032 988.024 625L987.976 627ZM1000.27 626.587C1002.89 626.382 1005.6 626.111 1008.39 625.791L1008.16 623.804C1005.39 624.122 1002.7 624.39 1000.11 624.593L1000.27 626.587ZM1016.49 624.762C1019.13 624.4 1021.82 624.008 1024.57 623.598L1024.27 621.62C1021.53 622.03 1018.85 622.42 1016.22 622.781L1016.49 624.762ZM1032.61 622.369C1035.27 621.958 1037.95 621.54 1040.66 621.124L1040.36 619.147C1037.64 619.564 1034.96 619.982 1032.3 620.393L1032.61 622.369ZM1048.7 619.91C1051.37 619.516 1054.06 619.132 1056.75 618.766L1056.48 616.785C1053.78 617.152 1051.08 617.537 1048.41 617.931L1048.7 619.91ZM1064.81 617.734C1067.5 617.413 1070.19 617.117 1072.88 616.856L1072.68 614.865C1069.98 615.128 1067.28 615.425 1064.57 615.748L1064.81 617.734ZM1080.96 616.178C1083.68 615.99 1086.38 615.846 1089.06 615.754L1088.99 613.756C1086.29 613.848 1083.56 613.993 1080.82 614.183L1080.96 616.178ZM1097.15 615.649C1099.88 615.676 1102.58 615.769 1105.23 615.94L1105.36 613.945C1102.67 613.771 1099.93 613.676 1097.17 613.649L1097.15 615.649ZM1113.26 616.724C1115.97 617.085 1118.62 617.546 1121.19 618.116L1121.62 616.164C1118.99 615.58 1116.29 615.11 1113.53 614.741L1113.26 616.724ZM1128.93 620.258C1131.5 621.125 1133.97 622.132 1136.33 623.291L1137.21 621.496C1134.77 620.295 1132.22 619.256 1129.57 618.363L1128.93 620.258ZM1143.2 627.34C1144.28 628.104 1145.34 628.912 1146.36 629.767L1147.64 628.233C1146.58 627.342 1145.48 626.5 1144.35 625.704L1143.2 627.34ZM1146.36 629.767C1147.34 630.591 1148.34 631.414 1149.34 632.237L1150.61 630.69C1149.61 629.871 1148.62 629.053 1147.64 628.233L1146.36 629.767ZM1155.37 637.093C1157.38 638.685 1159.42 640.276 1161.47 641.867L1162.7 640.287C1160.65 638.698 1158.62 637.112 1156.62 635.525L1155.37 637.093ZM1167.6 646.59C1169.64 648.158 1171.68 649.723 1173.73 651.296L1174.95 649.71C1172.91 648.139 1170.85 646.567 1168.82 645.004L1167.6 646.59ZM1179.85 656.015C1181.89 657.598 1183.92 659.186 1185.93 660.779L1187.17 659.212C1185.15 657.613 1183.12 656.021 1181.08 654.435L1179.85 656.015ZM1191.94 665.618C1193.94 667.258 1195.91 668.906 1197.85 670.563L1199.15 669.044C1197.2 667.376 1195.22 665.719 1193.21 664.071L1191.94 665.618ZM1203.63 675.657C1205.56 677.403 1207.43 679.16 1209.23 680.931L1210.63 679.501C1208.81 677.712 1206.92 675.937 1204.98 674.176L1203.63 675.657ZM1214.6 686.426C1216.37 688.333 1218.05 690.257 1219.65 692.198L1221.19 690.929C1219.57 688.953 1217.86 687 1216.06 685.066L1214.6 686.426ZM1224.28 698.292C1225.77 700.42 1227.13 702.57 1228.35 704.745L1230.09 703.764C1228.84 701.527 1227.44 699.322 1225.92 697.146L1224.28 698.292ZM1231.69 711.578C1232.67 713.943 1233.47 716.339 1234.08 718.768L1236.02 718.278C1235.38 715.749 1234.55 713.262 1233.54 710.814L1231.69 711.578ZM1235.34 726.222C1235.45 727.472 1235.5 728.731 1235.5 730H1237.5C1237.5 728.674 1237.44 727.358 1237.33 726.053L1235.34 726.222ZM1235.5 730C1235.5 731.289 1235.49 732.603 1235.47 733.94L1237.47 733.965C1237.49 732.62 1237.5 731.298 1237.5 730H1235.5ZM1235.3 741.831C1235.22 744.403 1235.12 747.037 1235 749.72L1237 749.806C1237.12 747.117 1237.22 744.475 1237.3 741.894L1235.3 741.831ZM1234.63 757.611C1234.49 760.216 1234.35 762.851 1234.21 765.508L1236.2 765.618C1236.35 762.96 1236.49 760.321 1236.62 757.713L1234.63 757.611ZM1233.77 773.408C1233.62 776.036 1233.47 778.673 1233.33 781.309L1235.33 781.418C1235.47 778.784 1235.62 776.148 1235.76 773.52L1233.77 773.408ZM1232.91 789.215C1232.78 791.868 1232.66 794.509 1232.54 797.127L1234.54 797.212C1234.65 794.6 1234.78 791.964 1234.91 789.315L1232.91 789.215ZM1232.25 805.042C1232.16 807.723 1232.1 810.367 1232.05 812.961L1234.05 812.994C1234.1 810.411 1234.16 807.778 1234.25 805.106L1232.25 805.042ZM1232.01 820.894C1232.02 823.62 1232.07 826.272 1232.16 828.832L1234.16 828.761C1234.07 826.224 1234.02 823.592 1234.01 820.883L1232.01 820.894ZM1232.61 836.781C1232.84 839.592 1233.14 842.249 1233.52 844.723L1235.5 844.417C1235.13 842 1234.83 839.392 1234.61 836.619L1232.61 836.781ZM1235.22 852.581C1235.62 853.951 1236.08 855.227 1236.58 856.396L1238.42 855.604C1237.95 854.519 1237.52 853.321 1237.14 852.014L1235.22 852.581ZM1236.58 856.396C1237.12 857.645 1237.66 858.911 1238.21 860.173L1240.05 859.377C1239.5 858.115 1238.96 856.861 1238.42 855.604L1236.58 856.396ZM1241.65 867.695C1242.86 870.156 1244.17 872.598 1245.67 874.983L1247.36 873.921C1245.91 871.608 1244.63 869.229 1243.44 866.812L1241.65 867.695ZM1250.58 881.739C1252.34 883.801 1254.3 885.781 1256.52 887.653L1257.81 886.123C1255.67 884.327 1253.79 882.426 1252.11 880.444L1250.58 881.739ZM1263.34 892.506C1265.6 893.862 1268.07 895.125 1270.79 896.279L1271.57 894.439C1268.94 893.319 1266.55 892.098 1264.37 890.791L1263.34 892.506ZM1278.63 899.099C1281.14 899.855 1283.83 900.535 1286.7 901.13L1287.1 899.172C1284.29 898.588 1281.66 897.922 1279.2 897.184L1278.63 899.099ZM1294.86 902.524C1297.46 902.881 1300.2 903.178 1303.07 903.411L1303.23 901.418C1300.39 901.187 1297.7 900.894 1295.13 900.543L1294.86 902.524ZM1311.33 903.89C1312.68 903.939 1314.07 903.976 1315.48 904L1315.52 902C1314.12 901.977 1312.74 901.94 1311.4 901.891L1311.33 903.89ZM1315.48 904C1316.73 904.021 1318 904.04 1319.31 904.059L1319.34 902.059C1318.03 902.041 1316.76 902.021 1315.52 902L1315.48 904ZM1326.99 904.149C1329.48 904.173 1332.05 904.193 1334.7 904.21L1334.71 902.21C1332.07 902.193 1329.5 902.173 1327.01 902.149L1326.99 904.149ZM1342.39 904.248C1344.9 904.258 1347.46 904.265 1350.07 904.269L1350.08 902.269C1347.47 902.265 1344.9 902.258 1342.39 902.248L1342.39 904.248ZM1357.77 904.275C1360.31 904.275 1362.87 904.273 1365.47 904.268L1365.46 902.268C1362.87 902.273 1360.3 902.275 1357.77 902.275L1357.77 904.275ZM1373.15 904.251C1375.7 904.243 1378.26 904.234 1380.84 904.224L1380.83 902.224C1378.25 902.234 1375.69 902.243 1373.14 902.251L1373.15 904.251ZM1388.53 904.188C1391.09 904.175 1393.66 904.16 1396.23 904.145L1396.21 902.145C1393.64 902.16 1391.08 902.175 1388.52 902.188L1388.53 904.188ZM1403.92 904.094C1406.48 904.076 1409.05 904.057 1411.61 904.037L1411.59 902.038C1409.03 902.057 1406.47 902.076 1403.9 902.094L1403.92 904.094ZM1419.3 903.975C1421.87 903.953 1424.44 903.93 1426.99 903.906L1426.97 901.906C1424.42 901.93 1421.86 901.953 1419.28 901.975L1419.3 903.975ZM1434.68 903.832C1437.26 903.807 1439.82 903.78 1442.36 903.753L1442.34 901.753C1439.8 901.78 1437.24 901.807 1434.66 901.832L1434.68 903.832ZM1450.06 903.669C1452.66 903.64 1455.23 903.61 1457.75 903.58L1457.73 901.581C1455.21 901.61 1452.64 901.64 1450.04 901.669L1450.06 903.669ZM1465.43 903.487C1468.06 903.454 1470.63 903.421 1473.13 903.388L1473.1 901.388C1470.6 901.421 1468.03 901.454 1465.4 901.487L1465.43 903.487ZM1480.82 903.285C1483.48 903.248 1486.05 903.211 1488.51 903.175L1488.48 901.176C1486.03 901.211 1483.46 901.248 1480.79 901.285L1480.82 903.285Z" fill="white"/>
<circle r="3" transform="matrix(-1 0 0 1 933.5 355.5)" fill="white"/>
<circle r="3" transform="matrix(-1 0 0 1 957.5 332.5)" fill="white"/>
<circle r="3" transform="matrix(-1 0 0 1 942.5 341.5)" fill="white"/>
<circle r="3" transform="matrix(-1 0 0 1 948.5 358.5)" fill="white"/>
<circle r="3" transform="matrix(-1 0 0 1 926.5 341.5)" fill="white"/>
<circle r="3" transform="matrix(-1 0 0 1 954.5 347.5)" fill="white"/>
<circle r="3" transform="matrix(-1 0 0 1 933.5 332.5)" fill="white"/>
<circle r="3" transform="matrix(-1 0 0 1 1221.5 564.5)" fill="white"/>
<circle r="3" transform="matrix(-1 0 0 1 1245.5 541.5)" fill="white"/>
<circle r="3" transform="matrix(-1 0 0 1 1230.5 550.5)" fill="white"/>
<circle r="3" transform="matrix(-1 0 0 1 1236.5 567.5)" fill="white"/>
<circle r="3" transform="matrix(-1 0 0 1 1214.5 550.5)" fill="white"/>
<circle r="3" transform="matrix(-1 0 0 1 1242.5 556.5)" fill="white"/>
<circle r="3" transform="matrix(-1 0 0 1 1221.5 541.5)" fill="white"/>
<path d="M938 412V404H956.5V412" stroke="white" stroke-width="2" stroke-linecap="round" stroke-linejoin="round"/>
<path d="M967.5 337.5L1118.5 258.5" stroke="#3CDB4C" stroke-width="2" stroke-linecap="round" stroke-linejoin="round"/>
<path d="M951.5 407.5L1038.5 434.5" stroke="#3CDB4C" stroke-width="2" stroke-linecap="round" stroke-linejoin="round"/>
<path d="M796.5 499.5L880.5 445.5" stroke="#3CDB4C" stroke-width="2" stroke-linecap="round" stroke-linejoin="round"/>
<path d="M1233.5 539.5L1310.5 418.5" stroke="#3CDB4C" stroke-width="2" stroke-linecap="round" stroke-linejoin="round"/>
<path d="M1528.5 898.5L1603.5 782.5" stroke="#3CDB4C" stroke-width="2" stroke-linecap="round" stroke-linejoin="round"/>
<path d="M1069.49 193.151C1069.49 200.599 1068.5 222.921 1068.5 215.473" stroke="white" stroke-width="3" stroke-linecap="round"/>
<path d="M1069.99 194.143C1070.17 195.925 1071.36 197.578 1072.3 198.993C1075.38 203.611 1078.55 208.243 1082.06 212.552C1082.88 213.554 1087.57 218.175 1084.37 214.977" stroke="white" stroke-width="3" stroke-linecap="round"/>
<path d="M1085.37 216.96C1085.37 211.069 1085.8 205.031 1085.26 199.158C1085.07 197.147 1084.87 195.17 1084.87 193.151C1084.87 192.153 1084.86 192.424 1084.38 193.151" stroke="white" stroke-width="3" stroke-linecap="round"/>
<path d="M1094.3 212C1094.57 214.207 1097.82 210.404 1098.04 209.851C1098.77 208.065 1097.87 206.864 1096.28 206.158C1094.2 205.232 1094.3 211.449 1094.3 212.496C1094.3 216.747 1097.03 218.287 1100.74 215.969" stroke="white" stroke-width="3" stroke-linecap="round"/>
<path d="M1107.69 206.544C1107.69 209.377 1107.24 213.981 1109.45 216.189C1111.4 218.135 1113.78 211.481 1114.03 210.126C1114.1 209.724 1114.63 205.224 1114.63 206.847C1114.63 210.053 1114.63 213.259 1114.63 216.465" stroke="white" stroke-width="3" stroke-linecap="round"/>
<path d="M1125.05 196.127C1125.11 202.581 1125.54 209.018 1125.54 215.472" stroke="white" stroke-width="3" stroke-linecap="round"/>
<path d="M1121.08 208.032C1123.01 207.699 1128.62 205.655 1130.01 207.04" stroke="white" stroke-width="3" stroke-linecap="round"/>
<path d="M1135.96 207.536C1136.35 210.381 1136.46 219.005 1136.46 216.134C1136.46 215.222 1136.4 214.287 1136.49 213.378C1136.72 210.84 1138.5 207.536 1141.42 207.536" stroke="white" stroke-width="3" stroke-linecap="round"/>
<path d="M1152.33 208.032C1148.79 206.899 1147.8 211.006 1147.87 214.095C1147.89 215.328 1148.9 218.328 1150.57 216.52C1152.01 214.957 1153.1 212.541 1153.71 210.512C1153.92 209.8 1154.43 208.654 1154.2 210.237C1153.86 212.641 1153.73 214.62 1154.32 216.961" stroke="white" stroke-width="3" stroke-linecap="round"/>
<path d="M1161.76 195.631C1162.45 202.727 1163.24 209.824 1163.24 216.961" stroke="white" stroke-width="3" stroke-linecap="round"/>
<path d="M1188.05 207.04C1186.27 207.176 1184.14 207.421 1183.2 209.19C1183.02 209.516 1182.92 210.395 1183.42 210.485C1185.84 210.926 1188.89 210.181 1190.47 212.744C1192.87 216.643 1184.68 218.773 1183.58 215.473" stroke="white" stroke-width="3" stroke-linecap="round"/>
<path d="M1195.49 206.048C1196.84 209.312 1197.77 212.814 1199.34 215.969C1199.56 216.399 1199.88 213.566 1199.95 213.02C1200.19 211.257 1200.85 203.897 1202.16 209.493C1202.29 210.061 1203.83 216.924 1205.41 215.252C1206.37 214.233 1206.41 211.642 1206.7 210.347C1206.87 209.606 1207.89 202.876 1207.89 206.048" stroke="white" stroke-width="3" stroke-linecap="round"/>
<path d="M1217.81 207.04C1215.35 207.04 1214.76 207.124 1213.62 209.52C1212.76 211.326 1211.93 213.021 1212.85 214.977C1214.01 217.427 1216.78 215.282 1217.59 213.709C1218.11 212.686 1218.65 211.155 1218.77 210.016C1218.79 209.901 1218.74 207.69 1219.19 208.142C1220.35 209.304 1219.16 214.576 1219.79 216.465" stroke="white" stroke-width="3" stroke-linecap="round"/>
<path d="M1226.74 207.04C1226.74 209.723 1226.98 212.266 1227.51 214.921C1227.85 216.625 1227.27 212.278 1227.34 211.78C1227.77 209.037 1228.57 208.052 1231.09 207.15C1232.02 206.818 1233.19 206.047 1233.19 207.536" stroke="white" stroke-width="3" stroke-linecap="round"/>
<path d="M1240.13 206.048C1240.13 208.675 1239.63 211.379 1239.63 214.095C1239.63 214.848 1240.75 209.888 1241.01 208.694C1241.35 207.155 1242.16 204.182 1244.48 205.166C1246.2 205.89 1247.02 210.57 1247.08 212.111C1247.19 215.305 1247.05 211.73 1247.08 210.512C1247.12 208.301 1247.83 205.915 1250.16 205.166C1255.08 203.586 1253.81 214.625 1253.52 214.481" stroke="white" stroke-width="3" stroke-linecap="round"/>
<path d="M1040.5 231.5C1036.35 238.227 1035.6 247.286 1037.46 254.715C1037.73 255.791 1037.73 257.947 1039.03 258.5" stroke="white" stroke-width="3" stroke-linecap="round"/>
<path d="M1048.91 243.22C1047.39 242.375 1045.63 241.825 1044.95 244.231C1044.54 245.671 1044.15 248.051 1045.04 249.386C1046.19 251.128 1048.97 250.394 1050.5 250.044" stroke="white" stroke-width="3" stroke-linecap="round"/>
<path d="M1058.79 243.842C1055.23 242.362 1054.44 246.012 1054.5 248.515C1054.55 250.327 1057.08 249.263 1057.74 248.305C1058.23 247.589 1059.26 243.502 1059.86 245.4C1060.18 246.429 1059.69 248.052 1060.5 248.768" stroke="white" stroke-width="3" stroke-linecap="round"/>
<path d="M1064.5 242.624C1064.5 244.322 1064.41 246.17 1065.1 247.771C1065.18 247.965 1066.48 244.519 1066.88 243.982C1067.49 243.172 1068.8 241.837 1069.83 242.886C1071.14 244.22 1071.5 249.975 1071.5 248.143" stroke="white" stroke-width="3" stroke-linecap="round"/>
<path d="M1087.77 242.532C1087.13 242.439 1081.63 242.401 1082.62 244.667C1083.28 246.167 1086.47 245.996 1087.68 246.28C1090.68 246.98 1084.57 251.448 1083.28 248.51" stroke="white" stroke-width="3" stroke-linecap="round"/>
<path d="M1092.97 234.5C1092.25 234.786 1092.57 236.913 1092.57 237.41C1092.57 240.833 1092.57 244.255 1092.57 247.678C1092.57 248.132 1093.41 245.113 1093.98 244.395C1095.03 243.084 1096.18 243.006 1096.85 244.651C1097.08 245.219 1097.83 249.385 1097.33 248.33" stroke="white" stroke-width="3" stroke-linecap="round"/>
<path d="M1106.5 243.068C1103.28 241.043 1101.79 243.606 1101.51 246.379C1101.29 248.551 1104.24 249.108 1105.84 247.804C1107.37 246.552 1107.92 244.384 1107.16 242.673C1106.6 241.432 1104.51 240.985 1103.76 242.279" stroke="white" stroke-width="3" stroke-linecap="round"/>
<path d="M1112.5 241.5C1112.5 243.396 1113.14 252.389 1113.27 246.563C1113.34 243.319 1115.36 242.645 1117.5 241.98" stroke="white" stroke-width="3" stroke-linecap="round"/>
<path d="M1123.5 234.5C1123.65 239.168 1124.11 243.834 1124.5 248.5" stroke="white" stroke-width="3" stroke-linecap="round"/>
<path d="M1120.5 241.5C1122.82 240.933 1125.06 240.742 1127.5 240.5" stroke="white" stroke-width="3" stroke-linecap="round"/>
<path d="M1133.5 243.5H1138.5" stroke="white" stroke-width="3" stroke-linecap="round"/>
<path d="M1150.5 239.523C1144.13 238.975 1143.69 248.603 1150.09 246.077" stroke="white" stroke-width="3" stroke-linecap="round"/>
<path d="M1156.5 240.5V246.5" stroke="white" stroke-width="3" stroke-linecap="round"/>
<path d="M1155.5 235.5C1155.5 233.827 1155.5 234.555 1155.5 235.5" stroke="white" stroke-width="3" stroke-linecap="round"/>
<path d="M1162.5 239.5C1162.58 242.323 1163.32 250.754 1163.32 247.929C1163.32 246.542 1163.51 244.984 1163.92 243.666C1164.52 241.722 1168.46 238.364 1169.5 241.68" stroke="white" stroke-width="3" stroke-linecap="round"/>
<path d="M1179.64 238.657C1176.53 234.995 1173.6 240.946 1174.76 243.783C1175.76 246.226 1178.52 245.566 1180.5 244.808" stroke="white" stroke-width="3" stroke-linecap="round"/>
<path d="M1185.7 237.5C1185.7 239.26 1184.86 244.788 1186.62 246.041C1188.19 247.165 1189.92 246.057 1190.67 244.523C1191.26 243.299 1191.5 241.439 1191.5 240.062C1191.5 238.865 1191.56 238.827 1191.08 240.062" stroke="white" stroke-width="3" stroke-linecap="round"/>
<path d="M1198.5 239.5C1198.58 241.845 1198.97 244.168 1199.5 246.5" stroke="white" stroke-width="3" stroke-linecap="round"/>
<path d="M1197.5 233.815C1197.5 232.891 1197.5 234.272 1197.5 234.5" stroke="white" stroke-width="3" stroke-linecap="round"/>
<path d="M1207.5 231.5C1207.58 236.514 1208.5 241.5 1208.5 246.5" stroke="white" stroke-width="3" stroke-linecap="round"/>
<path d="M1203.5 238.5C1206.17 237.855 1208.82 237.716 1211.5 237.5" stroke="white" stroke-width="3" stroke-linecap="round"/>
<path d="M1231.95 237.5C1226.62 237.5 1227.72 251.037 1233.5 244.907" stroke="white" stroke-width="3" stroke-linecap="round"/>
<path d="M1233.5 230.5C1233.5 236.172 1233.5 241.864 1233.5 247.5" stroke="white" stroke-width="3" stroke-linecap="round"/>
<path d="M1242.88 237.742C1236.78 235.153 1239.83 254.415 1245 244.781C1246.71 241.606 1243.73 235.075 1240.44 238.616" stroke="white" stroke-width="3" stroke-linecap="round"/>
<path d="M1257.81 237.914C1250.85 236.471 1250.47 249.537 1258.23 245.837C1263.27 243.435 1259.1 234.853 1253.66 238.31" stroke="white" stroke-width="3" stroke-linecap="round"/>
<path d="M1266.5 236.5C1266.55 239.634 1267.21 249 1267.33 245.868C1267.38 244.631 1267.24 243.379 1267.43 242.148C1267.68 240.487 1269.68 237.559 1271.5 239.324" stroke="white" stroke-width="3" stroke-linecap="round"/>
<path d="M1276.5 226.5C1277.74 228.897 1284.06 254.5 1277.73 254.5" stroke="white" stroke-width="3" stroke-linecap="round"/>
<path d="M1049.5 422.394C1050.92 428.585 1050.41 447.777 1050.41 441.426" stroke="white" stroke-width="3" stroke-linecap="round"/>
<path d="M1049.95 422.393C1049.95 418.825 1057.51 421.13 1059.02 422.595C1062.46 425.944 1063.55 429.637 1063.55 434.301C1063.55 437.204 1059.15 441.423 1056.5 442.559C1054.9 443.246 1049.57 443.239 1051.31 443.239" stroke="white" stroke-width="3" stroke-linecap="round"/>
<path d="M1072.16 435.988C1069.15 435.027 1067.83 437.7 1068.1 440.494C1068.38 443.279 1073 445.015 1075.05 442.962C1078.86 439.156 1072.33 432.138 1069.44 435.988" stroke="white" stroke-width="3" stroke-linecap="round"/>
<path d="M1084.39 434.176C1077.66 434.445 1081.21 447.61 1087.74 442.081C1092.37 438.165 1084.29 430.001 1082.58 435.988" stroke="white" stroke-width="3" stroke-linecap="round"/>
<path d="M1095.72 435.988C1095.72 436.66 1095.71 437.331 1095.75 438.002C1095.8 439.003 1095.86 439.65 1095.95 440.671C1096.02 441.427 1095.64 443.473 1096.17 442.937C1096.8 442.308 1096.12 438.104 1096.2 437.146C1096.39 434.715 1100.71 431.673 1100.71 435.535" stroke="white" stroke-width="3" stroke-linecap="round"/>
<path d="M1115.66 434.629C1116.28 439.956 1116.95 445.373 1117.02 450.741C1117.03 451.868 1116.71 453.348 1117.47 454.115" stroke="white" stroke-width="3" stroke-linecap="round"/>
<path d="M1113.85 435.988C1116.25 431.575 1122.46 434.789 1122.46 439.16C1122.46 442.97 1117.52 443.075 1115.21 441.426" stroke="white" stroke-width="3" stroke-linecap="round"/>
<path d="M1131.52 432.816C1129.96 432.816 1129.17 432.485 1128.7 434.176C1128.35 435.45 1127.32 438.199 1128.1 439.513C1129.14 441.279 1130.17 441.111 1131.09 439.337C1131.93 437.741 1132.25 436.023 1132.63 434.276C1132.98 432.665 1132.88 433.238 1132.88 434.453C1132.88 436.279 1132.48 440.571 1133.79 441.879" stroke="white" stroke-width="3" stroke-linecap="round"/>
<path d="M1139.22 432.816C1138.26 435.102 1139.68 442.723 1139.68 440.243C1139.68 437.842 1139.59 435.974 1140.78 433.798C1142.02 431.546 1143.37 433.736 1143.76 435.284C1144.29 437.438 1144.66 444.099 1144.66 441.88" stroke="white" stroke-width="3" stroke-linecap="round"/>
<path d="M1151.01 436.441C1153.17 436.441 1155.07 435.775 1154.08 432.917C1153.39 430.92 1152.1 431.387 1151.11 432.816C1149.73 434.8 1149.64 437.93 1150.91 439.966C1152.16 441.999 1154.74 440.552 1156.44 440.067" stroke="white" stroke-width="3" stroke-linecap="round"/>
<path d="M1161.43 422.394C1161.43 428.06 1162.3 433.69 1162.71 439.337C1162.76 439.911 1163.31 442.885 1162.34 441.426" stroke="white" stroke-width="3" stroke-linecap="round"/>
<path d="M651.889 483.5C651.889 486.48 650.591 505.669 652.738 505.669C655.42 505.669 658.511 505.201 661.062 506.051" stroke="white" stroke-width="3" stroke-linecap="round"/>
<path d="M669.471 498.025C663.798 498.166 668.084 511.529 673.251 504.353C675.893 500.683 671.362 494.601 667.56 497.642" stroke="white" stroke-width="3" stroke-linecap="round"/>
<path d="M682.848 497.642C678.661 497.35 678.475 503.671 680.555 506.178C681.868 507.762 684.352 506.534 684.759 504.904" stroke="white" stroke-width="3" stroke-linecap="round"/>
<path d="M691.639 485.029C691.707 491.882 691.92 498.732 692.021 505.584C692.033 506.41 692.021 504.645 692.021 504.522" stroke="white" stroke-width="3" stroke-linecap="round"/>
<path d="M692.404 500.318C693.013 499.995 693.581 499.617 694.124 499.192C694.591 498.828 695.764 497.856 696.163 497.557C698.068 496.128 697.112 497.34 697.755 497.26" stroke="white" stroke-width="3" stroke-linecap="round"/>
<path d="M694.314 500.318C695.765 502.27 697.053 504.267 698.137 506.433" stroke="white" stroke-width="3" stroke-linecap="round"/>
<path d="M706.928 501.082C712.681 498.206 706.694 494.634 705.972 497.6C704.999 501.601 705.477 507.778 710.75 505.669" stroke="white" stroke-width="3" stroke-linecap="round"/>
<path d="M722.217 496.878C718.771 496.878 716.324 502.357 718.756 505.032C719.979 506.378 721.977 504.578 722.217 503.376" stroke="white" stroke-width="3" stroke-linecap="round"/>
<path d="M722.6 487.322C723.215 493.523 724.511 499.815 724.511 506.051" stroke="white" stroke-width="3" stroke-linecap="round"/>
<path d="M746.298 498.024C742.709 497.154 741.865 500.542 742.093 503.588C742.386 507.494 745.609 505.211 747.062 503.758" stroke="white" stroke-width="3" stroke-linecap="round"/>
<path d="M747.443 488.469C748.041 493.906 748.972 499.426 748.972 504.904" stroke="white" stroke-width="3" stroke-linecap="round"/>
<path d="M759.293 497.26C752.231 495.548 755.665 509.948 760.142 504.352C761.279 502.931 761.732 501.005 760.354 499.468C759.645 498.677 758.694 497.476 757.764 498.407" stroke="white" stroke-width="3" stroke-linecap="round"/>
<path d="M769.613 496.878C766.918 498.107 766.396 501.236 766.81 504.013C766.933 504.838 767.556 505.635 768.424 505.669C770.4 505.746 772.288 504.269 772.288 502.186C772.288 500.179 772.334 498.752 770.589 497.472C769.484 496.662 768.763 496.199 767.702 497.26" stroke="white" stroke-width="3" stroke-linecap="round"/>
<path d="M777.258 494.584C777.994 496.915 778.341 499.294 778.617 501.719C778.707 502.509 778.24 504.372 778.978 504.076C779.581 503.835 779.769 499.735 779.891 499.341C780.54 497.248 781.652 496.113 783.734 496.113C784.64 496.113 784.52 496.48 784.52 497.26" stroke="white" stroke-width="3" stroke-linecap="round"/>
<path d="M1303.5 408.617C1306.14 401.464 1308.43 394.09 1310.36 386.715C1310.7 385.407 1311.25 377.71 1312.08 379.885C1314.19 385.449 1315.2 391.413 1317.16 397.038C1318.04 399.549 1320.29 404.575 1319.49 406.963" stroke="white" stroke-width="3" stroke-linecap="round"/>
<path d="M1306.81 398.141C1308.68 399.638 1313.32 399.244 1315.63 399.244" stroke="white" stroke-width="3" stroke-linecap="round"/>
<path d="M1332.17 399.244C1327.31 399.524 1324.8 402.333 1326.66 407.147C1327.97 410.531 1330.98 406.992 1332.72 406.411" stroke="white" stroke-width="3" stroke-linecap="round"/>
<path d="M1333.27 400.898C1333.27 407.298 1340.36 421.78 1333 426.69C1327.64 430.265 1324.5 421.804 1327.76 418.542" stroke="white" stroke-width="3" stroke-linecap="round"/>
<path d="M1348.16 399.795C1345.17 399.56 1343 400.604 1342.22 403.655C1341.92 404.81 1341.76 407.261 1342.77 408.065C1343.76 408.857 1345.18 408.778 1346.08 407.943C1346.49 407.558 1347.61 405.901 1347.61 406.411" stroke="white" stroke-width="3" stroke-linecap="round"/>
<path d="M1348.16 400.898C1348.16 402.764 1348.25 404.307 1348.65 406.167C1349.65 410.723 1353.12 419.051 1350.92 423.81C1350.28 425.185 1348.26 426.964 1346.94 425.587C1344.7 423.261 1345.33 419.714 1345.96 416.888" stroke="white" stroke-width="3" stroke-linecap="round"/>
<path d="M1355.88 400.898C1358.85 419.014 1353.05 396.724 1361.39 400.898" stroke="white" stroke-width="3" stroke-linecap="round"/>
<path d="M1368.01 404.206C1376.13 403.967 1368.72 394.191 1367.58 401.694C1367.26 403.857 1366.81 408.162 1368.29 409.965C1370.16 412.258 1372.21 409.384 1373.53 408.066" stroke="white" stroke-width="3" stroke-linecap="round"/>
<path d="M1380.69 398.141C1378.83 398.141 1378.49 399.839 1378.49 401.449C1378.49 404.417 1380.9 403.309 1382.62 405.033C1386.47 408.878 1379.04 412.255 1379.04 408.066" stroke="white" stroke-width="3" stroke-linecap="round"/>
<path d="M1391.17 397.59C1389.87 397.899 1383.84 401.042 1386.33 403.532C1387.31 404.517 1391.71 403.569 1393.25 404.084C1395.78 404.928 1394.01 408.47 1392.27 409.291C1390.71 410.031 1386.38 407.702 1387.86 406.963" stroke="white" stroke-width="3" stroke-linecap="round"/>
<path d="M1398.34 399.244C1398.88 402.85 1399.33 406.499 1399.44 410.148C1399.47 411.338 1399.44 408.796 1399.44 408.617" stroke="white" stroke-width="3" stroke-linecap="round"/>
<path d="M1396.13 392.627H1396.68" stroke="white" stroke-width="3" stroke-linecap="round"/>
<path d="M1404.4 400.346C1405.63 402.272 1406.31 404.431 1407.03 406.595C1407.4 407.695 1407.76 410.056 1408.38 407.82C1408.83 406.195 1409.62 399.244 1411.57 399.244" stroke="white" stroke-width="3" stroke-linecap="round"/>
<path d="M1418.74 404.206C1421.23 404.145 1422.01 403.94 1422.47 401.388C1422.55 400.978 1422.83 399.759 1422.47 399.366C1420.47 397.143 1418.53 399.705 1417.91 401.449C1417.09 403.741 1417.24 407.682 1419.26 409.322C1420.74 410.523 1423.34 409.202 1424.8 408.617" stroke="white" stroke-width="3" stroke-linecap="round"/>
<path d="M1445.75 398.692C1443.78 397.765 1442.7 398.216 1441.28 399.979C1439.97 401.605 1442.5 402.367 1443.79 402.797C1445.74 403.446 1447.61 403.656 1449.03 405.309C1452.7 409.593 1442.25 408.195 1441.34 408.065" stroke="white" stroke-width="3" stroke-linecap="round"/>
<path d="M1455.13 399.244C1455.13 400.998 1457.25 409.921 1458.01 406.595C1458.36 405.039 1461.17 398.33 1461.19 398.937C1461.23 400.314 1462.45 408.565 1464.38 408.372C1465.98 408.212 1467.26 398.146 1467.81 398.692" stroke="white" stroke-width="3" stroke-linecap="round"/>
<path d="M1477.73 399.244C1473.93 397.455 1474.04 402.99 1475.07 405.554C1476.03 407.955 1479.33 405.335 1480.49 404.758" stroke="white" stroke-width="3" stroke-linecap="round"/>
<path d="M1479.94 398.692C1479.94 401.111 1479.9 408.324 1481.59 409.168" stroke="white" stroke-width="3" stroke-linecap="round"/>
<path d="M1485.45 399.244C1486.58 401.733 1487.66 409.882 1487.66 407.147C1487.66 406.023 1487.66 404.9 1487.66 403.777C1487.66 401.395 1489 399.795 1491.52 399.795" stroke="white" stroke-width="3" stroke-linecap="round"/>
<path d="M1498.69 399.244C1498.69 400.99 1498.69 402.736 1498.69 404.482C1498.69 405.3 1498.69 408.388 1498.69 405.86C1498.69 403.534 1498.47 401.462 1500.37 399.795C1502.55 397.887 1504.17 398.833 1504.63 401.572C1504.79 402.537 1505.3 406.765 1505.3 406.289C1505.3 404.05 1505.48 401.648 1506.44 399.581C1507.26 397.795 1509.83 397.663 1510.51 399.519C1511.19 401.376 1511.37 403.351 1511.37 405.309C1511.37 406.271 1511.37 409.77 1511.37 406.963" stroke="white" stroke-width="3" stroke-linecap="round"/>
<path d="M1577.5 774.033C1581 765.523 1584.58 756.924 1586.48 747.893C1586.94 745.735 1588.63 753.146 1588.73 753.548C1590.31 760.383 1591.77 767.437 1593.97 774.033" stroke="white" stroke-width="3" stroke-linecap="round"/>
<path d="M1582.49 766.05C1585.17 766.05 1587.81 765.793 1590.47 765.551" stroke="white" stroke-width="3" stroke-linecap="round"/>
<path d="M1600.45 752.079C1600.63 759.309 1601.95 766.553 1601.95 773.756C1601.95 775.406 1601.95 774.462 1601.95 773.535" stroke="white" stroke-width="3" stroke-linecap="round"/>
<path d="M1610.43 765.551V774.033" stroke="white" stroke-width="3" stroke-linecap="round"/>
<path d="M1609.43 759.064C1608.43 758.939 1609.47 758.565 1609.93 758.565" stroke="white" stroke-width="3" stroke-linecap="round"/>
<path d="M1619.91 767.547C1625.01 767.343 1621.31 759.442 1618.97 765.135C1617.96 767.583 1617.9 772.072 1620.8 773.312C1622.65 774.106 1623.51 772.234 1624.9 771.538" stroke="white" stroke-width="3" stroke-linecap="round"/>
<path d="M1630.39 763.555C1630.39 760.708 1630.57 769.31 1631.39 772.037" stroke="white" stroke-width="3" stroke-linecap="round"/>
<path d="M1630.39 768.046C1631.5 766.818 1633.98 762.644 1635.99 763.999C1638.66 765.798 1638.37 770.274 1638.37 773.036" stroke="white" stroke-width="3" stroke-linecap="round"/>
<path d="M1657.33 763.056C1654.05 763.187 1653.13 768.572 1654.78 770.929C1656.84 773.865 1659.29 770.778 1660.33 769.044" stroke="white" stroke-width="3" stroke-linecap="round"/>
<path d="M1660.33 762.557V771.539" stroke="white" stroke-width="3" stroke-linecap="round"/>
<path d="M1666.32 763.056C1666.35 763.951 1666.74 772.481 1667.56 772.481C1668.06 772.481 1667.47 771.668 1667.43 771.539C1667.08 770.626 1667.31 769.332 1667.31 768.378C1667.31 766.863 1670.24 761.365 1671.31 764.553" stroke="white" stroke-width="3" stroke-linecap="round"/>
<path d="M1680.29 749.584C1680.38 756.739 1680.79 763.883 1680.79 771.04" stroke="white" stroke-width="3" stroke-linecap="round"/>
<path d="M1677.29 761.559C1679.62 761.559 1681.95 761.206 1684.28 761.06" stroke="white" stroke-width="3" stroke-linecap="round"/>
<path d="M1690.77 762.557V771.04" stroke="white" stroke-width="3" stroke-linecap="round"/>
<path d="M1690.77 756.071H1691.76" stroke="white" stroke-width="3" stroke-linecap="round"/>
<path d="M1700.25 771.04C1700.25 765.043 1699.52 758.159 1701.35 752.467C1702.36 749.325 1705.63 747.954 1707.73 750.582" stroke="white" stroke-width="3" stroke-linecap="round"/>
<path d="M1698.75 764.054C1700.8 764.054 1702.69 763.87 1704.74 763.555" stroke="white" stroke-width="3" stroke-linecap="round"/>
<path d="M1713.72 762.557C1709.91 763.628 1711.51 771.266 1713 770.457C1715.4 769.146 1715.39 766.158 1715.74 763.86C1715.98 762.283 1715.71 761.502 1715.71 763.555C1715.71 765.723 1716.21 772.21 1716.21 770.041" stroke="white" stroke-width="3" stroke-linecap="round"/>
<path d="M1727.19 762.557C1722.75 761.481 1721.6 764.943 1722.26 768.739C1722.76 771.658 1726 769.43 1726.69 768.046" stroke="white" stroke-width="3" stroke-linecap="round"/>
<path d="M1734.67 750.083C1733.54 755.747 1735.17 763.034 1735.17 768.046" stroke="white" stroke-width="3" stroke-linecap="round"/>
<path d="M1730.18 759.064C1733.17 759.788 1735.7 758.778 1738.67 758.066" stroke="white" stroke-width="3" stroke-linecap="round"/>
<path d="M623 108C623.667 106.056 624.333 105.031 625.399 103.166C628.988 96.8857 632.854 89.8513 635.142 83.0085C635.598 81.6461 638.282 68.4038 638.282 74.678C638.282 79.297 641.368 85.4796 642.667 90.002C644.31 95.7254 647.104 102.597 649 108" stroke="white" stroke-width="5" stroke-linecap="round"/>
<path d="M630 98C636.174 98 637.839 97 644 97" stroke="white" stroke-width="5" stroke-linecap="round"/>
<path d="M692 108C692.667 106.056 693.333 105.031 694.399 103.166C697.988 96.8857 701.854 89.8513 704.142 83.0085C704.598 81.6461 707.282 68.4038 707.282 74.678C707.282 79.297 710.368 85.4796 711.667 90.002C713.31 95.7254 716.104 102.597 718 108" stroke="white" stroke-width="5" stroke-linecap="round"/>
<path d="M698 98C704.615 98 706.399 97 713 97" stroke="white" stroke-width="5" stroke-linecap="round"/>
<path d="M662 108C662 105.28 662 79.2395 662 74" stroke="white" stroke-width="5" stroke-linecap="round"/>
<path d="M662 73.4104C663.551 72.9078 666.136 72.9082 667.459 73.1891C668.72 73.4103 670.184 73.8414 671.305 74.4152C671.305 74.4152 672.934 75.0702 673.378 76.5385C673.877 78.1891 674.275 80.9458 673.757 82.6446C673.082 84.8592 671.406 86.5596 669.371 87.5487C668.166 88.1347 664.946 87.9821 663.551 87.9821" stroke="white" stroke-width="5" stroke-linecap="round"/>
<path d="M662 90.5198C664.326 89.8832 668.203 89.8837 670.188 90.2395C672.081 90.5197 674.275 91.0658 675.958 91.7926C675.958 91.7926 678.4 92.6222 679.067 94.4821C679.816 96.5729 680.413 100.065 679.636 102.216C678.623 105.022 676.11 107.175 673.057 108.428C671.248 109.171 666.419 108.977 664.326 108.977" stroke="white" stroke-width="5" stroke-linecap="round"/>
<path d="M731 109C729.994 108.899 729.503 90.328 729.29 88.0306C729.026 85.1713 728.846 82.0351 729.188 79.161C729.355 77.7595 729 76.3077 729.154 75" stroke="white" stroke-width="5" stroke-linecap="round"/>
<path d="M731.092 74.1173C730.096 74.3656 737.508 85.6013 738.412 86.8985C741.358 91.1285 744.014 95.5762 745.668 100.319C746.62 103.051 747.585 106.839 749.748 108.963C750.052 109.262 749.996 107.677 749.996 107.348C749.996 105.144 749.996 102.94 749.996 100.736C749.996 95.0875 749.755 89.5237 749.455 83.8977C749.211 79.3173 749.094 77.5139 749.094 73" stroke="white" stroke-width="5" stroke-linecap="round"/>
<path d="M836 109C834.994 108.899 834.503 90.328 834.29 88.0306C834.026 85.1713 833.846 82.0351 834.188 79.161C834.355 77.7595 834 76.3077 834.154 75" stroke="white" stroke-width="5" stroke-linecap="round"/>
<path d="M836.087 74.1173C835.144 74.3656 842.165 85.6013 843.021 86.8985C845.813 91.1285 848.329 95.5762 849.896 100.319C850.798 103.051 851.713 106.839 853.761 108.963C854.05 109.262 853.996 107.677 853.996 107.348C853.996 105.144 853.996 102.94 853.996 100.736C853.996 95.0875 853.767 89.5237 853.484 83.8977C853.252 79.3173 853.142 77.5139 853.142 73" stroke="white" stroke-width="5" stroke-linecap="round"/>
<path d="M870 109C868.994 108.899 868.503 90.328 868.29 88.0306C868.026 85.1713 867.846 82.0351 868.188 79.161C868.355 77.7595 868 76.3077 868.154 75" stroke="white" stroke-width="5" stroke-linecap="round"/>
<path d="M870.092 74.1173C869.096 74.3656 876.508 85.6013 877.412 86.8985C880.358 91.1285 883.014 95.5762 884.668 100.319C885.62 103.051 886.585 106.839 888.748 108.963C889.052 109.262 888.996 107.677 888.996 107.348C888.996 105.144 888.996 102.94 888.996 100.736C888.996 95.0875 888.755 89.5237 888.455 83.8977C888.211 79.3173 888.094 77.5139 888.094 73" stroke="white" stroke-width="5" stroke-linecap="round"/>
<path d="M764 109C764 106.12 764 78.5477 764 73" stroke="white" stroke-width="5" stroke-linecap="round"/>
<path d="M764 73.984C766.843 72.7789 771.582 72.7798 774.008 73.4533C776.321 73.9838 779.003 75.0176 781.059 76.3934C781.059 76.3934 784.045 77.964 784.86 81.4849C785.775 85.4429 786.504 92.053 785.555 96.1264C784.317 101.437 781.245 105.514 777.514 107.886C775.304 109.291 767.658 108.968 765.1 108.968" stroke="white" stroke-width="5" stroke-linecap="round"/>
<path d="M799.114 84.3295C800.168 79.7475 802.057 75.7065 805.966 73.4471C808.988 72.0657 813.872 74.0201 816.507 77.4566C819.67 82.6112 821.02 94.1206 819.143 99.7935C817.833 103.752 815.349 106.651 811.764 108.385C808.408 110.008 802.373 108.268 800.695 104.948C799.582 102.746 798.188 98.8724 798.06 96.3571C797.883 92.891 798.06 88.3387 799.114 84.3295Z" stroke="white" stroke-width="5" stroke-linecap="round"/>
<path d="M905 75C904.281 77.5127 904 104.503 904 109" stroke="white" stroke-width="5" stroke-linecap="round"/>
<path d="M905 75C909.288 75 914.012 75 918 75" stroke="white" stroke-width="5" stroke-linecap="round"/>
<path d="M905 91C907.968 91 910.936 91 913.904 91C914.477 91 916.818 91 918 91" stroke="white" stroke-width="5" stroke-linecap="round"/>
<path d="M904 109C908.697 109 913.335 109 918 109" stroke="white" stroke-width="5" stroke-linecap="round"/>
<path d="M1029 75C1028.28 77.5127 1028 104.503 1028 109" stroke="white" stroke-width="5" stroke-linecap="round"/>
<path d="M1029 75C1033.29 75 1038.01 75 1042 75" stroke="white" stroke-width="5" stroke-linecap="round"/>
<path d="M1029 91C1031.97 91 1034.94 91 1037.9 91C1038.48 91 1040.82 91 1042 91" stroke="white" stroke-width="5" stroke-linecap="round"/>
<path d="M1028 109C1032.7 109 1037.34 109 1042 109" stroke="white" stroke-width="5" stroke-linecap="round"/>
<path d="M1122 75C1120.56 77.5127 1120 104.503 1120 109" stroke="white" stroke-width="5" stroke-linecap="round"/>
<path d="M1122 75C1125.96 75 1130.32 75 1134 75" stroke="white" stroke-width="5" stroke-linecap="round"/>
<path d="M1122 91C1124.74 91 1127.48 91 1130.22 91C1130.75 91 1132.91 91 1134 91" stroke="white" stroke-width="5" stroke-linecap="round"/>
<path d="M1120 109C1124.7 109 1129.34 109 1134 109" stroke="white" stroke-width="5" stroke-linecap="round"/>
<path d="M933 109C933 106.12 933 78.5477 933 73" stroke="white" stroke-width="5" stroke-linecap="round"/>
<path d="M933 73.984C935.972 72.7789 940.927 72.7798 943.463 73.4533C945.881 73.9838 948.685 75.0176 950.835 76.3934C950.835 76.3934 953.956 77.964 954.808 81.4849C955.765 85.4429 956.527 92.053 955.535 96.1264C954.241 101.437 951.029 105.514 947.128 107.886C944.817 109.291 936.824 108.968 934.15 108.968" stroke="white" stroke-width="5" stroke-linecap="round"/>
<path d="M988 73C989.75 76.4286 990.386 78.6029 992.169 82.2875C995.615 89.4101 999.073 97.1767 1001.42 104.723C1001.71 105.668 1002.14 107.93 1002.76 108.64C1004.3 110.416 1005.6 105.096 1005.8 104.164C1007.44 96.6335 1010.12 88.8858 1012.92 81.6721C1013.54 80.0693 1015.12 75.5714 1016 73" stroke="white" stroke-width="5" stroke-linecap="round"/>
<path d="M1069.4 74.2214C1065.74 73.0259 1061.65 71.8886 1058.6 75.0511C1056.2 77.5416 1055.4 81.1928 1055.4 84.5468C1055.4 87.4109 1057.82 88.5704 1060.16 89.3407C1063.74 90.5224 1067.69 90.5199 1070.57 92.028C1073.35 93.7579 1075 96.734 1075 99.6199C1075 103.049 1073.94 105.349 1070.73 106.811C1064.88 109.48 1055 107.906 1055 99.5277" stroke="white" stroke-width="5" stroke-linecap="round"/>
<path d="M1102.4 74.2214C1098.74 73.0259 1094.65 71.8886 1091.6 75.0511C1089.2 77.5416 1088.4 81.1928 1088.4 84.5468C1088.4 87.4109 1090.82 88.5704 1093.16 89.3407C1096.74 90.5224 1100.69 90.5199 1103.57 92.028C1106.35 93.7579 1108 96.734 1108 99.6199C1108 103.049 1106.94 105.349 1103.73 106.811C1097.88 109.48 1088 107.906 1088 99.5277" stroke="white" stroke-width="5" stroke-linecap="round"/>
<path d="M1151.28 73C1151.28 81.1551 1150.31 89.355 1150.31 97.5951C1150.31 99.183 1149.48 106.672 1150.53 107.8C1152.95 110.424 1164.01 107.944 1167 107.828" stroke="white" stroke-width="5" stroke-linecap="round"/>
<path d="M1242 109C1242.67 107 1243.33 105.947 1244.4 104.028C1247.99 97.5682 1251.85 90.3328 1254.14 83.2945C1254.6 81.8932 1257.28 68.2724 1257.28 74.726C1257.28 79.477 1260.37 85.8362 1261.67 90.4878C1263.31 96.3747 1266.1 103.442 1268 109" stroke="white" stroke-width="5" stroke-linecap="round"/>
<path d="M1248 98C1254.61 98 1256.4 97 1263 97" stroke="white" stroke-width="5" stroke-linecap="round"/>
<path d="M1201 109C1201 99.348 1201 89.7838 1201 80.1733C1201 78.2054 1201 74.9679 1201 73" stroke="white" stroke-width="5" stroke-linecap="round"/>
<path d="M1201 73C1202.54 77.0978 1205.4 81.7024 1208.53 84.7692C1210.58 86.7308 1212.47 88.3334 1214 90" stroke="white" stroke-width="5" stroke-linecap="round"/>
<path d="M1214 90C1215.98 87.7998 1218.26 84.128 1219.24 82.6755C1220.83 80.3202 1224.85 74.7527 1226 73" stroke="white" stroke-width="5" stroke-linecap="round"/>
<path d="M1227 73C1227 76.6493 1227 82.1328 1227 85.8342C1227 89.9636 1227 94.093 1227 98.2225C1227 101.815 1227 105.927 1227 109" stroke="white" stroke-width="5" stroke-linecap="round"/>
<path d="M1282 109C1282 106.12 1282 78.5477 1282 73" stroke="white" stroke-width="5" stroke-linecap="round"/>
<path d="M1282 72.5745C1283.94 71.8709 1287.17 71.8715 1288.82 72.2647C1290.4 72.5744 1292.23 73.178 1293.63 73.9813C1293.63 73.9813 1295.67 74.8982 1296.22 76.9539C1296.85 79.2648 1297.34 83.1241 1296.7 85.5024C1295.85 88.6029 1293.76 90.9834 1291.21 92.3681C1289.71 93.1886 1285.68 92.975 1283.94 92.975" stroke="white" stroke-width="5" stroke-linecap="round"/>
</svg>
