<svg width="1920" height="1080" viewBox="0 0 1920 1080" fill="none" xmlns="http://www.w3.org/2000/svg">
<rect width="1920" height="1080" fill="#111312"/>
<path d="M1485 382.5L1488 390L1486.5 409L1483 416" stroke="white" stroke-width="2" stroke-linecap="round" stroke-linejoin="round"/>
<path d="M1488 392.5L1545 395.5" stroke="white" stroke-width="2" stroke-linecap="round" stroke-linejoin="round"/>
<path d="M1487 406.5L1545 405.5" stroke="white" stroke-width="2" stroke-linecap="round" stroke-linejoin="round"/>
<path d="M1470.5 390.5L1487.5 390" stroke="white" stroke-width="2" stroke-linecap="round" stroke-linejoin="round"/>
<path d="M1470.5 408.5H1486.5" stroke="white" stroke-width="2" stroke-linecap="round" stroke-linejoin="round"/>
<path d="M1463.5 420.5H1479.5" stroke="white" stroke-width="2" stroke-linecap="round" stroke-linejoin="round"/>
<path d="M1463.5 420.5L1455.5 416.5" stroke="white" stroke-width="2" stroke-linecap="round" stroke-linejoin="round"/>
<path d="M1468 392L1470.5 390L1467 377L1460 376.5" stroke="white" stroke-width="2" stroke-linecap="round" stroke-linejoin="round"/>
<path d="M1463.5 420L1470.5 408.5V390" stroke="white" stroke-width="2" stroke-linecap="round" stroke-linejoin="round"/>
<path d="M1397.5 383.5L1401 391.5V403L1396.5 410" stroke="white" stroke-width="2" stroke-linecap="round" stroke-linejoin="round"/>
<path d="M1401 392H1468" stroke="white" stroke-width="2" stroke-linecap="round" stroke-linejoin="round"/>
<path d="M1401 403L1468 406.5" stroke="white" stroke-width="2" stroke-linecap="round" stroke-linejoin="round"/>
<path d="M1456 415L1464 415.5" stroke="white" stroke-width="2" stroke-linecap="round" stroke-linejoin="round"/>
<path d="M1457 381H1465" stroke="white" stroke-width="2" stroke-linecap="round" stroke-linejoin="round"/>
<path d="M1465 381L1468 392V406.5L1464 415.5" stroke="white" stroke-width="2" stroke-linecap="round" stroke-linejoin="round"/>
<path d="M1435.5 496.5L1455 415L1395 410L1392 402V389L1395.5 383L1456.5 381L1460.5 375.5L1481 375L1485 382L1542 386.5L1546 396L1545 405.5L1541.5 412.5L1482.5 416L1480.5 421H1478L1456.5 536L1439 536.5L1435.5 533" stroke="white" stroke-width="3" stroke-linecap="round" stroke-linejoin="round"/>
<path d="M1443.5 434.5L1436.5 413.5" stroke="white" stroke-width="2" stroke-linecap="round" stroke-linejoin="round"/>
<path d="M1458 619.5L1460.5 602.5L1462 573.5V505.5" stroke="white" stroke-width="2" stroke-linecap="round" stroke-linejoin="round"/>
<path d="M1461 602L1465.5 597.5" stroke="white" stroke-width="2" stroke-linecap="round" stroke-linejoin="round"/>
<path d="M1462.5 575L1467.5 571" stroke="white" stroke-width="2" stroke-linecap="round" stroke-linejoin="round"/>
<path d="M1432.5 651.5L1443 620.5" stroke="white" stroke-width="2" stroke-linecap="round" stroke-linejoin="round"/>
<path d="M1468.5 648.5L1458 620.5" stroke="white" stroke-width="2" stroke-linecap="round" stroke-linejoin="round"/>
<path d="M1424 667.5L1432 652" stroke="white" stroke-width="2" stroke-linecap="round" stroke-linejoin="round"/>
<path d="M1411 660L1422.5 643.5" stroke="white" stroke-width="2" stroke-linecap="round" stroke-linejoin="round"/>
<path d="M1402 631.5L1414 621" stroke="white" stroke-width="2" stroke-linecap="round" stroke-linejoin="round"/>
<path d="M1464 665L1469 649" stroke="white" stroke-width="2" stroke-linecap="round" stroke-linejoin="round"/>
<path d="M1450.5 434H1443L1438 440L1434.5 460.5L1435.5 596.5L1438 614L1443 620.5H1457L1463.5 613L1466 597L1468 571.5L1467.5 477" stroke="white" stroke-width="2" stroke-linecap="round" stroke-linejoin="round"/>
<path d="M1405.5 411L1402 422.5L1398.5 461V593L1402 631L1411 660.5L1423.5 668L1463.5 665.5L1475 655.5L1485 620L1489 587.5V464L1486.5 434L1483 417.5" stroke="white" stroke-width="3" stroke-linecap="round" stroke-linejoin="round"/>
<path d="M1421.5 412L1414 436L1411 469.5L1411.5 588.5L1414 621L1422.5 644L1432 651.5L1468 649L1479 640.5" stroke="white" stroke-width="2" stroke-linecap="round" stroke-linejoin="round"/>
<path d="M1399 595L1411.5 588.5" stroke="white" stroke-width="2" stroke-linecap="round" stroke-linejoin="round"/>
<path d="M1399.5 461.5L1410.5 469.5" stroke="white" stroke-width="2" stroke-linecap="round" stroke-linejoin="round"/>
<path d="M1402.5 424.5L1413.5 436" stroke="white" stroke-width="2" stroke-linecap="round" stroke-linejoin="round"/>
<path d="M1465 381L1466.5 377.5" stroke="white" stroke-width="2" stroke-linecap="round" stroke-linejoin="round"/>
<path d="M1468 407L1470.5 409" stroke="white" stroke-width="2" stroke-linecap="round" stroke-linejoin="round"/>
<path d="M1415.5 216.5L1418 230L1425 242.5L1435 250L1448 253L1460 249.5L1468.5 242.5L1475 231.5L1477 218L1474.5 205L1468 194L1459.5 187L1446.5 182.5L1435 185L1425.5 193L1417.5 203.5L1415.5 216.5Z" stroke="white" stroke-width="2" stroke-linecap="round" stroke-linejoin="round"/>
<path d="M1407 214.475L1410.09 230.943L1418.74 246.191L1431.1 255.34L1447.16 259L1461.99 254.73L1472.5 246.191L1480.53 232.773L1483 216.305L1479.91 200.447L1471.88 187.028L1461.37 178.489L1445.31 173L1431.1 176.05L1419.36 185.809L1409.47 198.617L1407 214.475Z" stroke="white" stroke-width="2" stroke-linecap="round" stroke-linejoin="round"/>
<path d="M1397 215.78L1400.5 234.355L1410.28 251.553L1424.27 261.872L1442.45 266L1459.23 261.184L1471.11 251.553L1480.2 236.418L1483 217.844L1479.5 199.957L1470.41 184.823L1458.53 175.191L1440.35 169L1424.27 172.44L1410.98 183.447L1399.8 197.894L1397 215.78Z" stroke="white" stroke-width="3" stroke-linecap="round" stroke-linejoin="round"/>
<path d="M1431.5 176L1424.5 173" stroke="white" stroke-width="2" stroke-linecap="round" stroke-linejoin="round"/>
<path d="M1419.5 186L1411 183" stroke="white" stroke-width="2" stroke-linecap="round" stroke-linejoin="round"/>
<path d="M1409.5 198.5L1400 198" stroke="white" stroke-width="2" stroke-linecap="round" stroke-linejoin="round"/>
<path d="M1407 214.5L1397 215.5" stroke="white" stroke-width="2" stroke-linecap="round" stroke-linejoin="round"/>
<path d="M1410 230.5L1400.5 234.5" stroke="white" stroke-width="2" stroke-linecap="round" stroke-linejoin="round"/>
<path d="M1419 246.5L1410.5 252" stroke="white" stroke-width="2" stroke-linecap="round" stroke-linejoin="round"/>
<path d="M1431 255.5L1424.5 262" stroke="white" stroke-width="2" stroke-linecap="round" stroke-linejoin="round"/>
<path d="M1447 259L1443 266" stroke="white" stroke-width="2" stroke-linecap="round" stroke-linejoin="round"/>
<path d="M1462 255L1459.5 261.5" stroke="white" stroke-width="2" stroke-linecap="round" stroke-linejoin="round"/>
<path d="M429 385.5L426 393L427.5 412L431 419" stroke="white" stroke-width="2" stroke-linecap="round" stroke-linejoin="round"/>
<path d="M426 395.5L369 398.5" stroke="white" stroke-width="2" stroke-linecap="round" stroke-linejoin="round"/>
<path d="M427 409.5L369 408.5" stroke="white" stroke-width="2" stroke-linecap="round" stroke-linejoin="round"/>
<path d="M443.5 393.5L426.5 393" stroke="white" stroke-width="2" stroke-linecap="round" stroke-linejoin="round"/>
<path d="M443.5 411.5H427.5" stroke="white" stroke-width="2" stroke-linecap="round" stroke-linejoin="round"/>
<path d="M450.5 423.5H434.5" stroke="white" stroke-width="2" stroke-linecap="round" stroke-linejoin="round"/>
<path d="M450.5 423.5L458.5 419.5" stroke="white" stroke-width="2" stroke-linecap="round" stroke-linejoin="round"/>
<path d="M446 395L443.5 393L447 380L454 379.5" stroke="white" stroke-width="2" stroke-linecap="round" stroke-linejoin="round"/>
<path d="M450.5 423L443.5 411.5V393" stroke="white" stroke-width="2" stroke-linecap="round" stroke-linejoin="round"/>
<path d="M516.5 386.5L513 394.5V406L517.5 413" stroke="white" stroke-width="2" stroke-linecap="round" stroke-linejoin="round"/>
<path d="M513 395H446" stroke="white" stroke-width="2" stroke-linecap="round" stroke-linejoin="round"/>
<path d="M513 406L446 409.5" stroke="white" stroke-width="2" stroke-linecap="round" stroke-linejoin="round"/>
<path d="M458 418L450 418.5" stroke="white" stroke-width="2" stroke-linecap="round" stroke-linejoin="round"/>
<path d="M457 384H449" stroke="white" stroke-width="2" stroke-linecap="round" stroke-linejoin="round"/>
<path d="M449 384L446 395V409.5L450 418.5" stroke="white" stroke-width="2" stroke-linecap="round" stroke-linejoin="round"/>
<path d="M478.5 499.5L459 418L519 413L522 405V392L518.5 386L457.5 384L453.5 378.5L433 378L429 385L372 389.5L368 399L369 408.5L372.5 415.5L431.5 419L433.5 424H436L457.5 539L475 539.5L478.5 536" stroke="white" stroke-width="3" stroke-linecap="round" stroke-linejoin="round"/>
<path d="M470.5 437.5L477.5 416.5" stroke="white" stroke-width="2" stroke-linecap="round" stroke-linejoin="round"/>
<path d="M456 622.5L453.5 605.5L452 576.5V508.5" stroke="white" stroke-width="2" stroke-linecap="round" stroke-linejoin="round"/>
<path d="M453 605L448.5 600.5" stroke="white" stroke-width="2" stroke-linecap="round" stroke-linejoin="round"/>
<path d="M451.5 578L446.5 574" stroke="white" stroke-width="2" stroke-linecap="round" stroke-linejoin="round"/>
<path d="M481.5 654.5L471 623.5" stroke="white" stroke-width="2" stroke-linecap="round" stroke-linejoin="round"/>
<path d="M445.5 651.5L456 623.5" stroke="white" stroke-width="2" stroke-linecap="round" stroke-linejoin="round"/>
<path d="M490 670.5L482 655" stroke="white" stroke-width="2" stroke-linecap="round" stroke-linejoin="round"/>
<path d="M503 663L491.5 646.5" stroke="white" stroke-width="2" stroke-linecap="round" stroke-linejoin="round"/>
<path d="M512 634.5L500 624" stroke="white" stroke-width="2" stroke-linecap="round" stroke-linejoin="round"/>
<path d="M450 668L445 652" stroke="white" stroke-width="2" stroke-linecap="round" stroke-linejoin="round"/>
<path d="M463.498 437H470.998L475.998 443L479.498 463.5L478.498 599.5L475.998 617L470.998 623.5H456.998L450.498 616L447.998 600L445.998 574.5L446.498 480" stroke="white" stroke-width="2" stroke-linecap="round" stroke-linejoin="round"/>
<path d="M508.5 414L512 425.5L515.5 464V596L512 634L503 663.5L490.5 671L450.5 668.5L439 658.5L429 623L425 590.5V467L427.5 437L431 420.5" stroke="white" stroke-width="3" stroke-linecap="round" stroke-linejoin="round"/>
<path d="M492.5 415L500 439L503 472.5L502.5 591.5L500 624L491.5 647L482 654.5L446 652L435 643.5" stroke="white" stroke-width="2" stroke-linecap="round" stroke-linejoin="round"/>
<path d="M515 598L502.5 591.5" stroke="white" stroke-width="2" stroke-linecap="round" stroke-linejoin="round"/>
<path d="M514.5 464.5L503.5 472.5" stroke="white" stroke-width="2" stroke-linecap="round" stroke-linejoin="round"/>
<path d="M511.5 427.5L500.5 439" stroke="white" stroke-width="2" stroke-linecap="round" stroke-linejoin="round"/>
<path d="M449.002 384L447.502 380.5" stroke="white" stroke-width="2" stroke-linecap="round" stroke-linejoin="round"/>
<path d="M446 410L443.5 412" stroke="white" stroke-width="2" stroke-linecap="round" stroke-linejoin="round"/>
<path d="M487.5 216.5L485 230L478 242.5L468 250L455 253L443 249.5L434.5 242.5L428 231.5L426 218L428.5 205L435 194L443.5 187L456.5 182.5L468 185L477.5 193L485.5 203.5L487.5 216.5Z" stroke="white" stroke-width="2" stroke-linecap="round" stroke-linejoin="round"/>
<path d="M496 214.475L492.911 230.943L484.26 246.191L471.902 255.34L455.837 259L441.008 254.73L430.504 246.191L422.472 232.773L420 216.305L423.089 200.447L431.122 187.028L441.626 178.489L457.691 173L471.902 176.05L483.642 185.809L493.528 198.617L496 214.475Z" stroke="white" stroke-width="2" stroke-linecap="round" stroke-linejoin="round"/>
<path d="M506 215.78L502.504 234.355L492.715 251.553L478.732 261.872L460.553 266L443.772 261.184L431.886 251.553L422.797 236.418L420 217.844L423.496 199.957L432.585 184.823L444.472 175.191L462.65 169L478.732 172.44L492.016 183.447L503.203 197.894L506 215.78Z" stroke="white" stroke-width="3" stroke-linecap="round" stroke-linejoin="round"/>
<path d="M471.5 176L478.5 173" stroke="white" stroke-width="2" stroke-linecap="round" stroke-linejoin="round"/>
<path d="M483.5 186L492 183" stroke="white" stroke-width="2" stroke-linecap="round" stroke-linejoin="round"/>
<path d="M493.5 198.5L503 198" stroke="white" stroke-width="2" stroke-linecap="round" stroke-linejoin="round"/>
<path d="M496 214.5L506 215.5" stroke="white" stroke-width="2" stroke-linecap="round" stroke-linejoin="round"/>
<path d="M493 230.5L502.5 234.5" stroke="white" stroke-width="2" stroke-linecap="round" stroke-linejoin="round"/>
<path d="M484 246.5L492.5 252" stroke="white" stroke-width="2" stroke-linecap="round" stroke-linejoin="round"/>
<path d="M472 255.5L478.5 262" stroke="white" stroke-width="2" stroke-linecap="round" stroke-linejoin="round"/>
<path d="M456 259L460 266" stroke="white" stroke-width="2" stroke-linecap="round" stroke-linejoin="round"/>
<path d="M441 255L443.5 261.5" stroke="white" stroke-width="2" stroke-linecap="round" stroke-linejoin="round"/>
<path d="M357.596 416.525C358.162 415.92 358.13 414.971 357.526 414.405C356.921 413.839 355.971 413.87 355.405 414.475L357.596 416.525ZM359.001 611.5L356.266 594.397L342.821 605.317L359.001 611.5ZM355.405 414.475C343.061 427.664 318.405 465.408 318.001 511.487L321.001 511.513C321.396 466.392 345.606 429.336 357.596 416.525L355.405 414.475ZM318.001 511.487C317.671 549.093 335.444 582.89 349.278 601.906L351.704 600.141C338.068 581.398 320.678 548.226 321.001 511.513L318.001 511.487Z" fill="#3CDB4C"/>
<path d="M460 159L460.999 140.999" stroke="#3CDB4C" stroke-width="3" stroke-linecap="round" stroke-linejoin="round"/>
<path d="M488 167L498 152" stroke="#3CDB4C" stroke-width="3" stroke-linecap="round" stroke-linejoin="round"/>
<path d="M512 193L527.5 185" stroke="#3CDB4C" stroke-width="3" stroke-linecap="round" stroke-linejoin="round"/>
<path d="M514.002 229.001L529.501 232.501" stroke="#3CDB4C" stroke-width="3" stroke-linecap="round" stroke-linejoin="round"/>
<path d="M501.5 259.001L514 268.5" stroke="#3CDB4C" stroke-width="3" stroke-linecap="round" stroke-linejoin="round"/>
<path d="M473.5 275L478.499 290" stroke="#3CDB4C" stroke-width="3" stroke-linecap="round" stroke-linejoin="round"/>
<path d="M442 273L436 289" stroke="#3CDB4C" stroke-width="3" stroke-linecap="round" stroke-linejoin="round"/>
<path d="M415 248.5L401 258" stroke="#3CDB4C" stroke-width="3" stroke-linecap="round" stroke-linejoin="round"/>
<path d="M409 216L395 215" stroke="#3CDB4C" stroke-width="3" stroke-linecap="round" stroke-linejoin="round"/>
<path d="M421.999 178.999L410.499 168" stroke="#3CDB4C" stroke-width="3" stroke-linecap="round" stroke-linejoin="round"/>
<path d="M913.5 632L918 622.5" stroke="white" stroke-width="2" stroke-linecap="round" stroke-linejoin="round"/>
<path d="M909 595.5L915.5 587.5" stroke="white" stroke-width="2" stroke-linecap="round" stroke-linejoin="round"/>
<path d="M1001 469L1008.5 460" stroke="white" stroke-width="2" stroke-linecap="round" stroke-linejoin="round"/>
<path d="M998 435L1005.5 417.5" stroke="white" stroke-width="2" stroke-linecap="round" stroke-linejoin="round"/>
<path d="M916 468L909.5 459" stroke="white" stroke-width="2" stroke-linecap="round" stroke-linejoin="round"/>
<path d="M918.5 434L913 419" stroke="white" stroke-width="2" stroke-linecap="round" stroke-linejoin="round"/>
<path d="M949 419.5L948.5 537.5H969L966 419V414L1037 409.5L1037.5 402.5V390.5L1037 382L966.5 377.5L965 372L947.5 372.5L946.5 378L877.5 382L876 389L876.5 402.5L877 410.5L947 414V419.5H949Z" stroke="white" stroke-width="3" stroke-linecap="round" stroke-linejoin="round"/>
<path d="M923.5 660.5L926.5 645.5" stroke="white" stroke-width="2" stroke-linecap="round" stroke-linejoin="round"/>
<path d="M935.5 670.5L938.5 654.5" stroke="white" stroke-width="2" stroke-linecap="round" stroke-linejoin="round"/>
<path d="M981 671L977.5 655" stroke="white" stroke-width="2" stroke-linecap="round" stroke-linejoin="round"/>
<path d="M994.5 660.5L989 647.5" stroke="white" stroke-width="2" stroke-linecap="round" stroke-linejoin="round"/>
<path d="M1003.5 633.5L997 622" stroke="white" stroke-width="2" stroke-linecap="round" stroke-linejoin="round"/>
<path d="M1008 595L1001 588.5" stroke="white" stroke-width="2" stroke-linecap="round" stroke-linejoin="round"/>
<path d="M938.5 654.5L949 624" stroke="white" stroke-width="2" stroke-linecap="round" stroke-linejoin="round"/>
<path d="M977.5 655.5L966.5 624" stroke="white" stroke-width="2" stroke-linecap="round" stroke-linejoin="round"/>
<path d="M916 411.5L912.5 421L909 461.5V593L913.5 632L923 660.5L935.5 670.5L981 671L994.5 660.5L1004 632L1008 595L1008.5 459.5L1005.5 418.5L1002 411.5" stroke="white" stroke-width="3" stroke-linecap="round" stroke-linejoin="round"/>
<path d="M926 412.5L918.5 434L916 468.5L915.5 589L918 622.5L927 646L939 654.5L977.5 655L988.5 647L996.5 622.5L1000.5 589.5L1001 469.5L998 434.5L990 412.5" stroke="white" stroke-width="2" stroke-linecap="round" stroke-linejoin="round"/>
<path d="M949 434L944.5 439L940.5 456.5L939.5 477V576.5L940 598.5L944 617L949 624H966L971 617.5L974.5 598L976.5 574.5L977 476.5L976 456L971.5 438.5L966 433.5" stroke="white" stroke-width="2" stroke-linecap="round" stroke-linejoin="round"/>
<path d="M876.5 392L947 389" stroke="white" stroke-width="2" stroke-linecap="round" stroke-linejoin="round"/>
<path d="M876.5 402.5L947 405" stroke="white" stroke-width="2" stroke-linecap="round" stroke-linejoin="round"/>
<path d="M947 377.5V389V405V414" stroke="white" stroke-width="2" stroke-linecap="round" stroke-linejoin="round"/>
<path d="M966 389.5L1037.5 390.5" stroke="white" stroke-width="2" stroke-linecap="round" stroke-linejoin="round"/>
<path d="M966 404.5L1037 402" stroke="white" stroke-width="2" stroke-linecap="round" stroke-linejoin="round"/>
<path d="M966 377.5V414.5" stroke="white" stroke-width="2" stroke-linecap="round" stroke-linejoin="round"/>
<path d="M948.5 418.5H965.5" stroke="white" stroke-width="2" stroke-linecap="round" stroke-linejoin="round"/>
<path d="M928.976 203.837L927 216.089L929.371 229.13L936.485 239.801L947.156 246.915L960.198 249.286L972.054 247.31L983.515 239.801L991.024 228.34L993 215.693L990.629 202.651L983.12 192.376L972.054 185.657L959.407 183.286L946.76 186.053L936.485 192.771L928.976 203.837Z" stroke="white" stroke-width="2" stroke-linecap="round" stroke-linejoin="round"/>
<path d="M921.699 201.193L919.287 216.468L922.182 232.728L930.866 246.032L943.893 254.901L959.814 257.857L974.288 255.393L988.279 246.032L997.446 231.742L999.859 215.975L996.964 199.715L987.797 186.904L974.288 178.528L958.849 175.571L943.41 179.02L930.866 187.397L921.699 201.193Z" stroke="white" stroke-width="2" stroke-linecap="round" stroke-linejoin="round"/>
<path d="M917.643 201.024L915 217.731L918.172 235.515L927.688 250.066L941.962 259.766L959.407 263L975.267 260.305L990.598 250.066L1000.64 234.437L1003.29 217.192L1000.11 199.407L990.069 185.395L975.267 176.234L958.35 173L941.433 176.772L927.688 185.934L917.643 201.024Z" stroke="white" stroke-width="3" stroke-linecap="round" stroke-linejoin="round"/>
<path d="M918.428 236L922.285 232.571" stroke="white" stroke-width="2" stroke-linecap="round" stroke-linejoin="round"/>
<path d="M915 218.429L919.286 216.286" stroke="white" stroke-width="2" stroke-linecap="round" stroke-linejoin="round"/>
<path d="M917.57 200.856L921.856 201.285" stroke="white" stroke-width="2" stroke-linecap="round" stroke-linejoin="round"/>
<path d="M927.857 185.856L930.857 187.142" stroke="white" stroke-width="2" stroke-linecap="round" stroke-linejoin="round"/>
<path d="M941.143 177.285L943.714 178.999" stroke="white" stroke-width="2" stroke-linecap="round" stroke-linejoin="round"/>
<path d="M958.715 173L959.143 175.571" stroke="white" stroke-width="2" stroke-linecap="round" stroke-linejoin="round"/>
<path d="M975 176.429L974.143 178.143" stroke="white" stroke-width="2" stroke-linecap="round" stroke-linejoin="round"/>
<path d="M990 185L987.857 187.143" stroke="white" stroke-width="2" stroke-linecap="round" stroke-linejoin="round"/>
<path d="M999.857 199.571L996.857 200" stroke="white" stroke-width="2" stroke-linecap="round" stroke-linejoin="round"/>
<path d="M1003.29 217.142L999.857 215.856" stroke="white" stroke-width="2" stroke-linecap="round" stroke-linejoin="round"/>
<path d="M1000.71 234.715L997.715 231.715" stroke="white" stroke-width="2" stroke-linecap="round" stroke-linejoin="round"/>
<path d="M990.429 250.142L988.715 245.856" stroke="white" stroke-width="2" stroke-linecap="round" stroke-linejoin="round"/>
<path d="M975 260.428L974.143 255.714" stroke="white" stroke-width="2" stroke-linecap="round" stroke-linejoin="round"/>
<path d="M959.572 263L960.001 257.857" stroke="white" stroke-width="2" stroke-linecap="round" stroke-linejoin="round"/>
<path d="M942 260L943.714 254.857" stroke="white" stroke-width="2" stroke-linecap="round" stroke-linejoin="round"/>
<path d="M927.43 250.142L930.858 245.856" stroke="white" stroke-width="2" stroke-linecap="round" stroke-linejoin="round"/>
<path d="M860.97 416.3C861.136 415.488 860.612 414.696 859.8 414.53C858.989 414.365 858.196 414.888 858.031 415.7L860.97 416.3ZM867 627L870.702 610.08L854.197 615.334L867 627ZM858.031 415.7C853.033 440.189 843.294 497.353 844.501 529.556L847.499 529.444C846.307 497.647 855.968 440.811 860.97 416.3L858.031 415.7ZM844.501 529.556C845.491 555.957 854.633 591.914 861.468 614.569L864.34 613.702C857.514 591.077 848.474 555.433 847.499 529.444L844.501 529.556Z" fill="#3CDB4C"/>
<path d="M956 157.001L956.999 139" stroke="#3CDB4C" stroke-width="3" stroke-linecap="round" stroke-linejoin="round"/>
<path d="M984 165.001L994 150.001" stroke="#3CDB4C" stroke-width="3" stroke-linecap="round" stroke-linejoin="round"/>
<path d="M1008 191.001L1023.5 183.001" stroke="#3CDB4C" stroke-width="3" stroke-linecap="round" stroke-linejoin="round"/>
<path d="M1010 227.002L1025.5 230.502" stroke="#3CDB4C" stroke-width="3" stroke-linecap="round" stroke-linejoin="round"/>
<path d="M997.5 257.001L1010 266.501" stroke="#3CDB4C" stroke-width="3" stroke-linecap="round" stroke-linejoin="round"/>
<path d="M969.5 273.001L974.499 288.001" stroke="#3CDB4C" stroke-width="3" stroke-linecap="round" stroke-linejoin="round"/>
<path d="M938 271.001L932 287.001" stroke="#3CDB4C" stroke-width="3" stroke-linecap="round" stroke-linejoin="round"/>
<path d="M911 246.501L897 256.001" stroke="#3CDB4C" stroke-width="3" stroke-linecap="round" stroke-linejoin="round"/>
<path d="M905 214.001L891 213.001" stroke="#3CDB4C" stroke-width="3" stroke-linecap="round" stroke-linejoin="round"/>
<path d="M917.999 177L906.499 166.001" stroke="#3CDB4C" stroke-width="3" stroke-linecap="round" stroke-linejoin="round"/>
<path d="M230.4 781.562C230.4 794.389 230.4 807.216 230.4 820.044C230.4 820.762 230.789 828.301 229.571 824.647" stroke="white" stroke-width="3" stroke-linecap="round"/>
<path d="M213 779.905C224.876 779.905 236.925 779.076 248.628 779.076" stroke="white" stroke-width="3" stroke-linecap="round"/>
<path d="M239.514 797.305C238.095 799.078 238.685 802.23 238.685 804.301C238.685 810.071 238.685 815.84 238.685 821.609C238.685 826.755 240.398 817.402 241.217 815.901C243.759 811.241 247.029 812.731 248.26 816.776C248.873 818.793 249.976 820.935 250.239 823.036C250.357 823.983 250.285 827.444 250.285 824.647" stroke="white" stroke-width="3" stroke-linecap="round"/>
<path d="M256.086 817.19C256.58 821.633 262.714 819.178 262.714 815.165C262.714 811.325 261.074 810.47 258.572 812.034C252.603 815.765 260.464 832.228 262.714 825.476" stroke="white" stroke-width="3" stroke-linecap="round"/>
<path d="M284.257 813.048C284.257 822.462 285.009 832.134 284.073 841.495C283.929 842.93 283.826 845.577 282.6 846.191" stroke="white" stroke-width="3" stroke-linecap="round"/>
<path d="M283.428 813.877C283.428 807.639 293.684 811.096 293.371 816.73C293.209 819.652 284.974 828.569 282.6 823.819" stroke="white" stroke-width="3" stroke-linecap="round"/>
<path d="M298.343 792.333C299.583 803.031 300 814.674 300 825.476" stroke="white" stroke-width="3" stroke-linecap="round"/>
<path d="M317.399 813.048C308.834 804.987 307.503 824.597 312.428 823.819C315.936 823.265 316.09 816.585 316.387 814.245C316.709 811.703 317.073 817.594 317.215 818.48C317.39 819.575 317.93 828.326 319.056 823.819" stroke="white" stroke-width="3" stroke-linecap="round"/>
<path d="M324.855 813.048C324.855 816.822 326.953 823.237 328.998 826.305" stroke="white" stroke-width="3" stroke-linecap="round"/>
<path d="M334.801 810.562C331.273 822.911 329.596 835.525 326.516 847.847" stroke="white" stroke-width="3" stroke-linecap="round"/>
<path d="M341.428 821.333C341.939 825.421 347.767 815.835 347.919 815.303C348.872 811.967 344.776 809.986 342.717 812.633C338.057 818.625 345.395 832.959 349.714 822.162" stroke="white" stroke-width="3" stroke-linecap="round"/>
<path d="M356.341 812.219C356.341 815.912 356.266 819.837 357.17 823.451C357.617 825.237 357.139 819.768 357.17 817.927C357.232 814.25 357.533 810.532 361.589 809.273C362.573 808.968 366.714 809.519 364.627 810.562" stroke="white" stroke-width="3" stroke-linecap="round"/>
<path d="M391.141 811.39C391.141 807.255 391.531 819.656 391.923 823.773C391.972 824.288 391.964 819.12 392.153 817.835C392.539 815.221 393.812 813.875 395.283 811.851C398.623 807.26 402.216 816.22 402.556 818.295C402.848 820.073 402.741 828.497 402.741 822.162" stroke="white" stroke-width="3" stroke-linecap="round"/>
<path d="M410.199 818.019C410.764 822.538 418.768 816.87 418.439 813.416C417.903 807.785 413.489 811.555 412.501 814.521C410.635 820.117 412.642 830.476 420.142 825.476" stroke="white" stroke-width="3" stroke-linecap="round"/>
<path d="M426.771 819.676C435.939 819.676 429.808 804.618 426.956 812.035C425.348 816.216 423.243 830.555 431.743 826.305" stroke="white" stroke-width="3" stroke-linecap="round"/>
<path d="M444.999 814.704C444.999 813.007 443.829 812.219 442.099 812.219C438.296 812.219 439.199 817.78 439.199 820.228C439.199 822.507 438.574 825.814 441.685 826.258C443.841 826.566 445.946 825.949 446.656 823.819" stroke="white" stroke-width="3" stroke-linecap="round"/>
<path d="M447.484 793.162C446.46 803.256 446.655 814.703 449.141 824.648" stroke="white" stroke-width="3" stroke-linecap="round"/>
<path d="M462.397 813.876C459.731 811.506 455.102 811.799 454.94 816.178C454.776 820.614 456.554 819.522 460.556 819.676C462.713 819.759 463.429 825.015 462.213 826.12C460.139 828.006 455.643 825.929 454.94 823.819" stroke="white" stroke-width="3" stroke-linecap="round"/>
<path d="M489.742 789.02C489.902 800.355 491.399 811.716 491.399 822.991" stroke="white" stroke-width="3" stroke-linecap="round"/>
<path d="M485.598 805.591C488.768 805.591 491.588 805.795 494.712 806.419" stroke="white" stroke-width="3" stroke-linecap="round"/>
<path d="M504.654 809.733C493.798 810.073 501.853 827.14 506.312 820.321C509.629 815.247 505.73 807.359 499.683 811.391" stroke="white" stroke-width="3" stroke-linecap="round"/>
<path d="M527.855 813.048V844.533" stroke="white" stroke-width="3" stroke-linecap="round"/>
<path d="M524.543 813.048C524.543 807.425 536.539 806.237 537.616 812.219C538.846 819.054 533.853 819.676 528.686 819.676" stroke="white" stroke-width="3" stroke-linecap="round"/>
<path d="M542.771 809.733C542.771 811.432 542.628 821.687 544.843 821.195C547.305 820.648 549.121 815.144 549.354 813.048C550.044 806.833 549.654 814.555 550.044 817.191C550.468 820.052 550.128 820.969 552.714 819.676" stroke="white" stroke-width="3" stroke-linecap="round"/>
<path d="M556.027 793.162C556.143 801.988 556.856 810.805 556.856 819.63C556.856 820.423 556.643 824.032 557.684 822.991" stroke="white" stroke-width="3" stroke-linecap="round"/>
<path d="M565.141 793.99V822.99" stroke="white" stroke-width="3" stroke-linecap="round"/>
<path d="M594.97 813.048C590.399 811.016 587.472 816.456 589.999 820.321C591.729 822.968 594.095 820.244 595.799 819.676" stroke="white" stroke-width="3" stroke-linecap="round"/>
<path d="M596.625 793.99C596.625 804.511 598.282 814.961 598.282 825.476" stroke="white" stroke-width="3" stroke-linecap="round"/>
<path d="M609.885 813.047C600.112 808.448 599.781 823.581 608.964 824.601C615.893 825.371 613.736 807.166 604.913 813.047" stroke="white" stroke-width="3" stroke-linecap="round"/>
<path d="M617.34 813.048C617.34 815.187 622.01 824.351 622.311 821.334C622.503 819.412 623.055 814.882 624.429 813.508C625.894 812.043 627.669 817.425 628.111 818.388C629.714 821.876 630.049 827.262 631.241 820.505C631.728 817.746 632.644 814.965 633.037 812.219C633.344 810.069 633.083 809.618 633.083 812.219" stroke="white" stroke-width="3" stroke-linecap="round"/>
<path d="M638.883 813.876C638.94 815.35 639.543 824.744 639.711 819.86C639.82 816.698 640.587 811.495 644.269 811.114C648.625 810.664 647.714 815.184 648.411 817.973C648.673 819.02 649.792 824.026 647.997 821.333" stroke="white" stroke-width="3" stroke-linecap="round"/>
<path d="M672.028 793.99C672.028 803.335 672.028 812.679 672.028 822.023C672.028 823.341 672.326 824.084 671.199 824.647" stroke="white" stroke-width="3" stroke-linecap="round"/>
<path d="M665.398 806.419C667.981 808.715 674.049 805.886 676.998 805.591" stroke="white" stroke-width="3" stroke-linecap="round"/>
<path d="M681.969 814.705C682.193 817.172 683.529 819.429 684.408 821.702C685.516 824.564 685.444 826.006 686.572 822.622C687.898 818.645 688.514 809.799 691.543 816.408C692.572 818.652 696.517 827.489 697.896 821.149C698.588 817.965 702.461 805.345 700.197 815.534" stroke="white" stroke-width="3" stroke-linecap="round"/>
<path d="M711.796 812.219C703.986 815.894 711.625 832.175 715.755 821.333C718.199 814.917 711.909 809.508 708.482 816.362" stroke="white" stroke-width="3" stroke-linecap="round"/>
<path d="M742.454 810.562C738.707 809.363 734.997 810.165 734.997 814.705C734.997 819.333 737.556 817.875 741.441 818.019C746.031 818.189 741.384 822.058 740.336 822.806C736.994 825.194 734.168 826.388 734.168 821.333" stroke="white" stroke-width="3" stroke-linecap="round"/>
<path d="M750.742 811.391C753.051 818.893 753.13 828.224 753.228 836.064C753.299 841.776 753.228 842.457 753.228 836.248" stroke="white" stroke-width="3" stroke-linecap="round"/>
<path d="M751.57 813.047C751.57 810.283 754.071 809.438 756.588 809.825C760.329 810.401 761.36 814.771 760.5 818.019C759.679 821.123 752.399 825.834 752.399 820.504" stroke="white" stroke-width="3" stroke-linecap="round"/>
<path d="M768.14 817.19C769.598 816.461 777.367 811.341 773.111 809.089C770.737 807.831 769.319 809.584 768.508 811.436C767.193 814.444 766.228 818.858 768.554 821.701C770.734 824.366 772.087 823.577 773.111 820.504" stroke="white" stroke-width="3" stroke-linecap="round"/>
<path d="M783.883 810.562C781.94 812.427 780.607 812.842 780.569 815.625C780.537 817.977 779.742 821.889 782.272 823.312C785.123 824.916 788.026 823.64 788.026 820.504" stroke="white" stroke-width="3" stroke-linecap="round"/>
<path d="M792.996 812.219C794.412 815.228 793.825 825.487 793.825 822.162" stroke="white" stroke-width="3" stroke-linecap="round"/>
<path d="M792.996 802.276V803.105" stroke="white" stroke-width="3" stroke-linecap="round"/>
<path d="M804.598 826.305C804.598 816.806 803.179 807.206 805.427 797.857C806.087 795.114 809.156 789.85 811.227 793.991" stroke="white" stroke-width="3" stroke-linecap="round"/>
<path d="M802.941 812.219C804.762 810.581 807.259 810.311 809.57 809.733" stroke="white" stroke-width="3" stroke-linecap="round"/>
<path d="M817.027 813.048V822.991" stroke="white" stroke-width="3" stroke-linecap="round"/>
<path d="M817.027 804.762H817.856" stroke="white" stroke-width="3" stroke-linecap="round"/>
<path d="M829.453 812.219C826.841 812.219 825.468 811.488 825.126 814.336C824.799 817.065 823.789 820.909 824.666 823.635C825.775 827.087 829.438 824.244 831.11 822.99" stroke="white" stroke-width="3" stroke-linecap="round"/>
<path d="M849.34 788.19C849.34 798.417 850.168 808.623 850.168 818.847" stroke="white" stroke-width="3" stroke-linecap="round"/>
<path d="M858.453 816.362C861.218 816.362 867.191 815.165 865.726 810.562C864.919 808.024 861.596 808.786 860.755 810.562C857.512 817.407 859.415 825.396 867.567 820.505" stroke="white" stroke-width="3" stroke-linecap="round"/>
<path d="M875.027 810.562C875.027 806.947 877.599 823.664 879.354 820.504C880.539 818.372 883.549 809.376 884.142 810.562" stroke="white" stroke-width="3" stroke-linecap="round"/>
<path d="M892.427 816.362C896.387 817.993 898.975 811.469 895.926 809.273C892.517 806.819 892.288 810.05 891.414 812.864C890.811 814.807 889.464 822.449 891.599 823.635C893.79 824.853 897.503 823.505 898.227 821.333" stroke="white" stroke-width="3" stroke-linecap="round"/>
<path d="M905.684 808.904C905.684 813.429 906.512 817.887 906.512 822.392C906.512 824.34 906.468 818.494 906.512 816.546C906.563 814.315 911.484 806.205 911.484 810.561" stroke="white" stroke-width="3" stroke-linecap="round"/>
<path d="M920.597 808.076C919.393 808.461 914.318 810.285 916.639 812.863C918.025 814.404 922.588 813.382 923.727 815.533C925.174 818.265 921.434 820.166 919.4 820.689C915.96 821.573 916.173 820.778 913.969 819.676" stroke="white" stroke-width="3" stroke-linecap="round"/>
<path d="M948.77 789.362C947.438 788.196 947.941 801.917 947.941 802.251C947.941 804.302 946.345 821.293 948.77 822.505" stroke="white" stroke-width="3" stroke-linecap="round"/>
<path d="M938.825 805.934C937.82 804.785 940.148 804.767 941.126 804.461C943.441 803.738 945.803 803.151 948.123 802.435C948.916 802.191 951.815 801.221 952.91 801.239C955.436 801.279 952.268 801.884 953.739 802.619" stroke="white" stroke-width="3" stroke-linecap="round"/>
<path d="M962.026 810.904C956.677 809.407 954.49 817.433 955.582 821.676C956.241 824.242 961.075 825.395 962.394 822.965C963.741 820.483 967.327 813.85 963.499 812.377C960.958 811.4 957.055 808.96 957.055 813.39" stroke="white" stroke-width="3" stroke-linecap="round"/>
<path d="M995.997 807.59C992.888 807.59 987.711 807.218 987.711 811.733C987.711 815.26 991.768 814.805 994.8 815.094C1006.67 816.224 986.883 829.598 986.883 820.848" stroke="white" stroke-width="3" stroke-linecap="round"/>
<path d="M1010.08 809.247C1006.02 805.426 1002.73 812.546 1002.62 816.336C1002.5 820.649 1006.41 822.231 1010.45 821.584C1015.13 820.834 1017.03 811.627 1013.76 808.557C1011.86 806.764 1007.38 806.785 1006.77 809.247" stroke="white" stroke-width="3" stroke-linecap="round"/>
<path d="M1020.86 791.02C1020.86 801.796 1021.68 812.554 1021.68 823.334" stroke="white" stroke-width="3" stroke-linecap="round"/>
<path d="M1029.14 809.905C1029.14 813.302 1030.74 815.397 1032.09 818.467C1032.46 819.319 1033.67 825.809 1034.3 822.978C1035.24 818.712 1036.12 814.494 1037.24 810.273C1037.77 808.297 1037.43 811.72 1037.43 812.391" stroke="white" stroke-width="3" stroke-linecap="round"/>
<path d="M1044.05 815.705C1047.51 817.274 1054.68 813.619 1052.16 809.076C1049.86 804.952 1045.48 808.206 1044.51 811.102C1043.33 814.646 1042.27 818.803 1045.39 821.919C1048.78 825.309 1052.41 824.305 1054.83 820.676" stroke="white" stroke-width="3" stroke-linecap="round"/>
<path d="M1078.85 789.848C1078.18 790.684 1078.02 791.439 1078.02 792.517C1078.02 800.092 1078.38 807.745 1078.85 815.303C1078.92 816.408 1080.7 821.43 1078.85 820.505" stroke="white" stroke-width="3" stroke-linecap="round"/>
<path d="M1071.39 808.905C1076.36 807.702 1081.37 806.938 1086.31 805.591" stroke="white" stroke-width="3" stroke-linecap="round"/>
<path d="M1092.11 790.676C1092.26 800.466 1092.56 810.311 1093.77 819.952C1093.88 820.865 1093.77 818.111 1093.77 817.19C1093.77 814.544 1094.68 813.309 1095.79 810.976C1097.08 808.275 1100.18 805.378 1101.59 809.825C1102.59 812.957 1102.05 822.963 1102.05 819.676" stroke="white" stroke-width="3" stroke-linecap="round"/>
<path d="M1112.82 814.704C1120.06 814.704 1114.5 801.396 1110.98 808.076C1107.74 814.234 1108.41 828.371 1117.8 821.333" stroke="white" stroke-width="3" stroke-linecap="round"/>
<path d="M1140.17 813.248C1141.56 823.943 1141.83 856.348 1141.83 845.562" stroke="white" stroke-width="3" stroke-linecap="round"/>
<path d="M1138.51 813.247C1138.51 809.877 1141.2 809.304 1144.31 808.322C1150.35 806.415 1151.68 812.845 1151.68 817.759C1151.68 823.529 1141 824.593 1141 819.876" stroke="white" stroke-width="3" stroke-linecap="round"/>
<path d="M1157.57 808.448C1157.57 811.013 1157.27 822.755 1161.71 821.521C1166.21 820.27 1167.18 813.721 1167.46 809.875C1167.69 806.779 1166.68 805.934 1166.68 809.783C1166.68 814.222 1167.78 818.359 1169.17 822.534" stroke="white" stroke-width="3" stroke-linecap="round"/>
<path d="M1175.8 807.619C1175.99 806.037 1185.32 805.905 1186.38 806.146C1190.24 807.016 1182.53 813.1 1181.27 815.03C1180.87 815.645 1177.4 821.038 1179.57 821.658C1182.58 822.519 1185.91 822.533 1189.05 822.533" stroke="white" stroke-width="3" stroke-linecap="round"/>
<path d="M1194.02 807.791C1196.38 807.791 1199.31 807.359 1201.57 807.975C1202.94 808.349 1198.87 816.774 1198.35 818.378C1196.08 825.432 1202.08 822.705 1206.45 822.705" stroke="white" stroke-width="3" stroke-linecap="round"/>
<path d="M1212.25 784.591C1212.25 796.757 1213.08 808.952 1213.08 821.048" stroke="white" stroke-width="3" stroke-linecap="round"/>
<path d="M1222.2 815.247C1225.65 815.247 1229.58 814.295 1228.78 809.493C1228.33 806.811 1223.72 807.324 1222.61 809.171C1217.46 817.751 1225.32 823.977 1232.97 819.39" stroke="white" stroke-width="3" stroke-linecap="round"/>
<path d="M1264.45 806.962C1247.51 809.547 1260.22 828.676 1265.28 818.562" stroke="white" stroke-width="3" stroke-linecap="round"/>
<path d="M1266.94 806.79V820.876" stroke="white" stroke-width="3" stroke-linecap="round"/>
<path d="M1272.74 807.791C1272.74 811.854 1274.4 815.544 1274.4 819.667C1274.4 823.77 1274.85 811.391 1276.05 807.469C1277.15 803.916 1281.08 808.129 1281.85 809.816C1283.27 812.917 1282.68 816.887 1282.68 820.219" stroke="white" stroke-width="3" stroke-linecap="round"/>
<path d="M1296.77 807.619C1296.64 806.595 1294.35 806.328 1293.64 806.975C1291.68 808.732 1291.08 815.635 1292.16 817.93C1294.72 823.352 1300.21 820.488 1301.74 815.905" stroke="white" stroke-width="3" stroke-linecap="round"/>
<path d="M1299.25 788.562C1300.81 799.808 1301.74 822.533 1301.74 822.533" stroke="white" stroke-width="3" stroke-linecap="round"/>
<path d="M1328.4 804.962C1328.1 807.178 1327.19 825.827 1332.54 818.956C1333.69 817.482 1334.89 815.336 1335.39 813.524C1335.56 812.942 1335.67 808.368 1336.27 808.368C1337.31 808.368 1337.51 815.534 1337.51 816.562C1337.51 820.29 1337.15 820.795 1340.82 819.876" stroke="white" stroke-width="3" stroke-linecap="round"/>
<path d="M1344.96 809.933C1344.96 812.285 1346.33 822.644 1346.58 818.909C1346.77 815.925 1345.61 807.917 1348.69 806.204C1351.56 804.611 1353.2 807.467 1354.08 809.749C1355 812.139 1355 822.062 1355 819.5" stroke="white" stroke-width="3" stroke-linecap="round"/>
<path d="M1360.71 787.733C1360.85 798.511 1361.54 809.269 1361.54 820.048" stroke="white" stroke-width="3" stroke-linecap="round"/>
<path d="M1376.45 806.79C1363.62 806.79 1371.79 828.005 1379.58 818.39C1381.43 816.11 1384.37 808.072 1381.33 805.685C1378.3 803.303 1373.74 806.639 1371.48 808.447" stroke="white" stroke-width="3" stroke-linecap="round"/>
<path d="M1397.16 806.619C1391.43 801.524 1391.46 815.222 1392.61 818.035C1394.62 822.955 1398.53 819.937 1399.65 816.562" stroke="white" stroke-width="3" stroke-linecap="round"/>
<path d="M1404.62 788.391C1405.61 799.431 1404.72 810.576 1406.28 821.533" stroke="white" stroke-width="3" stroke-linecap="round"/>
<path d="M1405.45 811.591C1407.17 809.878 1413.74 800.603 1413.74 804.962" stroke="white" stroke-width="3" stroke-linecap="round"/>
<path d="M1405.45 811.591C1409.99 811.591 1411.82 816.036 1413.74 819.876" stroke="white" stroke-width="3" stroke-linecap="round"/>
<path d="M1440.25 785.076C1440.25 794.769 1438.3 806.328 1440.67 815.779C1440.99 817.075 1442.06 819.95 1440.25 819.047" stroke="white" stroke-width="3" stroke-linecap="round"/>
<path d="M1436.94 809.105C1439.97 808.246 1443.01 807.431 1446.05 806.619" stroke="white" stroke-width="3" stroke-linecap="round"/>
<path d="M1448.54 790.048C1448.54 799.322 1450.2 808.487 1450.2 817.759C1450.2 822.14 1450.55 813.637 1450.84 812.419C1451.51 809.597 1455.56 804.442 1457.61 809.565C1458.42 811.598 1459.31 814.172 1459.31 816.378C1459.31 816.92 1458.48 820.141 1458.48 819.048" stroke="white" stroke-width="3" stroke-linecap="round"/>
<path d="M1470.08 813.248C1473.62 812.894 1473.96 809.686 1473.3 806.711C1472.26 802.028 1466.59 806.145 1466.12 809.105C1465.59 812.406 1465.19 817.29 1468.42 819.37C1471.27 821.201 1474.64 817.209 1476.71 815.734" stroke="white" stroke-width="3" stroke-linecap="round"/>
<path d="M1504.88 806.447C1502.8 806.384 1499.9 805.092 1498.71 807.46C1497.26 810.37 1497.35 815.067 1499.08 817.863C1500.32 819.85 1504.03 818.928 1504.88 817.219" stroke="white" stroke-width="3" stroke-linecap="round"/>
<path d="M1504.88 789.876C1505.75 798.668 1506.54 807.548 1506.54 816.39C1506.54 817.503 1506.91 817.974 1507.36 818.876" stroke="white" stroke-width="3" stroke-linecap="round"/>
<path d="M1518.14 805.619C1514.74 807.927 1510.18 814.649 1515.01 818.047C1518.41 820.438 1520.85 821.431 1522.83 817.311C1523.88 815.131 1526.93 807.648 1522.93 806.263C1520.92 805.57 1515.65 804.259 1515.65 807.276" stroke="white" stroke-width="3" stroke-linecap="round"/>
<path d="M1536.36 807.276C1531.51 802.962 1530.06 813.913 1529.87 816.39C1529.55 820.715 1536.37 822.504 1538.44 818.83C1539.95 816.138 1541.2 808.93 1537.38 807.46C1534.07 806.188 1531.57 807.571 1530.56 810.59" stroke="white" stroke-width="3" stroke-linecap="round"/>
<path d="M1545.48 807.276C1545.48 809.849 1544.59 816.647 1546.26 818.324C1547.65 819.713 1546.23 814.38 1546.49 812.432C1546.72 810.73 1547.17 809.203 1547.97 807.69C1550.11 803.618 1551.71 805.004 1554.59 806.448" stroke="white" stroke-width="3" stroke-linecap="round"/>
<path d="M1561.22 818.047V817.219" stroke="white" stroke-width="3" stroke-linecap="round"/>
<path d="M1589.58 771.346C1590.71 787.276 1591.78 803.136 1591.78 819.098" stroke="white" stroke-width="3" stroke-linecap="round"/>
<path d="M1569.01 773.55C1578.36 771.364 1587.95 771.055 1597.41 769.55C1600.14 769.117 1602.31 768.806 1605.01 769.142" stroke="white" stroke-width="3" stroke-linecap="round"/>
<path d="M1602.8 788.243C1602.96 795.607 1603.84 802.893 1604.19 810.242C1604.33 813.06 1603.7 816.502 1604.44 819.262C1605.09 821.707 1604.99 815.964 1605.05 815.384C1605.27 813.199 1607.39 806.885 1610.48 807.793C1613.11 808.567 1613.49 816.771 1613.82 819.099" stroke="white" stroke-width="3" stroke-linecap="round"/>
<path d="M1623.37 810.283C1625.55 810.979 1630.78 809.282 1628.19 805.875C1626.31 803.412 1623.2 804.338 1622.31 807.018C1621.12 810.583 1620.22 817.171 1622.35 820.487C1623.91 822.906 1628.1 820.819 1629.25 819.099" stroke="white" stroke-width="3" stroke-linecap="round"/>
<path d="M1635.86 804.671C1637.82 808.826 1637.5 822.555 1638.76 818.139C1639.51 815.523 1638.73 811.754 1638.8 809.079C1638.88 806.172 1641.13 802.343 1644.27 801.773C1646.91 801.293 1646.15 804.364 1646.15 806.14" stroke="white" stroke-width="3" stroke-linecap="round"/>
<path d="M1653.49 812.282C1656.08 811.323 1662.83 806.695 1658.8 803.793C1655.03 801.08 1654.23 805.403 1654.23 808.446C1654.23 811.012 1652.89 818.061 1655.7 819.466C1658.58 820.906 1661.85 817.565 1663.78 815.956" stroke="white" stroke-width="3" stroke-linecap="round"/>
<path d="M1688.02 802.998C1688.02 808.525 1686.71 815.519 1688.76 820.63" stroke="white" stroke-width="3" stroke-linecap="round"/>
<path d="M1684.35 793.447C1684.82 793.975 1684.87 794.292 1685.08 794.917" stroke="white" stroke-width="3" stroke-linecap="round"/>
<path d="M1703.45 801.528C1699.74 800.34 1695.14 803.819 1695.37 808.14C1695.49 810.396 1702.19 809.444 1703.94 810.508C1713.03 816.05 1700.56 820.735 1699.04 817.691" stroke="white" stroke-width="3" stroke-linecap="round"/>
<path d="M235.157 898.413C228.94 896.424 225.911 903.182 227.95 909.009C229.42 913.21 236.586 914.9 239.568 911.376C245.881 903.914 234.214 893.217 230.316 898.413" stroke="white" stroke-width="3" stroke-linecap="round"/>
<path d="M248.711 899.381C248.711 903.696 249.679 916.604 249.679 912.289C249.679 908.051 250.158 904.896 251.615 900.887C253.244 896.407 256.855 904.457 257.209 905.943C257.976 909.163 258.392 911.508 258.392 914.871" stroke="white" stroke-width="3" stroke-linecap="round"/>
<path d="M265.169 905.19C268.851 905.19 272.99 904.726 273.721 899.973C274.175 897.021 267.657 898.654 266.621 899.919C259.084 909.131 274.061 918.208 276.787 910.031" stroke="white" stroke-width="3" stroke-linecap="round"/>
<path d="M303.895 877.114V913.904" stroke="white" stroke-width="3" stroke-linecap="round"/>
<path d="M315.512 901.317C315.512 904.997 314.794 909.312 317.449 911.967" stroke="white" stroke-width="3" stroke-linecap="round"/>
<path d="M315.513 892.604L316.481 893.573" stroke="white" stroke-width="3" stroke-linecap="round"/>
<path d="M331.003 902.286C326.589 902.286 321.71 907.491 324.764 912.29C325.963 914.174 330.495 912.558 331.971 911.968" stroke="white" stroke-width="3" stroke-linecap="round"/>
<path d="M332.938 904.222C330.286 904.553 339.187 932.959 337.671 939.021C337.017 941.639 333.014 941.181 331.002 940.957C324.292 940.212 324.989 929.406 328.097 925.521" stroke="white" stroke-width="3" stroke-linecap="round"/>
<path d="M338.748 881.955C338.924 890.224 339.75 898.372 340.631 906.589C340.835 908.498 340.756 911.681 341.652 913.473C343.033 916.234 341.725 907.09 343.105 904.33C343.977 902.584 348.661 899.433 350.312 901.91C352.074 904.553 351.334 908.947 351.334 911.967" stroke="white" stroke-width="3" stroke-linecap="round"/>
<path d="M360.047 881.955V915.84" stroke="white" stroke-width="3" stroke-linecap="round"/>
<path d="M353.27 892.604H367.792" stroke="white" stroke-width="3" stroke-linecap="round"/>
<path d="M399.74 901.318C394.974 897.081 392.963 904.48 392.963 908.094C392.963 913.375 399.818 912.779 401.676 909.063" stroke="white" stroke-width="3" stroke-linecap="round"/>
<path d="M401.678 901.317C401.678 903.647 403.614 915.42 403.614 909.063" stroke="white" stroke-width="3" stroke-linecap="round"/>
<path d="M408.453 877.114C408.583 887.76 409.673 898.247 410.336 908.848C410.44 910.521 409.912 913.965 410.443 910.515C410.984 907.001 412.612 900.35 416.682 900.35C421.573 900.35 424.368 903.49 422.76 908.848C421.467 913.158 416.888 912.935 413.294 912.935" stroke="white" stroke-width="3" stroke-linecap="round"/>
<path d="M435.563 900.349C427.531 896.569 423.825 912.935 433.089 912.935C441.102 912.935 437.708 896.372 429.754 900.349" stroke="white" stroke-width="3" stroke-linecap="round"/>
<path d="M441.371 899.381C441.371 901.994 442.859 909.152 444.491 910.783C444.849 911.142 447.278 900.349 448.148 900.349" stroke="white" stroke-width="3" stroke-linecap="round"/>
<path d="M452.988 906.158C455.955 905.828 462.731 902.743 461.647 898.951C460.959 896.541 455.194 897.54 454.171 899.381C452.505 902.381 452.093 908.109 453.042 911.429C454.004 914.798 461.679 911.652 463.638 910.999" stroke="white" stroke-width="3" stroke-linecap="round"/>
<path d="M493.651 906.158C505.543 911.755 505.009 892.612 496.071 896.584C492.526 898.16 493.289 908.093 493.704 910.999C494.502 916.583 504.133 910.325 506.237 909.063" stroke="white" stroke-width="3" stroke-linecap="round"/>
<path d="M519.789 898.413C509.403 898.413 512.476 919.342 519.359 908.525C520.984 905.972 522.694 897.054 522.694 900.08C522.694 904.043 522.694 915.929 522.694 911.967" stroke="white" stroke-width="3" stroke-linecap="round"/>
<path d="M534.312 900.35C533.441 900.241 532.606 898.712 531.623 899.597C529.034 901.926 528.461 907.029 528.665 910.192C529.01 915.544 538.206 912.904 540.121 910.031" stroke="white" stroke-width="3" stroke-linecap="round"/>
<path d="M544.961 880.019C544.961 890.06 545.929 900.018 545.929 910.031C545.929 912.401 547.351 905.509 548.081 903.254C549.277 899.555 553.738 899.556 555.826 902.286C557.241 904.137 557.547 911.393 557.547 909.063" stroke="white" stroke-width="3" stroke-linecap="round"/>
<path d="M581.752 882.955C580.845 891.225 580.784 899.492 580.784 907.804C580.784 909.995 580.389 911.605 581.752 912.967" stroke="white" stroke-width="3" stroke-linecap="round"/>
<path d="M593.369 904.254C595.483 905.249 601.992 905.26 600.039 900.866C597.734 895.679 592.71 900.756 591.917 903.77C591.363 905.874 589.984 913.747 593.369 913.935C596.828 914.128 600.482 914.568 603.051 911.999" stroke="white" stroke-width="3" stroke-linecap="round"/>
<path d="M607.891 900.381C614.848 925.89 616.285 898.126 617.572 899.413" stroke="white" stroke-width="3" stroke-linecap="round"/>
<path d="M624.35 906.19C639.607 904.694 630.069 894.153 625.856 900.597C624.112 903.263 624.034 906.384 624.403 909.525C625.286 917.023 636.581 909.501 638.872 908.127" stroke="white" stroke-width="3" stroke-linecap="round"/>
<path d="M644.68 900.381C644.709 901.946 645.648 912.672 645.648 910.546C645.648 907.774 644.992 904.049 647.154 901.887C649.405 899.636 658.817 897.523 652.425 902.317" stroke="white" stroke-width="3" stroke-linecap="round"/>
<path d="M683.246 900.414C676.246 897.119 674.076 910.727 677.545 912.462C679.555 913.467 682.43 913.068 684.107 911.601C684.882 910.923 685.183 909.263 685.183 910.095" stroke="white" stroke-width="3" stroke-linecap="round"/>
<path d="M686.15 900.413C686.15 904.574 687.119 908.687 687.119 912.999" stroke="white" stroke-width="3" stroke-linecap="round"/>
<path d="M692.928 901.382C694.072 903.957 693.604 912.131 694.864 909.611C696.261 906.817 696.475 903.28 697.984 900.413C702.158 892.481 705.514 906.193 705.514 909.127" stroke="white" stroke-width="3" stroke-linecap="round"/>
<path d="M716.164 899.445C710.545 897.932 707.753 906.435 710.893 910.471C711.993 911.886 716.501 911.062 718.1 911.062" stroke="white" stroke-width="3" stroke-linecap="round"/>
<path d="M718.1 883.955C715.169 887.252 717.132 896.315 717.132 899.876C717.132 901.471 718.829 914.087 717.132 914.936" stroke="white" stroke-width="3" stroke-linecap="round"/>
<path d="M730.685 915.903C730.621 919.245 730.186 922.302 729.717 925.585" stroke="white" stroke-width="3" stroke-linecap="round"/>
<path d="M757.793 899.445C752.712 899.445 752.049 902.08 751.123 907.406C750.814 909.183 750.571 915.961 754.135 913.537C756.679 911.807 758.761 906.83 758.761 903.91C758.761 901.126 760.022 909.331 760.697 912.031" stroke="white" stroke-width="3" stroke-linecap="round"/>
<path d="M768.443 900.413C766.583 900.491 761.479 903.319 763.226 906.114C764.08 907.48 768.317 907.765 769.895 908.642C774.586 911.248 764.571 917.497 764.571 911.063" stroke="white" stroke-width="3" stroke-linecap="round"/>
<path d="M802.327 901.381C801.614 894.961 795.655 904.312 795.227 905.576C794.584 907.48 794.1 917.29 798.885 913.375C801.901 910.907 804.263 899.098 804.263 902.995C804.263 906.652 804.263 910.309 804.263 913.967" stroke="white" stroke-width="3" stroke-linecap="round"/>
<path d="M825.562 901.381C825.562 904.482 826.618 906.746 828.252 909.449C830.274 912.792 830.126 912.659 831.156 909.341C831.761 907.392 837.619 897.334 834.276 902.349" stroke="white" stroke-width="3" stroke-linecap="round"/>
<path d="M841.054 902.35C840.465 905.589 840.086 908.741 840.086 912.031" stroke="white" stroke-width="3" stroke-linecap="round"/>
<path d="M840.086 888.796V890.732" stroke="white" stroke-width="3" stroke-linecap="round"/>
<path d="M852.67 898.477C850.455 898.477 849.937 899.676 848.582 901.166C845.189 904.899 850.871 905.391 853.1 907.62C855.019 909.538 856.938 910.393 853.638 912.515C849.96 914.879 848.767 913.906 846.861 910.094" stroke="white" stroke-width="3" stroke-linecap="round"/>
<path d="M861.385 900.413C861.678 903.343 862.493 907.21 863.321 909.987C864.828 915.039 868.501 909.009 869.13 906.652C869.41 905.601 870.098 899.105 870.098 902.403C870.098 905.765 869.165 910.147 871.066 912.999" stroke="white" stroke-width="3" stroke-linecap="round"/>
<path d="M886.556 901.382C881.587 899.791 878.811 901.886 878.811 907.406C878.811 909.456 879.511 916.064 883.221 912.354C885.371 910.204 887.524 902.764 887.524 902.888C887.524 905.394 888.074 909.952 889.46 912.031" stroke="white" stroke-width="3" stroke-linecap="round"/>
<path d="M897.206 879.114C897.206 889.244 897.206 899.373 897.206 909.503C897.206 910.898 896.985 911.437 898.174 912.031" stroke="white" stroke-width="3" stroke-linecap="round"/>
<path d="M921.41 913.031C921.41 904.174 919.548 893.876 922.378 885.385C923.891 880.847 930.582 878.129 933.027 883.019" stroke="white" stroke-width="3" stroke-linecap="round"/>
<path d="M916.568 901.413H926.25" stroke="white" stroke-width="3" stroke-linecap="round"/>
<path d="M933.027 905.285C943.102 905.285 934.295 893.127 931.306 901.198C930.222 904.123 929.154 907.486 929.154 910.61C929.154 913.125 935.016 912.062 936.899 912.062" stroke="white" stroke-width="3" stroke-linecap="round"/>
<path d="M943.677 908.19C947.243 907.98 949.486 904.927 949.486 901.413C949.486 897.63 944.207 900.445 943.462 902.596C942.298 905.959 941.598 909.244 941.741 912.816C941.873 916.113 951.71 912.534 953.359 912.063" stroke="white" stroke-width="3" stroke-linecap="round"/>
<path d="M966.912 902.381C962 901.679 959.289 902.727 959.167 907.975C959.126 909.736 958.789 911.685 960.135 913.031C963.998 916.894 965.673 912.682 968.848 911.094" stroke="white" stroke-width="3" stroke-linecap="round"/>
<path d="M967.879 883.019C967.994 892.433 969.815 901.732 969.815 911.095" stroke="white" stroke-width="3" stroke-linecap="round"/>
<path d="M977.561 882.051C978.468 891.695 978.529 901.312 978.529 910.987C978.529 913.615 978.529 914.153 978.529 911.095" stroke="white" stroke-width="3" stroke-linecap="round"/>
<path d="M978.529 904.318C978.529 897.596 989.042 903.246 989.179 908.19C989.282 911.914 981.661 918.326 979.497 913.999" stroke="white" stroke-width="3" stroke-linecap="round"/>
<path d="M1000.8 904.317C996.123 895.49 986.701 913.031 998.376 913.031C1001.87 913.031 1002.73 900.021 1002.73 903.511C1002.73 906.108 1002.45 912.063 1005.64 912.063" stroke="white" stroke-width="3" stroke-linecap="round"/>
<path d="M1015.32 902.381C1003.86 908.381 1012.66 918.589 1020.16 911.094" stroke="white" stroke-width="3" stroke-linecap="round"/>
<path d="M1024.03 885.923C1024.15 893.922 1023.41 903.42 1025.97 911.095" stroke="white" stroke-width="3" stroke-linecap="round"/>
<path d="M1024.03 904.317C1027.03 901.32 1030.15 898.354 1033.71 896.572" stroke="white" stroke-width="3" stroke-linecap="round"/>
<path d="M1024.03 904.317C1028.57 904.989 1030.87 909.285 1032.74 913.031" stroke="white" stroke-width="3" stroke-linecap="round"/>
<path d="M1041.46 916.031C1041.46 919.717 1041.1 923.045 1040.49 926.681" stroke="white" stroke-width="3" stroke-linecap="round"/>
<path d="M1059.85 904.413V914.094" stroke="white" stroke-width="3" stroke-linecap="round"/>
<path d="M1056.95 896.668H1058.89" stroke="white" stroke-width="3" stroke-linecap="round"/>
<path d="M1069.54 883.114C1069.67 892.484 1070.5 901.817 1070.5 911.19" stroke="white" stroke-width="3" stroke-linecap="round"/>
<path d="M1064.69 899.572C1068.24 898.879 1071.79 898.263 1075.34 897.636" stroke="white" stroke-width="3" stroke-linecap="round"/>
<path d="M1084.06 900.541C1081.22 899.205 1078.25 900.161 1077.44 903.822C1077.03 905.669 1084.85 907.901 1085.99 908.501C1091.93 911.628 1080.13 921.563 1078.25 912.159" stroke="white" stroke-width="3" stroke-linecap="round"/>
<path d="M1116.01 901.509C1112.61 902.333 1111.11 902.506 1110.84 906.457C1110.7 908.563 1110.84 912.634 1113.69 913.073C1117.27 913.623 1118.91 911.191 1121.81 910.222" stroke="white" stroke-width="3" stroke-linecap="round"/>
<path d="M1131.5 902.477C1127.82 895.939 1125.58 906.66 1125.15 909.254C1124.35 914.123 1130.3 916.185 1133.38 912.535C1138.91 905.968 1129.8 897.085 1126.66 904.413" stroke="white" stroke-width="3" stroke-linecap="round"/>
<path d="M1139.24 883.114C1139.24 892.483 1138.27 901.824 1138.27 911.19" stroke="white" stroke-width="3" stroke-linecap="round"/>
<path d="M1150.86 901.508C1139.06 895.957 1145.54 920.486 1151.83 911.405C1155.01 906.81 1150.19 898.844 1146.02 904.413" stroke="white" stroke-width="3" stroke-linecap="round"/>
<path d="M1156.67 900.541C1156.92 902.033 1157.53 913.029 1157.64 910.007C1157.74 907.137 1158.62 904.254 1160.33 901.939C1162.13 899.48 1167.14 898.39 1164.41 902.477" stroke="white" stroke-width="3" stroke-linecap="round"/>
<path d="M1184.74 901.636C1184.86 902.708 1185.47 904.518 1185.93 905.508C1186.95 907.736 1188.7 915.489 1190.12 912.232C1191.28 909.588 1192.43 897.711 1194.96 903.142C1195.57 904.447 1197.59 915.886 1200.23 912.07C1201.76 909.872 1202.5 907.154 1203.14 904.594C1203.63 902.615 1204.11 900.226 1204.11 903.572" stroke="white" stroke-width="3" stroke-linecap="round"/>
<path d="M1208.95 900.668C1209.24 902.607 1209.28 912.121 1210.88 911.318" stroke="white" stroke-width="3" stroke-linecap="round"/>
<path d="M1207.01 890.986C1207.11 891.89 1207.5 892.201 1207.98 892.923" stroke="white" stroke-width="3" stroke-linecap="round"/>
<path d="M1214.76 889.051V913.254" stroke="white" stroke-width="3" stroke-linecap="round"/>
<path d="M1221.53 886.146C1221.53 895.474 1222.5 905.133 1222.5 914.222" stroke="white" stroke-width="3" stroke-linecap="round"/>
<path d="M1244.77 902.604C1239.19 901.316 1236.44 911.35 1241 913.63C1244.88 915.569 1247.71 912.5 1250.58 910.349" stroke="white" stroke-width="3" stroke-linecap="round"/>
<path d="M1253.48 884.21C1253.48 893.574 1254.45 921.65 1254.45 912.286" stroke="white" stroke-width="3" stroke-linecap="round"/>
<path d="M1254.45 908.413C1255.38 908.297 1259.47 899.225 1261.44 904.971C1262.06 906.786 1262.19 916.637 1262.19 914.222" stroke="white" stroke-width="3" stroke-linecap="round"/>
<path d="M1275.75 902.604C1268.82 900.924 1266.6 906.734 1267.03 913.038C1267.43 918.697 1272.71 911.417 1273.38 910.564C1274.97 908.544 1275.75 903.331 1275.75 907.23C1275.75 910.298 1274.49 915.19 1278.65 915.19" stroke="white" stroke-width="3" stroke-linecap="round"/>
<path d="M1282.53 902.604C1282.53 904.849 1282.08 915.324 1283.01 912.339C1284.01 909.154 1284.96 905.014 1287.37 902.604C1292.22 897.753 1292.07 911.25 1294.14 912.286" stroke="white" stroke-width="3" stroke-linecap="round"/>
<path d="M1306.73 901.636C1301.17 899.021 1295.63 912.182 1298.61 914.169C1302.67 916.878 1305.01 914.752 1306.73 911.318" stroke="white" stroke-width="3" stroke-linecap="round"/>
<path d="M1307.7 903.572C1307.7 910.048 1309.63 916.211 1309.63 922.666C1309.63 926.401 1311.62 937.146 1308.18 939.824C1306.66 941.011 1304.21 940.245 1302.86 939.178C1298.07 935.407 1302.59 929.418 1304.79 925.839" stroke="white" stroke-width="3" stroke-linecap="round"/>
<path d="M1318.35 906.477C1318.52 907.88 1320.16 907.445 1321.25 907.445C1323.96 907.445 1324.08 904.037 1324.16 901.851C1324.3 897.432 1320.48 896.626 1318.56 900.668C1316.95 904.069 1316.43 910.526 1319.31 913.254C1321.67 915.481 1324.9 913.709 1326.09 911.318" stroke="white" stroke-width="3" stroke-linecap="round"/>
<path d="M1349.33 899.7C1351.22 903.621 1352.4 909.247 1355.14 912.663C1355.51 913.124 1356.89 907.623 1357.07 907.015C1358.42 902.623 1357.8 898.225 1360.73 903.358C1362.44 906.341 1363 910.746 1366.75 912.071C1367.63 912.382 1367.76 902.567 1368.69 901.636" stroke="white" stroke-width="3" stroke-linecap="round"/>
<path d="M1373.53 883.241C1373.53 890.054 1373.53 896.867 1373.53 903.68C1373.53 905.402 1372.58 910.901 1374.28 912.608C1374.29 912.609 1374.65 909.47 1374.71 909.166C1375.09 907.394 1375.76 905.174 1376.65 903.572C1379.21 898.961 1385.3 912.208 1381.28 914.222" stroke="white" stroke-width="3" stroke-linecap="round"/>
<path d="M1389.99 908.413C1398.25 910.637 1394.76 892.853 1388.54 904.057C1386.99 906.833 1388.06 911.322 1390.2 913.469C1393.7 916.964 1395.87 914.15 1398.7 911.318" stroke="white" stroke-width="3" stroke-linecap="round"/>
<path d="M1400.64 901.636C1400.87 903.188 1401.45 917.23 1402.79 911.855C1403.34 909.67 1404.6 901.813 1406.93 900.776C1409.18 899.778 1411.29 910.965 1411.29 913.254" stroke="white" stroke-width="3" stroke-linecap="round"/>
<path d="M1438.4 883.337C1438.4 891.566 1438.4 899.795 1438.4 908.024C1438.4 909.008 1438.55 912.683 1437.43 910.445" stroke="white" stroke-width="3" stroke-linecap="round"/>
<path d="M1430.65 901.731C1433.98 901.731 1445.54 902.256 1444.2 902.7" stroke="white" stroke-width="3" stroke-linecap="round"/>
<path d="M1450.01 883.337C1451.29 892.77 1450.98 902.292 1450.98 911.789C1450.98 914.433 1451.79 906.489 1452.92 904.098C1453.88 902.064 1456.77 899.017 1459.16 901.409C1461.77 904.018 1460.66 909.975 1460.66 913.349" stroke="white" stroke-width="3" stroke-linecap="round"/>
<path d="M1469.38 908.509C1475.69 908.509 1472.2 898.152 1468.95 901.409C1466.08 904.277 1467.85 910.296 1469.38 913.349C1471.27 917.13 1474.66 914.024 1477.12 912.381" stroke="white" stroke-width="3" stroke-linecap="round"/>
<path d="M1492.61 879.465C1492.72 890.302 1493.58 901.117 1493.58 911.951C1493.58 913.494 1493.97 914.607 1492.61 915.286" stroke="white" stroke-width="3" stroke-linecap="round"/>
<path d="M1500.36 907.541C1504.22 907.424 1508.09 904.806 1507.08 900.28C1506.48 897.598 1502.81 898.768 1502.29 900.818C1501.66 903.367 1500.26 907.886 1501.54 910.445C1503.65 914.661 1508.28 911.591 1510.04 909.477" stroke="white" stroke-width="3" stroke-linecap="round"/>
<path d="M1513.91 899.796C1514.76 903.613 1515.63 907.851 1517.78 911.198C1519.14 913.305 1518.84 909.265 1518.97 908.509C1519.21 907.042 1520.53 897.54 1521.66 899.796" stroke="white" stroke-width="3" stroke-linecap="round"/>
<path d="M1528.43 904.636C1529.31 911.641 1538.06 894.234 1529.4 899.042C1526.55 900.627 1527.26 906.753 1527.52 909.315C1527.82 912.308 1532.08 911.413 1534.24 911.413" stroke="white" stroke-width="3" stroke-linecap="round"/>
<path d="M1540.05 897.86C1540.05 901.572 1541.99 919.219 1541.99 906.788C1541.99 904.029 1547.79 892.034 1549.73 897.86" stroke="white" stroke-width="3" stroke-linecap="round"/>
<path d="M1569.1 897.827C1569.19 902.071 1571.03 914.658 1571.03 910.413" stroke="white" stroke-width="3" stroke-linecap="round"/>
<path d="M1569.1 887.178V889.114" stroke="white" stroke-width="3" stroke-linecap="round"/>
<path d="M1580.71 896.859C1578.34 897.124 1575.96 898.88 1575.5 901.216C1574.48 906.307 1584.41 903.257 1585.5 907.079C1587.13 912.78 1579.59 913.81 1577.81 908.477" stroke="white" stroke-width="3" stroke-linecap="round"/>
<path d="M1610.73 902.796C1610.73 912.764 1610.73 922.732 1610.73 932.701C1610.73 933.539 1611.05 939.268 1609.76 936.681" stroke="white" stroke-width="3" stroke-linecap="round"/>
<path d="M1607.82 903.763C1605.33 903.452 1607.96 900.084 1609 899.46C1613.92 896.509 1617.66 898.506 1619.22 903.548C1620.88 908.888 1611.53 912.153 1609.76 908.604" stroke="white" stroke-width="3" stroke-linecap="round"/>
<path d="M1624.28 899.891C1624.28 904.967 1627.49 916.653 1631.54 907.206C1632.68 904.548 1632.99 895.762 1632.99 898.654C1632.99 902.1 1633.55 907.229 1635.9 909.572" stroke="white" stroke-width="3" stroke-linecap="round"/>
<path d="M1641.71 879.561C1641.71 886.624 1641.71 893.688 1641.71 900.752C1641.71 902.627 1642.66 907.646 1640.74 908.605" stroke="white" stroke-width="3" stroke-linecap="round"/>
<path d="M1650.42 878.592C1650.57 888.922 1651.39 919.904 1651.39 909.572" stroke="white" stroke-width="3" stroke-linecap="round"/>
<path d="M1660.1 903.764C1669.94 903.764 1663.86 893.28 1659.62 899.407C1657.68 902.196 1658.11 904.805 1659.35 907.852C1660.96 911.805 1664.77 910.086 1667.84 909.573" stroke="white" stroke-width="3" stroke-linecap="round"/>
<path d="M1678.49 897.955C1677.87 897.955 1674.3 897.497 1673.87 898.17C1672.98 899.546 1672.95 906.438 1674.62 907.421C1676.59 908.582 1680.49 907.516 1681.4 905.7" stroke="white" stroke-width="3" stroke-linecap="round"/>
<path d="M1681.4 883.433C1678.61 883.782 1681.4 905.948 1681.4 910.541" stroke="white" stroke-width="3" stroke-linecap="round"/>
<path d="M1693.02 909.572C1693.64 908.877 1693.71 908.459 1693.99 907.636" stroke="white" stroke-width="3" stroke-linecap="round"/>
</svg>
