<svg width="100" height="100" viewBox="0 0 100 100" fill="none" xmlns="http://www.w3.org/2000/svg">
<g clip-path="url(#clip0_880_104)">
<path d="M22.693 85V17.8H58.117C62.533 17.8 66.437 18.76 69.829 20.68C73.285 22.536 76.005 25.096 77.989 28.36C79.973 31.624 80.965 35.368 80.965 39.592C80.965 43.624 79.973 47.272 77.989 50.536C76.005 53.736 73.285 56.264 69.829 58.12C66.373 59.976 62.469 60.904 58.117 60.904H39.205V85H22.693ZM39.205 47.272H56.197C58.629 47.272 60.581 46.568 62.053 45.16C63.525 43.752 64.261 41.928 64.261 39.688C64.261 37.384 63.525 35.528 62.053 34.12C60.581 32.648 58.629 31.912 56.197 31.912H39.205V47.272Z" fill="#3CDB4C"/>
</g>
<defs>
<clipPath id="clip0_880_104">
<rect width="100" height="100" fill="white"/>
</clipPath>
</defs>
</svg>
