<svg width="1920" height="1080" viewBox="0 0 1920 1080" fill="none" xmlns="http://www.w3.org/2000/svg">
<rect width="1920" height="1080" fill="#111312"/>
<path d="M1466.82 908.136C1466.96 904.538 1467.34 896.132 1467.68 891.296C1468.11 885.251 1471.13 874.025 1471.13 869.707C1471.13 865.389 1471.56 860.208 1470.27 854.595C1468.98 848.981 1466.39 839.914 1467.68 834.301C1468.98 828.687 1468.98 821.347 1469.41 814.87C1469.84 808.393 1469.84 790.258 1470.7 784.645C1471.56 779.032 1473.29 758.306 1473.29 753.988C1473.29 749.67 1473.72 741.898 1471.13 742.33C1468.54 742.762 1460.78 753.556 1453.01 756.147C1445.24 758.738 1433.59 762.624 1428.42 763.055C1423.24 763.487 1418.06 766.51 1415.9 763.487C1413.75 760.465 1409.86 751.397 1407.71 744.057C1405.55 736.716 1402.1 718.15 1402.1 712.536C1402.1 706.923 1402.96 693.106 1399.51 686.197C1396.06 679.289 1393.47 668.926 1391.31 665.472C1389.15 662.017 1386.13 658.131 1384.84 655.541C1383.54 652.95 1382.68 652.518 1383.11 649.927C1383.54 647.337 1383.54 640.428 1387.43 638.701C1391.31 636.974 1393.47 632.656 1396.06 636.974C1398.65 641.292 1402.96 646.474 1402.96 648.633C1402.96 650.792 1403.39 649.928 1405.12 652.519C1406.84 655.109 1406.84 658.564 1408.14 661.154C1409.43 663.745 1410.73 668.495 1411.59 673.244C1412.45 677.994 1418.06 694.402 1418.06 700.015C1418.06 705.628 1421.94 720.741 1424.1 724.627C1426.26 728.513 1427.99 730.24 1429.71 730.24C1431.44 730.24 1436.61 728.513 1440.07 725.922C1443.52 723.332 1449.56 717.718 1452.15 715.991C1454.74 714.264 1459.05 706.924 1461.21 704.333C1463.37 701.742 1468.11 694.402 1472 693.538C1475.88 692.675 1485.8 687.925 1490.55 687.925C1495.29 687.925 1500.9 685.335 1502.2 683.607C1503.49 681.88 1508.67 679.721 1509.1 677.131C1509.53 674.54 1509.1 671.517 1508.67 668.495C1508.24 665.472 1506.94 663.745 1506.08 661.586C1505.22 659.427 1503.92 659.427 1503.49 656.405C1503.06 653.382 1503.06 652.087 1503.06 649.496C1503.06 646.906 1503.49 642.588 1503.06 641.292C1502.63 639.997 1500.04 636.543 1500.04 633.52C1500.04 630.498 1499.18 627.907 1500.47 625.748C1501.77 623.589 1503.06 621.43 1505.22 618.839C1507.38 616.249 1511.26 611.931 1515.14 612.794C1519.03 613.658 1522.48 611.499 1525.07 611.067C1527.66 610.635 1538.87 612.362 1540.17 614.09C1541.46 615.817 1544.91 618.84 1546.21 620.999C1547.5 623.157 1550.95 629.634 1549.23 631.361C1547.5 633.089 1547.93 639.565 1547.5 641.293C1547.07 643.02 1548.37 651.655 1547.5 652.519C1546.64 653.383 1547.07 658.132 1544.91 660.291C1542.76 662.45 1542.33 677.131 1543.19 678.426C1544.05 679.721 1553.97 684.903 1555.7 687.494C1557.43 690.084 1560.02 693.107 1563.9 693.107C1567.78 693.107 1576.84 694.834 1579 698.288C1581.16 701.743 1599.71 722.468 1604.46 726.354C1609.2 730.24 1617.4 739.308 1620.42 739.308C1623.44 739.308 1624.74 740.172 1626.03 738.013C1627.32 735.854 1634.23 720.741 1634.66 713.833C1635.09 706.924 1638.97 694.402 1639.84 690.516C1640.7 686.63 1641.99 681.017 1641.99 674.108C1641.99 667.2 1644.58 658.132 1645.45 655.541C1646.31 652.951 1646.74 650.36 1648.47 645.179C1650.19 639.997 1651.92 636.975 1653.64 636.975C1655.37 636.975 1659.25 637.406 1659.69 639.565C1660.12 641.724 1660.55 646.474 1661.84 647.769C1663.14 649.065 1664 651.224 1664 653.814C1664 656.405 1661.41 662.018 1661.41 665.041C1661.41 668.063 1659.25 675.835 1657.1 678.426C1654.94 681.017 1653.21 682.744 1653.21 686.198C1653.21 689.653 1653.21 722.037 1649.76 736.285C1646.31 750.534 1644.15 763.056 1641.99 766.079C1639.84 769.101 1640.27 769.533 1635.09 769.965C1629.91 770.397 1618.26 769.101 1612.22 766.079C1606.18 763.056 1603.16 761.761 1597.55 758.307C1591.94 754.852 1585.04 749.239 1580.29 749.671C1576.5 750.016 1575.55 751.83 1575.55 752.693C1576.56 762.912 1578.48 784.3 1578.14 788.1C1577.71 792.849 1580.29 803.644 1579.86 809.689C1579.43 815.734 1580.29 826.529 1579.43 832.142C1578.57 837.755 1578.57 845.959 1579 849.845C1579.43 853.731 1578.14 854.595 1578.14 858.049C1578.14 861.504 1581.16 876.184 1581.16 881.797C1581.16 887.411 1582.02 893.456 1581.59 898.205C1581.24 902.005 1581.16 906.985 1581.16 909" stroke="white" stroke-width="3"/>
<circle cx="1405" cy="679" r="9" fill="#3CDB4C"/>
<circle cx="1424" cy="747" r="9" fill="#3CDB4C"/>
<circle cx="1483" cy="708" r="9" fill="#3CDB4C"/>
<circle cx="1496" cy="848" r="9" fill="#3CDB4C"/>
<circle cx="1648" cy="682" r="9" fill="#3CDB4C"/>
<circle cx="1631" cy="753" r="9" fill="#3CDB4C"/>
<circle cx="1566" cy="710" r="9" fill="#3CDB4C"/>
<circle cx="1553" cy="848" r="9" fill="#3CDB4C"/>
<path d="M1405 679.5L1423.5 747.5L1483 707.5L1566 710.5L1631 753.5L1648 682" stroke="#3CDB4C" stroke-width="2"/>
<path d="M1482.5 708L1495.5 848.5H1553.5L1566.5 710" stroke="#3CDB4C" stroke-width="2"/>
<path d="M1464.22 476.568C1464.08 472.969 1463.96 464.132 1464.65 457.568C1465.52 449.364 1465.52 442.887 1465.95 439.433C1466.38 435.978 1465.52 430.796 1465.52 426.91C1465.52 423.024 1465.09 404.025 1465.52 396.252C1465.95 388.48 1467.68 358.685 1467.68 352.208C1467.68 345.731 1467.25 328.891 1465.09 319.823C1462.93 310.755 1461.63 302.551 1457.75 299.528C1453.86 296.505 1448.25 295.21 1442.2 294.346C1436.16 293.483 1432.27 294.346 1428.82 292.187C1425.36 290.028 1422.77 288.733 1417.16 288.301C1411.55 287.869 1400.75 285.71 1394.28 284.847C1387.8 283.983 1378.73 281.824 1370.96 281.392C1363.19 280.96 1341.6 277.506 1335.56 275.779C1329.51 274.052 1323.9 273.62 1319.58 274.483C1315.26 275.347 1310.08 277.938 1305.33 277.074C1300.58 276.211 1295.84 275.779 1291.52 276.211C1287.2 276.642 1283.31 277.074 1282.45 275.779C1281.59 274.483 1281.16 272.324 1282.45 271.461C1283.75 270.597 1284.61 268.438 1287.2 268.438C1289.79 268.438 1284.18 269.302 1281.59 269.302C1279 269.302 1279 268.006 1277.27 268.006C1275.54 268.006 1270.79 269.734 1268.2 270.165C1265.61 270.597 1263.02 270.165 1263.02 268.87C1263.02 267.575 1262.59 267.143 1265.61 265.847C1268.63 264.552 1273.82 260.234 1275.54 260.234C1277.27 260.234 1286.34 259.802 1290.22 259.802C1294.11 259.802 1300.58 261.097 1310.08 260.666C1319.58 260.234 1361.46 261.529 1370.1 260.234C1378.73 258.938 1385.64 258.075 1393.85 257.643C1402.05 257.211 1411.55 257.211 1418.02 256.348C1424.5 255.484 1429.68 256.348 1434.86 256.348C1440.04 256.348 1446.95 256.348 1453 254.621C1459.04 252.894 1464.65 250.735 1473.29 249.008C1481.92 247.28 1489.26 245.121 1492.29 245.985C1495.31 246.849 1496.17 248.143 1498.33 247.28C1500.49 246.416 1501.79 240.802 1506.1 239.507C1509.56 238.471 1510.13 236.484 1509.99 235.621C1510.13 233.462 1510.16 228.885 1509.13 227.848C1507.83 226.553 1504.81 224.826 1504.81 222.667C1504.81 220.508 1504.38 217.053 1504.81 215.326C1505.24 213.599 1503.08 210.576 1503.08 208.417C1503.08 206.258 1501.35 202.372 1500.92 200.645C1500.49 198.917 1498.33 190.713 1500.49 188.986C1502.65 187.259 1503.94 182.077 1506.97 180.35C1509.99 178.623 1517.76 173.873 1520.35 174.305C1522.94 174.736 1528.12 173.44 1532.44 174.304C1536.76 175.168 1544.53 176.896 1546.26 179.487C1547.98 182.078 1551.01 185.1 1551.87 189.418C1552.73 193.736 1553.6 197.191 1552.3 198.918C1551.01 200.645 1548.85 203.668 1549.28 206.259C1549.71 208.85 1549.28 211.44 1549.28 213.599C1549.28 215.758 1548.85 220.94 1546.69 223.099C1544.96 224.826 1544.53 226.41 1544.53 226.985C1543.95 229.432 1543.06 234.412 1544.1 234.758C1545.39 235.19 1555.32 240.371 1557.05 243.826C1558.78 247.28 1561.8 249.871 1563.96 249.871C1566.12 249.871 1589 257.212 1597.64 258.507C1606.27 259.803 1611.45 261.962 1616.63 261.53C1621.82 261.098 1637.36 260.234 1641.68 261.098C1645.99 261.962 1658.52 261.53 1664.13 261.53C1669.74 261.53 1715.08 262.393 1721.55 261.962C1728.03 261.53 1736.23 262.825 1744.87 261.53C1753.5 260.234 1756.09 257.644 1759.98 258.075C1763.87 258.507 1783.29 261.53 1786.75 262.825C1790.2 264.121 1795.38 267.575 1793.66 269.302C1791.93 271.029 1782.86 271.029 1781.57 271.461C1780.27 271.893 1780.7 274.916 1777.25 275.779C1773.8 276.643 1770.77 278.37 1766.02 276.643C1761.27 274.916 1757.39 276.211 1753.07 276.643C1748.75 277.075 1736.66 272.757 1731.48 274.052C1726.3 275.347 1682.26 284.847 1674.92 285.279C1667.58 285.711 1656.79 287.87 1649.02 289.597C1641.24 291.324 1629.59 294.779 1624.41 294.347C1619.22 293.915 1607.57 294.779 1601.09 297.369C1594.61 299.96 1590.73 302.119 1587.71 307.301C1584.68 312.483 1579.07 343.141 1579.07 348.322C1579.07 353.504 1579.93 376.39 1579.5 385.458C1579.07 394.525 1578.21 411.366 1579.07 422.161C1579.93 432.956 1581.23 460.16 1580.37 467.932C1579.68 474.15 1579.5 476.568 1579.5 477" stroke="white" stroke-width="3"/>
<circle cx="1732" cy="267" r="9" fill="#3CDB4C"/>
<circle cx="1655" cy="274" r="9" fill="#3CDB4C"/>
<circle cx="1573" cy="271" r="9" fill="#3CDB4C"/>
<circle cx="1474" cy="271" r="9" fill="#3CDB4C"/>
<circle cx="1322" cy="267" r="9" fill="#3CDB4C"/>
<circle cx="1388" cy="271" r="9" fill="#3CDB4C"/>
<circle cx="1490" cy="428" r="9" fill="#3CDB4C"/>
<circle cx="1557" cy="429" r="9" fill="#3CDB4C"/>
<path d="M1322 267.5L1389.5 271H1474.5H1575L1652 274.5L1731.5 267" stroke="#3CDB4C" stroke-width="2"/>
<path d="M1473.5 271.5L1489.5 429.5H1557L1573.5 271.5" stroke="#3CDB4C" stroke-width="2"/>
<path d="M891.256 909C890.968 903.958 890.479 891.541 890.824 882.206C891.256 870.538 892.551 857.574 892.982 851.091C893.414 844.609 892.119 832.509 893.414 824.298C894.709 816.087 901.615 780.218 904.636 770.711C907.657 761.203 911.11 746.078 911.11 737.435C911.11 728.792 914.132 715.827 910.247 709.777C906.363 703.727 896.435 699.837 892.119 694.651C887.803 689.465 876.149 679.526 870.538 676.501C864.927 673.476 849.821 663.104 843.778 659.215C837.736 655.325 807.523 631.557 803.206 629.828C798.89 628.1 791.984 630.692 788.1 628.1C784.215 625.507 778.173 623.778 775.583 622.482C772.993 621.185 765.656 620.321 764.793 617.296C763.93 614.271 763.93 613.838 764.361 612.974C764.793 612.11 761.771 611.678 760.908 611.678C760.045 611.678 753.57 612.11 752.707 609.085C751.844 606.06 751.412 603.467 753.57 603.467C755.729 603.467 761.34 602.17 766.951 603.899C772.562 605.627 785.078 611.245 794.142 615.134C803.206 619.023 808.386 621.184 814.428 623.777C820.471 626.37 836.441 635.013 842.052 636.31C847.663 637.606 869.243 646.249 876.149 648.41C883.055 650.571 892.982 658.35 905.067 662.239C917.153 666.128 925.353 666.993 933.986 668.289C942.618 669.586 948.661 670.018 955.135 672.178C961.609 674.339 961.609 672.611 965.494 672.178C968.601 671.833 971.105 670.882 971.968 670.45C971.824 668.721 971.536 664.918 971.536 663.535C971.536 661.807 968.946 660.078 968.946 658.35C968.946 656.621 968.083 654.892 968.515 651.867C968.946 648.842 970.241 638.903 970.241 636.742C970.241 634.581 968.515 633.285 970.241 629.827C971.968 626.37 969.378 625.938 971.968 623.777C974.557 621.616 975.852 618.159 979.305 617.295C982.758 616.431 987.506 613.838 991.39 614.702C995.275 615.566 995.707 613.838 1000.89 615.134C1006.07 616.431 1012.97 618.159 1014.27 620.32C1015.56 622.481 1021.17 625.938 1021.17 628.531C1021.17 631.124 1022.9 634.149 1021.6 637.174C1020.31 640.199 1022.47 642.792 1019.88 645.385C1017.29 647.978 1016.86 651.435 1016.86 652.732C1016.86 654.028 1015.99 658.782 1014.7 660.51C1013.4 662.239 1012.97 665.696 1010.38 666.993C1008.31 668.03 1007.5 670.306 1007.36 671.314C1006.35 673.187 1004.43 677.019 1004.77 677.364C1005.2 677.796 1013.4 686.44 1014.27 690.761C1015.13 695.083 1020.31 702.429 1022.9 704.59C1025.49 706.751 1041.03 719.715 1044.48 724.469C1047.93 729.223 1056.13 737.866 1065.63 742.188C1075.12 746.509 1079.44 750.398 1087.21 754.72C1094.98 759.042 1120.01 775.031 1124.76 778.921C1129.51 782.81 1156.7 799.664 1163.17 803.986C1169.65 808.307 1182.16 813.925 1185.62 816.086C1189.07 818.247 1204.61 830.779 1205.9 833.372C1207.2 835.965 1210.65 839.422 1208.06 839.422C1205.47 839.422 1200.29 837.262 1198.13 835.533C1195.98 833.804 1194.25 834.669 1192.95 834.669C1191.66 834.669 1191.66 837.262 1189.5 837.262C1187.34 837.262 1183.89 837.694 1180.87 833.804C1177.85 829.915 1173.1 827.754 1170.08 826.458C1167.06 825.161 1161.88 821.272 1158.86 817.382C1155.84 813.493 1154.11 810.468 1150.66 809.604C1147.2 808.739 1112.24 795.343 1106.2 791.885C1100.16 788.428 1079.44 779.353 1069.51 775.031C1059.59 770.71 1052.68 767.685 1043.18 763.795C1033.69 759.906 1029.8 756.881 1023.76 759.474C1017.72 762.067 1018.58 768.981 1015.56 776.328C1012.54 783.674 1004.77 804.418 1003.04 815.222C1001.32 826.026 1003.04 835.101 1001.32 843.312C999.591 851.523 999.16 858.005 1001.32 867.512C1003.48 877.02 1006.07 898.195 1005.63 904.245C1005.51 906.023 1005.2 907.271 1005.2 908.999" stroke="white" stroke-width="3"/>
<circle cx="809" cy="626" r="9" fill="#3CDB4C"/>
<circle cx="859" cy="654" r="9" fill="#3CDB4C"/>
<circle cx="934" cy="685" r="9" fill="#3CDB4C"/>
<circle cx="916" cy="832" r="9" fill="#3CDB4C"/>
<circle cx="1153" cy="804" r="9" fill="#3CDB4C"/>
<circle cx="1092" cy="772" r="9" fill="#3CDB4C"/>
<circle cx="1023" cy="726" r="9" fill="#3CDB4C"/>
<circle cx="979" cy="849" r="9" fill="#3CDB4C"/>
<path d="M809.5 627L859 655.5L933.5 685.5L1023.5 726.5L1092.5 772L1153 804.5" stroke="#3CDB4C" stroke-width="2"/>
<path d="M934.5 685.5L916 833L979.5 849.5L1023 725.5" stroke="#3CDB4C" stroke-width="2"/>
<path d="M1069.74 477C1070.03 471.958 1070.52 459.541 1070.18 450.206C1069.74 438.538 1068.45 425.574 1068.02 419.091C1067.59 412.609 1068.88 400.509 1067.59 392.298C1066.29 384.087 1059.39 348.218 1056.36 338.711C1053.34 329.203 1049.89 314.078 1049.89 305.435C1049.89 296.792 1046.87 283.827 1050.75 277.777C1054.64 271.727 1064.56 267.837 1068.88 262.651C1073.2 257.465 1084.85 247.526 1090.46 244.501C1096.07 241.476 1111.18 231.104 1117.22 227.215C1123.26 223.325 1153.48 199.557 1157.79 197.828C1162.11 196.1 1169.02 198.692 1172.9 196.1C1176.78 193.507 1182.83 191.778 1185.42 190.482C1188.01 189.185 1195.34 188.321 1196.21 185.296C1197.07 182.271 1197.07 181.838 1196.64 180.974C1196.21 180.11 1199.23 179.678 1200.09 179.678C1200.96 179.678 1207.43 180.11 1208.29 177.085C1209.16 174.06 1209.59 171.467 1207.43 171.467C1205.27 171.467 1199.66 170.17 1194.05 171.899C1188.44 173.627 1175.92 179.245 1166.86 183.134C1157.79 187.023 1152.61 189.184 1146.57 191.777C1140.53 194.37 1124.56 203.013 1118.95 204.31C1113.34 205.606 1091.76 214.249 1084.85 216.41C1077.94 218.571 1068.02 226.35 1055.93 230.239C1043.85 234.128 1035.65 234.993 1027.01 236.289C1018.38 237.586 1012.34 238.018 1005.87 240.178C999.391 242.339 999.391 240.611 995.506 240.178C992.399 239.833 989.895 238.882 989.032 238.45C989.176 236.721 989.464 232.918 989.464 231.535C989.464 229.807 992.054 228.078 992.054 226.35C992.054 224.621 992.917 222.892 992.485 219.867C992.054 216.842 990.759 206.903 990.759 204.742C990.759 202.581 992.485 201.285 990.759 197.827C989.032 194.37 991.622 193.938 989.032 191.777C986.443 189.616 985.148 186.159 981.695 185.295C978.242 184.431 973.494 181.838 969.61 182.702C965.725 183.566 965.293 181.838 960.114 183.134C954.935 184.431 948.029 186.159 946.734 188.32C945.439 190.481 939.828 193.938 939.828 196.531C939.828 199.124 938.102 202.149 939.396 205.174C940.691 208.199 938.533 210.792 941.123 213.385C943.713 215.978 944.144 219.435 944.144 220.732C944.144 222.028 945.007 226.782 946.302 228.51C947.597 230.239 948.029 233.696 950.618 234.993C952.69 236.03 953.496 238.306 953.64 239.314C954.647 241.187 956.575 245.019 956.229 245.364C955.798 245.796 947.597 254.44 946.734 258.761C945.871 263.083 940.691 270.429 938.102 272.59C935.512 274.751 919.974 287.715 916.521 292.469C913.068 297.223 904.867 305.866 895.372 310.188C885.876 314.509 881.56 318.398 873.791 322.72C866.022 327.042 840.988 343.031 836.24 346.921C831.493 350.81 804.301 367.664 797.827 371.986C791.352 376.307 778.836 381.925 775.383 384.086C771.93 386.247 756.392 398.779 755.097 401.372C753.802 403.965 750.349 407.422 752.939 407.422C755.528 407.422 760.708 405.262 762.866 403.533C765.024 401.804 766.75 402.669 768.045 402.669C769.34 402.669 769.34 405.262 771.498 405.262C773.656 405.262 777.109 405.694 780.13 401.804C783.152 397.915 787.9 395.754 790.921 394.458C793.942 393.161 799.122 389.272 802.143 385.382C805.164 381.493 806.891 378.468 810.344 377.604C813.796 376.739 848.757 363.343 854.8 359.885C860.842 356.428 881.56 347.353 891.487 343.031C901.414 338.71 908.32 335.685 917.816 331.795C927.311 327.906 931.196 324.881 937.238 327.474C943.281 330.067 942.418 336.981 945.439 344.328C948.46 351.674 956.229 372.418 957.956 383.222C959.682 394.026 957.956 403.101 959.682 411.312C961.409 419.523 961.84 426.005 959.682 435.512C957.524 445.02 954.935 466.195 955.366 472.245C955.493 474.023 955.798 475.271 955.798 476.999" stroke="white" stroke-width="3"/>
<circle r="9" transform="matrix(-1 0 0 1 1153 195)" fill="#3CDB4C"/>
<circle r="9" transform="matrix(-1 0 0 1 1103 223)" fill="#3CDB4C"/>
<circle r="9" transform="matrix(-1 0 0 1 1028 254)" fill="#3CDB4C"/>
<circle r="9" transform="matrix(-1 0 0 1 1046 401)" fill="#3CDB4C"/>
<circle r="9" transform="matrix(-1 0 0 1 809 373)" fill="#3CDB4C"/>
<circle r="9" transform="matrix(-1 0 0 1 870 341)" fill="#3CDB4C"/>
<circle r="9" transform="matrix(-1 0 0 1 939 295)" fill="#3CDB4C"/>
<circle r="9" transform="matrix(-1 0 0 1 983 418)" fill="#3CDB4C"/>
<path d="M1152.5 196L1103 224.5L1028.5 254.5L938.5 295.5L869.5 341L809 373.5" stroke="#3CDB4C" stroke-width="2"/>
<path d="M1027.5 254.5L1046 402L982.5 418.5L939 294.5" stroke="#3CDB4C" stroke-width="2"/>
<path d="M370.387 909C371.678 900.932 374.344 883.154 374.688 876.584C375.118 868.372 375.549 865.778 373.828 860.16C372.108 854.541 375.118 815.209 374.688 802.243C374.258 789.276 372.538 763.344 371.247 753.403C369.957 743.462 368.237 740.868 361.785 733.521C355.333 726.173 337.699 711.91 333.398 707.156C329.097 702.401 311.462 686.841 302.43 677.765C293.398 668.688 290.817 666.96 285.226 660.909C279.635 654.858 271.462 644.052 268.882 641.459C266.301 638.866 259.85 636.705 256.409 633.679C252.968 630.653 248.237 627.196 246.946 624.602C245.656 622.009 241.785 618.119 239.635 616.39C237.484 614.662 234.903 613.365 234.043 611.204C233.183 609.043 230.602 607.746 228.452 605.585C226.301 603.424 223.29 599.534 224.151 598.67C225.011 597.805 226.731 596.508 228.451 596.941C230.172 597.373 240.064 601.263 242.645 603.424C245.226 605.585 259.849 618.12 264.15 622.009C268.451 625.899 279.204 634.111 280.925 636.273C282.645 638.434 301.57 650.968 307.161 653.993C312.753 657.019 324.365 665.663 327.376 667.392C330.387 669.121 345.011 679.926 348.451 682.087C351.892 684.248 361.355 690.732 368.236 692.893C375.118 695.054 389.312 698.944 394.903 699.808C399.376 700.5 408.81 699.52 412.968 698.944C413.111 697.791 413.312 695.054 412.968 693.325C412.538 691.164 412.538 690.299 411.677 689.435C410.817 688.571 409.097 684.681 409.097 683.384C409.097 682.087 409.957 679.494 409.097 676.901C408.236 674.307 408.667 668.256 406.946 665.231C405.226 662.205 403.935 658.748 404.796 656.587C405.656 654.426 405.656 649.239 407.376 647.078C409.097 644.917 409.957 641.459 412.968 641.027C415.978 640.595 415.978 640.162 419.849 639.298C423.72 638.434 428.882 636.705 430.602 638.001C432.323 639.298 437.484 638.866 439.204 639.73C440.925 640.595 447.376 643.188 448.667 644.917C449.957 646.646 453.398 647.942 452.968 650.103C452.538 652.264 454.688 653.993 454.688 656.154C454.688 658.316 453.398 659.18 452.968 661.341C452.538 663.502 451.677 666.96 451.247 669.553C450.817 672.146 452.107 678.197 450.387 681.223C448.667 684.248 446.946 687.706 446.516 689.003C446.172 690.04 446.659 695.486 446.946 698.079C451.247 699.088 460.624 701.105 463.72 701.105C467.591 701.105 471.892 703.266 476.624 701.969C481.355 700.673 491.247 695.486 500.71 690.732C510.172 685.977 517.914 681.223 523.935 676.469C529.957 671.714 538.129 663.07 544.581 657.883C551.032 652.697 567.376 635.408 571.247 631.518C575.118 627.628 586.301 616.823 590.172 611.204C594.043 605.585 598.774 599.102 601.785 596.941C604.796 594.78 613.398 587.432 616.839 586.568C620.28 585.703 622 585.703 622 587.432C622 589.161 619.849 592.186 619.419 593.051C618.989 593.915 619.849 596.076 618.129 597.805C616.409 599.534 617.269 599.966 617.699 601.263C618.129 602.559 618.129 607.314 615.118 609.475C612.108 611.636 607.376 614.661 605.226 617.255C603.075 619.848 600.495 623.738 597.914 625.467C595.333 627.196 589.312 631.085 585.871 635.408C582.43 639.73 572.108 657.451 568.237 662.637C564.366 667.824 555.763 676.468 551.462 681.655C547.161 686.841 537.699 699.808 532.968 701.969C528.237 704.13 520.925 714.503 515.333 718.825C509.742 723.147 491.677 736.978 489.097 740.868C486.516 744.758 485.656 752.97 483.935 762.047C482.215 771.123 480.064 793.166 480.495 798.785C480.925 804.404 481.355 822.557 480.064 829.04C478.774 835.523 477.484 842.871 478.344 851.515C479.204 860.159 480.925 859.295 480.064 864.049C479.204 868.804 478.344 872.261 478.774 878.312C479.204 884.363 481.785 896.033 482.215 901.652C482.559 906.147 482.645 908.423 482.645 909" stroke="white" stroke-width="3"/>
<circle cx="270" cy="635" r="9" fill="#3CDB4C"/>
<circle cx="316" cy="674" r="9" fill="#3CDB4C"/>
<circle cx="381" cy="715" r="9" fill="#3CDB4C"/>
<circle cx="400" cy="869" r="9" fill="#3CDB4C"/>
<circle cx="588" cy="624" r="9" fill="#3CDB4C"/>
<circle cx="548" cy="669" r="9" fill="#3CDB4C"/>
<circle cx="470" cy="718" r="9" fill="#3CDB4C"/>
<circle cx="452" cy="871" r="9" fill="#3CDB4C"/>
<path d="M269.5 635L315.5 675L381 715L469.5 718.5L548 669L588.5 623.5" stroke="#3CDB4C" stroke-width="2"/>
<path d="M380.5 714.5L400 869.5L452.5 871L470 717.5" stroke="#3CDB4C" stroke-width="2"/>
<path d="M373.301 476.569C373.157 473.552 372.87 465.965 372.87 459.757C372.87 451.998 374.164 441.221 374.164 436.479C374.164 431.737 373.732 426.133 373.301 422.253C372.87 418.373 372.007 403.286 372.439 398.975C372.87 394.664 372.439 384.749 372.87 375.697C373.302 366.644 374.164 361.04 374.595 355.867C375.026 350.694 376.751 330.002 376.751 324.829C376.751 319.657 379.77 307.155 376.751 306.293C373.733 305.431 368.989 311.897 363.815 314.484C358.64 317.07 347.428 319.656 336.216 324.829C325.004 330.002 316.38 333.882 307.755 337.762C299.131 341.641 277.138 350.694 271.963 352.849C266.789 355.005 257.733 357.591 254.714 361.04C251.696 364.488 249.54 371.386 243.934 372.679C238.328 373.972 231.859 375.697 228.841 377.421C225.822 379.145 221.51 380.438 219.785 379.145C218.405 378.111 215.76 378.714 214.61 379.145C213.46 380.295 210.557 382.939 208.142 384.318C205.123 386.042 203.83 387.767 202.536 386.042C201.242 384.318 202.536 382.163 203.83 381.301C205.123 380.438 209.004 373.541 212.454 371.817C215.904 370.092 225.822 364.488 228.84 362.764C231.859 361.04 246.521 352.418 250.833 348.97C255.145 345.521 287.918 323.967 295.681 317.501C303.443 311.035 316.379 302.413 322.848 298.533C329.316 294.654 332.335 289.481 339.666 287.756C346.997 286.032 356.052 279.135 359.071 275.686C362.089 272.238 368.127 263.616 375.026 260.167C381.926 256.719 388.394 253.27 395.294 253.27C402.194 253.27 401.762 251.546 405.212 248.959C408.662 246.373 413.837 244.218 414.268 241.2C414.699 238.182 412.543 233.441 412.112 231.716C411.767 230.337 410.531 227.693 409.956 226.543C409.381 226.4 408.144 225.509 407.799 223.095C407.368 220.077 406.075 217.491 406.506 215.335C406.937 213.18 406.937 209.3 406.937 207.576C406.937 205.852 405.212 202.403 404.781 200.679C404.35 198.954 403.056 195.937 403.487 193.781C403.918 191.626 403.056 187.315 405.212 186.022C407.368 184.729 409.093 179.556 410.818 179.556C412.543 179.556 416.855 175.245 419.443 175.676C422.03 176.107 428.498 174.383 430.223 175.245C431.948 176.107 436.692 175.676 440.141 177.831C443.591 179.987 450.491 181.28 451.353 184.729C452.216 188.177 454.803 192.057 453.941 194.212C453.078 196.368 451.785 199.385 452.216 204.127C452.647 208.869 452.647 211.887 452.216 214.473C451.785 217.06 450.922 222.664 449.628 225.25C448.593 227.319 448.047 228.699 447.904 229.13C447.041 233.01 445.661 240.941 447.041 241.631C448.766 242.493 455.234 245.511 457.822 248.959C460.409 252.408 462.134 256.288 465.584 256.288C469.034 256.288 478.089 257.15 481.539 261.461C484.989 265.772 494.045 277.842 498.357 282.152C502.669 286.463 505.688 292.498 507.844 293.792C510 295.085 512.587 298.965 516.469 300.258C520.35 301.551 536.736 313.621 540.617 317.932C544.498 322.243 548.379 324.398 557.004 330.433C565.628 336.468 583.74 352.418 587.621 354.574C591.502 356.729 603.145 364.057 606.595 367.937C610.045 371.817 620.394 378.283 623.844 379.576C627.294 380.869 636.349 387.336 638.937 389.922C641.524 392.509 654.461 401.561 655.323 404.579C656.186 407.596 657.048 408.89 652.305 408.027C647.561 407.165 644.974 404.579 643.249 403.286C641.524 401.992 639.799 403.717 638.506 403.717C637.212 403.717 635.918 405.872 633.762 405.441C631.606 405.01 630.744 407.165 626.862 403.717C622.981 400.268 623.844 398.113 617.375 395.095C610.907 392.078 608.32 389.491 605.732 386.042C603.145 382.594 602.283 378.283 596.677 375.697C591.071 373.11 560.454 359.316 553.123 355.867C545.792 352.418 535.011 345.521 531.561 344.228C528.112 342.935 520.35 336.468 513.881 333.451C507.413 330.433 503.1 329.571 500.513 327.416C497.926 325.26 488.008 318.363 483.695 316.639C479.383 314.914 478.089 312.759 478.089 316.208C478.089 319.656 482.402 355.005 481.97 360.609C481.539 366.213 481.108 373.11 481.97 380.869C482.833 388.629 480.677 398.544 481.108 404.579C481.539 410.614 483.264 417.08 482.833 420.529C482.402 423.977 483.264 433.03 484.127 439.927C484.989 446.824 484.558 470.103 484.558 472.689C484.558 474.758 484.558 476.425 484.558 477" stroke="white" stroke-width="3"/>
<circle cx="254" cy="354" r="9" fill="#3CDB4C"/>
<circle cx="604" cy="374" r="9" fill="#3CDB4C"/>
<circle cx="544" cy="337" r="9" fill="#3CDB4C"/>
<circle cx="468" cy="277" r="9" fill="#3CDB4C"/>
<circle cx="455" cy="417" r="9" fill="#3CDB4C"/>
<circle cx="310" cy="322" r="9" fill="#3CDB4C"/>
<circle cx="385" cy="275" r="9" fill="#3CDB4C"/>
<circle cx="401" cy="417" r="9" fill="#3CDB4C"/>
<path d="M254 355L310.5 323L385.5 274.5L468.5 277L544.5 338L603.5 374.5" stroke="#3CDB4C" stroke-width="2"/>
<path d="M385 274.5L401 418L455 417L468.5 276.5" stroke="#3CDB4C" stroke-width="2"/>
</svg>
